<svg width="92" height="83" viewBox="0 0 92 83" fill="none" xmlns="http://www.w3.org/2000/svg">
<g clip-path="url(#clip0_1001_48074)">
<path d="M87.5011 37.2231C87.249 36.1188 86.8524 35.0522 86.3215 34.0506C86.1787 33.7591 86.0117 33.48 85.8222 33.2162C85.7003 33.0482 85.561 32.8934 85.4067 32.7544C85.2257 32.5864 85.0217 32.4447 84.8009 32.3336C84.3463 32.1329 83.8433 32.0676 83.3525 32.1455C83.0362 32.1958 82.7242 32.2696 82.419 32.3663C81.3628 32.6676 80.3136 33.0159 79.2716 33.4112C77.0887 34.2429 74.9888 35.2761 72.9994 36.4972C71.2487 37.6583 69.4209 38.7 67.5287 39.615C66.6715 39.9975 65.7662 40.2627 64.8374 40.4034C63.9415 40.5199 63.0334 40.5082 62.1406 40.3689C61.1285 40.1999 60.1394 39.9147 59.1931 39.519C59.2016 39.4018 59.2168 39.2852 59.2384 39.1697C59.262 38.9886 59.2905 38.7686 59.3679 38.5287C59.4632 38.1004 59.57 37.6341 59.6948 37.1306C59.9363 36.1358 60.2361 34.9973 60.5713 33.7385C60.9065 32.4796 61.2789 31.0874 61.6347 29.5681C62.0234 27.9274 62.3078 26.2639 62.4864 24.5874C62.6805 22.6818 62.6419 20.7596 62.3713 18.8628C62.0769 16.7459 61.3551 14.7099 60.2493 12.8776C59.1026 11.0615 57.5724 9.51588 55.7653 8.34847C54.1525 7.28227 52.3983 6.44557 50.5536 5.86263C47.5461 4.93311 44.4442 4.34048 41.3056 4.09575C38.6958 3.84887 36.5558 3.74851 35.0946 3.71002C33.6334 3.67152 32.8332 3.67941 32.8332 3.67941L34.903 4.06665L37.3898 4.54752C37.3831 4.59927 37.3806 4.61868 37.3806 4.61868C37.3806 4.61868 37.4131 4.6229 37.4521 4.62796C37.491 4.63302 37.4883 4.70502 37.4686 4.75508C37.4386 4.82548 37.4033 4.89346 37.3629 4.95843C37.3386 4.99312 37.3054 5.02062 37.2667 5.03803L37.2147 5.03128L37.1437 5.12072C36.683 5.72998 36.3795 6.4427 36.2599 7.19636C36.1948 7.74393 36.2371 8.29898 36.3844 8.8307C35.3165 8.76435 34.2565 8.7385 33.2037 8.75962C33.3747 8.2694 33.4682 7.75562 33.4807 7.23664C33.4789 6.27394 33.2133 5.32973 32.7127 4.50573C32.5026 4.13915 32.2415 3.80404 31.9371 3.5104C31.7701 3.86552 31.6277 4.23163 31.5108 4.60616C31.2272 5.4486 31.075 6.32948 31.0593 7.21814C31.047 7.77993 31.0936 8.34153 31.1983 8.89382C30.8824 8.91858 30.5679 8.95008 30.2548 8.98834C28.8925 9.1457 27.5541 9.46429 26.2678 9.93737C25.0018 10.4127 23.8354 11.1176 22.8276 12.0164C21.9166 12.8552 21.1126 13.8023 20.4337 14.8366C20.2702 15.0785 20.1132 15.3212 19.9627 15.5648C19.7157 15.3814 19.4608 15.1575 19.2067 14.9272C18.9527 14.6968 18.6937 14.4527 18.4007 14.2173C18.1077 13.9819 17.8381 13.7693 17.5611 13.5623C17.2842 13.3553 17.022 13.1371 16.7913 12.9295C16.692 12.8462 16.5977 12.7571 16.509 12.6626C17.2847 11.4172 18.2475 10.2978 19.364 9.34325C21.183 7.89627 23.2114 6.73155 25.3803 5.88852C27.2114 5.11335 28.6963 4.56291 29.7084 4.19445L31.2737 3.63473C31.2737 3.63473 30.6456 3.69128 29.5011 3.85837C27.8772 4.10119 26.2683 4.43466 24.6821 4.85719C23.5361 5.15526 22.4124 5.53242 21.3191 5.98593C20.0483 6.50827 18.85 7.19043 17.7532 8.01579C15.2337 10.0238 13.3307 12.6959 12.2603 15.7286C11.2022 18.6467 10.5825 21.7048 10.4211 24.804C10.2312 27.5881 10.2296 30.0415 10.1688 32.0859C10.108 34.1303 10.0123 35.7821 9.90426 36.9192C9.87066 37.1779 9.84125 37.4043 9.81436 37.6113C9.23392 38.1104 8.68572 38.6456 8.17305 39.2136C7.75992 39.6994 7.32083 40.1817 6.93911 40.7307C6.53548 41.2768 6.16389 41.8457 5.82619 42.4346C5.51423 43.0058 5.21924 43.5989 4.93556 44.2067L4.80113 43.9196C4.80113 43.9196 4.78434 44.049 4.78404 44.3055C4.77396 44.3831 4.76303 44.4672 4.78374 44.562C4.53334 45.1634 4.31885 45.7791 4.14138 46.4058C3.72532 47.876 3.47789 49.3886 3.40385 50.9146C3.34296 52.5481 3.49013 54.1829 3.84185 55.7799C4.20982 57.479 4.83497 59.1128 5.69583 60.6252C5.92325 61.01 6.17833 61.3852 6.41958 61.7651C6.66082 62.1451 6.98504 62.4964 7.25563 62.8538C7.39026 63.0405 7.53972 63.2161 7.70258 63.3789L8.16506 63.8863C8.50082 64.1996 8.82673 64.5379 9.17801 64.8335C9.62312 65.2202 10.0789 65.5754 10.5429 65.9185C10.5429 65.9185 10.5379 65.9573 10.5337 65.9897C10.5224 66.4637 10.637 66.9324 10.8657 67.3484C11.2441 68.0383 11.7614 68.6429 12.3853 69.1244C12.771 69.4238 13.1769 69.6963 13.6002 69.94C14.0531 70.2159 14.5241 70.4547 15.0298 70.7309C17.4575 72.0472 19.9901 73.1616 22.6017 74.0627C26.0134 75.2735 29.5391 76.137 33.1248 76.6398C36.6847 77.1282 40.284 77.2652 43.8701 77.0488C46.6251 76.8801 49.3624 76.4967 52.0568 75.9019C53.1097 75.7267 54.1227 75.366 55.0483 74.8368C55.2427 74.711 55.4267 74.5699 55.5985 74.4149C55.7578 74.2695 55.9007 74.1072 56.0246 73.9308C56.2424 73.6345 56.4043 73.3011 56.5024 72.947C56.6485 72.4799 56.6395 71.9782 56.4769 71.5163C56.4347 71.4028 56.3802 71.2942 56.3142 71.1926L56.248 71.0919L56.2922 71.2095C56.3336 71.3288 56.364 71.4517 56.3832 71.5765C56.4388 72.0477 56.3398 72.5241 56.1012 72.9344C55.9419 73.2254 55.7314 73.4855 55.4797 73.7022C55.1768 73.948 54.8347 74.1415 54.4675 74.2746C53.5128 74.5754 52.5197 74.7388 51.5183 74.7598C45.4909 75.2555 39.4263 75.0833 33.4357 74.2464C30.1339 73.8064 26.8626 73.1618 23.6409 72.3164C21.0232 71.6295 18.4426 70.8091 15.9092 69.8584L14.3732 69.2774C13.93 69.1036 13.4972 68.9046 13.0768 68.6815C12.4065 68.3398 11.808 67.8736 11.3135 67.3079C10.9982 66.9468 10.786 66.508 10.6992 66.0375C11.6587 66.722 12.6706 67.3307 13.7254 67.8579C15.2346 68.6064 16.8001 69.2364 18.4076 69.7422C19.9619 70.2335 21.489 70.6292 22.9799 70.9478C24.4707 71.2664 25.9187 71.5597 27.336 71.7833C32.2152 72.5686 37.1596 72.8737 42.0977 72.6942C45.2631 72.5867 48.4177 72.269 51.5402 71.7434L52.9661 71.4944L53.9905 71.2855L54.832 71.1119L53.9032 71.1952L52.7874 71.2936L51.6344 71.3741C52.4589 71.1635 53.2681 70.8972 54.0561 70.577L54.4802 70.5663C55.7463 70.5232 57.0084 70.4015 58.2591 70.202C59.193 70.0477 60.1095 69.8032 60.9957 69.4721C61.5126 69.278 62.0133 69.0439 62.4934 68.772C63.0198 68.471 63.5097 68.1109 63.9537 67.6987C64.9791 66.7647 65.7482 65.5855 66.1886 64.2725C66.4428 63.532 66.5598 62.7515 66.534 61.969C66.5146 61.7626 66.4952 61.5562 66.4701 61.3424C66.445 61.1287 66.4008 61.0111 66.3634 60.8418L66.2832 60.5946L66.1802 60.3707L66.2776 60.3834L66.3945 60.3985C66.4753 60.4021 66.5562 60.3949 66.6351 60.3772L66.905 60.3333L66.9699 60.3417L67.1009 60.2995L67.3685 60.2225C68.0953 60.0006 68.7894 59.6837 69.4326 59.2802C70.0889 58.8613 70.7023 58.3791 71.2641 57.8407C71.8357 57.2903 72.367 56.6999 72.8541 56.0739C73.8549 54.7542 74.734 53.3471 75.4806 51.8697C76.2365 50.3716 77.0717 48.9145 77.9827 47.5047C78.863 46.0809 80.0465 44.8671 81.4495 43.949C81.6224 43.8393 81.8028 43.7418 81.9894 43.6574L82.2645 43.5221L82.5501 43.4079C82.9622 43.2523 83.3829 43.1203 83.8101 43.0124C84.3556 42.8754 84.8866 42.6867 85.3958 42.4488C85.6964 42.3004 85.9776 42.1161 86.2332 41.8997C86.3665 41.7876 86.4906 41.6652 86.6044 41.5335C86.7293 41.4089 86.8401 41.2711 86.9352 41.1226C87.3193 40.5453 87.553 39.8817 87.6153 39.1915C87.6826 38.5336 87.644 37.8691 87.5011 37.2231ZM60.4154 22.0227C60.4704 23.0231 60.4686 24.003 60.4304 24.9584C60.4119 25.1007 60.3951 25.2301 60.3766 25.3724C59.8476 25.3126 59.3122 25.3501 58.797 25.483C58.1822 25.6797 57.6146 26 57.1293 26.4241C56.8656 26.6292 56.6161 26.8517 56.3824 27.0901C56.6301 27.3109 56.9126 27.4898 57.2184 27.6197C57.9205 27.931 58.7092 27.9892 59.4491 27.7844C59.7051 27.7051 59.9515 27.5982 60.184 27.4655C60.0807 28.2611 59.9807 29.0309 59.8841 29.7748C59.6875 31.2885 59.454 32.679 59.2642 33.9371C59.0744 35.1951 58.9525 36.337 58.824 37.3267C58.7601 37.8183 58.7394 38.2827 58.7173 38.7073L58.6778 39.0114C58.6635 39.1213 58.6501 39.2248 58.6821 39.3342C58.0951 39.0738 57.5236 38.7957 56.9676 38.4998C55.974 37.9629 55.0196 37.3785 54.083 36.8096C54.3845 35.4542 55.2222 31.6492 56.3297 26.1229C56.5024 25.2507 56.681 24.3333 56.8711 23.3779C56.9224 22.9833 57.0273 22.5825 57.1022 22.1581L57.3259 22.2661C58.1482 22.5911 59.0656 22.5803 59.8792 22.2359C60.0553 22.1787 60.2261 22.1063 60.3895 22.0194L60.4154 22.0227ZM40.7319 5.25789C43.6868 5.83268 46.5922 6.63672 49.4216 7.66265C51.1045 8.29258 52.7088 9.11458 54.2021 10.1122C54.5689 10.3901 54.965 10.6455 55.3138 10.9604L55.8553 11.4189L56.3649 11.9192L56.6229 12.1698L56.8581 12.4437L57.335 12.9924L57.7597 13.587L57.9786 13.8851L58.1755 14.2001C59.1605 15.86 59.8192 17.6913 60.1164 19.5961C60.1164 19.5961 60.108 19.6608 60.103 19.6996C59.7181 19.7728 59.3412 19.8825 58.9773 20.027C58.3788 20.3073 57.8149 20.6556 57.297 21.0651C57.3306 20.8064 57.3659 20.5347 57.3557 20.2571C57.4056 19.0002 57.0851 17.7558 56.4337 16.6774C55.7602 15.5857 54.8876 14.629 53.861 13.8568C52.8214 13.0585 51.6851 12.3938 50.4789 11.8783C49.2465 11.3602 47.9774 10.9337 46.6819 10.6023C45.4048 10.2654 44.0599 9.99208 42.7134 9.73168C41.3669 9.47127 39.9755 9.25109 38.5571 9.08659L38.1154 9.02922C38.3606 8.57089 38.5235 8.0734 38.597 7.55912C38.6895 6.78625 38.5822 6.00244 38.2851 5.28213L38.2918 5.23038L38.2986 5.17863C38.2909 5.11629 38.2719 5.05586 38.2425 5.00032C38.2024 4.91102 38.1485 4.82855 38.0827 4.75591L38.0372 4.75001L40.7319 5.25789ZM19.8377 19.1203C20.3354 18.2378 20.9257 17.354 21.5502 16.4616C22.185 15.5619 22.9063 14.7259 23.7038 13.9655C24.5259 13.2061 25.4841 12.6075 26.5286 12.2011C27.6728 11.7654 28.8688 11.4785 30.087 11.3477C32.8159 11.0823 35.5665 11.1262 38.286 11.4786C39.7279 11.6659 41.1438 11.8498 42.5293 12.1153C43.9148 12.3807 45.2574 12.6209 46.5305 12.9376C48.9 13.4262 51.1383 14.4121 53.0963 15.8295C53.93 16.4496 54.6242 17.2366 55.1342 18.1399C55.3651 18.5475 55.5307 18.9885 55.6249 19.4469C55.7022 19.9139 55.7336 20.3872 55.7187 20.8601C55.687 21.8164 55.5316 22.8092 55.4324 23.7764C55.3332 24.7437 55.1913 25.633 55.1185 26.4984C54.5171 31.8404 54.1962 35.4298 54.0816 36.7699L52.4476 35.7223C50.9603 34.7661 49.4988 33.8658 48.0497 33.0725C45.5947 31.6729 42.9783 30.5754 40.2582 29.8042C40.5364 29.1413 40.7288 28.4457 40.8309 27.7342C40.9145 27.161 40.9434 26.5811 40.9171 26.0023C40.8886 25.2576 40.7021 24.5272 40.3699 23.8592C40.1496 23.4667 39.8622 23.1155 39.5206 22.8214C39.1583 22.5065 38.7438 22.2567 38.2956 22.0834C37.4143 21.7682 36.4681 21.677 35.5429 21.818C34.6844 21.9417 33.8538 22.2121 33.0879 22.6174C32.375 22.9867 31.7308 23.4748 31.1833 24.0605C30.6839 24.5912 30.286 25.2082 30.0089 25.8813C29.7823 26.4579 29.6581 27.0695 29.6421 27.6886C29.6231 28.3342 29.7399 28.9768 29.9849 29.575C28.9747 29.8225 27.9929 30.1733 27.0552 30.6219C26.0733 31.0897 25.1507 31.672 24.3069 32.3567C23.891 32.3553 23.4102 32.3454 22.8625 32.3927L21.9898 32.4504L21.0291 32.5756C20.6942 32.611 20.3544 32.6853 19.982 32.7553C19.6097 32.8253 19.2317 32.8881 18.847 33.0025C17.6809 33.2878 16.5404 33.6676 15.4368 34.1383L15.4452 34.0736C15.4611 33.5955 15.5137 32.8853 15.62 31.9651C15.9292 29.3126 16.5537 26.7065 17.4804 24.2014C18.117 22.4428 18.9058 20.7428 19.8377 19.1203ZM19.9576 49.927L19.9307 50.134L19.9232 50.1922C19.9232 50.1922 19.9181 50.231 19.8791 50.226C19.8782 50.215 19.8797 50.204 19.8833 50.1936C19.8833 50.1936 19.8833 50.1936 19.7918 50.1357L19.5107 49.961C19.3948 49.8868 19.2846 49.8199 19.1761 49.74C18.9509 49.5923 18.7404 49.4334 18.5299 49.2745C17.3398 48.3519 16.3253 47.2243 15.5346 45.9452C14.886 44.8666 14.4077 43.6952 14.1166 42.4721C14.2168 42.1664 14.2844 41.8511 14.3181 41.5313C14.3676 41.1496 14.3642 40.8203 14.3712 40.512C14.3782 40.2038 14.3779 39.9011 14.3832 39.6058C14.3866 39.0208 14.3775 38.4803 14.3691 37.9858C14.349 37.1741 14.3122 36.4918 14.2746 35.9673C14.642 35.7322 14.9938 35.5148 15.3773 35.308L16.373 35.9307C17.5627 36.6429 18.7905 37.2899 20.051 37.8687C20.3939 38.0251 20.7572 38.1775 21.1391 38.3389C21.2687 38.5222 21.3805 38.7173 21.4729 38.9217C21.6727 39.3437 21.8124 39.7913 21.8879 40.2517C21.3712 39.1453 21.0207 38.488 21.0207 38.488C21.0013 39.4905 21.0543 40.4932 21.1791 41.4884C21.264 42.1572 21.3798 42.9944 21.5287 43.8821C21.3472 44.5163 21.1218 45.1843 20.8741 45.9217C20.5497 46.8244 20.2905 47.7492 20.0986 48.6889C20.065 48.9477 20.0305 49.2129 19.9953 49.4846C19.9807 49.6472 19.9696 49.7838 19.9576 49.927ZM21.6858 38.7059L21.4812 38.5018C22.9995 39.124 24.5537 39.6553 26.1355 40.093C27.2121 40.3973 28.3661 40.6655 29.5844 40.8961C29.5353 40.9687 29.4437 41.1147 29.3079 41.347C29.0271 41.8242 28.7714 42.3158 28.542 42.8196C28.1818 43.5893 27.8736 44.3821 27.6196 45.1928C27.4729 45.6606 27.3343 46.1688 27.2126 46.6989C27.1949 46.8348 27.1773 46.9706 27.1272 47.1022L27.0994 47.3157C27.0994 47.3157 27.0994 47.3157 27.0944 47.3545C27.0793 47.3771 27.0559 47.393 27.0292 47.3987C27.0072 47.402 26.9847 47.3991 26.9643 47.3903L26.9188 47.3844C26.5535 47.2963 26.2002 47.1643 25.8669 46.9912C25.3816 46.7346 24.9512 46.386 24.6001 45.9649C24.2602 45.5097 23.9829 45.0113 23.7754 44.483C23.5527 43.9608 23.333 43.4652 23.1174 42.9899C23.1266 42.4975 23.0866 42.0053 22.9978 41.5207C22.8381 40.4775 22.383 39.501 21.6858 38.7059ZM20.7151 36.8236C18.9731 36.3539 17.5744 35.9354 16.6099 35.6326L15.4563 35.2591C16.4772 34.6954 17.5404 34.2111 18.6364 33.8106C19.3939 33.5209 20.1233 33.3459 20.7984 33.131C21.4736 32.9161 22.0938 32.8191 22.6686 32.7161L23.4726 32.5772L24.0211 32.5235L23.6158 32.8984L23.4062 33.0882L23.6556 32.897C23.7859 32.8087 23.9433 32.6647 24.1617 32.5088L24.7712 32.4433L25.2831 32.4177L26.2061 32.3797L25.3558 32.3153L24.8817 32.2537C24.7583 32.2377 24.6284 32.2208 24.4861 32.2484C25.4211 31.6218 26.43 31.1122 27.4901 30.731C28.3801 30.4165 29.2949 30.1766 30.2251 30.014C30.3338 30.2047 30.4663 30.381 30.6192 30.5388L30.7696 30.7031L30.716 30.5053C30.6624 30.3242 30.6246 30.1389 30.6031 29.9513C31.3747 29.8693 32.1509 29.8382 32.9267 29.8584C35.3676 29.8347 37.7943 30.2367 40.0969 31.0462C42.9056 32.0493 45.5838 33.3843 48.0738 35.0227C49.4187 35.8551 50.7558 36.7984 52.161 37.7768C51.0292 38.2423 49.8488 38.581 48.6417 38.7866C47.7694 38.943 46.8022 39.0673 45.7604 39.1557C44.7186 39.244 43.5771 39.2865 42.3893 39.3296C39.7959 39.405 37.2002 39.3445 34.6129 39.1483C29.9195 38.7947 25.2678 38.0166 20.7151 36.8236ZM30.8164 27.953C31.1079 27.0207 31.6751 26.198 32.4439 25.5924C32.9169 25.2372 33.4366 24.9484 33.9886 24.734C34.5906 24.4786 35.2218 24.2977 35.8682 24.1954C36.4474 24.1031 37.0398 24.133 37.607 24.2831C38.0493 24.4147 38.4312 24.6972 38.6856 25.081C38.9686 25.5085 39.1774 25.9804 39.3034 26.4768C39.4356 26.9533 39.5404 27.4369 39.6172 27.9252C39.7036 28.522 39.7512 29.1236 39.7598 29.7263L39.5974 29.7053C37.1989 29.1 34.7113 28.9284 32.2529 29.1986C31.6694 29.2675 31.1084 29.3657 30.5791 29.4746C30.5794 28.9647 30.6585 28.458 30.8139 27.9724L30.8164 27.953ZM12.4252 25.3406C12.6034 23.9692 12.8613 22.5424 13.1853 21.065C13.5182 19.5337 13.9609 18.0282 14.5101 16.5602C14.8292 15.7097 15.1995 14.8791 15.6191 14.0731C15.6498 14.2533 15.7 14.4296 15.7687 14.599C15.9764 15.1722 16.3329 15.6803 16.8019 16.0717C17.2708 16.4631 17.8355 16.7237 18.4382 16.827C18.6927 16.877 18.9527 16.8931 19.2113 16.8748C19.0467 17.1758 18.8805 17.4897 18.7258 17.7656C17.8144 19.5363 17.074 21.3893 16.5143 23.2998C16.1281 24.619 15.8322 25.9629 15.6286 27.3222C15.5397 27.2974 15.4534 27.2641 15.3707 27.2229C14.9632 26.985 14.5288 26.7961 14.0767 26.6602C13.5304 26.5782 12.9734 26.6019 12.4363 26.73L12.2599 26.7663C12.2936 26.3036 12.3499 25.8702 12.4227 25.36L12.4252 25.3406ZM10.2424 37.0617C10.7001 35.5608 11.064 34.0329 11.3319 32.4869C11.5714 31.2024 11.79 29.6719 12.0238 28.0249C12.3371 28.4491 12.7771 28.7638 13.2807 28.9237C13.7844 29.0837 14.3258 29.0807 14.8273 28.9152C15.0306 28.8429 15.2233 28.744 15.4005 28.6213C15.2915 29.6343 15.2342 30.6521 15.2289 31.6709C15.2235 32.1701 15.2387 32.6128 15.2557 32.99C15.2728 33.3671 15.2892 33.6982 15.3093 33.9507L15.3272 34.1175C14.7755 34.3484 14.217 34.6311 13.6577 34.9202C12.4252 35.5836 11.2616 36.3667 10.1839 37.2581C10.2222 37.217 10.2436 37.154 10.2658 37.0845L10.2424 37.0617ZM6.48074 45.6835L6.79573 44.7838C6.89451 44.4809 7.0484 44.2115 7.16499 43.924C7.41367 43.3648 7.69178 42.8191 7.99817 42.2891C8.1577 42.027 8.32854 41.7795 8.48639 41.5303C8.56899 41.4029 8.65073 41.2819 8.72682 41.1537L8.99724 40.8007L9.52336 40.106L10.0956 39.4633C10.4574 39.017 10.8619 38.6485 11.2624 38.2598C11.6629 37.8711 12.0762 37.5367 12.4895 37.2023L13.1121 36.7306L13.4259 36.5017L13.5497 36.4125C13.4296 36.7785 13.3026 37.1961 13.1608 37.6776C13.0191 38.1591 12.8821 38.6544 12.7432 39.2152C12.6738 39.4956 12.5961 39.7881 12.5233 40.0944C12.4505 40.4007 12.3809 40.7337 12.3131 41.0012C12.2518 41.2559 12.1599 41.5024 12.0394 41.7352C11.9014 41.9774 11.7434 42.2077 11.5669 42.4237C11.3701 42.6679 11.1228 42.9449 10.8754 43.2219L10.1041 44.0756C9.40554 44.8268 8.72498 45.5409 8.09095 46.2018L7.63154 46.6881C7.55482 46.7703 7.4846 46.8532 7.40873 46.9289L7.30833 47.0408C7.269 47.1447 7.21847 47.244 7.15759 47.337C7.05206 47.3238 6.95378 47.2763 6.87792 47.202C6.84673 47.183 6.81861 47.1594 6.79454 47.132C6.73794 47.0728 6.68658 47.0089 6.64103 46.941C6.53924 46.8094 6.43746 46.6778 6.34867 46.5478C6.32099 46.5086 6.2954 46.4679 6.27201 46.426C6.33955 46.2112 6.40647 45.9502 6.4912 45.7046L6.48074 45.6835ZM51.3624 70.977L50.6507 71.3713C49.2402 71.4512 47.4942 71.5204 45.4666 71.5202L45.9471 71.4313C45.9471 71.4313 45.4989 71.3731 44.6481 71.2626C43.7973 71.1521 42.5873 71.0607 41.0658 70.8762C39.264 70.6833 37.4815 70.3396 35.7373 69.8487C33.5876 69.2416 31.5943 68.1795 29.8938 66.7348L29.5694 66.4361L29.2669 66.1206L29.1966 66.0522C29.1966 66.0522 29.1316 66.0438 29.1497 66.0067C29.148 65.9957 29.1494 65.9845 29.1539 65.9743L29.2058 65.9811L29.605 65.908C29.8692 65.8568 30.1357 65.8388 30.3918 65.7997C30.6478 65.7606 30.9078 65.7417 31.1605 65.7285C34.027 65.5174 36.9051 65.952 39.5813 66.9998C40.1112 67.544 40.6732 68.0563 41.2643 68.534C42.0183 69.1563 42.8323 69.7026 43.6943 70.1652C44.3472 70.501 45.0349 70.7646 45.7452 70.9512C46.1856 71.0671 46.6346 71.1474 47.0878 71.1914L47.5531 71.2189L47.1402 71.093C46.7459 70.9656 46.3597 70.8144 45.9838 70.6402C44.599 69.9545 43.3524 69.0211 42.3061 67.8865C41.5514 67.1059 40.8632 66.264 40.2487 65.3697C39.9133 64.8881 39.626 64.3749 39.391 63.8375C39.1496 63.2773 38.973 62.6916 38.8648 62.0917C38.6352 60.7664 38.7035 59.4071 39.0648 58.1118C39.4697 56.6656 40.1754 55.3207 41.1362 54.1644C41.7135 53.4579 42.3575 52.808 43.0592 52.2237C43.2296 52.0814 43.3983 51.952 43.567 51.8226L43.8164 51.6314L43.8815 51.5872C43.8962 51.5754 43.9091 51.5616 43.9199 51.5462C43.9309 51.5435 43.9424 51.5451 43.9524 51.5504C43.9617 51.5457 43.9723 51.5439 43.9828 51.5452C43.9932 51.5466 44.003 51.551 44.0108 51.558L44.0041 51.6097L44.1012 52.0828C44.2309 52.7114 44.3501 53.3189 44.4572 53.9182C44.686 55.1057 44.8753 56.2419 45.0438 57.2834C45.3281 59.1621 45.5541 60.8293 45.7227 62.226C45.5767 62.9438 45.483 63.5631 45.4313 64.0629C45.3796 64.5627 45.3594 64.9218 45.3461 65.1766L45.342 65.5642L45.4458 65.2225C45.5142 65.0011 45.6237 64.6667 45.7774 64.246C45.7841 64.1942 45.7925 64.1295 45.839 64.0764C45.8568 64.7901 45.8083 65.5038 45.6942 66.2085C45.643 66.6031 45.5515 66.9004 45.4986 67.104L45.4072 67.4013L45.5774 67.1077C45.7307 66.8179 45.8665 66.5192 45.9842 66.2133C46.4495 65.0522 46.7376 63.828 46.839 62.5815C46.8667 62.368 46.8636 62.1374 46.871 61.9279C47.0448 61.5558 47.235 61.1595 47.4407 60.7455C47.8154 59.996 48.2457 59.1749 48.7315 58.282C49.2154 57.4042 49.737 56.4392 50.3179 55.4754C50.9022 54.4808 51.592 53.5515 52.3753 52.7036C52.788 52.284 53.2377 51.9022 53.7189 51.5625L54.0871 51.3209L54.2801 51.2079L54.3191 51.2129L54.3572 51.4284L54.4356 51.8924C54.4617 52.0471 54.4675 52.2057 54.4872 52.3596C54.507 52.6647 54.5666 52.9685 54.5596 53.2767C54.6227 54.4342 54.5583 55.5949 54.3676 56.7381C54.0712 58.6412 53.4616 60.4822 52.5635 62.187C51.9714 63.3189 51.2552 64.3819 50.428 65.3565C50.1447 65.7078 49.8959 65.9452 49.7408 66.1224L49.5016 66.3873L49.825 66.1859L50.2273 65.9356L50.5239 65.7373L50.2476 66.1356C49.7906 66.8064 49.5705 67.179 49.5705 67.179L50.5863 66.3243C51.2419 65.7516 52.1915 65.0001 53.4035 64.059C54.0106 63.6051 54.6813 63.1199 55.4081 62.6091C56.1349 62.0984 56.9325 61.5508 57.746 61.0842C58.5295 60.5957 59.4002 60.2621 60.3107 60.1017C60.5151 60.072 60.722 60.0636 60.9282 60.0766L60.9206 60.1349C60.3712 62.1091 59.415 63.9473 58.1127 65.5324C57.0154 66.8643 55.7516 68.0508 54.3518 69.063C53.4002 69.7691 52.4053 70.4154 51.3728 70.9981L51.3624 70.977ZM85.0965 39.5156C84.972 39.7674 84.7848 39.9831 84.5528 40.1422C84.2372 40.3384 83.8952 40.4889 83.5371 40.5892C83.123 40.7262 82.6457 40.8418 82.1591 41.0285L81.4137 41.3264C81.1679 41.4392 80.9391 41.5739 80.7054 41.6948C78.9919 42.7341 77.5502 44.1631 76.4983 45.8647C75.5485 47.3658 74.6992 48.9277 73.9559 50.5403C73.5919 51.3087 73.242 52.0197 72.8612 52.7135C72.4805 53.4074 72.0715 54.0647 71.6464 54.6936C70.8584 55.8899 69.8706 56.9429 68.7257 57.8071C68.456 58.004 68.1765 58.1872 67.8883 58.3561C67.6026 58.5028 67.308 58.6315 67.006 58.7414L66.7839 58.8244L66.6733 58.8626L66.6148 58.855L66.5239 58.8432L65.7735 58.976C65.2914 59.0778 64.6894 59.0851 64.2414 59.1783L64.6977 59.9874L65.0987 60.8157C65.1293 60.881 65.1559 60.9482 65.1782 61.0168L65.223 61.1804L65.2854 61.4122C65.3245 61.5686 65.336 61.7345 65.3621 61.8892C65.4248 62.5225 65.3753 63.1618 65.2159 63.7778C65.0666 64.3765 64.8319 64.9508 64.5189 65.483C64.2334 65.9963 63.8854 66.4725 63.4828 66.9008C63.2966 67.1135 63.0822 67.2895 62.8856 67.4811C62.6786 67.6564 62.4611 67.8193 62.2345 67.9688C61.8077 68.2603 61.3591 68.5187 60.8924 68.7417C60.0601 69.1282 59.1931 69.4362 58.3029 69.6617C57.0585 69.9647 55.7962 70.1896 54.5235 70.3351L54.3357 70.3567L54.7972 70.1601C56.5117 69.4124 58.0876 68.383 59.4592 67.1149C61.2788 65.3811 62.5911 63.187 63.2557 60.7671L63.2784 60.5924C63.2885 60.5148 63.2986 60.4372 63.3087 60.3595C63.3188 60.2819 63.3473 60.062 63.3666 59.9132L63.4238 59.4733C63.4529 59.3346 63.4535 59.1915 63.4256 59.0526C63.3742 58.791 63.2529 58.5479 63.0745 58.3492C62.9878 58.255 62.8899 58.1716 62.7831 58.1008L62.4003 57.9459C62.1344 57.8378 61.8543 57.7682 61.5686 57.7392C61.4233 57.7072 61.2755 57.688 61.1269 57.6818L60.7768 57.6824C60.4074 57.6933 60.0402 57.7426 59.6812 57.8295C58.4697 58.1482 57.3399 58.7188 56.3662 59.5038C55.794 59.9426 55.3023 60.3721 54.844 60.7993C54.8559 60.7692 54.8707 60.7403 54.8882 60.713C55.0037 60.4846 55.1452 60.2596 55.2559 60.0174C55.7557 58.9798 56.1448 57.8927 56.4169 56.774C56.7118 55.5142 56.8593 54.2244 56.8567 52.9305C56.8425 52.2402 56.7841 51.5516 56.682 50.8686L56.6243 50.4993C56.6047 50.3455 56.5599 50.1818 56.5264 50.0328C56.44 49.7321 56.3535 49.4314 56.2744 49.1252L56.0168 48.2103L55.9999 47.9844L56.0066 47.9327L55.9547 47.9259L55.8375 47.9633L55.382 48.1147C54.7714 48.2949 54.1764 48.5233 53.6025 48.7979L53.1775 49.0189C53.0635 49.0831 53.0048 49.1281 52.9128 49.1753L52.4484 49.4965C51.8583 49.9164 51.3187 50.4025 50.8402 50.9453C49.977 51.9229 49.2549 53.0158 48.6947 54.1923C48.158 55.2738 47.7604 56.3009 47.3777 57.2642C47.2183 57.6776 47.0728 58.0863 46.9354 58.4828C46.9238 57.9617 46.901 57.4259 46.8806 56.8707C46.8292 55.7918 46.7407 54.6424 46.6127 53.4417C46.5519 52.8418 46.4734 52.2265 46.3891 51.6038L46.3189 51.1276C46.2805 50.832 46.2237 50.539 46.1488 50.2504C46.0804 49.9848 45.9546 49.7371 45.7803 49.5248C45.606 49.3124 45.3873 49.1404 45.1395 49.0208C44.8086 48.8695 44.4395 48.8215 44.0808 48.8833C43.8895 48.921 43.7038 48.9831 43.5285 49.0681C43.3445 49.1626 43.171 49.2782 42.9918 49.3865L42.7263 49.5493L42.6611 49.5935L42.6221 49.5884L42.5496 49.6382L42.2449 49.8486C42.0468 50.0005 41.8366 50.1442 41.6442 50.3034C40.8085 50.9657 40.0467 51.7159 39.3723 52.5408C38.253 53.8963 37.4454 55.4798 37.0063 57.18C36.5982 58.7668 36.5658 60.4266 36.9115 62.0288C37.2088 63.3713 37.8006 64.632 38.6445 65.7204C38.0181 65.3573 37.3663 65.0396 36.6942 64.7699C36.3131 64.602 35.8928 64.4816 35.4638 64.3272C35.0347 64.1728 34.5665 64.0659 34.0827 63.9768C33.0456 63.7488 31.9877 63.6291 30.9259 63.6194C30.3452 63.6085 29.7643 63.6319 29.1864 63.6895L28.9589 63.7125C28.839 63.7227 28.7198 63.7402 28.602 63.7649L27.8094 63.9184L27.0093 64.0776L26.2238 64.2782L25.4365 64.4917L25.3341 64.5178C25.3502 64.5478 25.3686 64.5766 25.3889 64.6039L25.4922 64.7752L25.7181 65.1203C26.0078 65.5854 26.3047 66.045 26.6023 66.5507L27.172 67.2496L27.4507 67.5949L27.648 67.8047C27.8793 68.0584 28.126 68.2944 28.3759 68.5571C29.1611 69.2483 30.026 69.8442 30.9522 70.3323C29.6591 70.1183 28.3694 69.8784 27.0392 69.5938C24.2286 69.0233 21.4583 68.2702 18.7461 67.3392C17.3362 66.8446 15.9633 66.2509 14.6377 65.5624C13.3001 64.8543 12.0465 63.9986 10.9007 63.0115C10.6085 62.7696 10.3529 62.4996 10.0754 62.2465C9.79785 61.9934 9.55783 61.7057 9.31697 61.4245L8.63673 60.5599L8.02898 59.6456C7.2852 58.4137 6.71319 57.0869 6.32872 55.7017C5.9541 54.3557 5.75263 52.968 5.72914 51.5718C5.71147 50.8917 5.72931 50.2112 5.7826 49.533C5.82545 49.2031 5.86662 48.8861 5.91115 48.5433L5.92627 48.4269C6.21085 48.9309 6.55788 49.4627 6.95264 50.0336C7.44165 49.6586 7.98696 49.2229 8.58859 48.7266L8.81034 48.5449L8.94237 48.4437L9.20644 48.2412L9.7526 47.799C10.5477 47.1517 11.3001 46.454 12.0052 45.7104C12.3603 45.3158 12.6942 44.9316 13.0046 44.5246C13.1706 45.2329 13.4037 45.9239 13.7008 46.5884C14.1891 47.6949 14.8416 48.722 15.6365 49.6355C16.0704 50.1292 16.5403 50.5904 17.0423 51.0152C17.2998 51.2197 17.5685 51.4388 17.8536 51.6337C17.9922 51.7385 18.136 51.8362 18.2845 51.9264L18.5041 52.0668L18.6143 52.1337L18.7934 52.2293C19.1757 52.4526 19.5709 52.6532 19.9768 52.8303L20.6027 53.0958C20.803 53.181 20.9993 53.246 21.1883 53.3166C21.919 53.5891 22.782 53.9117 23.2257 54.0548L22.6269 52.0037C22.5765 51.8327 22.5421 51.6901 22.503 51.5337C22.4639 51.3774 22.4174 51.2266 22.4017 51.093C22.3704 50.8258 22.3269 50.5505 22.3199 50.2996L22.3185 50.056L22.3403 49.8879C22.3546 49.7779 22.3697 49.6614 22.3515 49.5473C22.3807 49.323 22.3957 49.1057 22.3966 48.8953C22.4806 48.2484 22.5646 47.6016 22.6865 47.0188C22.7082 47.051 22.7281 47.0844 22.7462 47.1187C23.2621 47.9376 23.9866 48.606 24.8459 49.0556C25.1332 49.2078 25.4322 49.3369 25.7402 49.4414L26.1929 49.566L26.4268 49.5964L26.5372 49.6107C26.5843 49.6202 26.6321 49.6264 26.6801 49.6293C26.8948 49.6694 27.1117 49.6975 27.3296 49.7136C27.5554 49.7035 27.7836 49.7266 27.9917 49.701L29.1644 49.5704C29.1946 48.9824 29.2295 48.408 29.262 47.8531L29.3073 47.5038L29.3334 47.3033C29.351 47.1675 29.3678 47.0381 29.3522 46.9045C29.3748 46.3746 29.394 45.8706 29.4285 45.4015C29.4837 44.468 29.5441 43.647 29.6055 42.9709C29.6669 42.2948 29.7098 41.761 29.7365 41.4027C29.7693 41.1504 29.7912 40.9822 29.8012 40.9046C34.1737 41.7335 38.6492 41.8708 43.0631 41.3115C45.1702 41.0632 47.2423 40.5799 49.2406 39.8708C50.4396 39.4382 51.5698 38.8362 52.5967 38.0834C53.9869 39.0731 55.435 39.9795 56.9334 40.7976C58.7166 41.7934 60.6768 42.4345 62.7049 42.6852C63.7958 42.8022 64.8981 42.7524 65.9735 42.5375C67.045 42.3122 68.0859 41.9616 69.0746 41.4932C71.0354 40.5836 72.7822 39.3896 74.5413 38.3551C76.3196 37.306 78.1838 36.4083 80.114 35.6716C81.0587 35.3141 81.9983 34.9954 82.9515 34.7246C83.1849 34.6562 83.446 34.5783 83.5883 34.5507C83.6415 34.5412 83.6952 34.535 83.7492 34.5322L83.8131 34.5997C83.9176 34.7226 84.0065 34.8579 84.0778 35.0024C84.5086 35.786 84.844 36.6179 85.0768 37.4805C85.3215 38.1427 85.3322 38.8681 85.107 39.5367L85.0965 39.5156Z" fill="#8FBA64"/>
</g>
<defs>
<clipPath id="clip0_1001_48074">
<rect width="82" height="73" fill="white" transform="translate(10 0.0230713) rotate(7.40044)"/>
</clipPath>
</defs>
</svg>
