<svg width="111" height="83" viewBox="0 0 111 83" fill="none" xmlns="http://www.w3.org/2000/svg">
<g clip-path="url(#clip0_1001_48061)">
<path d="M11.3844 32.5189C10.2216 33.7325 9.21157 35.0853 8.3769 36.5471C7.20488 38.5813 6.53704 40.8698 6.42992 43.219C6.3717 44.6328 6.56819 46.0455 7.00988 47.3889C7.52794 48.887 8.33932 50.2652 9.39596 51.4421C10.5328 52.6833 11.8549 53.7384 13.3148 54.5695C14.8424 55.4346 16.4453 56.1576 18.1035 56.7295C19.7605 57.33 21.5583 57.8304 23.3396 58.2891C25.1209 58.7478 26.9933 59.2064 28.9071 59.6318C32.938 60.54 37.0185 61.2083 41.1275 61.6333C49.0164 62.548 57.0045 62.0196 64.7066 60.0738C67.9735 59.2159 71.0719 57.8059 73.8699 55.9039C76.3046 54.2764 78.2979 52.0635 79.6693 49.4655C80.2079 48.344 80.6139 47.1628 80.879 45.9461C80.9987 45.3566 81.0844 44.7608 81.1358 44.1614L81.2435 44.0196C81.7621 43.2739 82.1023 42.4176 82.2377 41.5176C82.3394 40.8464 82.297 40.1611 82.1134 39.5077C81.9021 38.7881 81.4771 38.1508 80.8956 37.6813C80.553 37.4028 80.1586 37.1958 79.7356 37.0725C79.7113 37.018 79.6836 36.9651 79.6528 36.914L79.1888 36.2051C78.874 35.7965 78.5923 35.4629 78.3603 35.2044L77.5898 34.4788L78.3189 35.3545C78.6724 35.8657 78.9908 36.4007 79.2717 36.9557L79.0066 36.9391C78.4502 36.89 77.8897 36.938 77.3496 37.0808C76.5111 37.3219 75.7186 37.7025 75.0049 38.2067C74.4176 38.5964 73.8634 39.0343 73.3479 39.5161C73.1739 39.6829 73.0165 39.8413 72.8756 39.9998C73.2169 39.1463 73.4938 38.2681 73.7041 37.3727C73.9054 36.5643 74.0467 35.742 74.1267 34.9125C74.1456 34.6599 74.1456 34.4062 74.1267 34.1535C74.1446 33.9705 74.1446 33.7861 74.1267 33.6031C74.0936 33.3964 74.0438 33.1928 73.9776 32.9943C73.8385 32.598 73.6085 32.2404 73.3061 31.9505C73.0038 31.6607 72.6377 31.4468 72.2377 31.3263C72.0329 31.2586 71.822 31.2111 71.6081 31.1846C71.4123 31.1687 71.2156 31.1687 71.0198 31.1846C70.7186 31.1961 70.4192 31.2352 70.1251 31.3013C69.5722 31.4291 69.0434 31.646 68.5592 31.9435C67.8659 32.3763 67.265 32.9434 66.7913 33.612C66.3177 34.2807 65.9808 35.0374 65.8003 35.8382C65.4006 35.2838 64.9391 34.7774 64.425 34.3287C63.5604 33.5738 62.5508 33.006 61.4589 32.6607C60.8567 32.4714 60.2332 32.3594 59.6031 32.3271C59.2638 32.3027 58.9233 32.3027 58.584 32.3271C58.3796 32.3451 58.1772 32.3814 57.9792 32.4355C57.7321 32.4998 57.4931 32.5921 57.2667 32.7107C56.7899 32.9608 56.3913 33.3389 56.1151 33.8033C55.9823 34.0279 55.8793 34.269 55.8085 34.5205C55.748 34.7251 55.7037 34.9343 55.676 35.146C55.6477 35.4985 55.6477 35.8527 55.676 36.2051C55.698 36.5308 55.7451 36.8543 55.8168 37.1726C56.0767 38.3284 56.6048 39.4058 57.3578 40.3167C57.9897 41.0878 58.7425 41.7498 59.5865 42.2765C60.2851 42.6987 61.0232 43.0507 61.7903 43.3274C62.8546 43.7018 63.9498 43.9809 65.0629 44.1614C65.8334 44.2865 66.2642 44.3281 66.2642 44.3281C66.2642 44.3281 65.9328 44.1113 65.3032 43.736C64.6735 43.3607 63.7456 42.8186 62.6686 42.0681C61.4404 41.269 60.3885 40.2244 59.5782 38.999C59.1594 38.3248 58.8778 37.5736 58.7497 36.7889C58.7208 36.5956 58.7042 36.4006 58.7 36.2051C58.6864 36.0219 58.6864 35.8379 58.7 35.6547C58.6926 35.5938 58.6926 35.5322 58.7 35.4712L58.9485 35.4212C59.1142 35.4212 59.3463 35.4212 59.5451 35.4212C59.9642 35.4305 60.381 35.4864 60.7878 35.588C61.5801 35.7932 62.3313 36.1346 63.0082 36.5971C64.203 37.4216 65.1902 38.5153 65.8914 39.7913L66.0902 40.1499C66.2313 40.5399 66.3945 40.9213 66.5791 41.2925C66.6785 41.4926 66.7696 41.6594 66.8442 41.7845C66.9602 42.0764 67.0596 42.3433 67.1424 42.5768C67.3744 43.2607 67.4904 43.6526 67.4904 43.6526C67.5507 43.2463 67.5894 42.8371 67.6064 42.4267C67.6523 41.274 67.5238 40.1211 67.2253 39.0073C67.2292 38.9825 67.2292 38.9572 67.2253 38.9323C67.2213 38.8795 67.2213 38.8266 67.2253 38.7738C67.3704 37.667 67.8113 36.6206 68.5012 35.7465C68.8732 35.2428 69.3477 34.8248 69.8931 34.5205C70.1556 34.3934 70.4344 34.3036 70.7216 34.2536C70.854 34.2458 70.9868 34.2458 71.1192 34.2536H71.2104C71.2414 34.4777 71.2414 34.705 71.2104 34.9291C71.2104 35.7631 71.2104 36.497 71.1358 37.2143C71.053 38.657 70.9038 39.9331 70.7547 41.0006C70.6055 42.0681 70.4564 42.9104 70.3487 43.5025L70.183 44.4115L70.357 44.2197C70.4647 44.0863 70.6221 43.8945 70.8127 43.6359C71.0032 43.3774 71.3926 42.802 71.7406 42.2515C72.4834 41.7648 73.2554 41.3248 74.0521 40.9338C74.5492 40.692 75.1126 40.4501 75.7091 40.225C76.0157 40.1165 76.3553 39.9998 76.6619 39.908C76.9718 39.8236 77.2875 39.7623 77.6064 39.7246C77.881 39.6828 78.1603 39.6828 78.4349 39.7246C78.6169 39.7582 78.7861 39.8419 78.9237 39.9664C79.0296 40.0737 79.1017 40.21 79.1309 40.3584C79.1829 40.6143 79.1829 40.8781 79.1309 41.134C79.0833 41.4593 78.9913 41.7764 78.8574 42.0764C78.7083 42.3862 78.5278 42.6796 78.3189 42.9521C77.901 43.5055 77.3941 43.9847 76.8193 44.3699C76.2834 44.7323 75.708 45.0317 75.1043 45.2622C74.7725 45.3765 74.4351 45.4739 74.0936 45.5541H73.9941C73.5385 45.4624 73.2899 45.4374 73.2899 45.4374L73.5219 45.6875H73.4308C72.5856 45.8155 71.7247 45.793 70.8873 45.6208C70.6525 45.5776 70.4202 45.5219 70.1913 45.454L69.9511 45.3873L70.1416 45.5791C70.3317 45.7654 70.5368 45.9356 70.7547 46.0879C71.5923 46.6847 72.557 47.0759 73.5716 47.2304C74.0155 47.3003 74.4646 47.331 74.9138 47.3222L75.0215 47.4723C75.2335 47.7852 75.3983 48.1281 75.5103 48.4897C75.6241 48.8303 75.6636 49.1916 75.6263 49.5489C75.5786 49.8291 75.4521 50.0896 75.2617 50.2995C74.981 50.6018 74.6571 50.8604 74.3007 51.0668C73.5279 51.5678 72.658 51.8976 71.7489 52.0342C71.5698 52.0508 71.3895 52.0508 71.2104 52.0342C71.054 52.0213 70.8989 51.9962 70.7464 51.9591L70.5724 51.8924C70.5887 51.5785 70.5887 51.2639 70.5724 50.95C70.5552 50.1182 70.4356 49.2918 70.2162 48.4897C70.1406 48.2058 70.0465 47.9272 69.9345 47.6558C69.9345 47.6558 69.8599 47.981 69.7356 48.5565C69.6445 48.9234 69.5203 49.3904 69.3463 49.9659C69.3466 49.8699 69.3605 49.7744 69.3877 49.6823C69.3989 49.6081 69.4183 49.5354 69.4457 49.4655L69.5202 49.282C69.2884 49.3819 69.0839 49.5363 68.9237 49.7324C68.6875 50.0505 68.5273 50.4191 68.4554 50.8096C68.3836 51.2001 68.4021 51.602 68.5095 51.9841V52.0842C68.2272 52.7222 67.9034 53.3407 67.5401 53.9357C67.2366 54.4328 66.8689 54.8871 66.4465 55.2867C66.0888 55.6312 65.6496 55.8781 65.1706 56.0039C64.7924 56.1164 64.3881 56.1017 64.019 55.9622C63.6742 55.7896 63.4077 55.4915 63.2733 55.1283C63.0823 54.6956 62.9889 54.2256 62.9999 53.7522C63.0172 53.2763 63.1095 52.8062 63.2733 52.3594C63.4697 51.7826 63.7164 51.2244 64.0107 50.6915C64.5321 50.175 65.0114 49.6172 65.444 49.0235C65.7671 48.5815 65.9246 48.3313 65.9246 48.3313L65.0961 48.6899C64.5824 48.9234 63.8285 49.2737 62.9254 49.6406C61.9237 50.0709 60.8754 50.3816 59.8019 50.5664C59.2522 50.6425 58.6947 50.6425 58.1449 50.5664C58.0041 50.5664 57.8715 50.5163 57.7307 50.4997C57.6701 50.5064 57.609 50.5064 57.5484 50.4997V50.4329V50.2244C57.561 50.0807 57.586 49.9385 57.623 49.7991C57.6474 49.6601 57.6834 49.5234 57.7307 49.3904C57.8943 48.8459 58.1372 48.3287 58.4515 47.8559C59.0131 46.9765 59.7528 46.2262 60.6221 45.6542C61.2555 45.2354 61.9563 44.9306 62.6934 44.7535C62.9034 44.6972 63.1164 44.6527 63.3313 44.62H63.5633L63.3645 44.5283C63.1691 44.4372 62.9669 44.3619 62.7597 44.3031C61.9496 44.0804 61.1003 44.0434 60.2742 44.1947C59.1545 44.3987 58.0997 44.8702 57.1987 45.5697C56.2976 46.2692 55.5765 47.1762 55.0961 48.2145C54.9146 48.6049 54.773 49.0129 54.6735 49.4322C54.4817 49.2783 54.2733 49.1468 54.0521 49.0402C53.8625 48.9383 53.6625 48.8572 53.4556 48.7983C52.8143 48.6174 52.1495 48.5359 51.4838 48.5565H51.2767C51.6093 48.3232 51.9274 48.0697 52.2294 47.7975C52.7346 47.3569 53.1778 46.8491 53.5468 46.288C53.9901 45.6171 54.2736 44.8522 54.3753 44.0529C54.4848 43.1691 54.3229 42.2727 53.9113 41.4843C53.7036 41.0747 53.4228 40.7072 53.0828 40.4001C52.7359 40.107 52.3366 39.8834 51.9063 39.7412C51.2727 39.5486 50.6127 39.4585 49.951 39.4744C49.6694 39.4744 49.3877 39.4744 49.1225 39.4744C48.8574 39.4744 48.584 39.5244 48.294 39.5578C47.1855 39.7024 46.1014 39.997 45.0712 40.4334C45.1623 40.275 45.2534 40.1165 45.3363 39.9414C45.919 38.788 46.1741 37.4951 46.0737 36.2051C45.994 35.4476 45.7659 34.7134 45.4026 34.0451C45.0099 33.3047 44.4405 32.6742 43.7456 32.2103C43.3606 31.97 42.9416 31.79 42.5028 31.6766C42.0783 31.5672 41.6398 31.5222 41.2021 31.5432C40.4142 31.5953 39.6488 31.8293 38.9651 32.227C38.3604 32.5697 37.8216 33.0188 37.3744 33.5531C36.9803 34.0279 36.6489 34.5521 36.3885 35.1126C35.9763 36.0262 35.6758 36.9867 35.4937 37.9732C35.3197 38.8072 35.1872 39.5911 35.0712 40.3C35.0215 40.5669 34.9801 40.8254 34.9469 41.0756C34.8889 40.7587 34.8309 40.4251 34.7646 40.0832C34.5733 39.0556 34.2647 38.0538 33.845 37.0975C33.5936 36.5318 33.2825 35.995 32.9171 35.4962C32.4947 34.9164 31.9762 34.4142 31.3843 34.0118C30.7059 33.565 29.9352 33.2798 29.1308 33.1778C28.3653 33.1009 27.5929 33.1318 26.8359 33.2695C26.1022 33.3817 25.3789 33.5546 24.6735 33.7866C23.8003 34.0763 23.008 34.5708 22.362 35.2294C21.6958 35.9489 21.2499 36.8465 21.0778 37.8147C20.9242 38.6759 20.9553 39.5603 21.1689 40.4084C21.3719 41.1934 21.7113 41.936 22.1714 42.6018C22.5813 43.1884 23.0629 43.7207 23.6047 44.1864C24.5278 44.9725 25.5468 45.6367 26.6371 46.1629C27.5414 46.6179 28.474 47.0135 29.4291 47.3472C30.7739 47.8133 32.1616 48.143 33.5716 48.3313C34.5741 48.4564 35.1209 48.4731 35.1209 48.4731C35.1209 48.4731 34.6486 48.2813 33.8036 47.8976C32.5959 47.3544 31.4203 46.7418 30.2824 46.0628C29.5617 45.6208 28.7746 45.1204 27.9627 44.5283C27.1036 43.929 26.2995 43.2536 25.56 42.5101C25.1957 42.1353 24.8734 41.7214 24.5989 41.2758C24.4666 41.0595 24.3503 40.8337 24.251 40.6003C24.1569 40.38 24.0848 40.1509 24.0355 39.9164C23.9126 39.4798 23.8943 39.0201 23.9822 38.575C24.0701 38.1299 24.2616 37.7122 24.5409 37.356C24.8918 37.0184 25.3138 36.7647 25.7754 36.6138C26.0405 36.522 26.3222 36.4303 26.6039 36.3553C26.8856 36.2802 27.2253 36.1968 27.5153 36.1301C27.9528 35.9853 28.4152 35.9321 28.874 35.9737C29.3327 36.0153 29.7782 36.1508 30.183 36.3719C30.9687 36.8886 31.624 37.5825 32.0969 38.3985C32.5716 39.1704 32.9844 39.9791 33.3313 40.8171C33.845 42.018 34.2261 43.0522 34.5161 43.8695C34.4498 44.4616 34.4332 44.7869 34.4332 44.7869L34.6735 44.3281C34.6735 44.4115 34.7315 44.4866 34.7563 44.5617L35.2037 45.9378C35.2037 45.9378 35.2037 45.3873 35.2037 44.3782C35.2037 44.0947 35.2037 43.7611 35.154 43.4108C35.5103 42.7019 35.9825 41.7428 36.5294 40.5502C36.8359 39.8913 37.159 39.1491 37.4987 38.3819C37.8346 37.5822 38.2511 36.8193 38.7414 36.1051C38.9644 35.7972 39.223 35.5172 39.5119 35.2711C39.7892 35.0399 40.0992 34.8516 40.4316 34.7123C40.7233 34.5809 41.04 34.5154 41.3595 34.5205C41.6275 34.5263 41.8886 34.6071 42.1134 34.754C42.6616 35.1585 43.0422 35.7525 43.1822 36.422C43.2584 36.7836 43.2835 37.1542 43.2567 37.5229C43.2245 37.9239 43.1524 38.3206 43.0414 38.7071C42.8106 39.5041 42.4996 40.2754 42.1134 41.0089C41.773 41.6848 41.3969 42.3418 40.9867 42.9771C40.3842 43.9147 39.6934 44.7917 38.9237 45.5958C38.6503 45.8794 38.4183 46.0962 38.2692 46.2463L38.0289 46.4715L38.3106 46.3714C38.5012 46.3047 38.7829 46.1963 39.1391 46.0378C40.1713 45.549 41.1306 44.9174 41.9892 44.1614C42.4391 43.7676 42.8651 43.3471 43.265 42.902C43.5467 42.802 43.8367 42.7102 44.1515 42.6185C45.6295 42.1958 47.1649 42.0128 48.7 42.0764C49.1225 42.0764 49.5285 42.1348 49.9842 42.1931C50.325 42.2221 50.6585 42.3095 50.9701 42.4517C51.0393 42.4937 51.101 42.5473 51.1524 42.6101C51.2054 42.6825 51.2499 42.7609 51.2849 42.8437C51.3792 43.0846 51.4133 43.3452 51.3843 43.6026C51.2264 44.3241 50.8604 44.9827 50.3322 45.4957C49.7536 46.13 49.0996 46.6902 48.3852 47.1637C47.2477 47.9032 46.0158 48.4839 44.7232 48.89C43.3396 49.0735 42.2377 49.2904 41.5086 49.4488C40.7795 49.6073 40.3487 49.7324 40.3487 49.7324L40.8293 49.8074L40.0919 49.9159L39.7771 49.9659L40.0587 50.0493C40.2493 50.0993 40.531 50.1827 40.8872 50.2578C41.9761 50.495 43.0872 50.6124 44.2012 50.6081C44.7412 50.6129 45.2809 50.5822 45.8168 50.5163L50.1168 51.1001L51.5832 51.2836C51.9535 51.3121 52.317 51.3993 52.6603 51.5421L52.7845 51.6255C52.7845 51.6255 52.8425 51.6756 52.7845 51.6756L52.7017 51.7339L52.4863 51.8591C52.2958 51.9528 52.0993 52.0336 51.898 52.1009C51.6578 52.1843 51.4341 52.276 51.2021 52.3428L50.5061 52.5596C48.0384 53.2111 45.4647 53.3501 42.9419 52.9682H42.8177L42.3785 52.7264C41.3466 52.186 40.2713 51.734 39.164 51.3753C38.4608 51.145 37.7441 50.9584 37.0182 50.8166C36.5128 50.7165 36.2394 50.6915 36.2394 50.6915L38.642 52.6263C39.3794 53.2268 40.2493 53.9524 41.2021 54.778C41.6743 55.1867 42.188 55.612 42.6768 56.079C42.7265 56.1291 42.7762 56.1707 42.8177 56.2208C42.8177 56.2208 42.8177 56.2208 42.8177 56.2708C42.8177 56.3209 42.8177 56.2708 42.768 56.2708H42.71H42.6437H42.5111L42.246 56.3375C42.072 56.3792 41.898 56.4209 41.7157 56.446C41.368 56.5137 41.0167 56.561 40.6636 56.5877C39.9911 56.6503 39.3144 56.6503 38.642 56.5877C38.0793 56.5529 37.5229 56.4493 36.985 56.2792C36.5906 56.1436 36.2524 55.8795 36.024 55.5286C35.7995 55.1524 35.6398 54.7407 35.5517 54.3109C35.4731 53.9504 35.4151 53.5856 35.3777 53.2184V53.06C35.5931 52.8265 35.7837 52.6096 35.9411 52.4178C36.3802 51.8674 36.5873 51.5838 36.5873 51.5838L35.5848 52.1176C34.6867 52.5747 33.7627 52.9785 32.8177 53.3268C29.8039 54.4181 26.6045 54.8944 23.4059 54.7279H23.0082C22.977 54.7422 22.9431 54.7496 22.9088 54.7496C22.8745 54.7496 22.8406 54.7422 22.8094 54.7279C22.7348 54.6612 22.7431 54.6028 22.8094 54.5028L22.8757 54.4194H22.9337L23.149 54.3026L23.9775 53.8523C25.0795 53.2852 26.082 52.8181 26.9187 52.4512C27.7555 52.0842 28.4515 51.8007 28.9237 51.6172L29.6528 51.3253L28.9071 51.2753C28.1917 51.2423 27.4749 51.2562 26.7613 51.3169C25.6218 51.3998 24.4911 51.5784 23.381 51.8507C23.0579 51.9341 22.7182 52.0175 22.3785 52.1176L22.1217 52.201L21.9892 52.2427L21.782 52.3094C21.4755 52.4178 21.1772 52.5429 20.8707 52.668L20.4067 52.8682C20.265 52.9342 20.1292 53.0123 20.0008 53.1017L19.5948 53.3435C19.4788 53.4216 19.373 53.514 19.28 53.6187C19.1004 53.7971 18.9495 54.0025 18.8326 54.2276C16.1998 53.5048 13.7357 52.2632 11.5832 50.5747C10.5837 49.7535 9.75574 48.741 9.14712 47.5959C8.53849 46.4507 8.16125 45.1955 8.03721 43.9028C7.84612 41.6934 8.19896 39.4706 9.06454 37.4311C9.72517 35.8546 10.5827 34.3693 11.6163 33.011C12.2697 32.1419 12.9665 31.3068 13.7041 30.509C14.2095 29.9586 14.4912 29.675 14.4912 29.675C14.4912 29.675 14.2013 29.8919 13.6627 30.3506C12.8615 31.0276 12.1008 31.7516 11.3844 32.5189ZM78.2941 46.5049C78.7747 46.2705 79.2323 45.9913 79.6611 45.6709C79.5948 45.8877 79.5285 46.1045 79.4457 46.3214C79.2594 46.8569 79.0408 47.3805 78.7911 47.8893L78.3769 48.6649C78.3174 48.7773 78.251 48.886 78.1781 48.9901C77.9834 48.2318 77.585 47.5422 77.0264 46.9969C77.4609 46.866 77.8848 46.7015 78.2941 46.5049ZM70.0091 54.8447C70.0919 54.6112 70.1582 54.3777 70.2162 54.1525C70.5703 54.3399 70.9459 54.4827 71.3346 54.5778C71.5391 54.6247 71.7468 54.6554 71.956 54.6696C71.1941 55.0875 70.4115 55.4661 69.6113 55.8038C69.768 55.4868 69.9063 55.1611 70.0256 54.828L70.0091 54.8447ZM45.154 58.4725C45.5098 58.1493 45.7706 57.7338 45.908 57.2716C46.065 56.6793 46.0093 56.0502 45.7505 55.4952C46.3368 55.6009 46.9289 55.6706 47.5235 55.7037C48.6625 55.775 49.8057 55.7078 50.9287 55.5036C51.5395 55.3919 52.1428 55.2415 52.7348 55.0532C53.0772 54.9518 53.4122 54.8263 53.7373 54.6779C53.9263 54.5908 54.109 54.4905 54.2841 54.3777C54.3812 54.3186 54.4752 54.2546 54.5658 54.1859C54.6826 54.0991 54.7933 54.0044 54.8972 53.9023C55.2051 53.6271 55.4509 53.2887 55.618 52.9099C55.9168 53.1082 56.2435 53.2601 56.5873 53.3602C56.8791 53.4424 57.1794 53.49 57.4821 53.502C57.722 53.5225 57.9631 53.5225 58.2029 53.502C59.0753 53.4753 59.9362 53.2946 60.7464 52.9682L61.2021 52.7597L61.0695 53.06C60.7625 53.8554 60.6627 54.7167 60.7795 55.5619C60.8559 56.0687 61.0155 56.5591 61.2518 57.0131C61.4526 57.3726 61.7037 57.7012 61.9974 57.9888C56.2534 58.9796 50.4105 59.2597 44.5989 58.8228C44.8031 58.7234 44.9949 58.6003 45.1706 58.4559L45.154 58.4725ZM33.671 54.6862C34.0356 54.4027 34.3587 54.1275 34.6486 53.8523C34.6072 53.994 34.5658 54.1441 34.5244 54.3109C34.4062 54.859 34.3866 55.4239 34.4664 55.9789C34.5729 56.6569 34.8788 57.2873 35.3446 57.7887C33.5633 57.5135 31.7986 57.2049 30.0753 56.8713L29.8268 56.8212C31.2111 56.2975 32.5118 55.5726 33.6876 54.6696L33.671 54.6862Z" fill="#AE6031"/>
<path d="M25.1535 25.6468C22.9611 26.3843 20.8166 27.2589 18.7326 28.2656C18.0035 28.6158 17.4484 28.9077 17.0756 29.0995L16.5039 29.4081L17.0839 29.2413C17.4567 29.1246 18.0201 28.9661 18.7409 28.766C20.2073 28.3656 22.3531 27.7902 25.1037 27.2481C28.3864 26.5835 31.7067 26.1239 35.0457 25.872C39.3677 25.5809 43.7033 25.5558 48.0283 25.797C50.4144 25.9054 52.7176 26.0472 54.9132 26.1723C57.1087 26.2974 59.2131 26.3807 61.1186 26.5309C62.8869 26.6602 64.6413 26.9392 66.3631 27.3648C67.7984 27.7354 69.1879 28.2669 70.5056 28.9494C72.4246 29.9611 74.2711 31.1065 76.0316 32.3771L77.9538 33.7198C77.9538 33.7198 77.3573 33.061 76.2139 31.9017C74.5943 30.217 72.8064 28.7051 70.8784 27.3899C69.4893 26.4671 67.9886 25.7272 66.4128 25.1882C64.6048 24.5957 62.7467 24.1714 60.8618 23.9205C58.89 23.637 56.8684 23.4451 54.7475 23.2283C52.6265 23.0115 50.4144 22.853 48.1195 22.7529C43.816 22.5133 39.4997 22.6837 35.228 23.2617C31.8053 23.7493 28.4333 24.5476 25.1535 25.6468Z" fill="#AE6031"/>
<path d="M33.6298 81.8408C30.0914 80.9727 26.641 79.7749 23.3232 78.263C22.2462 77.796 21.1194 77.2789 19.9429 76.7285C18.7664 76.178 17.5403 75.6026 16.3224 74.9354C15.0685 74.2635 13.8738 73.4851 12.7515 72.6086C11.5783 71.6724 10.5188 70.6003 9.59496 69.4144C7.56123 66.7657 6.04072 63.7555 5.11277 60.5408C4.09212 56.902 3.48344 53.1586 3.29835 49.3821C3.16579 47.3889 3.09122 45.4123 3.03322 43.4691C2.94211 41.6475 2.98642 39.8215 3.16578 38.0065C3.32738 36.3951 3.81518 34.834 4.5991 33.4196C5.38636 32.1157 6.42262 30.9819 7.64797 30.0837C8.86144 29.1823 10.1668 28.4135 11.5419 27.7902C12.8758 27.1481 14.2429 26.6393 15.5602 26.1223C18.2114 25.1548 20.6969 24.3959 22.9587 23.7704C27.4989 22.5278 31.1443 21.7271 33.6215 21.16L37.4243 20.326C37.4243 20.326 35.9413 20.4678 33.2818 20.7764C30.6223 21.085 26.7035 21.5354 21.8982 22.4861C19.262 23.0061 16.6542 23.663 14.0854 24.4543C12.6192 24.8888 11.1805 25.4124 9.77723 26.0222C8.23591 26.6784 6.77838 27.5184 5.43589 28.5241C3.95522 29.642 2.72687 31.0632 1.83191 32.6941C0.957054 34.4173 0.40915 36.2896 0.216325 38.215C0.0304974 40.0937 -0.0276259 41.9829 0.0423471 43.8695C0.0423471 45.7292 0.141758 47.6307 0.266033 49.5739C0.467041 53.3856 1.10651 57.161 2.1716 60.8244C3.19592 64.2843 4.85995 67.5184 7.07631 70.3568C9.09994 72.9046 11.6685 74.96 14.5908 76.3699C15.9247 77.0371 17.2337 77.5792 18.4848 78.0378C19.7358 78.4965 20.9703 78.9635 22.0887 79.3722C24.4002 80.2062 26.5295 80.8317 28.4102 81.2904C30.0174 81.6928 31.6469 81.9991 33.2901 82.2078C34.6405 82.3912 35.6844 82.4329 36.3969 82.4663H37.474L36.4881 82.3245C35.817 82.2911 34.8559 82.1244 33.6298 81.8408Z" fill="#AE6031"/>
<path d="M88.8568 37.8898C88.1782 36.0508 87.2527 34.3139 86.1062 32.7274C84.0529 29.9194 81.482 27.5354 78.5337 25.7053C77.25 24.8921 75.9067 24.1784 74.5155 23.5703C73.2676 23.01 71.9897 22.52 70.6878 22.1024C68.5149 21.4089 66.3013 20.8519 64.0598 20.4345C62.1129 20.0425 60.4393 19.7923 59.0888 19.6005C56.3796 19.2168 54.9463 19.05 54.9463 19.05L59.3125 20.1342C60.7127 20.4845 62.436 20.9682 64.4078 21.5187C66.6323 22.1794 68.8176 22.9674 70.953 23.8788C73.5182 24.9675 75.9416 26.3679 78.1692 28.0488C80.6946 29.9462 82.842 32.3059 84.4989 35.0042C85.3675 36.4382 86.0391 37.984 86.4956 39.5994L86.6696 40.2083C86.7193 40.4168 86.7525 40.6336 86.7939 40.8421L86.9181 41.4676C86.9181 41.6844 86.9679 41.8929 86.9927 42.1098C87.1108 42.9773 87.1496 43.8538 87.1087 44.7285C87.0093 46.5831 86.7319 48.4236 86.2802 50.2244C85.8245 52.1009 85.2777 54.0024 84.6232 55.8872C83.3547 59.5508 81.7458 63.0859 79.8179 66.4454C77.9538 69.698 75.9157 72.6086 73.2645 74.4016C71.9224 75.2891 70.4857 76.022 68.9811 76.5867C67.4898 77.1788 65.9819 77.7042 64.5403 78.1879C61.6489 79.1554 58.8983 79.9059 56.3796 80.5064C52.3991 81.445 48.365 82.1357 44.3001 82.5747C43.5793 82.6581 42.9413 82.7165 42.3862 82.7582C41.8311 82.7999 41.3589 82.8499 40.9861 82.8749L39.8262 82.9667H40.8949C41.5992 82.9667 42.6514 83.0251 44.0184 83.0251C47.984 83.02 51.9438 82.7218 55.866 82.1327C58.4095 81.749 61.2015 81.207 64.209 80.4647C65.7168 80.0811 67.2661 79.6307 68.8651 79.1304C70.5834 78.6113 72.248 77.927 73.8361 77.0871C74.6949 76.6038 75.51 76.0457 76.2719 75.4191C77.0441 74.7892 77.767 74.1005 78.4343 73.3591C79.771 71.8378 80.9662 70.1964 82.0051 68.4553C84.2659 64.8045 86.1139 60.9106 87.5147 56.8463C88.235 54.7702 88.8352 52.6539 89.3125 50.508C89.8059 48.4009 90.0506 46.2427 90.0416 44.0779C90.0027 41.962 89.6019 39.8687 88.8568 37.8898Z" fill="#AE6031"/>
<path d="M16.8688 47.6557C16.8862 47.6266 16.9056 47.5987 16.9268 47.5723L17.0511 47.4472C17.0511 47.4472 17.0511 47.4472 17.1174 47.3972L17.2417 47.3138C18.0406 46.8665 18.9627 46.6937 19.868 46.8217C20.9212 46.9344 21.9632 47.1353 22.9832 47.4222C25.1124 47.9893 27.0428 48.4313 28.6667 48.7733C31.9144 49.4571 33.9442 49.7323 33.9442 49.7323C33.9442 49.7323 32.2872 48.7816 29.3958 47.3972C27.9376 46.705 26.148 45.896 24.0768 45.0537C22.9039 44.5439 21.6785 44.1663 20.4231 43.9278C19.6632 43.7906 18.8882 43.7598 18.1199 43.8361C17.2371 43.9388 16.3881 44.2379 15.6344 44.7118L15.3444 44.9119C15.228 44.9931 15.1173 45.0823 15.013 45.1788C14.8115 45.364 14.6309 45.5709 14.4745 45.7959C14.3896 45.9104 14.3121 46.0301 14.2425 46.1545C14.1679 46.2963 14.0934 46.4548 14.0271 46.6049C13.9074 46.9074 13.8267 47.2242 13.7868 47.5473C13.7027 48.164 13.8314 48.791 14.1514 49.3237C14.4756 49.834 14.964 50.2167 15.535 50.4079C15.6759 50.4584 15.8198 50.5001 15.9658 50.533L16.1895 50.583H16.3717L16.8357 50.6497L17.7553 50.7748C18.3601 50.8499 18.9484 50.9083 19.52 50.9583C21.4886 51.1193 23.4669 51.1193 25.4355 50.9583C26.6983 50.8521 27.9542 50.6739 29.1969 50.4246C30.0254 50.2494 30.5059 50.116 30.5059 50.116L29.0809 49.9408C28.1696 49.8324 26.8523 49.6656 25.2284 49.4154C23.6045 49.1652 21.699 48.8233 19.5946 48.3646L17.979 48.006L17.1505 47.8058L16.9434 47.7558H16.8854V47.6974L16.8688 47.6557Z" fill="#AE6031"/>
</g>
<g clip-path="url(#clip1_1001_48061)">
<path d="M109.427 28.934C109.387 28.9111 109.348 28.8851 109.311 28.8564C109.393 28.8296 109.465 28.7773 109.515 28.7069C109.538 28.6693 109.547 28.6245 109.54 28.5809C109.532 28.6229 109.51 28.6607 109.477 28.6872C109.392 28.7429 109.291 28.7669 109.192 28.7548C109.132 28.6955 109.079 28.63 109.033 28.5595C108.88 28.309 108.774 28.0325 108.721 27.7436C108.687 27.5734 108.659 27.3849 108.628 27.1884C108.598 26.9919 108.581 26.7826 108.567 26.5575C108.534 26.1152 108.518 25.6258 108.506 25.089C108.494 24.5521 108.481 23.9756 108.422 23.3528C108.368 22.6811 108.223 22.0202 107.989 21.3888C107.721 20.6799 107.293 20.0438 106.738 19.5311C106.461 19.2723 106.157 19.0455 105.83 18.8548L105.783 18.8269C106.198 18.7552 106.599 18.62 106.973 18.426C107.766 18.0026 108.428 17.3648 108.883 16.584C109.123 16.1823 109.312 15.7526 109.448 15.3044C109.563 14.9147 109.652 14.5175 109.713 14.1157C109.829 13.3715 109.883 12.7417 109.941 12.215C110 11.6884 110.037 11.272 110.067 10.9875C110.071 10.8556 110.087 10.753 110.095 10.6793C110.276 10.6691 110.371 10.6589 110.371 10.6589L110.11 10.619L110.112 10.5503C110.103 10.5727 110.093 10.5944 110.081 10.6154L109.664 10.5467C109.206 10.4661 108.544 10.3368 107.744 10.1211C107.342 10.0132 106.908 9.88319 106.447 9.72586C105.985 9.56853 105.478 9.38858 104.911 9.24377C104.618 9.16428 104.319 9.10624 104.018 9.07011C103.858 9.04864 103.696 9.03645 103.534 9.03362L103.288 9.02582C103.205 9.02317 103.121 9.02051 103.039 9.03642C102.351 9.0852 101.676 9.25708 101.048 9.54405C100.431 9.82743 99.856 10.1951 99.3388 10.6367C99.153 10.7947 98.9827 10.9584 98.8175 11.1276C99.1252 10.082 99.2442 8.98933 99.1688 7.90157C99.1411 7.55887 99.0915 7.21834 99.0203 6.88212C98.947 6.55617 98.8504 6.23604 98.7311 5.92426C98.508 5.3417 98.213 4.78987 97.8531 4.28181C97.5369 3.8313 97.1772 3.41358 96.7791 3.03481C96.4407 2.70955 96.0809 2.40768 95.7022 2.13125C95.1644 1.73659 94.5954 1.38711 94.0009 1.08633C93.7922 0.976652 93.6295 0.902788 93.5184 0.8517L93.4229 0.80639L93.4961 0.64751L93.3816 0.789223L93.348 0.772305L93.3762 0.794334C93.158 1.06488 92.6557 1.70167 91.9771 2.61297C91.5173 3.2326 90.9774 3.97918 90.3952 4.82483C90.1041 5.24634 89.7938 5.6963 89.5001 6.19964C89.3482 6.4593 89.2094 6.72655 89.0843 7.00036C89.0507 7.07064 89.0195 7.14365 88.991 7.21674C88.9625 7.28982 88.9365 7.36563 88.908 7.43871C88.8795 7.5118 88.856 7.59034 88.8274 7.66607C88.7981 7.74108 88.7737 7.81799 88.7546 7.8963L88.6376 8.36296C88.6065 8.51789 88.5859 8.67315 88.56 8.82824C88.5347 8.98077 88.5185 9.13467 88.5113 9.28914C88.5065 9.44226 88.486 9.59223 88.4969 9.74321C88.5079 9.89418 88.5032 10.042 88.5064 10.1875C88.5097 10.3329 88.5339 10.479 88.5477 10.6221L88.5724 10.8343L88.6103 11.0417C88.6348 11.1772 88.6622 11.3076 88.6866 11.4457C88.8822 12.2581 89.212 13.0315 89.662 13.7334C89.3752 13.5383 89.0783 13.3586 88.7726 13.1952C88.2124 12.8994 87.6174 12.6763 87.0016 12.5312C86.3069 12.3635 85.5888 12.3175 84.8785 12.3952C84.1532 12.4757 83.4537 12.714 82.8285 13.0939C82.2937 13.4342 81.8022 13.8393 81.365 14.3C80.9588 14.7179 80.6132 15.1218 80.2924 15.4895C79.9716 15.8572 79.6807 16.1889 79.3969 16.4653C79.1501 16.7167 78.8852 16.9494 78.6045 17.1616C78.3952 17.3177 78.1725 17.4548 77.9392 17.5712C77.7946 17.6501 77.6435 17.7161 77.4875 17.7683L77.3283 17.832L77.5125 17.8061L77.7362 17.7735C77.8391 17.7544 77.9405 17.7285 78.04 17.696C78.1676 17.6641 78.2924 17.6221 78.4134 17.5704C78.5598 17.5141 78.7028 17.4489 78.8414 17.3752L79.0733 17.2504C79.1559 17.2055 79.231 17.1524 79.3113 17.0994C79.3915 17.0465 79.477 16.9963 79.5601 16.9356L79.8123 16.748C80.4965 16.2412 81.2063 15.5053 82.0276 14.8046C82.4382 14.4411 82.8876 14.1248 83.3675 13.8615C83.87 13.5937 84.4188 13.4254 84.984 13.3657C86.1129 13.2627 87.2495 13.4393 88.295 13.8803C89.172 14.2558 90.0065 14.7252 90.7841 15.2806C91.4609 15.7486 91.9954 16.1593 92.3665 16.438L92.9423 16.8685C92.9423 16.8685 92.7935 16.6867 92.5026 16.3577C92.2118 16.0288 91.7844 15.5422 91.1865 14.9815C91.0542 14.8584 90.9142 14.7298 90.7638 14.5981C90.6021 14.3642 90.4549 14.1204 90.3232 13.868C89.925 13.1026 89.6513 12.2775 89.5126 11.4244C89.4274 10.9093 89.3957 10.3867 89.4179 9.86491L89.4244 9.65899C89.4266 9.59035 89.4288 9.52172 89.4442 9.45086L89.4665 9.2428L89.4698 9.13721L89.4889 9.03211L89.5653 8.6038C89.6012 8.46488 89.6372 8.32068 89.6757 8.1792C89.6925 8.10691 89.7149 8.03606 89.7427 7.96728C89.7658 7.89931 89.789 7.82869 89.8148 7.7608C89.8584 7.62302 89.91 7.48789 89.9691 7.35609C90.0848 7.09551 90.2109 6.83525 90.3423 6.57516C90.5764 6.13335 90.8255 5.71316 91.0585 5.30567C90.9881 5.45935 90.9176 5.61831 90.8495 5.78263C90.4294 6.79121 90.1768 7.86258 90.1018 8.95377C90.0217 10.0622 90.1888 11.1745 90.5907 12.2091C90.9211 13.0365 91.4184 13.7857 92.0509 14.4091C92.4656 14.8182 92.9456 15.1542 93.4709 15.4028L93.7137 15.5109L93.8977 15.5749L94.048 15.6272L93.9275 15.5441C93.848 15.4887 93.7274 15.4109 93.5844 15.2927C93.1709 14.9675 92.8007 14.5898 92.483 14.1691C92.2649 13.8726 92.0682 13.5609 91.8943 13.2361C91.6983 12.8539 91.5356 12.4553 91.4081 12.0447C91.1064 11.0632 90.9906 10.0331 91.0668 9.00817C91.1406 7.96612 91.3395 6.93689 91.6592 5.94308C91.8966 5.15975 92.2004 4.39844 92.5672 3.66756C92.8083 3.19259 93.0945 2.74234 93.422 2.32319C93.5366 2.17884 93.6293 2.06551 93.6943 1.99622L93.7922 1.8857L93.6585 1.9713C93.5702 2.02928 93.4441 2.12041 93.2856 2.24487C92.8376 2.60964 92.4393 3.03237 92.1008 3.50215C92.0351 3.58991 91.9719 3.68304 91.906 3.77872C92.1036 3.41503 92.282 3.07715 92.441 2.77038C92.9433 1.80328 93.2661 1.12381 93.4067 0.82173L93.8694 1.18522C94.3615 1.57204 94.8338 1.98392 95.2843 2.41925C95.9733 3.07204 96.5784 3.80945 97.0854 4.61421C97.7238 5.62682 98.1055 6.78237 98.1969 7.97909C98.2764 9.19287 98.1491 10.4115 97.8206 11.5822C97.6635 12.1586 97.4843 12.6867 97.3012 13.1724C97.032 13.6509 96.7898 14.1443 96.5758 14.6503C96.3068 15.284 96.1141 15.8249 95.9698 16.2457L95.7867 16.6469L95.8714 16.5386C95.7237 16.9831 95.6503 17.2318 95.6503 17.2318L95.9912 16.6428C96.1771 16.3184 96.4325 15.864 96.7621 15.301C96.938 15.0424 97.1309 14.7446 97.3326 14.4127C97.4128 14.2805 97.4954 14.1536 97.5764 13.995C97.8943 13.5183 98.2395 13.0607 98.6102 12.6246C98.9852 12.186 99.3997 11.7833 99.8483 11.4219C100.339 11.0256 100.878 10.6937 101.452 10.4342C101.739 10.305 102.036 10.1978 102.339 10.1135C102.487 10.0812 102.633 10.0356 102.78 10.0165L102.999 9.97853L103.217 9.95902C103.777 9.91637 104.34 9.95381 104.89 10.0702C105.429 10.1719 105.946 10.3019 106.436 10.402C106.925 10.5021 107.384 10.5721 107.797 10.6169C108.433 10.6868 109.074 10.7124 109.715 10.6936L110.064 10.6783C110.032 10.7513 109.987 10.8476 109.934 10.9754C109.815 11.2544 109.65 11.6667 109.473 12.1843C109.297 12.7019 109.117 13.341 108.918 14.0165C108.727 14.7343 108.447 15.425 108.085 16.0724C107.722 16.6945 107.238 17.2357 106.661 17.663C106.185 18.0108 105.642 18.2546 105.067 18.3788L104.953 18.4016L104.883 18.3729C104.256 18.1371 103.6 17.9908 102.932 17.9385C102.343 17.8933 101.751 17.909 101.165 17.9855C100.666 18.049 100.171 18.1427 99.6837 18.2662C98.9925 18.4452 98.3107 18.659 97.6407 18.9069C97.1689 19.0796 96.9116 19.1798 96.9116 19.1798L97.6278 19.0677C98.0938 18.9953 98.7736 18.8742 99.6336 18.7719C100.647 18.6354 101.673 18.6244 102.689 18.7394C102.983 18.7786 103.273 18.8364 103.559 18.9123C103.861 18.9879 104.158 19.0857 104.446 19.2047C105.058 19.4458 105.622 19.7967 106.111 20.2405C106.355 20.4604 106.57 20.7106 106.753 20.9849L106.823 21.0849L106.882 21.1899L107.001 21.3971C107.07 21.5394 107.139 21.6816 107.2 21.8263C107.421 22.401 107.578 22.999 107.667 23.609C107.761 24.1986 107.825 24.7687 107.894 25.2995C107.964 25.8302 108.04 26.3215 108.144 26.7608C108.217 27.1612 108.322 27.5551 108.458 27.9387C108.573 28.2249 108.742 28.4853 108.957 28.7051L108.995 28.7406C108.766 28.7096 108.474 28.6712 108.14 28.6342L108.089 28.5666C108.047 28.5071 107.994 28.4367 107.941 28.3531C107.644 27.8863 107.391 27.3926 107.184 26.8783C107.045 26.5542 106.899 26.1902 106.725 25.8068C106.637 25.6111 106.544 25.4073 106.433 25.2003C106.321 24.9932 106.202 24.786 106.075 24.5732C105.498 23.6529 104.771 22.8374 103.925 22.161C103.084 21.4908 102.152 20.9452 101.157 20.5406C100.363 20.219 99.5385 19.9803 98.6962 19.8283C98.519 19.7963 98.3493 19.7777 98.1876 19.754C98.0259 19.7304 97.8773 19.7072 97.7335 19.7C97.4508 19.691 97.2109 19.6544 97.0091 19.6559C96.6113 19.6433 96.3936 19.6522 96.3936 19.6522C96.3936 19.6522 96.5883 19.7086 96.947 19.7993C97.3056 19.8899 97.8245 20.0517 98.4698 20.273C99.2347 20.5482 99.9822 20.8702 100.708 21.2372C101.633 21.7093 102.507 22.2745 103.319 22.924L103.485 23.0535L103.643 23.1933L103.952 23.4673C104.15 23.6507 104.335 23.8415 104.521 24.0139C104.707 24.1863 104.868 24.3896 105.027 24.577C105.186 24.7643 105.335 24.9488 105.473 25.1381C105.611 25.3275 105.737 25.5085 105.862 25.679C105.988 25.8494 106.094 26.0431 106.201 26.2182C106.418 26.5713 106.617 26.9053 106.812 27.1995C106.985 27.4648 107.171 27.7211 107.369 27.9677C107.52 28.1481 107.681 28.3183 107.854 28.4772C107.91 28.5292 107.961 28.5731 108.007 28.6115L107.746 28.5821C107.153 28.5184 106.439 28.4667 105.656 28.3942C104.832 28.3353 104.017 28.1818 103.228 27.9367C102.448 27.6606 101.698 27.3029 100.991 26.8695C100.319 26.473 99.7214 26.0814 99.2151 25.7694C99.0378 25.6628 98.8665 25.5462 98.7022 25.4202L98.7031 25.3911C98.6842 25.2452 98.6546 25.1042 98.6249 24.9658C98.5952 24.8275 98.5652 24.6997 98.5357 24.5587C98.4629 24.2921 98.3974 24.0443 98.3185 23.8066C98.2396 23.5689 98.1577 23.3417 98.0779 23.1304C97.9982 22.9191 97.905 22.718 97.8139 22.5327C97.5354 21.9608 97.2092 21.4139 96.8388 20.8978C96.572 20.5511 96.4231 20.3719 96.4231 20.3719C96.4231 20.3719 96.5338 20.6001 96.7301 21.0185C96.9957 21.6075 97.2232 22.2132 97.4115 22.8318C97.6867 23.7418 97.8565 24.6809 97.9174 25.6305C97.9557 26.1839 97.9477 26.7397 97.8935 27.2919C97.8344 27.8821 97.7185 28.4652 97.5475 29.0329L97.4003 29.4616C97.3775 29.5318 97.3509 29.6007 97.3204 29.6679L97.2326 29.8738C97.1788 30.0094 97.1169 30.1416 97.0472 30.2696C96.9802 30.3996 96.921 30.5299 96.8438 30.6516C96.5671 31.1363 96.2556 31.5998 95.9116 32.0385C95.2506 32.8895 94.5805 33.6161 94.0365 34.2463C93.4925 34.8765 93.0698 35.3995 92.8011 35.7768C92.6616 35.9627 92.565 36.1155 92.4963 36.2164L92.4386 36.3018C92.3993 36.1777 92.3524 36.0561 92.2982 35.9379C92.1763 35.6736 92.0346 35.4191 91.8743 35.1766C91.6868 34.8932 91.4608 34.5848 91.2175 34.2441C90.6389 33.4612 90.1101 32.6422 89.6342 31.7918C89.0629 30.7812 88.7117 29.6593 88.6042 28.5009C88.5214 27.3343 88.6474 26.1622 88.9759 25.0403C89.2542 24.1133 89.6241 23.2167 90.0799 22.3641L90.2053 22.1302C90.3497 21.9725 90.4861 21.8075 90.6139 21.6358C90.9852 21.1332 91.2865 20.5817 91.5095 19.9968L91.6069 19.7356L91.6681 19.5393L91.7151 19.3796L91.6237 19.5353L91.5129 19.7247C91.4687 19.7973 91.4137 19.8801 91.3528 19.9839C91.2316 20.1703 91.0778 20.3927 90.8813 20.6401L90.7505 20.7998C90.6339 20.9229 90.5066 21.0563 90.3702 21.2238C90.3079 21.2905 90.2403 21.3571 90.17 21.4235C89.5372 22.0506 88.7537 22.5011 87.8964 22.7308C86.9562 22.9653 85.8613 22.7931 84.764 22.3672C84.2076 22.1488 83.6734 21.8913 83.1551 21.6318L81.6541 20.8786C80.7025 20.4018 79.865 19.9604 79.1891 19.5452C78.6548 19.2198 78.1412 18.8611 77.6512 18.4711L77.4213 18.2868L77.2581 18.1442L77.1204 18.0262L77.2183 18.1614C77.281 18.2506 77.3763 18.3831 77.5125 18.5486C77.9054 19.0256 78.3395 19.4665 78.8096 19.8661C79.5432 20.4791 80.3227 21.0339 81.1411 21.5256C81.6117 21.8048 82.1078 22.1059 82.6431 22.4083C83.2155 22.7364 83.8095 23.0245 84.4209 23.2707C85.0562 23.5293 85.7271 23.6879 86.4103 23.7407C87.0451 23.7883 87.6828 23.6995 88.2813 23.4803C88.5326 23.3876 88.7755 23.2733 89.0074 23.1387C88.7213 23.6224 88.4731 24.1278 88.2652 24.6505C87.7626 25.9003 87.5495 27.2493 87.6423 28.5946C87.6744 28.9603 87.7321 29.3233 87.8148 29.6808C87.8971 30.0209 88.0011 30.3552 88.1263 30.6817C88.3636 31.2702 88.661 31.8323 89.0137 32.3588C89.5835 33.1863 90.2263 33.9602 90.9341 34.6711C91.2207 34.9683 91.4801 35.217 91.6953 35.4537C91.8764 35.6478 92.0449 35.8535 92.1997 36.0696C92.2915 36.2058 92.3745 36.3479 92.4482 36.495L92.5245 36.6507C92.5245 36.6507 92.5108 36.5868 92.4806 36.4643C92.4818 36.4273 92.457 36.3816 92.4428 36.3336L92.8776 35.9272C93.1934 35.6333 93.6702 35.2204 94.2842 34.6955C95.0406 34.0709 95.7615 33.4038 96.4436 32.6975C96.8678 32.2452 97.2516 31.756 97.5903 31.2355L97.7227 31.0257L97.8476 30.805L97.9727 30.5791C98.0144 30.5011 98.0484 30.4203 98.0851 30.3395C98.1556 30.1806 98.2367 30.0193 98.2996 29.8522C98.3626 29.685 98.4179 29.5098 98.4787 29.3293C98.6781 28.6583 98.7977 27.9657 98.8349 27.2662C98.8402 27.0999 98.8454 26.9362 98.8374 26.7748C98.84 26.693 98.8425 26.6138 98.845 26.5346L98.8289 26.2989C98.8316 26.2144 98.816 26.1293 98.8111 26.034C98.8275 26.0535 98.8454 26.0717 98.8644 26.0886C99.3741 26.5838 99.9093 27.0515 100.468 27.4898C101.215 28.0785 102.051 28.5414 102.945 28.8606C103.425 29.0195 103.92 29.1239 104.423 29.1717C104.864 29.2134 105.307 29.2275 105.75 29.2138C106.573 29.195 107.273 29.122 107.851 29.0664C108.429 29.0107 108.881 28.9484 109.203 28.8978L109.231 28.8988C109.3 28.9383 109.373 28.9682 109.449 28.9876C109.494 29.0018 109.54 29.0103 109.587 29.0131L109.631 29.0145L109.585 28.9972C109.53 28.9811 109.477 28.96 109.427 28.934Z" fill="#AE6031"/>
<path d="M97.055 16.6713L97.312 16.4152C97.4014 16.3229 97.4963 16.2229 97.6067 16.1286L97.9439 15.8222C98.0032 15.7712 98.0601 15.7122 98.1246 15.6614L98.3235 15.5013L98.7403 15.163L99.2069 14.8264C100.647 13.8076 102.254 13.0534 103.954 12.5986L104.509 12.455L105.036 12.3502L105.284 12.2999C105.366 12.2814 105.447 12.276 105.524 12.2626L105.974 12.2002C106.109 12.1783 106.245 12.1632 106.381 12.155L106.744 12.1242C106.97 12.097 107.164 12.1032 107.321 12.0976C107.636 12.0865 107.806 12.076 107.806 12.076C107.806 12.076 107.63 12.0255 107.302 11.9411L107.027 11.8716C106.925 11.8472 106.813 11.8357 106.693 11.8134C106.421 11.7651 106.147 11.7326 105.871 11.716L105.384 11.7006C105.214 11.6952 105.038 11.7081 104.86 11.7104L104.579 11.7226C104.483 11.7246 104.386 11.733 104.29 11.7478L103.688 11.8265C101.876 12.1178 100.18 12.9154 98.7941 14.1288L98.3487 14.5428C98.2762 14.6079 98.2075 14.6772 98.143 14.7503L97.9556 14.9584C97.8332 15.0999 97.7091 15.2149 97.6074 15.3623L97.3147 15.7547C97.1488 15.9779 96.9971 16.2114 96.8602 16.4537C96.7966 16.5601 96.736 16.6533 96.6885 16.7469L96.5649 17.0072C96.4162 17.317 96.3427 17.4864 96.3427 17.4864C96.3427 17.4864 96.462 17.3607 96.6713 17.1216C96.7702 16.9794 96.8903 16.8273 97.055 16.6713Z" fill="#AE6031"/>
<path d="M80.2075 18.9592C80.8296 19.1719 81.562 19.4567 82.4014 19.7555C83.328 20.1011 84.2847 20.3588 85.2589 20.5253C86.2696 20.6968 87.3047 20.6558 88.2992 20.405C89.1045 20.1874 89.8479 19.7819 90.4694 19.2213C90.6993 19.0062 90.9062 18.7674 91.0867 18.5089C91.1611 18.3949 91.23 18.2861 91.2856 18.1848C91.3413 18.0835 91.3888 17.9873 91.4257 17.8986C91.4626 17.8099 91.4887 17.7315 91.517 17.6637C91.5454 17.5959 91.5551 17.5354 91.5697 17.4883L91.6084 17.3442L91.5365 17.4608C91.5118 17.497 91.4814 17.5463 91.4482 17.6033L91.3114 17.7866C91.0165 18.1744 90.6576 18.5081 90.2504 18.773C89.6349 19.1719 88.948 19.4454 88.2285 19.5783C87.7898 19.6562 87.3448 19.6925 86.8994 19.6868C86.3979 19.6801 85.8976 19.6377 85.4022 19.56C84.3592 19.4001 83.3901 19.1447 82.5189 18.94C81.6477 18.7354 80.8673 18.56 80.2179 18.468C79.7144 18.3915 79.2058 18.3542 78.6966 18.3564C78.5212 18.3508 78.3872 18.3624 78.2953 18.3701L78.1588 18.3789L78.3044 18.4126C78.3981 18.4315 78.5386 18.465 78.7179 18.5103C79.0768 18.593 79.5856 18.7439 80.2075 18.9592Z" fill="#AE6031"/>
<path d="M93.8178 32.4504C94.0017 32.1585 94.2007 31.8318 94.4148 31.4704C94.6305 31.1126 94.8524 30.7232 95.0784 30.2891C95.324 29.8239 95.5379 29.3425 95.7189 28.8481C95.8196 28.5754 95.9028 28.2965 95.968 28.013C95.9989 27.866 96.0351 27.7165 96.0634 27.5668L96.1278 27.1064C96.192 26.5138 96.1952 25.9161 96.1372 25.323C96.0816 24.7945 95.9825 24.2716 95.8409 23.7597C95.6138 22.9379 95.2925 22.1455 94.8836 21.3986C94.6253 20.9222 94.3371 20.4629 94.0207 20.0236C93.7969 19.7258 93.6735 19.5712 93.6735 19.5712L93.9176 20.1339C94.0632 20.5006 94.2744 21.0279 94.4917 21.6928C94.747 22.4658 94.9435 23.2574 95.0795 24.0606C95.2465 25.0292 95.2787 26.0166 95.1751 26.9943L95.1236 27.3784C95.1065 27.5047 95.0737 27.6279 95.0515 27.7514C95.007 27.9958 94.9486 28.2375 94.8766 28.4752C94.7358 28.949 94.5669 29.4008 94.396 29.8314C94.0542 30.6953 93.7047 31.4743 93.4454 32.132C92.9141 33.4365 92.6308 34.2731 92.6308 34.2731C92.6308 34.2731 93.0862 33.6269 93.8178 32.4504Z" fill="#AE6031"/>
<path d="M95.7382 18.022C95.5412 18.1044 95.3375 18.1696 95.1294 18.2168C94.9239 18.2625 94.7141 18.286 94.5037 18.2868C94.2969 18.2802 94.077 18.2732 93.9074 18.252C93.7693 18.2405 93.634 18.2058 93.5072 18.1495C93.4689 18.1334 93.4326 18.1127 93.3991 18.0879L93.3607 18.0603L93.3593 18.1051C93.3616 18.1501 93.369 18.1947 93.3812 18.238C93.4336 18.4036 93.5283 18.5525 93.6558 18.6695C93.8402 18.848 94.0573 18.9886 94.295 19.0835C94.4484 19.1444 94.6093 19.1842 94.7733 19.2017C94.9611 19.2194 95.1504 19.2085 95.335 19.1693C95.6793 19.0943 95.995 18.9209 96.2443 18.6697C96.4319 18.4833 96.5738 18.2552 96.6584 18.0037C96.7111 17.8471 96.7359 17.6824 96.7314 17.5171C96.722 17.4032 96.7107 17.3447 96.7107 17.3447L96.5862 17.4702C96.4808 17.5716 96.3674 17.6644 96.2473 17.7475C96.0861 17.8542 95.9157 17.9461 95.7382 18.022Z" fill="#AE6031"/>
</g>
<defs>
<clipPath id="clip0_1001_48061">
<rect width="90" height="64" fill="white" transform="translate(0 19)"/>
</clipPath>
<clipPath id="clip1_1001_48061">
<rect width="33" height="36" fill="white" transform="translate(77.6738 0.143066) rotate(1.81661)"/>
</clipPath>
</defs>
</svg>
