<svg width="109" height="87" viewBox="0 0 109 87" fill="none" xmlns="http://www.w3.org/2000/svg">
<g clip-path="url(#clip0_1001_48039)">
<path d="M38.8371 13.0743C38.6888 12.6308 38.594 12.3981 38.594 12.3981C38.594 12.3981 38.5424 12.6714 38.4724 13.156C38.4377 13.4015 38.3945 13.6936 38.337 14.0395C38.2794 14.3854 38.2251 14.7637 38.1429 15.1906C37.8592 16.8936 37.4115 19.1885 36.8209 21.6938C36.5198 22.9535 36.2182 24.1414 35.9264 25.2301C35.6346 26.3188 35.3372 27.2837 35.0782 28.1075C34.9552 28.5187 34.8213 28.8852 34.723 29.2155C34.6814 29.3624 34.6324 29.507 34.576 29.6488C34.5316 29.7616 34.4766 29.87 34.4116 29.9725C34.3304 30.1226 34.1935 30.2347 34.0304 30.2848C33.9741 30.3033 33.9144 30.3092 33.8555 30.302C33.9117 30.3414 33.9743 30.3707 34.0406 30.3885C34.2367 30.4257 34.4398 30.3919 34.6132 30.2929C34.8902 30.1371 35.134 29.9286 35.331 29.6791C35.5541 29.4216 35.8129 29.1279 36.0796 28.7811C36.7286 27.9432 37.2972 27.046 37.7778 26.1014C38.3927 24.8778 38.8625 23.5864 39.1779 22.2536C39.4995 20.9219 39.6658 19.5574 39.6737 18.1873C39.6704 17.1322 39.5669 16.0798 39.3644 15.0443C39.3217 14.6101 39.1928 14.2302 39.1084 13.9047C39.034 13.6229 38.9434 13.3457 38.8371 13.0743Z" fill="#8FBA64"/>
<path d="M59.0883 63.4407C58.9361 61.8768 58.6503 60.3288 58.2341 58.8136C57.5445 56.2781 56.4486 53.8713 54.9891 51.6867C54.0231 50.246 52.8698 48.9403 51.5598 47.8037L50.9402 47.2889C50.7565 47.1499 50.6013 47.0343 50.468 46.9428L50.0805 46.6603L50.3753 46.9977C50.5667 47.2144 50.8595 47.5324 51.204 47.9762C52.198 49.232 53.0628 50.585 53.7854 52.0145C54.8772 54.2051 55.6816 56.5275 56.1786 58.9243C56.481 60.3851 56.6813 61.8652 56.7779 63.3539C56.8982 64.9455 56.7848 66.5461 56.441 68.1047C56.0664 69.621 55.4059 71.0518 54.4951 72.3203C54.0665 72.9167 53.5954 73.4813 53.0854 74.0097C52.5915 74.5065 52.0646 74.9693 51.5084 75.395C49.5807 76.8302 47.3611 77.8236 45.0069 78.3052C43.4451 78.6404 41.8503 78.7974 40.2531 78.7729L39.8141 78.7638L40.1016 78.3626C40.5693 77.6678 40.9654 76.9273 41.2835 76.1524C41.7318 75.0743 42.0882 73.9601 42.3487 72.8218C42.539 72.031 42.6135 71.5918 42.6135 71.5918L42.0266 72.6049C41.6499 73.2962 41.1019 74.24 40.3386 75.3882C39.4986 76.72 38.3937 77.8644 37.0924 78.7502C36.9115 78.8664 36.7229 78.9702 36.5279 79.0609L36.2415 79.2069L35.9324 79.3224C35.4982 79.4896 35.0477 79.6107 34.5882 79.6837C34.0939 79.7781 33.533 79.8594 32.9728 79.9473L32.623 79.9817C32.0567 79.8084 31.5687 79.634 31.1733 79.47C30.7779 79.3061 30.4498 79.1617 30.2323 79.0784L30.0686 79.0095L30.0648 78.9706L30.0226 79.0074L29.879 78.943L29.9863 79.0372L29.8534 79.1484C29.6609 79.3032 29.4558 79.4417 29.2402 79.5621C28.4222 79.9697 27.5355 80.2211 26.6255 80.3036L25.7252 80.3921L25.1024 80.3094C24.0982 80.1469 23.1251 79.8299 22.2177 79.3697C22.5594 79.153 22.8102 78.8188 22.923 78.43C22.9742 78.2372 22.9541 78.0324 22.8663 77.8533C22.9196 78.0179 22.9163 78.1955 22.8571 78.358C22.7625 78.5531 22.6294 78.7269 22.4658 78.869C22.3022 79.011 22.1115 79.1184 21.9052 79.1845C21.5455 78.9826 21.1999 78.7565 20.8708 78.5077C20.0323 77.8853 19.3399 77.0869 18.8423 76.1685C18.7087 75.9157 18.5933 75.6538 18.4971 75.3846L18.3913 75.1071L18.4232 75.4311C18.423 75.7488 18.4542 76.0656 18.5163 76.3772C18.7814 77.5351 19.3369 78.6064 20.1304 79.49L19.3909 79.4842C18.3289 79.4206 17.2839 79.1877 16.2953 78.7943C15.0836 78.3055 13.9648 77.6121 12.9875 76.7446C11.8405 75.7464 10.8777 74.5543 10.143 73.2228L9.99248 72.9562L9.86727 72.6806C9.77754 72.4997 9.69365 72.3117 9.60328 72.1243C9.51291 71.9369 9.46075 71.7392 9.38917 71.5434C9.30838 71.3498 9.24075 71.1509 9.18675 70.9482C8.92975 70.1004 8.74797 69.2315 8.64355 68.3517C8.43806 66.4337 8.5207 64.4957 8.88872 62.6022C9.26336 60.6743 9.83856 58.7909 10.605 56.9829C11.315 55.3294 12.1241 53.7203 13.0277 52.1642C14.6972 49.1929 16.4081 46.6429 17.7213 44.5049C18.3744 43.433 18.9458 42.4607 19.3972 41.5984C19.5413 41.3356 19.6861 41.0792 19.818 40.8241C20.2619 41.2211 20.7614 41.5511 21.3007 41.8037C21.9006 42.0826 22.5335 42.2842 23.1842 42.4036C22.9129 42.7705 22.565 43.2889 22.1599 43.9569C19.7415 48.0642 18.4934 52.7558 18.551 57.5228C18.5639 58.3852 18.6238 59.0598 18.6761 59.5258C18.7285 59.9917 18.7787 60.2354 18.7787 60.2354C18.7787 60.2354 18.8846 59.9829 19.0582 59.5536C19.2317 59.1243 19.4769 58.4262 19.7618 57.5999C20.3258 55.9545 21.0713 53.6956 21.7416 51.1367C22.4119 48.5778 22.9082 46.2454 23.2372 44.538C23.4017 43.6842 23.5155 42.9795 23.5991 42.5001C24.0615 42.5665 24.528 42.5993 24.9951 42.5983C26.2808 42.57 27.5626 42.4438 28.8292 42.2211C29.9504 42.0519 31.0185 41.8748 32.0471 41.6951C32.8189 41.8839 33.6016 42.0254 34.3906 42.1188C35.227 42.2307 36.0711 42.2746 36.9146 42.25C37.0649 42.6474 37.2649 43.1512 37.5081 43.762C37.8029 44.4985 38.1506 45.3738 38.4566 46.3579C38.7627 47.342 39.0181 48.475 39.3017 49.7623C39.5853 51.0496 39.856 52.2727 40.1982 53.3579C40.4842 54.3157 40.8645 55.2427 41.3337 56.1252C41.6427 56.6952 42.0067 57.2335 42.4204 57.7326C42.7216 58.0694 42.8949 58.2356 42.8949 58.2356C42.8949 58.2356 42.8688 57.9699 42.74 57.5245C42.7177 57.2977 42.6514 57.0229 42.5878 56.7085C42.5241 56.3942 42.4819 56.0319 42.4359 55.6307C42.3575 54.8336 42.2644 53.8875 42.1586 52.8117C42.0652 51.6148 41.8957 50.4251 41.6512 49.2498C41.3964 48.0103 40.9704 46.8124 40.3855 45.6905C39.893 44.8066 39.294 43.9866 38.6019 43.2487C38.2218 42.8411 37.8752 42.5088 37.5874 42.2427L38.2351 42.179C39.0396 42.0744 39.832 41.8913 40.6008 41.6321L41.7674 42.7213L41.9407 42.8875C41.9961 42.9344 42.0472 42.9863 42.0932 43.0426L42.2942 43.2911L42.6982 43.8075L42.9005 44.0689L43.0052 44.2026C43.0096 44.248 43.0523 44.283 43.0821 44.3194C43.1757 44.4737 43.2759 44.6274 43.376 44.7812L43.6706 45.2495L43.7177 45.3299L43.7241 45.3947L43.7958 45.5251C43.9928 45.8656 44.1787 46.2268 44.3582 46.5886C45.3762 48.6281 46.1974 50.7262 47.0486 52.5988C47.8999 54.4715 48.7029 56.1199 49.3749 57.4998C50.7571 60.2494 51.7091 61.8832 51.7091 61.8832C51.7091 61.8832 51.3718 60.1824 50.603 57.2874C50.2057 55.8412 49.7013 54.1045 49.0549 52.1201C48.7352 51.1308 48.3903 50.0851 47.9912 48.9531C47.5689 47.7703 47.0794 46.6126 46.5253 45.4855C46.3148 45.0744 46.105 44.6697 45.8711 44.287L45.7284 44.0328L45.6838 43.9783L45.6451 43.9167L45.4478 43.7725L45.1781 43.5569L45.0927 43.4868C45.0881 43.4722 45.0866 43.4567 45.0882 43.4415C45.0831 43.3896 45.1978 43.3587 45.3688 43.3681C45.4782 43.3748 45.5869 43.3904 45.6938 43.4146L45.888 43.4609L45.9398 43.4558L46.0491 43.504L46.2672 43.5937C46.8464 43.8312 47.3557 44.0886 47.817 44.3246C48.5233 44.6971 49.196 45.1301 49.8277 45.6186C50.0534 45.7861 50.2053 45.9348 50.3185 46.0218L50.4828 46.1627L50.3588 45.9655C50.2748 45.8429 50.163 45.638 49.9827 45.4005C49.4688 44.7029 48.8729 44.0695 48.2081 43.514C47.7363 43.1171 47.2415 42.7485 46.7262 42.4101L46.5166 42.2736L46.197 42.0826C45.9686 41.9546 45.7273 41.8279 45.5054 41.6992C45.0013 41.4282 44.4739 41.1856 43.9051 40.9209L42.9799 40.4231C43.3122 40.2074 43.632 39.9728 43.9374 39.7204L44.4165 39.3395L44.2805 38.9538L44.2083 38.7515L44.1987 38.6543L44.151 38.502L44.0576 38.2167L44.0118 38.0838C44.0073 38.0384 44.0022 37.9866 43.9414 37.9664C43.6715 37.7783 43.3819 37.6202 43.0776 37.4952C42.6928 37.3399 42.289 37.2366 41.8769 37.1881L41.4294 37.1601C41.4762 37.1031 41.5281 37.0326 41.5813 36.975C41.804 36.7003 41.9939 36.4005 42.1473 36.0818C42.2914 35.7896 42.3585 35.4655 42.3424 35.14C42.3297 34.8581 42.2201 34.5892 42.0321 34.3788C41.9577 34.2944 41.8734 34.2192 41.7811 34.1549C41.8525 34.0824 41.9226 33.997 41.9926 33.9116C42.1598 33.7106 42.3049 33.4924 42.4256 33.2605C42.6624 32.8284 42.7643 32.3352 42.7178 31.8446C42.689 31.6072 42.6176 31.3771 42.5071 31.1652C42.3831 30.9571 42.2279 30.7693 42.0469 30.6085C41.7346 30.3547 41.3557 30.1966 40.9558 30.1531C40.7145 30.1263 40.4711 30.124 40.2293 30.1461L39.6269 30.2053L38.772 30.2894C39.0016 29.9551 39.2494 29.6337 39.5143 29.3265C40.1014 28.6472 40.8505 27.8864 41.6479 26.8854C42.5191 25.7753 43.2347 24.5513 43.7749 23.2474C44.3214 21.9382 44.668 20.5542 44.803 19.1418C44.9184 18.0049 44.8803 16.8577 44.6897 15.7309C44.6165 15.2992 44.5199 14.8719 44.4003 14.4507C44.2856 14.0825 44.1967 13.7772 44.0941 13.5321C43.889 13.0419 43.7656 12.7857 43.7656 12.7857C43.7656 12.7857 43.74 13.0565 43.7153 13.5366C43.6906 14.0167 43.6099 14.7248 43.4849 15.5812C43.1015 17.8955 42.446 20.1563 41.5319 22.3165C41.0295 23.5359 40.4659 24.7291 39.8434 25.8917C39.2989 26.8383 38.8121 27.8171 38.3857 28.8225C38.1926 29.3195 38.0527 29.8355 37.9683 30.362C36.476 30.5481 35.04 30.7744 33.7038 31.0171C33.2343 30.9868 32.7674 30.9256 32.3059 30.8341L31.5369 30.6611L31.5676 30.5076C31.625 30.2271 31.6753 29.9408 31.7256 29.6545C31.8185 29.0695 31.8893 28.4606 31.9388 27.8341C32.0841 25.7045 31.9177 23.565 31.4448 21.4835C31.2621 20.6901 31.0759 20.0606 30.9354 19.6295C30.7949 19.1984 30.6936 18.9663 30.6936 18.9663C30.6936 18.9663 30.6376 19.1942 30.5566 19.6341C30.4756 20.0739 30.3633 20.6607 30.243 21.4316C30.0017 22.9668 29.7297 25.1201 29.5502 27.6831C29.5039 28.342 29.4648 28.9413 29.438 29.5328C29.4247 29.7304 29.4167 29.9144 29.4092 30.1049C28.5053 29.8426 27.5834 29.6468 26.6509 29.5191C26.1949 29.465 25.736 29.4402 25.2769 29.4449C25.1583 29.0814 25.0121 28.6596 24.8385 28.1794C24.233 26.4788 23.2387 24.1491 22.2107 21.4105C21.6831 20.036 21.2447 18.7705 20.8955 17.614C20.802 17.3288 20.7228 17.0552 20.6507 16.7875C20.5786 16.5198 20.5 16.2527 20.4369 16.0102C20.322 15.562 20.2315 15.1078 20.1657 14.6497C20.0581 13.9971 20.0722 13.3301 20.2076 12.6827C20.2424 12.5035 20.293 12.3277 20.3586 12.1574L20.4256 11.9742L20.2622 12.108C20.1109 12.2482 19.9706 12.3998 19.8425 12.5615C19.3801 13.2038 19.0767 13.9468 18.9572 14.7294C18.8657 15.2633 18.8204 15.8041 18.822 16.3458C18.8252 16.9544 18.8653 17.5623 18.9422 18.1661C19.1142 19.5566 19.4571 20.9206 19.963 22.2271C20.8591 24.5449 22.1067 26.7107 23.6618 28.6485C23.9145 28.9573 24.153 29.2545 24.3981 29.4856C23.9305 29.5419 23.4696 29.6442 23.0222 29.7911C22.0556 30.1066 21.1922 30.6776 20.5233 31.4437L20.3552 31.6631C20.3316 31.4233 20.266 31.155 20.203 30.8471C19.9859 29.9929 19.696 29.1589 19.3365 28.3543C18.9287 27.3999 18.3741 26.3486 17.7568 25.1923C17.0691 23.9624 16.4753 22.6822 15.9806 21.3626C15.4607 19.8438 15.1849 18.2521 15.1635 16.6469C15.1507 16.4289 15.151 16.2104 15.1645 15.9925L15.1914 15.3355L15.2636 14.6741L15.303 14.343L15.3689 14.0159C15.5181 13.1244 15.7774 12.2549 16.1409 11.4274C16.8874 9.67486 18.1788 8.21003 19.8235 7.25033C21.5771 6.31583 23.4981 5.73766 25.476 5.5491C26.4443 5.42111 27.419 5.35792 28.3548 5.29855C29.2906 5.23919 30.2426 5.21097 31.1304 5.19559C32.7633 5.1377 34.3977 5.25772 36.0047 5.55353C37.3422 5.79413 38.6187 6.29794 39.7603 7.03576C40.2503 7.35487 40.7036 7.7272 41.1119 8.14597C41.479 8.5192 41.8121 8.92437 42.1073 9.35668C42.5743 10.0449 42.9134 10.8117 43.1082 11.6203C43.1806 11.9143 43.2297 12.2136 43.2551 12.5154C43.2806 12.7746 43.2706 13.0046 43.2671 13.1685L43.217 13.7231L43.3753 13.1382C43.4885 12.5626 43.5164 11.9734 43.4583 11.3896C43.3562 10.4441 43.0637 9.52911 42.5985 8.69981C41.9842 7.57398 41.1411 6.58931 40.1235 5.80915C38.8593 4.88201 37.4246 4.21376 35.9018 3.84279C34.1903 3.42129 32.4373 3.19216 30.6751 3.15965C28.7452 3.0793 26.8121 3.12524 24.8883 3.29717C22.6908 3.47866 20.5554 4.11663 18.6183 5.17037C17.6053 5.75426 16.6996 6.50727 15.9405 7.39681C15.5684 7.82324 15.2283 8.27662 14.923 8.75323C14.6416 9.22725 14.3885 9.71754 14.1651 10.2215C13.3692 12.1146 13.0097 14.1627 13.1133 16.2139C13.2007 18.0159 13.5964 19.7895 14.2832 21.4577C14.8813 22.8578 15.6306 24.1883 16.5176 25.4255C17.282 26.5477 17.9799 27.526 18.5321 28.4204C19.0167 29.1748 19.4402 29.9668 19.7984 30.7888C19.9706 31.2102 20.0977 31.5707 20.1937 31.8819C19.9333 32.2693 19.7538 32.7054 19.6659 33.1639C19.6292 33.3289 19.6107 33.4975 19.6107 33.6666L19.6279 33.8416L19.7259 33.7076L19.8349 33.553C19.8888 33.5019 19.9407 33.4313 20.0055 33.3595C20.149 33.1991 20.3049 33.0503 20.4718 32.9145L20.4788 32.9858L20.4706 32.9015C20.7074 32.715 20.9603 32.55 21.2264 32.4084C21.9013 32.0643 22.6332 31.846 23.3863 31.764C24.3754 31.6833 25.3706 31.7172 26.352 31.8648C27.0862 31.9496 27.8087 32.0486 28.5157 32.123L27.4255 32.407C25.9095 32.8178 24.6967 33.1858 23.8668 33.4572C23.0369 33.7287 22.6021 33.8957 22.6021 33.8957C22.6021 33.8957 23.0457 33.8848 23.8591 33.844C24.6725 33.8033 25.8822 33.7366 27.3957 33.6335L29.1813 33.5036L29.1845 33.536L29.1972 33.6656C29.2017 33.711 29.1685 33.7731 29.2502 33.7389L30.5251 33.4041C33.1202 33.1945 36.3034 32.9141 39.8578 32.5513L40.0326 32.5341C40.0326 32.5341 40.0358 32.5665 39.9866 32.5975L39.8607 32.7145C39.6688 32.8905 39.484 33.0722 39.259 33.2449C38.5291 33.8961 37.7558 34.4968 36.9445 35.043C36.2245 35.5301 35.4782 35.977 34.709 36.3818C33.9941 36.7597 33.3189 37.0748 32.6968 37.3323C31.7228 37.7391 30.7233 38.0823 29.7048 38.3595C29.3491 38.4665 29.0674 38.5269 28.8892 38.5771L28.6087 38.6506L28.9176 38.666C29.1248 38.6456 29.4304 38.694 29.8286 38.6876C30.9662 38.6934 32.1013 38.5817 33.2159 38.3543C35.974 37.7851 38.5671 36.597 40.7996 34.8796L41.4538 34.3507L41.5012 34.3002C41.5811 34.3898 41.6463 34.4917 41.6943 34.6018C41.7196 34.6924 41.7289 34.7867 41.7218 34.8805C41.7269 34.977 41.7142 35.0736 41.6844 35.1655C41.6081 35.3932 41.4836 35.6019 41.3195 35.7772C41.1127 36.0004 40.8881 36.2064 40.6477 36.3929C40.3812 36.6089 40.096 36.8333 39.7978 37.0589C39.1716 37.5381 38.4881 37.9372 37.7632 38.2471L36.289 37.6855C36.5754 37.9387 36.8761 38.2035 37.1756 38.4554C36.5275 38.6438 35.8646 38.7769 35.1941 38.8532L31.9603 39.2172C30.8333 39.3281 29.6681 39.5147 28.4698 39.698C27.2715 39.8814 26.14 40.0778 25.1135 40.1461C24.166 40.2378 23.2097 40.1568 22.2911 39.9068C21.5144 39.6927 20.8106 39.2711 20.2551 38.6873C19.7956 38.1599 19.5155 37.5001 19.455 36.803C19.3951 36.2123 19.5478 35.6195 19.8856 35.1314C20.1846 34.7241 20.5245 34.3487 20.9001 34.0109C21.535 33.4184 21.8742 33.0775 21.8742 33.0775L20.7537 33.6523C20.2905 33.8872 19.8515 34.1671 19.443 34.4879C18.8314 34.9918 18.4167 35.6952 18.2718 36.4745C18.0978 37.4631 18.2602 38.4816 18.7329 39.3671C18.9116 39.6895 19.1255 39.991 19.3707 40.2662C19.1539 40.5885 18.8904 40.9677 18.6037 41.31C17.9834 42.117 17.269 43.0314 16.4729 44.0454C14.8936 46.0721 12.9389 48.4695 11.0312 51.4119C8.84241 54.6622 7.315 58.3121 6.53618 62.1532C5.71477 65.9566 6.20681 69.9265 7.93189 73.4142C7.94018 73.4984 7.94847 73.5827 7.95803 73.6799C8.07058 74.6376 8.35477 75.5672 8.79695 76.424C9.48721 77.7916 10.4667 78.9924 11.6674 79.9432C12.4045 80.5427 13.212 81.05 14.072 81.4536C15.0223 81.8927 16.02 82.2205 17.0454 82.4305C18.9596 82.799 20.9236 82.8273 22.8475 82.5139C23.4368 82.4559 23.979 82.3175 24.5037 82.2004C24.6384 82.2395 24.7743 82.2916 24.9148 82.3236C27.1024 82.8374 29.3703 82.9101 31.5862 82.5374C32.1627 82.4807 32.7262 82.3598 33.2723 82.2603C33.8183 82.1608 34.3437 82.0502 34.8995 81.917L34.9772 81.9093C36.5146 82.4855 38.1259 82.8403 39.763 82.963C40.325 83.0255 40.9136 83.0265 41.5158 83.0327C42.1181 83.0388 42.7469 82.9835 43.3797 82.9016C44.7201 82.7402 46.0384 82.4306 47.3105 81.9783C48.5806 81.5135 49.7933 80.9047 50.9248 80.1636C51.4477 79.8257 51.9531 79.4615 52.4391 79.0723C52.8976 78.6805 53.3533 78.3281 53.749 77.8965C55.1513 76.5346 56.321 74.9518 57.2116 73.2112C57.7699 72.1102 58.2041 70.9504 58.5062 69.7533C58.5394 69.6257 58.5603 69.5059 58.589 69.3984C58.6625 69.149 58.7361 68.8997 58.796 68.6451C59.1713 66.9372 59.27 65.18 59.0883 63.4407ZM40.8158 37.8355C40.9514 37.6848 41.074 37.5353 41.1908 37.393C41.315 37.4593 41.4671 37.5424 41.6417 37.6561C41.9453 37.8496 42.2298 38.0713 42.4916 38.3184C42.5858 38.3983 42.6677 38.4917 42.7347 38.5955C42.1243 38.8232 41.5013 39.0155 40.8688 39.1717L40.2677 39.3093L40.1654 39.2671L39.5933 39.0354C40.0276 38.6637 40.436 38.2628 40.8158 37.8355ZM18.5712 80.2585L19.119 80.2438C19.6305 80.2004 20.1384 80.122 20.6392 80.0092C20.8196 80.1812 21.0124 80.3455 21.2187 80.5149C20.3322 80.4773 19.4484 80.3916 18.5712 80.2585ZM31.257 80.1881C30.4318 80.3085 29.6358 80.3934 28.8671 80.4232C29.1108 80.2389 29.3335 80.0283 29.5312 79.7952C29.6965 79.6059 29.8427 79.4008 29.968 79.1829L30.0394 79.045L30.1532 79.1386C30.3233 79.2723 30.5671 79.4904 30.91 79.7184C31.0723 79.8398 31.2619 79.9717 31.465 80.1087L31.257 80.1881ZM46.4948 79.7357C44.4304 80.4699 42.2663 80.8858 40.0769 80.9692C39.2031 81.0044 38.3281 80.9879 37.4563 80.9195C37.641 80.8032 37.8251 80.6804 38.0021 80.5517C38.597 80.1026 39.1323 79.5794 39.5949 78.9948C39.8027 79.0463 40.037 79.1017 40.3037 79.154C42.008 79.5004 43.7532 79.5997 45.4857 79.449C46.4559 79.3575 47.4167 79.1842 48.3578 78.9308C47.7784 79.2234 47.1511 79.4945 46.4948 79.7357Z" fill="#8FBA64"/>
</g>
<g clip-path="url(#clip1_1001_48039)">
<path d="M75.764 23.5168C75.6818 23.5841 75.6093 23.662 75.5483 23.7485C75.4314 23.9192 75.3261 24.0973 75.2329 24.2818C75.0022 24.713 74.8022 25.1598 74.6346 25.6188C74.4036 26.2386 74.2856 26.8943 74.286 27.5556C74.2907 27.987 74.373 28.4145 74.529 28.8181C74.7106 29.2867 74.9903 29.7126 75.3497 30.0679C76.0733 30.6938 76.9344 31.1445 77.8643 31.3842C78.6538 31.6407 79.4989 31.8765 80.385 32.0892C83.0142 32.7253 85.7109 33.0417 88.4152 33.0313C88.0067 33.3753 87.6595 33.7846 87.3881 34.2422C86.7903 35.4174 86.4041 36.687 86.2466 37.9944C86.0524 39.2326 85.8066 40.5143 85.6016 41.8688C85.4955 42.5455 85.3928 43.2005 85.2912 43.8484C85.1896 44.4963 85.0993 45.0722 85.0045 45.6769C84.9966 45.7273 84.9954 45.7345 85.0588 45.7592L85.1699 45.8135L85.3764 45.927L85.7966 46.1551L86.5955 46.5902L88.2101 47.4482C88.7196 47.7272 89.2071 48.0028 89.6716 48.2822C91.2933 49.1697 92.7506 50.3236 93.9805 51.6943C94.7701 52.6008 95.3847 53.6422 95.7936 54.7667C95.9032 55.0751 95.9937 55.3898 96.0645 55.709L96.1399 56.038L96.1964 55.678C96.2258 55.3181 96.2301 54.9565 96.2091 54.5958C96.0954 53.2293 95.6751 51.9036 94.9788 50.715C93.9112 48.9461 92.4842 47.4138 90.7881 46.2151C90.3265 45.8698 89.8407 45.5355 89.3392 45.206L88.5785 44.718L88.1897 44.48L87.999 44.3616L88.0362 44.124C88.1322 43.5121 88.2304 42.8858 88.3297 42.2523C88.5284 40.9854 88.685 39.7487 88.8263 38.5612C88.8942 37.5207 89.0732 36.4906 89.3606 35.4882C89.4842 35.1262 89.6814 34.7932 89.9401 34.5096C90.2671 34.1976 90.6216 33.9151 90.9995 33.6652C91.452 33.3553 91.8558 32.9813 92.1977 32.555C92.5144 32.1606 92.7675 31.7202 92.9481 31.2492C93.2569 30.487 93.3858 29.6649 93.3252 28.8448C93.2691 28.2488 93.1074 27.6666 92.8473 27.1251C92.6835 26.796 92.4811 26.487 92.2442 26.2044L92.3425 26.1018C92.4407 25.9931 92.5186 25.868 92.5724 25.7322C92.6134 25.6143 92.6329 25.49 92.63 25.3651C92.623 25.1699 92.5682 24.9791 92.4705 24.809C92.4122 24.6963 92.3253 24.6003 92.2183 24.5305C92.1113 24.4607 91.9879 24.4195 91.8601 24.4109C91.7824 24.4171 91.7071 24.4406 91.64 24.4797C91.7147 24.4738 91.7897 24.4856 91.8589 24.514C91.9336 24.5657 91.9936 24.6355 92.0333 24.7167C92.0729 24.7978 92.0908 24.8875 92.0853 24.9773C92.0837 25.0963 92.0525 25.2129 91.9946 25.3171C91.9266 25.4171 91.866 25.4223 91.7295 25.482C91.3788 25.5424 91.0178 25.5112 90.6822 25.3916L90.1469 25.2781C90.2924 25.0649 90.4869 24.7782 90.7241 24.4098C91.5139 23.1649 92.2168 21.868 92.8278 20.5281C93.217 19.6672 93.6135 18.7115 93.9871 17.6638C94.1678 17.1315 94.3507 16.5849 94.5224 16.0144C94.7182 15.3908 94.8633 14.7525 94.9563 14.1057C95.0811 13.2844 94.9888 12.4442 94.6884 11.6666C94.4967 11.1985 94.2062 10.7758 93.8363 10.4267C93.474 10.0999 93.0574 9.83747 92.6049 9.65087C91.8658 9.37684 91.0999 9.1801 90.3198 9.06389L88.1962 8.68661C86.737 8.45779 85.3581 8.24156 84.0084 8.0299L83.0015 7.87201C82.717 7.82739 82.3741 7.77363 82.075 7.72672C81.7928 7.71109 81.5108 7.75486 81.2475 7.85511C80.9909 7.96038 80.7679 8.1317 80.6016 8.35125C80.4351 8.57497 80.3163 8.82981 80.2524 9.10044L80.1835 9.53956L80.1282 9.8923C80.1033 10.0507 80.0796 10.2018 80.0548 10.3602C79.6287 12.5361 79.3949 14.7451 79.3559 16.9625C79.3062 18.4402 79.3488 19.9199 79.4833 21.3932C79.4851 21.4587 79.4924 21.524 79.5051 21.5884L79.3182 21.4927C78.8271 21.2733 78.2963 21.1549 77.7581 21.1448C76.9686 21.1326 76.1937 21.3496 75.5298 21.7689L74.9974 22.1132L75.3222 22.9017C75.4411 23.1252 75.5897 23.3321 75.764 23.5168ZM90.6996 26.7588C90.9948 26.7344 91.2857 26.6735 91.5652 26.5774C91.7562 26.5024 91.9356 26.4014 92.0982 26.2774C92.2188 26.5718 92.3086 26.8776 92.3662 27.1898C92.4549 27.6788 92.4649 28.1782 92.3958 28.6696C92.3123 29.3058 92.1044 29.9195 91.7836 30.4765C91.4124 31.1175 90.8637 31.6403 90.2016 31.9838L89.1455 31.6633C87.0665 31.0497 84.2253 30.2427 81.012 29.4733C80.2123 29.2815 79.425 29.1064 78.6741 28.937C78.0773 28.8438 77.4959 28.6707 76.9458 28.4226C76.7679 28.3273 76.6079 28.2024 76.4729 28.0534C76.3408 27.8784 76.2351 27.6854 76.1591 27.4805C76.0082 27.0093 75.9363 26.5172 75.9465 26.0237C75.9479 25.5621 75.9753 25.101 76.0285 24.6425C76.0431 24.3995 76.0809 24.1585 76.1414 23.9227C76.3151 24.0677 76.4992 24.2001 76.6923 24.3188C77.2394 24.6184 77.8137 24.8665 78.4075 25.0599C79.6483 25.5047 80.9177 25.8664 82.2071 26.1425C83.7707 26.4833 85.3584 26.7026 86.9557 26.7986C87.6954 26.8482 88.3437 26.8614 88.9578 26.8544C89.271 26.8593 89.5707 26.8547 89.8497 26.8394C90.1287 26.8242 90.4026 26.7933 90.6996 26.7588ZM79.9082 21.4967C80.0583 20.5393 80.2762 19.1499 80.61 17.4026C80.9438 15.6552 81.4435 13.5651 82.1393 11.2255L82.2761 10.7823L82.311 10.5591L82.3291 10.444L82.3381 10.3864C82.3381 10.3864 82.3472 10.3288 82.4089 10.3163C82.4707 10.3039 82.4819 10.3278 82.5038 10.3312L82.7664 10.3724L83.2845 10.4536C84.6762 10.7309 86.129 11.0005 87.6428 11.2625L89.8972 11.616C90.4998 11.6805 91.0936 11.8107 91.6677 12.0043C91.8347 12.069 91.9872 12.1656 92.1165 12.2885C92.2337 12.4049 92.324 12.5449 92.3811 12.6988C92.5334 13.1508 92.5858 13.6293 92.5348 14.1022C92.5191 14.3791 92.4883 14.655 92.4426 14.9286C92.3975 15.2165 92.3523 15.5045 92.3083 15.7852C92.2202 16.3467 92.1356 16.8866 92.0094 17.4053C91.7946 18.4411 91.5777 19.3954 91.3535 20.2527C90.9114 21.9757 90.4915 23.3186 90.1904 24.2376L89.8905 25.1494C87.9752 24.6351 85.4527 23.9888 82.6917 23.3862C81.6209 23.1593 80.5928 22.9464 79.6197 22.7643C79.6423 22.6203 79.6818 22.3684 79.7393 22.0013L79.9436 22.0333L80.2505 22.1257L80.0319 21.8996L79.7783 21.705L79.9082 21.4967ZM77.9155 22.2389C78.3245 22.0966 78.7555 22.0245 79.1898 22.0257C79.3357 22.0486 79.467 22.0692 79.5894 22.0515C79.6173 22.255 79.6424 22.4286 79.6658 22.565L79.7044 22.844L79.1353 22.7547C78.537 22.6609 78.0555 22.5854 77.6885 22.4467L77.5718 22.4284C77.682 22.3579 77.7968 22.2946 77.9155 22.2389Z" fill="#8FBA64"/>
<path d="M100.318 60.5284C100.121 59.5331 99.767 58.5741 99.2685 57.6864C99.0987 57.3869 98.9445 57.1783 98.8554 57.0316L98.7097 56.817L98.8425 57.0664C98.9737 57.3097 99.0918 57.5596 99.196 57.8152C99.5974 58.7905 99.8319 59.8243 99.8899 60.8743C99.9145 61.2313 99.9207 61.5892 99.9086 61.9467C99.851 62.3138 99.8776 62.7163 99.8133 63.1266C99.6991 64.0118 99.5046 64.8848 99.2323 65.735C98.5561 67.8179 97.557 69.7835 96.2704 71.562C94.7617 73.7567 92.9178 75.7066 90.8039 77.343C89.6373 78.229 88.3825 78.9959 87.0586 79.6322C85.6601 80.2939 84.1849 80.7858 82.6652 81.0969C79.4351 81.8085 76.0584 81.5361 72.9801 80.3157C71.3447 79.6187 69.7946 78.7397 68.3601 77.6957C66.8406 76.6314 65.4195 75.436 64.1136 74.1237C63.4691 73.4767 62.8732 72.7842 62.3305 72.0518C62.0595 71.6988 61.8076 71.3318 61.576 70.9525L61.2307 70.3895L60.918 69.8094C60.1159 68.2717 59.5527 66.6243 59.2473 64.9228C58.9698 63.3631 58.8997 61.7751 59.0387 60.1991L59.0971 60.2083C59.7254 60.0215 60.3855 59.9596 61.0393 60.0261C61.9042 60.1103 62.7459 60.3549 63.5202 60.747C64.4672 61.2609 65.3302 61.9135 66.0797 62.6825C66.9445 63.5557 67.8226 64.5343 68.8949 65.6096C70.0594 66.7823 71.3834 67.7894 72.8286 68.6015C74.4445 69.5044 76.1898 70.1586 78.0038 70.5415C79.8208 70.9243 81.6857 71.0277 83.5323 70.8479C87.8873 70.3948 91.9053 68.3459 94.7936 65.1054C95.4378 64.3896 96.0122 63.6154 96.5092 62.7929C96.5604 62.705 96.6115 62.6172 96.6688 62.5376C96.7262 62.4581 96.7734 62.3475 96.8173 62.2585C96.9022 62.0831 96.9754 61.9024 97.0367 61.7176C97.1349 61.3954 97.1873 61.061 97.1924 60.7242C97.206 60.4563 97.1695 60.1881 97.0848 59.9329C97.015 59.7499 96.9024 59.5857 96.7563 59.4536C96.6402 59.3569 96.5079 59.2812 96.3653 59.23C96.5075 59.2955 96.6353 59.3882 96.7411 59.5028C96.8411 59.6909 96.8985 59.8981 96.9092 60.11C96.9199 60.3218 96.8836 60.5333 96.8029 60.7295C96.704 61.021 96.5699 61.2996 96.4036 61.5593C96.3077 61.7036 96.2036 61.8424 96.0918 61.9751C95.9732 62.1114 95.8294 62.2659 95.6867 62.4131C95.0507 63.095 94.3618 63.7267 93.6262 64.3027C91.734 65.7736 89.5724 66.8717 87.2583 67.5378C85.9082 67.9251 84.5151 68.1499 83.1092 68.2074C81.5972 68.2672 80.0828 68.1363 78.6028 67.8179C77.1173 67.5073 75.6752 67.0186 74.3085 66.3627C73.0397 65.7441 71.8472 64.9829 70.7547 64.0942C69.6934 63.2345 68.6822 62.2941 67.6384 61.4666C66.6615 60.6693 65.5681 60.0228 64.3957 59.5493C63.5572 59.2149 62.6592 59.0525 61.7565 59.072C60.8537 59.0915 59.9652 59.2925 59.1453 59.6627C59.316 58.1511 59.6891 56.6694 60.2549 55.2563C61.385 52.5 63.23 50.0882 65.6051 48.2623C67.6824 46.6418 70.087 45.4777 72.6591 44.8472C72.9544 44.7755 73.2536 44.7265 73.5466 44.6692L73.9789 44.5821L74.4128 44.5321L74.8406 44.4738C74.9965 44.447 75.154 44.4298 75.3121 44.4224L76.4645 44.3671L76.7351 44.3579L76.7934 44.367L76.8273 44.1511C76.8578 43.9567 76.8871 43.7695 76.9176 43.5752C76.9481 43.3808 76.9752 43.208 77.0045 43.0209L77.0723 42.5889C77.1536 42.0706 77.2337 41.5595 77.3105 41.07C77.5664 39.104 77.7139 37.4012 77.7813 36.0177C77.8488 34.6343 77.876 33.5543 77.8784 32.8245L77.8726 31.7173L77.7656 32.7331C77.6606 33.4026 77.579 34.4002 77.3926 35.6839C77.2063 36.9675 76.941 38.5634 76.551 40.383C76.4777 40.8509 76.3521 41.318 76.2377 41.809C76.1982 42.061 76.1223 42.3072 76.0665 42.5197L76.0202 42.8149L75.9841 43.0452L75.9491 43.2684C75.8688 43.2558 75.7667 43.2398 75.6723 43.2693L75.1077 43.2471C74.511 43.2863 73.8812 43.2982 73.2525 43.3987C72.6238 43.4993 71.9793 43.6047 71.3157 43.7367C70.6522 43.8687 69.9992 44.076 69.3333 44.3183C67.9359 44.8108 66.5972 45.4516 65.3408 46.2294C62.4344 48.0006 60.0676 50.5134 58.4889 53.5043C57.1683 56.161 56.4716 59.0797 56.4507 62.0437C56.4297 65.0078 57.085 67.9413 58.3679 70.6265C58.615 71.1004 58.8441 71.5936 59.1396 72.0456L59.5678 72.7471C59.727 72.9712 59.8705 73.2002 60.0381 73.4183C60.6812 74.3186 61.3924 75.1699 62.1655 75.9646C63.6773 77.4794 65.3362 78.8439 67.1182 80.0382C68.8245 81.2343 70.6842 82.2007 72.6478 82.9115C74.5533 83.5676 76.5572 83.8968 78.5726 83.8849C80.4522 83.8746 82.3197 83.6012 84.1194 83.073C85.8044 82.5873 87.42 81.894 88.9282 81.0096C90.3039 80.1885 91.5911 79.2314 92.7699 78.1528C94.8105 76.2611 96.5392 74.0663 97.8941 71.647C100.354 67.2606 100.842 63.0962 100.318 60.5284Z" fill="#8FBA64"/>
<path d="M82.6626 65.9098C81.9525 66.2894 81.1482 66.4648 80.3407 66.4161C80.1097 66.3972 79.8805 66.3613 79.6548 66.3085L79.4141 66.2708L79.6199 66.4358C79.8326 66.5941 80.0621 66.7291 80.3043 66.8382C81.2469 67.2758 82.3141 67.3726 83.3189 67.1117C84.0708 66.9216 84.7603 66.5448 85.322 66.0171C85.9865 65.3915 86.469 64.6015 86.7199 63.7286C87.0214 62.7076 86.9856 61.617 86.6176 60.6147C86.2034 59.5234 85.4332 58.5981 84.4286 57.985C83.3954 57.337 82.154 57.0976 80.9531 57.3146C79.8927 57.5214 78.9297 58.0611 78.2076 58.8534C77.5613 59.5396 77.1459 60.4069 77.0183 61.3369C76.9281 62.1152 77.0636 62.9038 77.4092 63.6109C77.8402 64.5552 78.6079 65.311 79.5655 65.734C79.8087 65.8365 80.0629 65.911 80.3231 65.956L80.5857 65.9972L80.3827 65.8621C80.3012 65.8079 80.223 65.7488 80.1487 65.6853C80.0453 65.6042 79.9466 65.5173 79.8532 65.425C79.285 64.8603 78.9028 64.1394 78.7571 63.3576C78.6625 62.8704 78.6899 62.3683 78.8369 61.895C79.0011 61.3745 79.3122 60.9116 79.7339 60.5605C80.1878 60.1738 80.746 59.9257 81.341 59.8463C81.9391 59.7774 82.5438 59.9165 83.0509 60.2398C83.6087 60.5704 84.0532 61.0591 84.3261 61.642C84.5608 62.1851 84.6331 62.7826 84.5345 63.3637C84.4457 63.9177 84.2303 64.4438 83.9045 64.9024C83.5757 65.3291 83.1506 65.674 82.6626 65.9098Z" fill="#8FBA64"/>
<path d="M72.5567 49.9794C72.7469 49.75 72.9798 49.5587 73.2431 49.4159C73.7685 49.0992 74.3916 48.9778 75.0011 49.0733C75.6106 49.1689 76.1667 49.4753 76.57 49.9376C76.8911 50.2761 77.1412 50.6738 77.3059 51.1077C77.3636 51.2643 77.409 51.4042 77.4319 51.4963L77.4699 51.635L77.5436 51.499C77.6212 51.3634 77.6837 51.2199 77.7303 51.071C77.9126 50.4794 77.9183 49.8478 77.7465 49.2518C77.607 48.7551 77.3637 48.2924 77.0322 47.8936C76.7008 47.4947 76.2885 47.1687 75.8221 46.9364C75.2058 46.6381 74.5254 46.4932 73.8405 46.5144C73.1556 46.5356 72.4871 46.7222 71.8935 47.0579C71.2495 47.4116 70.7192 47.9365 70.3626 48.5733C70.1705 48.9085 70.042 49.2758 69.9834 49.657C69.9326 50.0326 69.9564 50.4147 70.0537 50.7818C70.2067 51.298 70.4853 51.7698 70.8653 52.156C71.2452 52.5422 71.7148 52.8309 72.233 52.997C72.7949 53.1841 73.3844 53.2766 73.9767 53.2704C74.3746 53.2591 74.5953 53.2347 74.5953 53.2347C74.5953 53.2347 74.4371 53.0992 74.1432 52.8761C73.737 52.5887 73.3545 52.2697 72.9995 51.9223C72.7966 51.7207 72.6286 51.4875 72.5023 51.2322C72.378 50.9964 72.3188 50.7327 72.3306 50.4677C72.3196 50.3791 72.3336 50.2894 72.3712 50.2085C72.4263 50.127 72.4883 50.0504 72.5567 49.9794Z" fill="#8FBA64"/>
</g>
<defs>
<clipPath id="clip0_1001_48039">
<rect width="53" height="81" fill="white" transform="translate(0.160156 5.78906) rotate(-5.61934)"/>
</clipPath>
<clipPath id="clip1_1001_48039">
<rect width="44" height="76" fill="white" transform="translate(65.1523 5.05078) rotate(8.91227)"/>
</clipPath>
</defs>
</svg>
