<svg width="103" height="69" viewBox="0 0 103 69" fill="none" xmlns="http://www.w3.org/2000/svg">
<g clip-path="url(#clip0_1001_48055)">
<path d="M102.674 45.7287C102.445 45.3849 102.148 45.0913 101.802 44.8659L101.394 44.581L101.093 44.3775C100.899 44.2422 100.697 44.1172 100.49 44.0031C100.092 43.7664 99.681 43.5517 99.2594 43.3601C97.7413 42.6428 96.123 42.1597 94.4598 41.9275C93.0669 41.7228 91.653 41.7036 90.2551 41.8705C89.9515 41.8941 89.6495 41.9349 89.3506 41.9926C89.0816 42.0414 88.829 42.0821 88.5764 42.1391C89.626 40.9211 90.5387 39.5919 91.2981 38.1751C92.3067 36.3019 92.9978 34.2749 93.3434 32.1762C93.5051 31.1699 93.5705 30.1506 93.539 29.1319C93.539 28.8796 93.539 28.6354 93.4901 28.3831C93.4412 28.1307 93.4901 27.8947 93.4086 27.6505L93.2945 26.9342C93.2945 26.8121 93.2457 26.6982 93.2212 26.5761L93.1153 26.1365C92.936 25.3632 92.6752 24.647 92.4633 23.9307L92.4226 23.8004V23.7353L92.1456 23.8004L91.5915 23.9307L90.524 24.1911L90.0024 24.3377L89.6357 24.4435L89.0491 24.6388C88.6579 24.7691 88.2342 24.8993 87.9082 25.0377C86.5387 25.548 85.2048 26.149 83.9153 26.8365C82.0697 27.8101 80.3231 28.9605 78.7002 30.2715C78.1949 30.6785 77.8038 31.0122 77.5267 31.2645C77.429 30.4506 77.2985 29.6366 77.1437 28.8633C77.1437 28.7412 77.0949 28.6354 77.0704 28.5214C77.2415 28.4319 77.4208 28.3424 77.6245 28.2528C78.2112 27.9761 78.9609 27.7075 79.8328 27.3168C80.281 27.1296 80.7292 26.8528 81.2181 26.5923C81.4626 26.4458 81.6907 26.2749 81.9352 26.1121C82.1895 25.9446 82.4318 25.7597 82.6604 25.5586C84.5019 24.0141 85.9465 22.0518 86.8737 19.8357C87.8008 17.6196 88.1834 15.214 87.9897 12.82C87.9408 12.3479 87.8675 11.8677 87.7941 11.3874C87.7208 10.9072 87.5823 10.4269 87.4356 9.95484C87.3541 9.71065 87.2726 9.47461 87.183 9.23042C87.0642 8.81293 86.874 8.41913 86.6207 8.06646C86.3477 7.73403 85.9817 7.49033 85.5695 7.36643C85.1346 7.26397 84.6849 7.23917 84.2413 7.29318C80.498 7.51288 76.9156 8.88961 73.9902 11.2328C72.7492 12.2272 71.6523 13.3886 70.7307 14.684C69.9444 15.7879 69.2882 16.9788 68.775 18.2329C68.6772 18.4608 68.5957 18.6887 68.5224 18.9085C68.3833 17.8585 68.1598 16.8214 67.8542 15.8073C67.1675 13.5283 66.0804 11.3895 64.6436 9.4909C63.8826 8.49767 63.0285 7.57914 62.093 6.74781L61.4248 6.16178L60.7403 5.64897L60.3981 5.39665C60.2154 5.25341 60.0249 5.12025 59.8277 4.99778L58.6787 4.26522L58.1246 3.91522L57.8638 3.74429L57.7986 3.70358L57.7172 3.85824L57.106 4.98966C56.9023 5.35595 56.7311 5.71408 56.5682 6.07223C56.4867 6.23502 56.3889 6.44666 56.3482 6.56061L56.2259 6.88619C55.9494 7.6826 55.7342 8.49894 55.5822 9.3281C55.4853 9.89132 55.4173 10.4591 55.3785 11.0293C55.1911 10.7932 55.0118 10.5572 54.8162 10.3211L54.311 9.71066L53.3739 8.66879L52.8931 8.13156L52.3634 7.56178L51.8256 6.98387L51.5486 6.69085L51.4834 6.6176V6.65828L51.3856 6.82109C50.8423 7.71103 50.2991 8.6308 49.7558 9.58042C49.438 10.1421 49.1121 10.7118 48.778 11.2816L48.3705 11.9979C48.2891 11.5502 48.1994 11.07 48.069 10.5572C47.5588 8.49037 46.7343 6.51388 45.6244 4.69662C44.946 3.56261 44.1631 2.4944 43.2857 1.50588L42.6502 0.838424C42.4357 0.618183 42.1848 0.436455 41.9086 0.301203C41.6412 0.174504 41.349 0.108765 41.053 0.108765C40.757 0.108765 40.4648 0.174504 40.1974 0.301203C39.9109 0.455235 39.6564 0.662428 39.4477 0.911678L39.081 1.26168C39.0172 1.32003 38.9572 1.38259 38.9017 1.4489L38.7958 1.55472C38.5513 1.82333 38.3069 2.09194 38.0624 2.36869C36.1609 4.41976 34.6896 6.83034 33.7355 9.45833C33.2886 10.7686 33.0627 12.144 33.0672 13.5282L32.7739 13.0642C32.2197 12.1688 31.6738 11.363 31.1441 10.5409L31.0463 10.3862L30.9893 10.313C30.9893 10.313 30.9893 10.2316 30.9404 10.313L30.753 10.6304L30.3782 11.2735C30.1256 11.6968 29.8729 12.0875 29.6285 12.5433C29.384 12.9991 29.1395 13.3572 28.9032 13.7886L28.3328 14.8794C28.0965 15.327 27.9091 15.791 27.7054 16.2387C26.9679 17.9526 26.3843 19.7286 25.9615 21.5458C25.7823 22.3651 25.6356 23.1628 25.5215 23.9388C25.1223 23.0134 24.6367 22.1277 24.071 21.2934C22.9147 19.6358 21.523 18.1551 19.9396 16.898C19.1247 16.2387 18.3099 15.5794 17.3972 14.9445C16.9409 14.627 16.4683 14.3177 15.9631 14.0247L15.5882 13.8049L15.3926 13.6991L15.2949 13.6503L15.1237 13.5607L14.3903 13.2026L13.657 12.8851C13.1599 12.6898 12.6709 12.5188 12.2146 12.3479L10.9516 11.9002C10.9516 12.9665 10.9516 14.0817 10.9516 15.1561C10.9516 15.4084 10.9516 15.6689 10.9516 15.9212V16.4015L10.9027 17.1422C10.8293 18.1271 10.756 19.112 10.7153 20.105C10.6174 22.0194 10.793 23.9379 11.2368 25.8028C11.9808 28.8174 13.4398 31.6091 15.4904 33.9425C16.3951 34.9754 17.418 35.8988 18.538 36.6937C15.3935 35.4057 12.1365 34.4111 8.80845 33.7227C7.70837 33.5029 6.5757 33.3076 5.40229 33.1448C4.81558 33.0634 4.22073 32.9983 3.62587 32.9331H3.38142H3.03913C2.75273 32.9232 2.46607 32.9423 2.18353 32.9901C1.63499 33.0729 1.12552 33.3231 0.724921 33.7064C0.329516 34.0974 0.0794378 34.6113 0.0159848 35.1634C-0.0325099 35.7454 0.065516 36.3302 0.301171 36.8646L0.382638 37.0762L0.447842 37.2065L0.561936 37.4425L0.781968 37.8658L1.22198 38.7286C1.84943 39.8519 2.50948 40.9914 3.25916 42.0903C6.03364 46.224 9.54743 49.8111 13.6243 52.6719C15.3738 53.9193 17.231 55.0089 19.1737 55.9277C20.8726 56.7031 22.6514 57.2899 24.4785 57.6777C27.0988 58.2836 29.8323 58.1938 32.4072 57.4173C32.6272 57.3359 32.8391 57.2789 33.0265 57.2057L33.5562 56.9696L34.0043 56.7661L34.3547 56.5708L34.9659 56.2208C37.136 57.0839 39.4303 57.595 41.7619 57.7347C44.2538 57.9163 46.7485 57.4213 48.9817 56.3021C49.3149 56.1344 49.6362 55.9441 49.9432 55.7324C50.1741 55.5946 50.3923 55.4366 50.5952 55.2603L51.1004 54.8452L50.4811 55.1789L50.1389 55.3579L49.7151 55.537L49.218 55.7486L48.6313 55.9359C46.2977 56.6235 43.8274 56.7076 41.4523 56.18C39.8171 55.8526 38.2255 55.3364 36.7097 54.6417C34.9616 53.8737 33.3186 52.8863 31.8205 51.7032C31.0536 51.089 30.3616 50.3869 29.7589 49.6113C29.1522 48.8145 28.6637 47.9345 28.3084 46.9985C27.9182 45.98 27.621 44.9285 27.4202 43.8566C27.3142 43.295 27.2164 42.7252 27.1268 42.1391C27.086 41.8461 27.0372 41.5449 26.9964 41.2519L26.9475 40.9182H27.1513L28.8869 40.9751C30.0441 40.9751 31.1767 41.0728 32.2686 41.1624C34.3409 41.2952 36.3941 41.6388 38.3965 42.188C40.1683 42.6942 41.8586 43.4507 43.4161 44.4345C44.7838 45.309 46.054 46.3268 47.2053 47.4706C48.8943 49.1611 50.3793 51.0433 51.63 53.0788C52.0701 53.7951 52.4449 54.373 52.6161 54.7638L52.9501 55.3579L52.7546 54.7556C52.6242 54.3568 52.4123 53.7788 52.1108 53.0219C51.8501 52.3951 51.516 51.63 51.0841 50.7834V50.173C51.0841 49.8799 51.0841 49.5218 51.0841 49.0985C51.0841 48.6753 51.1411 48.1869 51.19 47.6497C51.3556 46.3325 51.6504 45.0348 52.0701 43.7752C52.6391 42.1244 53.3936 40.5434 54.3191 39.0623C55.4389 37.2729 56.7805 35.632 58.312 34.1785C59.1724 33.3737 60.0755 32.6156 61.0174 31.9075C62.0227 31.158 63.0672 30.4625 64.1465 29.8238C66.493 28.4484 68.9453 27.2617 71.4803 26.2749L72.4827 25.8842L72.996 25.697L73.1101 25.6563C73.1101 25.6563 73.1101 25.6563 73.1101 25.697V25.7621L73.2649 26.2912L73.5583 27.3493C73.7376 28.0656 73.9005 28.7901 74.0472 29.5226C74.6063 32.3681 74.8251 35.2699 74.6991 38.167C74.5892 40.8091 74.0384 43.4143 73.0694 45.8752C72.1914 48.0474 70.7922 49.9705 68.995 51.4753C67.3603 52.7489 65.4957 53.6968 63.5028 54.2672C62.6879 54.5196 61.873 54.7231 61.0581 54.894C59.0047 55.0649 57.3749 55.3417 56.2178 55.537L55.1748 55.7242C54.8896 55.7242 54.6125 55.7242 54.3599 55.7242C53.5298 55.6863 52.7081 55.5413 51.9153 55.2928L51.3041 55.0568L51.0922 54.9672L51.2715 55.0731C51.441 55.1878 51.618 55.2911 51.8012 55.3824C52.5278 55.7448 53.3011 56.005 54.0991 56.1556C55.3883 56.3945 56.7013 56.4792 58.0105 56.408C59.0291 56.408 60.1618 56.294 61.3841 56.1556H61.6122C62.9461 56.2014 64.2764 56.3209 65.597 56.5138C67.0547 56.7743 68.4824 57.1806 69.8587 57.7266C71.3922 58.326 72.8284 59.1488 74.1206 60.1685C74.7936 60.7105 75.4106 61.3186 75.9621 61.9836C76.1007 62.1627 76.2392 62.3255 76.3696 62.5046L76.7444 63.0581L76.826 63.1964V63.2616L76.4022 63.5872C75.9347 63.9303 75.4385 64.2325 74.9191 64.4906C73.1059 65.3693 71.1309 65.8653 69.1172 65.9477C67.2222 66.0191 65.3252 65.8771 63.462 65.5244C61.6693 65.2151 59.9743 64.7918 58.3935 64.393C56.8126 63.9941 55.3866 63.636 54.1399 63.2046C52.176 62.6425 50.3798 61.6085 48.9084 60.1929C48.6112 59.8808 48.3388 59.546 48.0935 59.1917L49.9351 57.8405C49.9351 57.8405 49.2506 58.1336 47.9957 58.7034L47.8409 58.7766L47.629 58.394L47.7594 58.8092C46.5045 59.3708 44.7444 60.1196 42.5198 61.0069C39.6823 62.1018 36.7913 63.0527 33.8577 63.8558C30.1097 64.8844 26.2742 65.5629 22.4005 65.8825L20.8278 65.9477C20.3063 65.9477 19.8011 66.0128 19.2877 65.9965C18.2773 65.9965 17.2831 65.9965 16.3297 65.9151L14.9037 65.8256C14.4311 65.7849 13.9747 65.7116 13.5265 65.6546L12.8502 65.5732H12.1983C12.2253 65.5158 12.2581 65.4613 12.2961 65.4104L12.4591 65.2069L12.5732 65.0849H12.6302L12.7443 64.9872L12.9643 64.8081C14.1459 63.8476 15.2622 63.0011 16.289 62.2685C18.3588 60.7871 20.0619 59.7208 21.2434 59.0127L23.0606 57.9301L22.4983 58.1091C22.1316 58.2231 21.5938 58.4022 20.8686 58.6545C18.8942 59.373 16.972 60.227 15.1156 61.2104C13.934 61.8371 12.6709 62.5778 11.3345 63.4406C10.8293 63.7744 10.2589 64.2058 9.70479 64.6046L7.99358 65.9151L7.08092 66.6151L6.85274 66.7942L6.73053 66.8837C6.771 66.8904 6.81227 66.8904 6.85274 66.8837L7.37427 67.0221L9.54996 67.5919C10.3078 67.7791 11.082 68.007 11.8805 68.1779L13.5103 68.471C14.4474 68.6826 15.4252 68.7477 16.4194 68.8698C16.6639 68.8698 16.9164 68.9268 17.1691 68.943H17.9269L19.4589 68.9919C20.4937 68.9919 21.5449 68.9431 22.6043 68.9024C26.5455 68.5918 30.4297 67.771 34.1592 66.4605C37.1414 65.418 40.0262 64.1161 42.7805 62.5697C43.3672 62.2604 43.9051 61.9104 44.4103 61.6092C44.9155 61.3081 45.4126 61.0232 45.8445 60.7301C46.6593 60.1929 47.3438 59.7452 47.9142 59.3382C47.9631 59.4603 48.0283 59.5824 48.0854 59.729C48.1535 59.8768 48.2296 60.0208 48.3135 60.1604C48.3993 60.3275 48.4974 60.488 48.6069 60.6406C49.1568 61.4538 49.8335 62.1738 50.6114 62.7732C51.6416 63.5667 52.7566 64.2437 53.9361 64.7918C55.2318 65.4186 56.6904 65.9721 58.2468 66.5419C59.9309 67.1825 61.6504 67.7261 63.3968 68.1698C65.4052 68.671 67.4713 68.9037 69.541 68.8617C71.8681 68.8104 74.1562 68.2549 76.2474 67.2337C76.906 66.9016 77.5357 66.515 78.1297 66.0779L78.5453 65.7442L78.6513 65.6628L78.7898 65.5325L79.0913 65.2395C79.2957 65.0585 79.4864 64.8627 79.6617 64.6535C79.8105 64.449 79.9158 64.2163 79.9714 63.9697C80.07 63.5309 80.0272 63.0723 79.8491 62.6592C79.7541 62.4405 79.6396 62.2307 79.5069 62.0325L79.2135 61.5604C78.9143 61.1151 78.5849 60.6908 78.2275 60.2906C77.5533 59.5189 76.7995 58.8204 75.9785 58.2068C74.4544 57.1113 72.7655 56.2651 70.9751 55.6998C69.9814 55.3833 68.9654 55.1411 67.9357 54.9754H68.1394C68.6892 54.8743 69.2333 54.7439 69.7691 54.5847C71.7602 53.9416 73.6734 53.0789 75.4732 52.0125C78.1934 50.5133 80.8194 48.8497 83.3368 47.0311C84.7885 45.9748 86.1512 44.8014 87.4112 43.5229C88.5137 43.3846 89.627 43.3519 90.7358 43.4252C92.0194 43.5093 93.29 43.7331 94.525 44.0926C95.9209 44.4979 97.2557 45.0893 98.4934 45.8508C98.8031 46.0624 99.1209 46.2822 99.4468 46.4938L99.9031 46.8601L99.9602 46.9008C99.9671 46.9069 99.9727 46.9144 99.9765 46.9229C99.9803 46.9313 99.9823 46.9404 99.9823 46.9497C99.9823 46.9589 99.9803 46.968 99.9765 46.9765C99.9727 46.9849 99.9671 46.9924 99.9602 46.9985L99.895 47.0555L99.6832 47.2752C98.4622 48.4726 97.0596 49.4698 95.5273 50.2299C93.9347 51.0213 92.2772 51.6749 90.5729 52.1835C88.9024 52.7044 87.2482 53.1277 85.6836 53.5184C82.9156 54.253 80.1004 54.7969 77.2578 55.1463C75.3502 55.3673 73.4246 55.3865 71.513 55.2033C70.8448 55.1138 70.3151 55.0405 69.9565 54.9672L69.4106 54.8696L69.8832 55.0812C70.038 55.1463 70.2254 55.2359 70.4618 55.3254L71.2766 55.6266C73.0965 56.2194 74.9874 56.567 76.8993 56.6603C79.861 56.7852 82.8276 56.5943 85.7488 56.0905C87.4274 55.8219 89.212 55.5126 91.0944 55.0324C92.0396 54.7963 93.0012 54.5033 93.979 54.1614C94.9881 53.8037 95.9734 53.3823 96.9289 52.8998C97.8989 52.4027 98.8257 51.8255 99.6994 51.1742C100.542 50.5323 101.32 49.8099 102.022 49.0171L102.177 48.8381C102.256 48.7613 102.327 48.6768 102.389 48.5857C102.531 48.4165 102.656 48.2338 102.763 48.0404C102.968 47.6742 103.08 47.2633 103.089 46.8438C103.062 46.4398 102.917 46.0524 102.674 45.7287ZM67.8134 24.4109V24.4516C67.8173 24.5167 67.8173 24.5819 67.8134 24.647L67.7075 24.6958L67.8134 24.4109ZM36.0334 10.0362C37.155 7.93689 38.5407 5.98931 40.1567 4.2408L40.8085 3.50824L40.89 3.41869C40.89 3.41869 40.89 3.4187 40.9389 3.378L41.0123 3.45125L41.1671 3.60591L41.4767 3.92337C41.6805 4.12686 41.876 4.33848 42.0634 4.55011C42.4546 4.97338 42.8131 5.40477 43.1554 5.83617C43.8116 6.64834 44.4184 7.49911 44.9725 8.38389C45.5022 9.19786 45.9504 10.0118 46.3334 10.777C46.7815 11.6723 47.1483 12.4863 47.4172 13.2189L46.8549 14.1875C45.6815 16.2631 44.5814 18.2573 43.5954 20.1783C42.5944 22.0403 41.7284 23.9716 41.0041 25.9574C40.9145 26.226 40.8248 26.4865 40.7433 26.7714C40.2137 25.6156 39.5618 24.4842 38.9017 23.3283C38.0868 21.8632 37.1579 20.3085 36.1882 18.6887C35.6993 17.8748 35.2022 17.0608 34.697 16.2468C34.697 15.9863 34.697 15.734 34.697 15.4328C34.7437 13.5534 35.2145 11.7087 36.0741 10.0362H36.0334ZM13.3636 24.7691C13.1673 23.1252 13.1673 21.464 13.3636 19.8201C13.4614 18.9166 13.5592 17.9887 13.6651 17.0445C13.6651 16.8003 13.6651 16.5561 13.7303 16.3038V16.1573L13.8851 16.2387L14.1948 16.4096C14.6022 16.6375 15.0097 16.8817 15.4008 17.1422C16.2157 17.655 16.949 18.2166 17.7069 18.7701C19.1329 19.8053 20.4369 20.9985 21.5938 22.3272C23.1478 24.256 24.3128 26.4673 25.0245 28.8389C25.0245 29.3842 25.0244 29.9052 25.0896 30.4017C25.2213 32.3131 25.5489 34.206 26.0675 36.0506C26.2386 36.6855 26.426 37.1576 26.5238 37.4751C26.5727 37.6297 26.6134 37.7437 26.646 37.8251H25.7334C25.3318 37.8481 24.9466 37.9918 24.6282 38.2372C24.3097 38.4827 24.0729 38.8185 23.9488 39.2007C23.9454 39.225 23.9454 39.2497 23.9488 39.274C22.7804 38.5501 21.5571 37.9187 20.29 37.3855L19.8826 37.0274C16.3346 33.854 14.0253 29.5289 13.3636 24.8179V24.7691ZM28.0313 51.63C28.859 52.5131 29.7891 53.2946 30.8019 53.9579C32.1134 54.8039 33.5055 55.5182 34.9578 56.0905L34.3547 56.3021C34.0901 56.4052 33.8176 56.4868 33.5398 56.5463C33.1786 56.6506 32.8112 56.7322 32.4398 56.7905L31.7797 56.8963C31.5516 56.8963 31.2989 56.937 31.0463 56.9614H30.6552H30.2396C29.9544 56.9614 29.6692 56.9614 29.3677 56.9614C27.9841 56.8783 26.6159 56.6268 25.2933 56.2126C23.6587 55.712 22.0803 55.0437 20.5834 54.2184C19.7685 53.787 18.9536 53.266 18.1388 52.7207L16.8757 51.8335C16.452 51.516 16.0201 51.2149 15.5964 50.873C13.7846 49.468 12.0821 47.9279 10.5034 46.2659C8.76002 44.4269 7.17107 42.4477 5.75268 40.3484C5.01114 39.2577 4.35111 38.1425 3.73181 37.0355C3.57698 36.7588 3.43031 36.482 3.28363 36.2216L3.07992 35.8471C3.07486 35.8433 3.07071 35.8384 3.06788 35.8328C3.06505 35.8271 3.0636 35.8209 3.0636 35.8146C3.0636 35.8083 3.06505 35.802 3.06788 35.7964C3.07071 35.7907 3.07486 35.7858 3.07992 35.782H3.16954H3.37326H3.82143C4.41629 35.782 4.99487 35.8716 5.57343 35.9204C6.73055 36.0344 7.84692 36.1727 8.9307 36.3274C12.6842 36.8803 16.3873 37.7322 20.0048 38.8751C21.3429 39.2566 22.6438 39.7579 23.8918 40.3728C23.8918 40.5926 23.8918 40.8205 23.957 41.0403L24.0384 41.6263L24.1851 42.6112C24.2992 43.2705 24.4133 43.9298 24.5681 44.581C24.8469 45.8899 25.2677 47.1645 25.823 48.3823C26.3893 49.5708 27.134 50.666 28.0313 51.63ZM26.7112 37.7925V37.3774C26.7112 37.0111 26.6053 36.4821 26.5808 35.7902C26.5808 35.4727 26.5401 35.1146 26.5238 34.732C26.6297 35.2855 26.7194 35.7983 26.8009 36.246C26.915 36.8972 26.9964 37.4181 27.0616 37.7925H26.7112ZM32.9613 38.2158C31.7553 38.0611 30.5167 37.9635 29.2699 37.8821L27.3713 37.7925H27.1838C27.1838 37.4425 27.1838 36.9786 27.2409 36.3599C27.3102 34.3444 27.2422 32.3266 27.0372 30.3203C26.972 29.7777 26.8905 29.216 26.7927 28.6354C26.8986 27.8214 27.029 26.9586 27.2165 26.0633C27.5159 24.5779 27.9078 23.1126 28.3899 21.676C28.9133 20.0899 29.5534 18.5445 30.3048 17.0526L30.5982 16.4585L30.916 15.8805L31.2582 16.4259L32.0731 17.6306L33.5887 19.9504C34.591 21.4725 35.577 22.9214 36.5223 24.2888C37.4676 25.6563 38.3884 26.9179 39.081 28.1144C39.4324 28.7092 39.7322 29.3328 39.9774 29.9784C39.8959 30.4994 39.8307 31.0122 39.7981 31.5169C39.6859 33.0112 39.7929 34.5139 40.1159 35.9774C40.0181 36.4088 39.9122 36.7914 39.8062 37.1576C39.6188 37.817 39.4477 38.3297 39.3336 38.6716L39.1625 39.2007L39.4396 38.7612C39.6107 38.4763 39.8796 38.0449 40.1892 37.4669C40.2599 37.3367 40.3332 37.1983 40.4093 37.0518C40.7095 38.0672 41.1366 39.0408 41.6805 39.9495C41.9472 40.3894 42.2468 40.8084 42.5768 41.2031C41.6689 40.6767 40.7239 40.217 39.7492 39.8274C37.5729 39.0221 35.3076 38.481 33.002 38.2158H32.9613ZM59.0373 30.4506C58.0861 31.2901 57.1957 32.1959 56.3726 33.1611C54.9181 34.8511 53.6984 36.7293 52.7464 38.7449C51.3933 41.5333 50.7151 44.6002 50.7663 47.6985C50.7663 47.959 50.7663 48.2113 50.7663 48.4392C50.7663 48.6671 50.8152 48.8869 50.8396 49.0904C50.8647 49.4267 50.911 49.7611 50.9781 50.0916L51.0596 50.4904C50.3651 49.1634 49.5639 47.8949 48.6639 46.6973C47.6156 45.3243 46.4156 44.0737 45.0866 42.9693C44.7688 42.7089 44.4429 42.4566 44.0925 42.2124C43.9702 42.0659 43.848 41.9031 43.7177 41.724C43.1785 40.9689 42.7376 40.1483 42.4057 39.2821C41.9674 38.1323 41.6931 36.9267 41.5908 35.7006C41.5908 35.2122 41.5338 34.6994 41.5419 34.1704C41.7487 33.4436 41.8691 32.695 41.9004 31.9401C41.9128 31.6961 41.9128 31.4516 41.9004 31.2075C42.2707 29.5716 42.8171 27.9805 43.5302 26.4621C44.3515 24.6966 45.2627 22.9742 46.2601 21.3015C47.3031 19.519 48.395 17.6306 49.5195 15.6933L51.1493 12.8119L51.9153 11.4118C51.9131 11.3875 51.9131 11.363 51.9153 11.3386C51.9153 11.2816 51.9153 11.3386 51.9642 11.3386L52.0701 11.4281L52.1271 11.477L52.3716 11.7374C53.0398 12.4456 53.6672 13.17 54.2702 13.8782C56.4033 16.3974 58.3299 19.084 60.0314 21.912C60.7485 23.1167 61.3922 24.24 61.8648 25.2249C62.2593 25.9927 62.534 26.8161 62.6797 27.6668L62.2397 27.9679C61.1103 28.7327 60.0298 29.5673 59.0046 30.4668L59.0373 30.4506ZM63.2013 27.2842C63.1778 26.5656 63.0684 25.8524 62.8753 25.1598C62.5032 23.943 62.0513 22.7521 61.5226 21.5946C60.1931 18.4522 58.5206 15.4659 56.5356 12.6898L55.957 11.8758C56.4873 10.3249 57.1926 8.83932 58.0594 7.44783L58.1246 7.34201L58.1898 7.27691L58.312 7.18736H58.3691L58.475 7.33387C58.4998 7.37004 58.5216 7.40816 58.5402 7.44783L58.6706 7.56992L58.9395 7.81413C59.3062 8.13158 59.6321 8.49786 59.9906 8.85601C63.2536 12.3067 65.6303 16.4962 66.9171 21.0655C67.0312 21.4074 67.0882 21.7411 67.1697 22.0586C67.2512 22.376 67.3164 22.6202 67.3652 22.8725C67.4141 23.1249 67.3082 23.4667 67.2919 23.6865C67.2756 23.9063 67.2919 24.3214 67.2919 24.5737C67.2919 24.6388 67.2919 24.6877 67.2919 24.7528C65.8649 25.517 64.4827 26.3622 63.1524 27.2842H63.2013ZM74.3813 21.9446C73.648 22.2132 72.9227 22.4737 72.2138 22.7586L71.6189 22.9946L71.0729 23.2144L69.9973 23.6783C69.4351 23.9225 68.8809 24.1749 68.3676 24.4353C68.527 23.5998 68.625 22.7537 68.6609 21.9039C69.0241 20.9704 69.46 20.0669 69.9647 19.2015C72.0634 15.5496 75.3892 12.7582 79.3521 11.3223C80.967 10.7268 82.6612 10.373 84.3798 10.2723V10.3781C84.4531 10.5735 84.5346 10.7688 84.5998 10.9642C84.6976 11.3712 84.8362 11.7781 84.9095 12.1607L85.0154 12.7549L85.0725 13.0561V13.3572C85.2304 14.8862 85.1424 16.4306 84.8117 17.9317C84.5169 19.28 84.037 20.581 83.3857 21.7981C82.8049 22.8368 82.1078 23.8063 81.3078 24.6877C80.6273 25.3912 79.8794 26.0264 79.075 26.5842C78.3416 27.0807 77.6897 27.504 77.1926 27.8947L76.9156 28.1144C76.7852 27.5121 76.6467 26.9179 76.4918 26.3319C76.3778 25.9249 76.2718 25.5179 76.1414 25.1191L76.0518 24.8179L75.9948 24.647L75.9052 24.3702L75.5303 23.2714L75.1392 22.1644L75.0414 21.8876L74.9925 21.7492H74.9191L74.3813 21.9446ZM74.3324 50.9137C72.8196 52.1413 71.1998 53.231 69.4921 54.1695C68.8972 54.487 68.4164 54.6905 68.0905 54.8289L67.7971 54.9428L66.9823 54.837C67.961 54.4787 68.9025 54.0261 69.7936 53.4858C72.1095 52.0108 73.9865 49.9419 75.2288 47.495C76.6011 44.7689 77.4313 41.8029 77.6734 38.7612C77.82 37.1374 77.8472 35.5051 77.7549 33.8773C77.706 33.0634 77.6327 32.2494 77.5349 31.4354C77.8364 31.2564 78.2682 31.0285 78.8142 30.7354C80.5375 29.8294 82.3177 29.0355 84.1435 28.3587C85.3169 27.9354 86.5881 27.504 88.063 27.1296C88.7801 26.9505 89.5298 26.7633 90.3203 26.6086H90.3936H90.6869V26.9668C90.7238 27.1658 90.7484 27.367 90.7603 27.5691C90.7603 27.7726 90.7603 27.9761 90.8173 28.1877V28.8145C90.8218 29.6882 90.7426 30.5604 90.581 31.4192C90.4146 32.3332 90.1721 33.2317 89.8558 34.1053C89.5276 35.032 89.1299 35.9326 88.666 36.7995C88.1994 37.6681 87.6768 38.5055 87.1015 39.3065C86.5229 40.1205 85.9199 40.8368 85.2925 41.5368C84.0856 42.8812 82.7868 44.1405 81.4055 45.3055C78.7735 47.5601 76.2881 49.3509 74.2998 50.9137H74.3324Z" fill="#945834"/>
</g>
<defs>
<clipPath id="clip0_1001_48055">
<rect width="103" height="69" fill="white"/>
</clipPath>
</defs>
</svg>
