<svg width="79" height="67" viewBox="0 0 79 67" fill="none" xmlns="http://www.w3.org/2000/svg">
<g clip-path="url(#clip0_1001_48050)">
<path d="M4.33853 42.5725C4.46579 42.5795 4.59333 42.5795 4.72058 42.5725L5.02492 42.5269C4.61844 42.4812 4.22933 42.3359 3.89173 42.1037C3.51848 41.8369 3.20155 41.4983 2.95927 41.1076C2.63897 40.5908 2.39673 40.0292 2.24049 39.4409C2.14325 39.1003 2.07608 38.7517 2.03975 38.3992C2.03975 38.2169 1.98795 38.0216 1.96205 37.8263C1.93615 37.631 1.96205 37.4356 1.9232 37.2273C1.88188 36.3687 1.91655 35.5081 2.02681 34.6556C2.28796 32.7139 2.93072 30.8438 3.91763 29.1542C4.90658 27.4712 6.25047 26.0267 7.85468 24.9224C8.55891 24.431 9.30676 24.006 10.0887 23.6528C10.4578 23.477 10.8269 23.3468 11.1766 23.2036C11.5262 23.0604 11.8824 22.9562 12.2191 22.8716C13.2959 22.5666 14.404 22.3875 15.5216 22.3377C15.923 22.3051 16.2338 22.3377 16.4475 22.3377H16.7778L16.4929 22.24C16.2986 22.1814 16.0202 22.0708 15.6446 21.9861C14.5379 21.7103 13.3963 21.6027 12.2579 21.6671C9.29046 21.8244 6.46599 22.9985 4.25435 24.994C3.3137 25.8478 2.50991 26.8427 1.8714 27.9433C0.646391 30.0251 6.31621e-05 32.3995 0 34.8184C0.000360545 35.8119 0.117741 36.8019 0.349678 37.7677C0.451576 38.1925 0.57477 38.6119 0.718781 39.0242C0.854601 39.4115 1.02359 39.7861 1.22386 40.144C1.74691 41.2404 2.67695 42.0866 3.81403 42.5008C3.98606 42.5422 4.16176 42.5662 4.33853 42.5725Z" fill="#945834"/>
<path d="M78.7607 40.9839C78.609 39.2801 78.1249 37.6231 77.3361 36.1075C76.8873 35.3034 76.2737 34.6044 75.536 34.0567C75.0373 33.6889 74.4875 33.3972 73.9042 33.1908C73.4444 32.6829 72.9328 32.1491 72.4019 31.6022C71.3224 30.5769 70.4208 29.3777 69.734 28.0539C69.3119 27.0816 69.0684 26.0405 69.0152 24.981C69.0994 24.6685 69.1771 24.3299 69.2483 24.0304C69.3196 23.7309 69.3908 23.2101 69.4685 22.7869C69.5462 22.3637 69.5786 21.934 69.598 21.4848C69.669 20.5725 69.669 19.6561 69.598 18.7439C69.4324 16.7573 68.9011 14.819 68.031 13.0276C67.5916 12.109 67.0623 11.2366 66.451 10.4234C65.8772 9.64119 65.2263 8.91921 64.5083 8.26841C64.1676 7.94881 63.811 7.64676 63.4399 7.36343C63.0643 7.0965 62.7017 6.81657 62.3132 6.5887C61.5717 6.12795 60.7891 5.73779 59.9755 5.42331C58.6341 4.91583 57.2186 4.63426 55.786 4.58996C54.983 4.37511 53.5519 4.01052 51.5964 3.59384C47.2483 2.67007 42.8537 1.98329 38.4319 1.53651C34.5984 1.14588 31.1988 0.976603 28.395 0.885455C27.2812 0.709671 26.1933 0.546906 25.1573 0.416696C24.2637 0.292995 23.3895 0.195343 22.5671 0.0976852C22.1462 0.0521114 21.7318 -0.00648505 21.272 -0.0260167C20.7485 -0.0617014 20.2229 -0.0066452 19.7179 0.136747C19.1588 0.28804 18.6437 0.571524 18.2156 0.963579C17.914 1.24192 17.6286 1.53755 17.3609 1.849C16.8428 2.41542 16.3637 2.98185 15.9169 3.52873C15.0865 4.55029 14.3414 5.63909 13.6893 6.78401C13.1561 7.70965 12.7219 8.68953 12.3942 9.70723C12.1701 10.4598 12.0289 11.2349 11.9733 12.0185C11.9321 12.4972 11.9321 12.9786 11.9733 13.4573C12.0057 13.7763 12.0251 13.9456 12.0251 13.9456C12.0251 13.9456 12.0251 13.7633 12.0769 13.4183V13.1318C12.0769 13.0211 12.1158 12.9104 12.1417 12.7867C12.187 12.5015 12.2476 12.219 12.323 11.9403C12.8248 10.1854 13.6751 8.55097 14.8225 7.13558C15.6069 6.14349 16.4525 5.20194 17.3544 4.3165C17.8401 3.83472 18.3581 3.34643 18.902 2.85163C19.1263 2.63011 19.3739 2.43366 19.6402 2.26569C19.8482 2.1462 20.081 2.0771 20.3201 2.06386C20.6412 2.05569 20.9622 2.07967 21.2785 2.13547L22.4635 2.33729L24.9565 2.75398L30.2146 3.67197C37.0915 4.90246 43.2301 6.10691 47.7953 7.05094C47.4337 7.32865 47.0878 7.62642 46.7592 7.94288C46.4278 8.2717 46.1205 8.62419 45.8397 8.99759L45.5483 9.37521L45.9369 9.03665C46.305 8.71533 46.6944 8.41952 47.1024 8.15122C47.3929 7.95543 47.6933 7.77504 48.0025 7.61084C48.1709 7.5262 48.3457 7.42204 48.5335 7.33741L48.7407 7.24625L55.773 8.72416C55.0831 8.63301 54.3843 8.63301 53.6944 8.72416C52.9389 8.82938 52.2007 9.03516 51.4992 9.33613C50.8105 9.64525 50.1588 10.0318 49.5566 10.4885C48.4071 11.3765 47.4097 12.4475 46.6038 13.6591C45.8403 14.7876 45.1896 15.9892 44.6612 17.2465C44.1132 18.5069 43.7972 19.857 43.7287 21.2309C43.7055 22.5795 43.989 23.9156 44.5576 25.1372C45.0679 26.229 45.7212 27.2472 46.5002 28.1646C47.2044 28.9985 47.9614 29.7857 48.7666 30.5214C49.5182 31.2234 50.3333 31.8534 51.2014 32.403C52.0237 32.9295 52.9308 33.3084 53.8822 33.5228C54.7606 33.7171 55.6722 33.7015 56.5436 33.4772C57.3007 33.28 58.0145 32.9421 58.6481 32.4811C59.1803 32.1028 59.6689 31.666 60.1051 31.179C60.4716 30.7818 60.8133 30.3622 61.1282 29.9225C61.6915 29.1412 62.0736 28.5032 62.3326 28.067L62.7146 27.4159L62.2808 27.9758C61.9894 28.3404 61.562 28.8808 60.9857 29.5449C60.2713 30.3534 59.455 31.0648 58.5574 31.6608C58.0091 32.0136 57.4078 32.2752 56.7767 32.4355C56.0828 32.6085 55.359 32.6219 54.6592 32.4746C53.1828 32.1816 51.7323 31.1725 50.366 29.7857C48.8692 28.3558 47.6158 26.6887 46.6556 24.8508C46.1944 23.9023 45.9405 22.8656 45.911 21.8103C45.9365 20.6877 46.1831 19.5814 46.6362 18.5551C47.1279 17.3964 47.7308 16.2887 48.4364 15.2477C49.1426 14.1829 50.0176 13.2416 51.0265 12.4612C51.491 12.0865 51.9974 11.7675 52.5353 11.5107C53.0719 11.2888 53.6362 11.142 54.2124 11.0745C55.3029 10.9247 56.4129 11.1156 57.3919 11.6213C57.8324 11.8566 58.2237 12.1749 58.5445 12.5589C58.8674 12.9617 59.1272 13.4118 59.3151 13.8935C59.5159 14.404 59.6719 14.9312 59.7813 15.4691C59.8979 16.016 59.9885 16.5889 60.0468 17.1162C60.1929 18.0984 60.1222 19.1009 59.8396 20.0525C59.5315 20.9089 59.0124 21.6728 58.3308 22.2726C57.6576 22.8754 56.914 23.3935 56.1162 23.8156C55.4439 24.2347 54.6917 24.5075 53.9081 24.6164C53.2327 24.6581 52.5621 24.4776 51.9979 24.1021C51.4773 23.7579 51.059 23.2788 50.7869 22.7153C50.5573 22.2195 50.4634 21.6712 50.515 21.1267C50.5705 20.6571 50.7133 20.2022 50.9359 19.7856C51.25 19.1939 51.7177 18.699 52.2892 18.3532C52.4383 18.2649 52.5942 18.1887 52.7555 18.1254L52.9174 18.0603L52.7296 18.1058C52.5432 18.1503 52.3612 18.2113 52.1856 18.2881C51.495 18.6054 50.9119 19.1192 50.5085 19.766C50.2087 20.2472 50.0124 20.7861 49.9322 21.3481C49.8452 22.043 49.9599 22.7484 50.2624 23.3794C50.6142 24.1157 51.1666 24.7365 51.8554 25.1698C52.239 25.416 52.6617 25.5943 53.1051 25.6971C53.5816 25.8014 54.0724 25.8212 54.5556 25.7557C55.5131 25.5906 56.4379 25.2719 57.2947 24.8117C58.2379 24.3516 59.1102 23.7574 59.8849 23.0473C60.3135 22.6475 60.6899 22.1947 61.0051 21.6997C61.3406 21.1744 61.5959 20.6016 61.7628 20.0004C62.0591 18.7936 62.1315 17.5422 61.9764 16.3089C61.8787 15.017 61.5771 13.7489 61.0829 12.5523C60.7918 11.8775 60.3864 11.2585 59.8849 10.7229C59.3633 10.1685 58.7442 9.71604 58.0588 9.38822C57.3758 9.05992 56.6462 8.84028 55.896 8.73717C55.7083 8.65904 55.1449 8.41163 54.2189 8.03402C53.2929 7.65641 52.082 7.17464 50.5409 6.62124C51.0336 6.47815 51.5356 6.36938 52.0432 6.29572C54.5869 5.90072 57.1898 6.31262 59.4899 7.47412C62.2653 8.93654 64.4942 11.2644 65.8423 14.1084C66.9339 16.3937 67.4773 18.9045 67.4287 21.4392C67.225 22.2331 67.0629 23.0372 66.9431 23.8481C66.8491 24.5361 66.8123 25.2308 66.833 25.925C66.4141 27.6083 65.7899 29.233 64.9746 30.7623C64.5042 31.6475 63.9559 32.4886 63.3363 33.2754C61.9102 34.3819 60.2855 35.202 58.551 35.6908C57.8635 35.8788 57.1618 36.0095 56.4529 36.0815C56.0838 36.0815 55.7082 36.14 55.3197 36.1205H54.7369L54.1477 36.0619C52.4052 35.7857 50.7176 35.2319 49.1487 34.4213C45.5419 32.7676 41.4429 30.9446 36.949 29.0305C32.4551 27.1164 28.3108 25.4172 24.6457 23.9523C22.8002 23.2166 21.0389 22.5656 19.5042 21.9015C18.0976 21.3324 16.7717 20.5793 15.5607 19.6619C15.0601 19.264 14.6003 18.8169 14.1879 18.3272C13.8269 17.8895 13.5142 17.4135 13.2555 16.9079C13.0235 16.4712 12.8389 16.0106 12.7051 15.5342C12.6338 15.3193 12.6015 15.1045 12.5496 14.8831C12.4978 14.6618 12.4849 14.4795 12.4784 14.2972C12.4285 13.7216 12.4679 13.1418 12.595 12.5784C12.6338 12.3896 12.6921 12.2463 12.718 12.1487L12.7633 12.0055L12.6856 12.1487C12.61 12.2943 12.5429 12.4443 12.4849 12.5979C12.2434 13.1938 12.1139 13.8296 12.1028 14.473C12.0904 15.5127 12.2933 16.5437 12.6986 17.5004C12.9396 18.0982 13.2481 18.6661 13.6181 19.1931C14.0514 19.7907 14.5463 20.3406 15.0945 20.8337C16.3526 21.9264 17.7481 22.848 19.2452 23.5747C20.8187 24.3885 22.4829 25.1437 24.2766 25.9836C27.8316 27.6308 31.7881 29.4212 36.0036 31.192C38.2376 32.1426 40.4133 33.041 42.479 33.8939C41.5701 34.0683 40.6838 34.3457 39.837 34.7207C37.9389 35.5728 36.2451 36.825 34.8704 38.3927C33.492 39.9593 32.3389 41.7125 31.4449 43.6011C30.6802 45.1549 30.0728 46.7821 29.6318 48.458C29.1984 50.1207 29.0064 51.8378 29.0619 53.5558C29.1286 55.2346 29.4995 56.8872 30.1563 58.4322C30.3182 58.8098 30.4995 59.1744 30.6937 59.5324C30.7973 59.7082 30.8945 59.884 31.0046 60.0533L31.1405 60.2681C31.1859 60.3137 31.2442 60.3723 31.3219 60.4374L31.3866 60.4895H31.1341H30.9528H30.901L30.6679 60.4179L30.2016 60.2876C29.8908 60.203 29.5865 60.0988 29.2886 59.9881C28.6799 59.7928 28.0971 59.5389 27.5208 59.298C25.3175 58.2924 23.205 57.0965 21.2073 55.7238C19.2646 54.4216 17.5228 53.1196 15.8715 51.9607L11.3388 48.7054C5.8217 44.7991 2.58398 42.5464 2.58398 42.5464C2.58398 42.5464 5.38137 44.9228 10.5228 49.1351L14.8096 52.6312C16.3831 53.9008 18.0796 55.3006 19.9899 56.7329C20.9418 57.449 21.9325 58.1717 23.0269 58.8684C24.141 59.6034 25.2978 60.2709 26.4912 60.8671C26.802 61.0299 27.1387 61.1731 27.4366 61.3163C27.7345 61.4596 28.0842 61.6093 28.4144 61.733C28.7446 61.8567 29.0619 61.9999 29.431 62.1106L29.9556 62.2799L30.2146 62.371L30.3441 62.4101H30.4218H30.5319L32.3838 62.8268C32.986 62.9309 33.5753 62.996 34.184 63.0807L36.0878 63.3085L36.5799 63.3671H36.9037L37.3051 63.6015C38.1138 64.1098 38.9654 64.5455 39.85 64.9036C40.9451 65.2878 42.0907 65.5071 43.2496 65.5547C44.1641 65.6035 45.0806 65.6035 45.9951 65.5547C44.2727 66.362 43.3273 66.8568 43.3273 66.8568C43.3273 66.8568 45.4965 66.4401 48.9803 65.5547C50.1977 65.2422 51.5705 64.8645 53.0792 64.4283L53.6037 64.2721C56.2781 63.4778 59.3086 62.4882 62.5139 61.2968C63.809 60.802 65.0782 60.305 66.3215 59.8059C67.5453 59.298 68.7238 58.7642 69.8117 58.1782L70.524 57.7746L70.9902 57.6574C71.3467 57.5466 71.6969 57.4162 72.0392 57.2667C73.4345 56.6337 74.673 55.6976 75.6655 54.5258C76.6924 53.3223 77.4893 51.9384 78.016 50.4437C78.5417 48.9221 78.847 47.3325 78.9226 45.7236C79.0072 44.142 78.953 42.5559 78.7607 40.9839ZM51.4474 5.1759C50.6854 5.41667 49.9498 5.73517 49.2523 6.12643H49.2134C47.6723 5.58606 45.8786 5.00012 43.8647 4.40766C46.6491 4.59647 49.1357 4.69412 51.1496 4.75272L53.0598 4.79178C52.5146 4.89546 51.9761 5.03243 51.4474 5.20195V5.1759ZM43.6057 63.6536C42.6152 63.723 41.62 63.6771 40.64 63.5169C39.7738 63.3333 38.9247 63.0763 38.1016 62.7487C37.3051 62.4557 36.5734 62.1822 35.9065 61.9869H35.7769L35.2265 61.5182L34.1646 60.5871L33.4523 59.7473C33.3383 59.6126 33.2324 59.4713 33.135 59.3241L32.9472 59.0181C32.8565 58.8814 32.7853 58.7316 32.7076 58.5949C32.5492 58.3044 32.4086 58.0043 32.2867 57.6965C31.7543 56.4131 31.4581 55.0432 31.4125 53.6534C31.296 50.7627 32.1766 47.6702 33.6142 44.7144C34.4526 42.9219 35.543 41.2599 36.8519 39.7794C38.0798 38.4147 39.5952 37.3426 41.2875 36.6413C42.0867 36.3158 42.9248 36.0969 43.7806 35.9903C44.6004 35.8942 45.4299 35.9227 46.2412 36.0749C47.8631 36.4267 49.4021 37.0899 50.774 38.0281C51.4733 38.4838 52.1468 38.9721 52.8008 39.4734C53.4193 39.9184 53.992 40.4244 54.5103 40.9839C54.9505 41.4843 55.2618 42.0857 55.4169 42.7352C55.5738 43.4204 55.6477 44.1221 55.637 44.8251C55.6943 47.5294 55.3561 50.2276 54.6333 52.8331C54.0514 54.9224 52.9889 56.8449 51.5316 58.4452C50.4455 59.625 49.1207 60.5573 47.6464 61.1796C46.7134 61.5657 45.7209 61.7859 44.713 61.8306C44.4522 61.8507 44.1903 61.8507 43.9295 61.8306H43.664L43.9489 61.8697C44.2299 61.9113 44.5132 61.9352 44.7972 61.9413H44.9202C44.6734 61.9748 44.4245 61.99 44.1755 61.9869C43.4497 61.9895 42.7274 61.8842 42.0322 61.6744C41.1168 61.403 40.2602 60.9613 39.5068 60.3723C38.6096 59.6694 37.9145 58.7391 37.4929 57.6769C37.0687 56.3407 36.8333 54.9513 36.7936 53.5493C36.6113 52.0344 36.7957 50.4978 37.331 49.07C37.6707 48.3035 38.0781 47.5691 38.5484 46.8759C39.0256 46.1638 39.5817 45.5085 40.2061 44.9228C40.5054 44.6388 40.8306 44.3838 41.1774 44.161C41.4956 43.9453 41.8393 43.7703 42.2006 43.6402C42.5362 43.5159 42.8868 43.437 43.2431 43.4058C43.5887 43.3657 43.9384 43.3811 44.2792 43.4514C44.9489 43.5848 45.5833 43.8584 46.1411 44.2543C46.6989 44.6503 47.1676 45.1597 47.5169 45.7496C47.8399 46.3051 48.047 46.9209 48.1256 47.5595C48.2022 48.1776 48.1803 48.8039 48.0608 49.415C47.8394 50.5351 47.3177 51.573 46.552 52.4164C45.899 53.117 45.11 53.6753 44.2338 54.0571C43.564 54.3431 42.8615 54.5443 42.1423 54.656C41.6831 54.7187 41.2199 54.747 40.7565 54.7407H40.2774C40.2774 54.7407 40.4522 54.7927 40.7889 54.8709C41.285 54.9785 41.7903 55.0373 42.2977 55.0467C43.1218 55.0612 43.9432 54.9469 44.7324 54.7081C45.82 54.3846 46.8191 53.8144 47.6528 53.0414C48.6911 52.0538 49.4183 50.7816 49.7444 49.3825C49.9386 48.5819 49.989 47.7529 49.8933 46.9345C49.7946 46.0378 49.5077 45.1723 49.0515 44.3954C48.5576 43.5708 47.8955 42.8608 47.1089 42.312C46.286 41.7223 45.3405 41.3282 44.3439 41.1597C43.8149 41.076 43.2774 41.0607 42.7445 41.1141C42.2107 41.1744 41.6865 41.3013 41.1839 41.4917C40.1975 41.8762 39.2955 42.4513 38.529 43.1845C37.8042 43.8678 37.1649 44.6374 36.6252 45.4762C36.0957 46.2653 35.6446 47.1049 35.2783 47.9827C34.9098 48.8689 34.691 49.8106 34.6308 50.7692C34.5738 51.638 34.602 52.5103 34.715 53.3735C34.8186 54.1938 34.9416 54.949 35.1035 55.7172C35.2576 56.4807 35.4875 57.2266 35.7899 57.9439C36.0868 58.6308 36.484 59.2694 36.9684 59.8384C37.4138 60.3356 37.9209 60.7732 38.4772 61.1405C39.4134 61.7696 40.4698 62.1953 41.5789 62.3905C42.3941 62.5199 43.2244 62.5199 44.0396 62.3905C44.5432 62.3029 45.036 62.1611 45.5095 61.9674L45.5678 61.9348C46.4065 61.8825 47.2342 61.7161 48.0284 61.44C49.7056 60.8384 51.2246 59.861 52.4705 58.5819C54.1166 56.8426 55.3303 54.7367 56.0126 52.4359C56.43 51.1122 56.7355 49.7553 56.9256 48.3799C57.0292 47.6702 57.1069 46.9345 57.1717 46.1923C57.24 45.4174 57.2681 44.6394 57.2559 43.8616C57.2469 42.9864 57.0825 42.1199 56.7702 41.3029C56.4102 40.4502 55.8764 39.6828 55.2032 39.0503C54.6528 38.5164 54.1024 38.0672 53.5325 37.6114C53.7333 37.6114 53.9275 37.644 54.1218 37.644C54.3161 37.644 54.5751 37.644 54.7693 37.644C55.2161 37.6049 55.65 37.5984 56.0644 37.5203C56.2781 37.4877 56.4853 37.4617 56.712 37.4226L57.3142 37.2859C57.7092 37.2078 58.0783 37.058 58.4474 36.9539C59.3533 36.6384 60.2219 36.2235 61.0375 35.7169C61.2577 35.6127 61.5167 35.4825 61.8016 35.3197C62.4611 34.9371 63.0814 34.4901 63.6536 33.9851C64.4305 33.2948 65.1357 32.527 65.7581 31.6933C66.4078 30.8296 66.9881 29.9152 67.4935 28.9589C67.4935 28.998 67.4935 29.037 67.5388 29.0826C67.6489 29.2975 67.7396 29.5318 67.8691 29.7337C67.9986 29.9355 68.1216 30.1373 68.2511 30.3326C68.5115 30.6997 68.7949 31.0498 69.0994 31.3808C69.577 31.8921 70.0922 32.3665 70.6405 32.8001C69.8636 32.8513 69.0924 32.9689 68.3353 33.1517C67.6208 33.3315 66.9162 33.5488 66.2243 33.8028C65.5471 34.0511 64.8854 34.3403 64.2428 34.6687C62.9735 35.3066 61.8285 36.1689 60.8627 37.2143C59.9821 38.204 59.269 39.3323 58.7517 40.5542C57.8878 42.6636 57.3991 44.9091 57.3077 47.1884C57.1715 49.1745 57.3353 51.1698 57.7933 53.1065C57.7607 53.4769 57.7607 53.8494 57.7933 54.2198C57.8747 55.6473 58.3575 57.0223 59.1855 58.1848C59.3215 58.3736 59.464 58.5558 59.6259 58.7447L59.8719 59.0181L59.9367 59.0832L59.982 59.1418C60.0398 59.2073 60.076 59.2891 60.0856 59.3762C60.0837 59.4203 60.0723 59.4636 60.0522 59.503C60.0321 59.5423 60.0037 59.5768 59.9691 59.604C59.9033 59.6577 59.8288 59.6995 59.7489 59.7277L59.4769 59.8515L59.1143 59.9947C58.6287 60.1965 58.1301 60.3918 57.612 60.5871C53.108 62.2609 48.3896 63.2802 43.5992 63.6145L43.6057 63.6536ZM61.7369 59.1353C61.7047 59.0072 61.6546 58.8845 61.5879 58.7707C61.4892 58.6118 61.3694 58.4673 61.2318 58.341L61.0181 58.1587L60.8238 58.009C60.5963 57.8458 60.38 57.6674 60.1763 57.4751C59.9777 57.1878 59.7982 56.8876 59.6388 56.5766C59.0729 55.4476 58.6924 54.234 58.5121 52.9828C58.2678 51.2939 58.2438 49.5802 58.4409 47.8851C58.6264 45.8014 59.131 43.759 59.9367 41.8303C60.3897 40.7811 60.9941 39.8049 61.7304 38.9331C62.1265 38.4926 62.5598 38.0874 63.0255 37.7221C63.5076 37.3482 64.0211 37.0171 64.5601 36.7325C65.7312 36.1321 66.9707 35.6774 68.2511 35.3783C69.5339 35.0217 70.8747 34.9265 72.1946 35.0984C72.804 35.1983 73.3875 35.4197 73.9106 35.7494C74.4223 36.084 74.8536 36.5288 75.1733 37.0515C75.8649 38.351 76.2795 39.7812 76.3907 41.2508C76.8051 44.454 76.7339 47.566 75.7432 50.1833C75.2142 51.6554 74.3647 52.9901 73.2566 54.0896C72.2412 54.8255 71.1569 55.46 70.0189 55.9842C69.6812 56.0755 69.337 56.1408 68.9893 56.1795C68.4254 56.2265 67.8579 56.2046 67.2992 56.1144C66.7566 56.035 66.2272 55.8817 65.7257 55.6587C65.245 55.4523 64.7958 55.1783 64.3918 54.8448C63.6305 54.2198 63.0752 53.3777 62.7988 52.4294C62.5444 51.5296 62.4979 50.5831 62.6629 49.6624C62.9779 48.0165 63.7297 46.4868 64.8386 45.2353C65.8034 44.1415 66.833 43.3277 67.8043 43.1519C68.2391 43.061 68.6911 43.1065 69.0994 43.2821C69.399 43.4036 69.6623 43.601 69.8635 43.855C70.0391 44.0641 70.1515 44.3194 70.1873 44.5907C70.1917 44.5148 70.1917 44.4388 70.1873 44.3629C70.149 44.1295 70.0606 43.9073 69.9282 43.7118C69.7117 43.4035 69.4194 43.1568 69.08 42.9956C68.6039 42.77 68.0689 42.7016 67.5518 42.8003C66.9107 42.9222 66.302 43.1772 65.7646 43.549C65.1303 43.974 64.546 44.4698 64.0227 45.0269C63.411 45.6703 62.8844 46.3902 62.4556 47.1689C61.9609 48.0615 61.6214 49.0325 61.4519 50.0401C61.2608 51.1936 61.3565 52.3768 61.7304 53.4841C62.174 54.7165 62.9803 55.7838 64.0421 56.5441C64.6466 56.9844 65.312 57.3331 66.0171 57.5793L65.8099 57.6509C64.476 58.1522 63.1226 58.634 61.7304 59.1613L61.7369 59.1353Z" fill="#945834"/>
</g>
<defs>
<clipPath id="clip0_1001_48050">
<rect width="79" height="67" fill="white"/>
</clipPath>
</defs>
</svg>
