<svg width="435" height="455" viewBox="0 0 435 455" fill="none" xmlns="http://www.w3.org/2000/svg">
<g filter="url(#filter0_ddd_1235_48994)">
<circle cx="217.5" cy="137.5" r="137.5" fill="#A88069"/>
</g>
<path d="M132.737 183V177.16C132.737 176.467 132.577 175.976 132.257 175.688C131.947 175.389 131.425 175.24 130.689 175.24C130.155 175.24 129.643 175.315 129.153 175.464C128.673 175.603 128.214 175.8 127.777 176.056V174.728C128.086 174.568 128.502 174.419 129.025 174.28C129.558 174.141 130.155 174.072 130.817 174.072C131.382 174.072 131.862 174.136 132.257 174.264C132.662 174.392 132.961 174.627 133.153 174.968C133.526 175.139 133.782 175.405 133.921 175.768C134.07 176.131 134.145 176.568 134.145 177.08V183H132.737ZM129.985 183.16C129.046 183.16 128.326 182.947 127.825 182.52C127.334 182.083 127.089 181.459 127.089 180.648C127.089 179.763 127.409 179.08 128.049 178.6C128.699 178.12 129.75 177.837 131.201 177.752L133.025 177.64V178.824L131.393 178.936C130.305 179.011 129.553 179.181 129.137 179.448C128.731 179.715 128.529 180.104 128.529 180.616C128.529 181.096 128.678 181.448 128.977 181.672C129.286 181.896 129.713 182.008 130.257 182.008C130.438 182.008 130.603 181.997 130.753 181.976C130.902 181.944 131.046 181.907 131.185 181.864L131.409 182.936C131.206 183.011 130.982 183.064 130.737 183.096C130.502 183.139 130.251 183.16 129.985 183.16ZM133.105 175.464L132.305 174.712C132.582 174.669 132.843 174.563 133.089 174.392C133.334 174.221 133.457 173.976 133.457 173.656H134.849C134.849 173.987 134.769 174.28 134.609 174.536C134.459 174.781 134.251 174.984 133.985 175.144C133.718 175.293 133.425 175.4 133.105 175.464ZM139.861 183.16C138.709 183.16 137.845 182.861 137.269 182.264C136.704 181.656 136.421 180.707 136.421 179.416C136.421 179.203 136.426 178.973 136.437 178.728C136.458 178.472 136.48 178.221 136.501 177.976H139.861V179.096H137.845V179.416C137.845 180.088 137.92 180.616 138.069 181C138.218 181.373 138.437 181.635 138.725 181.784C139.024 181.933 139.392 182.008 139.829 182.008C140.309 182.008 140.725 181.917 141.077 181.736C141.429 181.555 141.701 181.224 141.893 180.744C142.085 180.264 142.181 179.576 142.181 178.68C142.181 177.891 142.096 177.245 141.925 176.744C141.754 176.243 141.472 175.869 141.077 175.624C140.693 175.379 140.17 175.256 139.509 175.256C139.168 175.256 138.837 175.288 138.517 175.352C138.197 175.405 137.888 175.491 137.589 175.608C137.29 175.715 136.997 175.853 136.709 176.024V174.696C136.922 174.579 137.184 174.477 137.493 174.392C137.802 174.296 138.144 174.221 138.517 174.168C138.89 174.104 139.28 174.072 139.685 174.072C140.624 174.072 141.381 174.264 141.957 174.648C142.544 175.021 142.97 175.555 143.237 176.248C143.504 176.931 143.637 177.741 143.637 178.68C143.637 179.619 143.514 180.424 143.269 181.096C143.024 181.768 142.624 182.28 142.069 182.632C141.525 182.984 140.789 183.16 139.861 183.16ZM148.968 183.16C148.339 183.16 147.795 183.053 147.336 182.84C146.888 182.616 146.542 182.28 146.296 181.832C146.062 181.384 145.944 180.803 145.944 180.088V174.232H147.368V180.008C147.368 180.648 147.528 181.133 147.848 181.464C148.179 181.795 148.654 181.96 149.272 181.96C150.019 181.96 150.595 181.72 151 181.24C151.416 180.76 151.624 180.115 151.624 179.304V174.232H153.048V183H151.864L151.8 181.704H151.72C151.528 182.131 151.192 182.483 150.712 182.76C150.243 183.027 149.662 183.16 148.968 183.16ZM155.677 183V179.96C155.677 179.288 155.826 178.803 156.125 178.504C156.424 178.195 156.802 177.981 157.261 177.864L157.277 177.816L155.517 177.144V176.616C155.517 176.179 155.661 175.768 155.949 175.384C156.237 174.989 156.648 174.675 157.181 174.44C157.725 174.195 158.37 174.072 159.117 174.072C159.768 174.072 160.37 174.179 160.925 174.392C161.48 174.595 161.922 174.92 162.253 175.368C162.594 175.805 162.765 176.381 162.765 177.096V183H161.341V177.24C161.341 176.525 161.122 176.019 160.685 175.72C160.258 175.411 159.73 175.256 159.101 175.256C158.45 175.256 157.933 175.395 157.549 175.672C157.165 175.939 156.973 176.28 156.973 176.696L158.701 177.56L158.573 178.328C158.178 178.328 157.832 178.461 157.533 178.728C157.245 178.984 157.101 179.395 157.101 179.96V183H155.677ZM170.487 183V177.16C170.487 176.467 170.327 175.976 170.007 175.688C169.697 175.389 169.175 175.24 168.439 175.24C167.905 175.24 167.393 175.315 166.903 175.464C166.423 175.603 165.964 175.8 165.527 176.056V174.728C165.836 174.568 166.252 174.419 166.775 174.28C167.308 174.141 167.905 174.072 168.567 174.072C169.132 174.072 169.623 174.136 170.039 174.264C170.455 174.381 170.796 174.563 171.063 174.808C171.34 175.053 171.548 175.368 171.687 175.752C171.825 176.125 171.895 176.568 171.895 177.08V183H170.487ZM167.735 183.16C166.796 183.16 166.076 182.947 165.575 182.52C165.084 182.083 164.839 181.459 164.839 180.648C164.839 179.763 165.159 179.08 165.799 178.6C166.449 178.12 167.5 177.837 168.951 177.752L170.775 177.64V178.824L169.143 178.936C168.055 179.011 167.303 179.181 166.887 179.448C166.481 179.715 166.279 180.104 166.279 180.616C166.279 181.096 166.428 181.448 166.727 181.672C167.036 181.896 167.463 182.008 168.007 182.008C168.188 182.008 168.353 181.997 168.503 181.976C168.652 181.944 168.796 181.907 168.935 181.864L169.159 182.936C168.956 183.011 168.732 183.064 168.487 183.096C168.252 183.139 168.001 183.16 167.735 183.16ZM170.616 187.176V185.48C170.616 185.213 170.499 185.08 170.264 185.08C170.211 185.08 170.158 185.085 170.104 185.096C170.04 185.107 169.982 185.123 169.928 185.144L169.816 184.184C169.976 184.131 170.152 184.088 170.344 184.056C170.526 184.035 170.675 184.024 170.792 184.024C171.166 184.024 171.443 184.109 171.624 184.28C171.795 184.461 171.88 184.707 171.88 185.016V187.176H170.616ZM170.238 172.84V169.464H171.646V172.84H170.238ZM178.715 183.16C178.033 183.16 177.441 183.027 176.939 182.76C176.449 182.483 176.113 182.099 175.931 181.608H175.867L175.787 183H174.619V174.232H176.043V179.304C176.043 179.837 176.134 180.307 176.315 180.712C176.507 181.107 176.779 181.416 177.131 181.64C177.494 181.853 177.926 181.96 178.427 181.96C179.057 181.96 179.526 181.795 179.835 181.464C180.145 181.133 180.299 180.648 180.299 180.008V174.232H181.723V180.104C181.723 180.808 181.601 181.384 181.355 181.832C181.121 182.28 180.779 182.616 180.331 182.84C179.883 183.053 179.345 183.16 178.715 183.16ZM186.303 183.16C186.015 183.16 185.738 183.112 185.471 183.016C185.205 182.92 184.986 182.749 184.815 182.504C184.645 182.259 184.559 181.917 184.559 181.48V174.232H185.983V181.304C185.983 181.549 186.037 181.725 186.143 181.832C186.25 181.939 186.421 181.992 186.655 181.992C186.751 181.992 186.853 181.981 186.959 181.96C187.066 181.939 187.167 181.912 187.263 181.88L187.455 182.92C187.253 183.016 187.055 183.08 186.863 183.112C186.671 183.144 186.485 183.16 186.303 183.16ZM194.018 183V177.16C194.018 176.467 193.858 175.976 193.538 175.688C193.229 175.389 192.706 175.24 191.97 175.24C191.437 175.24 190.925 175.315 190.434 175.464C189.954 175.603 189.495 175.8 189.058 176.056V174.728C189.367 174.568 189.783 174.419 190.306 174.28C190.839 174.141 191.437 174.072 192.098 174.072C192.663 174.072 193.154 174.136 193.57 174.264C193.986 174.381 194.327 174.563 194.594 174.808C194.871 175.053 195.079 175.368 195.218 175.752C195.357 176.125 195.426 176.568 195.426 177.08V183H194.018ZM191.266 183.16C190.327 183.16 189.607 182.947 189.106 182.52C188.615 182.083 188.37 181.459 188.37 180.648C188.37 179.763 188.69 179.08 189.33 178.6C189.981 178.12 191.031 177.837 192.482 177.752L194.306 177.64V178.824L192.674 178.936C191.586 179.011 190.834 179.181 190.418 179.448C190.013 179.715 189.81 180.104 189.81 180.616C189.81 181.096 189.959 181.448 190.258 181.672C190.567 181.896 190.994 182.008 191.538 182.008C191.719 182.008 191.885 181.997 192.034 181.976C192.183 181.944 192.327 181.907 192.466 181.864L192.69 182.936C192.487 183.011 192.263 183.064 192.018 183.096C191.783 183.139 191.533 183.16 191.266 183.16ZM193.529 173.08C193.231 173.08 192.975 173.021 192.761 172.904C192.548 172.776 192.383 172.589 192.265 172.344L191.465 173.032C190.868 173.032 190.388 172.883 190.025 172.584C189.652 172.275 189.465 171.832 189.465 171.256C189.465 170.851 189.551 170.515 189.721 170.248C189.892 169.981 190.116 169.784 190.393 169.656C190.671 169.528 190.969 169.464 191.289 169.464H195.017V170.424H191.497C191.252 170.424 191.044 170.499 190.873 170.648C190.692 170.787 190.601 171.011 190.601 171.32C190.601 171.544 190.66 171.731 190.777 171.88C190.895 172.019 191.092 172.088 191.369 172.088L192.265 171.288H192.569C192.612 171.523 192.703 171.725 192.841 171.896C192.969 172.056 193.151 172.136 193.385 172.136C193.588 172.136 193.743 172.077 193.849 171.96C193.945 171.843 193.993 171.688 193.993 171.496V171.288H195.033V171.512C195.033 172.035 194.9 172.429 194.633 172.696C194.356 172.952 193.988 173.08 193.529 173.08ZM197.943 183V179.96C197.943 179.288 198.092 178.803 198.391 178.504C198.689 178.195 199.068 177.981 199.527 177.864L199.543 177.816L197.783 177.144V176.616C197.783 176.179 197.927 175.768 198.215 175.384C198.503 174.989 198.913 174.675 199.447 174.44C199.991 174.195 200.636 174.072 201.383 174.072C202.033 174.072 202.636 174.179 203.191 174.392C203.745 174.595 204.188 174.92 204.519 175.368C204.86 175.805 205.031 176.381 205.031 177.096V183H203.607V177.24C203.607 176.525 203.388 176.019 202.951 175.72C202.524 175.411 201.996 175.256 201.367 175.256C200.716 175.256 200.199 175.395 199.815 175.672C199.431 175.939 199.239 176.28 199.239 176.696L200.967 177.56L200.839 178.328C200.444 178.328 200.097 178.461 199.799 178.728C199.511 178.984 199.367 179.395 199.367 179.96V183H197.943ZM214.797 183.16C214.167 183.16 213.623 183.053 213.165 182.84C212.717 182.616 212.37 182.28 212.125 181.832C211.89 181.384 211.773 180.803 211.773 180.088V174.232H213.197V180.008C213.197 180.648 213.357 181.133 213.677 181.464C214.007 181.795 214.482 181.96 215.101 181.96C215.847 181.96 216.423 181.72 216.829 181.24C217.245 180.76 217.453 180.115 217.453 179.304V174.232H218.877V183H217.693L217.629 181.704H217.549C217.357 182.131 217.021 182.483 216.541 182.76C216.071 183.027 215.49 183.16 214.797 183.16ZM223.345 183.16C222.929 183.16 222.524 183.117 222.129 183.032C221.745 182.947 221.334 182.787 220.897 182.552L221.345 181.464C221.58 181.603 221.846 181.725 222.145 181.832C222.444 181.928 222.79 181.976 223.185 181.976C223.974 181.976 224.588 181.688 225.025 181.112C225.473 180.525 225.697 179.683 225.697 178.584C225.697 177.507 225.468 176.685 225.009 176.12C224.561 175.544 223.868 175.256 222.929 175.256C222.588 175.256 222.241 175.293 221.889 175.368C221.537 175.443 221.228 175.555 220.961 175.704V174.504C221.27 174.344 221.606 174.232 221.969 174.168C222.342 174.104 222.716 174.072 223.089 174.072C224.049 174.072 224.828 174.264 225.425 174.648C226.022 175.021 226.46 175.544 226.737 176.216C227.014 176.888 227.153 177.677 227.153 178.584C227.153 179.992 226.833 181.107 226.193 181.928C225.564 182.749 224.614 183.16 223.345 183.16ZM232.452 183.16C231.599 183.16 230.927 182.963 230.436 182.568C229.956 182.163 229.615 181.619 229.412 180.936C229.22 180.253 229.124 179.501 229.124 178.68C229.124 177.773 229.215 177.027 229.396 176.44C229.588 175.843 229.855 175.373 230.196 175.032C230.548 174.68 230.964 174.435 231.444 174.296C231.935 174.147 232.473 174.072 233.06 174.072C233.913 174.072 234.607 174.2 235.14 174.456C235.684 174.701 236.084 175.053 236.34 175.512C236.596 175.971 236.724 176.52 236.724 177.16V183H235.316V177.288C235.316 176.627 235.151 176.125 234.82 175.784C234.489 175.432 233.919 175.256 233.108 175.256C232.617 175.256 232.175 175.347 231.78 175.528C231.396 175.709 231.092 176.045 230.868 176.536C230.655 177.027 230.548 177.747 230.548 178.696C230.548 179.315 230.607 179.875 230.724 180.376C230.852 180.867 231.071 181.256 231.38 181.544C231.689 181.832 232.121 181.976 232.676 181.976C232.836 181.976 232.985 181.965 233.124 181.944C233.263 181.923 233.396 181.891 233.524 181.848L233.668 182.952C233.497 183.027 233.3 183.08 233.076 183.112C232.863 183.144 232.655 183.16 232.452 183.16ZM241.303 183.16C241.015 183.16 240.738 183.112 240.471 183.016C240.205 182.92 239.986 182.749 239.815 182.504C239.645 182.259 239.559 181.917 239.559 181.48V174.232H240.983V181.304C240.983 181.549 241.037 181.725 241.143 181.832C241.25 181.939 241.421 181.992 241.655 181.992C241.751 181.992 241.853 181.981 241.959 181.96C242.066 181.939 242.167 181.912 242.263 181.88L242.455 182.92C242.253 183.016 242.055 183.08 241.863 183.112C241.671 183.144 241.485 183.16 241.303 183.16ZM247.386 183.16C246.128 183.16 245.226 182.872 244.682 182.296C244.138 181.72 243.866 180.899 243.866 179.832V174.232H245.29V179.848C245.29 180.563 245.461 181.096 245.802 181.448C246.144 181.8 246.672 181.976 247.386 181.976C248.112 181.976 248.645 181.8 248.986 181.448C249.338 181.096 249.514 180.563 249.514 179.848V171.08H250.938V179.832C250.938 180.899 250.661 181.72 250.106 182.296C249.562 182.872 248.656 183.16 247.386 183.16ZM247.186 173.08C246.898 173.08 246.652 173.021 246.45 172.904C246.236 172.776 246.066 172.589 245.938 172.344L245.394 173.032C244.775 173.032 244.29 172.883 243.938 172.584C243.586 172.275 243.41 171.832 243.41 171.256C243.41 170.648 243.591 170.2 243.954 169.912C244.306 169.613 244.716 169.464 245.186 169.464H248.61V170.424H245.394C245.148 170.424 244.946 170.493 244.786 170.632C244.615 170.771 244.53 170.995 244.53 171.304C244.53 171.528 244.588 171.715 244.706 171.864C244.823 172.013 245.02 172.088 245.298 172.088L245.938 171.288H246.338C246.348 171.565 246.412 171.779 246.53 171.928C246.636 172.067 246.791 172.136 246.994 172.136C247.175 172.136 247.324 172.077 247.442 171.96C247.548 171.832 247.602 171.672 247.602 171.48V171.288H248.626V171.512C248.626 172.035 248.498 172.429 248.242 172.696C247.975 172.952 247.623 173.08 247.186 173.08ZM256.578 183.16C255.948 183.16 255.404 183.053 254.946 182.84C254.498 182.616 254.151 182.28 253.906 181.832C253.671 181.384 253.554 180.803 253.554 180.088V174.232H254.978V180.008C254.978 180.648 255.138 181.133 255.458 181.464C255.788 181.795 256.263 181.96 256.882 181.96C257.628 181.96 258.204 181.72 258.61 181.24C259.026 180.76 259.234 180.115 259.234 179.304V174.232H260.658V183H259.474L259.41 181.704H259.33C259.138 182.131 258.802 182.483 258.322 182.76C257.852 183.027 257.271 183.16 256.578 183.16ZM265.35 183.16C265.062 183.16 264.785 183.112 264.518 183.016C264.252 182.92 264.033 182.749 263.862 182.504C263.692 182.259 263.606 181.917 263.606 181.48V174.232H265.03V181.304C265.03 181.549 265.084 181.725 265.19 181.832C265.297 181.939 265.468 181.992 265.702 181.992C265.798 181.992 265.9 181.981 266.006 181.96C266.113 181.939 266.214 181.912 266.31 181.88L266.502 182.92C266.3 183.016 266.102 183.08 265.91 183.112C265.718 183.144 265.532 183.16 265.35 183.16ZM269.718 183.16C269.43 183.16 269.153 183.112 268.886 183.016C268.62 182.92 268.401 182.749 268.23 182.504C268.06 182.259 267.974 181.917 267.974 181.48V174.232H269.398V181.304C269.398 181.549 269.452 181.725 269.558 181.832C269.665 181.939 269.836 181.992 270.07 181.992C270.166 181.992 270.268 181.981 270.374 181.96C270.481 181.939 270.582 181.912 270.678 181.88L270.87 182.92C270.668 183.016 270.47 183.08 270.278 183.112C270.086 183.144 269.9 183.16 269.718 183.16ZM275.39 183.16C274.761 183.16 274.217 183.053 273.758 182.84C273.31 182.616 272.964 182.28 272.718 181.832C272.484 181.384 272.366 180.803 272.366 180.088V174.232H273.79V180.008C273.79 180.648 273.95 181.133 274.27 181.464C274.601 181.795 275.076 181.96 275.694 181.96C276.441 181.96 277.017 181.72 277.422 181.24C277.838 180.76 278.046 180.115 278.046 179.304V174.232H279.47V183H278.286L278.222 181.704H278.142C277.95 182.131 277.614 182.483 277.134 182.76C276.665 183.027 276.084 183.16 275.39 183.16ZM278.035 172.84V169.464H279.443V172.84H278.035ZM285.203 183.16C284.573 183.16 284.029 183.053 283.571 182.84C283.123 182.616 282.776 182.28 282.531 181.832C282.296 181.384 282.179 180.803 282.179 180.088V174.232H283.603V180.008C283.603 180.648 283.763 181.133 284.083 181.464C284.413 181.795 284.888 181.96 285.507 181.96C286.253 181.96 286.829 181.72 287.235 181.24C287.651 180.76 287.859 180.115 287.859 179.304V174.232H289.283V183H288.099L288.035 181.704H287.955C287.763 182.131 287.427 182.483 286.947 182.76C286.477 183.027 285.896 183.16 285.203 183.16ZM295.095 183.16C293.943 183.16 293.079 182.861 292.503 182.264C291.938 181.656 291.655 180.707 291.655 179.416C291.655 179.203 291.661 178.973 291.671 178.728C291.693 178.472 291.714 178.221 291.735 177.976H295.095V179.096H293.079V179.416C293.079 180.088 293.154 180.616 293.303 181C293.453 181.373 293.671 181.635 293.959 181.784C294.258 181.933 294.626 182.008 295.063 182.008C295.543 182.008 295.959 181.917 296.311 181.736C296.663 181.555 296.935 181.224 297.127 180.744C297.319 180.264 297.415 179.576 297.415 178.68C297.415 177.891 297.33 177.245 297.159 176.744C296.989 176.243 296.706 175.869 296.311 175.624C295.927 175.379 295.405 175.256 294.743 175.256C294.402 175.256 294.071 175.288 293.751 175.352C293.431 175.405 293.122 175.491 292.823 175.608C292.525 175.715 292.231 175.853 291.943 176.024V174.696C292.157 174.579 292.418 174.477 292.727 174.392C293.037 174.296 293.378 174.221 293.751 174.168C294.125 174.104 294.514 174.072 294.919 174.072C295.858 174.072 296.615 174.264 297.191 174.648C297.778 175.021 298.205 175.555 298.471 176.248C298.738 176.931 298.871 177.741 298.871 178.68C298.871 179.619 298.749 180.424 298.503 181.096C298.258 181.768 297.858 182.28 297.303 182.632C296.759 182.984 296.023 183.16 295.095 183.16ZM304.203 183.16C303.573 183.16 303.029 183.053 302.571 182.84C302.123 182.616 301.776 182.28 301.531 181.832C301.296 181.384 301.179 180.803 301.179 180.088V174.232H302.603V180.008C302.603 180.648 302.763 181.133 303.083 181.464C303.413 181.795 303.888 181.96 304.507 181.96C305.253 181.96 305.829 181.72 306.235 181.24C306.651 180.76 306.859 180.115 306.859 179.304V174.232H308.283V183H307.099L307.035 181.704H306.955C306.763 182.131 306.427 182.483 305.947 182.76C305.477 183.027 304.896 183.16 304.203 183.16ZM125.235 207V199.784C125.235 199.325 125.326 198.973 125.507 198.728C125.689 198.483 125.923 198.312 126.211 198.216C126.499 198.12 126.809 198.072 127.139 198.072C127.257 198.072 127.406 198.088 127.587 198.12C127.779 198.152 127.945 198.2 128.083 198.264L127.907 199.336C127.801 199.304 127.694 199.283 127.587 199.272C127.481 199.251 127.395 199.24 127.331 199.24C127.065 199.24 126.878 199.304 126.771 199.432C126.675 199.56 126.627 199.741 126.627 199.976V202.456C126.627 202.787 126.622 203.133 126.611 203.496C126.611 203.848 126.595 204.275 126.563 204.776H126.627C126.841 204.307 127.038 203.917 127.219 203.608C127.401 203.288 127.571 202.989 127.731 202.712L128.579 201.272H129.475L130.323 202.712C130.494 203 130.643 203.256 130.771 203.48C130.899 203.704 131.017 203.923 131.123 204.136C131.23 204.339 131.331 204.552 131.427 204.776H131.491C131.459 204.275 131.438 203.848 131.427 203.496C131.427 203.133 131.427 202.787 131.427 202.456V198.232H132.819V207H131.555L129.075 202.808H129.011L126.499 207H125.235ZM130.746 211.24C130.063 211.24 129.546 211.101 129.194 210.824C128.831 210.557 128.65 210.173 128.65 209.672V209.4C128.65 209.219 128.607 209.107 128.522 209.064C128.426 209.032 128.298 209.037 128.138 209.08L128.042 208.12C128.191 208.077 128.341 208.051 128.49 208.04C128.629 208.029 128.735 208.024 128.81 208.024C129.194 208.024 129.471 208.109 129.642 208.28C129.802 208.451 129.882 208.691 129.882 209V209.544C129.882 209.747 129.946 209.917 130.074 210.056C130.202 210.195 130.421 210.264 130.73 210.264C131.05 210.264 131.274 210.195 131.402 210.056C131.519 209.917 131.578 209.747 131.578 209.544V208.072H132.826V209.624C132.826 210.147 132.65 210.547 132.298 210.824C131.946 211.101 131.429 211.24 130.746 211.24ZM128.362 196.84V196.136C128.575 196.093 128.794 196.035 129.018 195.96C129.242 195.875 129.429 195.768 129.578 195.64C129.727 195.501 129.802 195.336 129.802 195.144C129.802 195.016 129.765 194.909 129.69 194.824C129.605 194.728 129.477 194.68 129.306 194.68C129.199 194.68 129.093 194.701 128.986 194.744C128.869 194.787 128.767 194.824 128.682 194.856L128.362 193.976C128.575 193.805 128.815 193.693 129.082 193.64C129.338 193.587 129.546 193.56 129.706 193.56C130.133 193.56 130.469 193.677 130.714 193.912C130.949 194.147 131.066 194.445 131.066 194.808C131.066 195.107 130.991 195.368 130.842 195.592C130.682 195.805 130.501 195.976 130.298 196.104L130.138 195.72H133.322V196.84H128.362ZM140.666 207V201.16C140.666 200.467 140.506 199.976 140.186 199.688C139.877 199.389 139.354 199.24 138.618 199.24C138.085 199.24 137.573 199.315 137.082 199.464C136.602 199.603 136.144 199.8 135.706 200.056V198.728C136.016 198.568 136.432 198.419 136.954 198.28C137.488 198.141 138.085 198.072 138.746 198.072C139.312 198.072 139.792 198.136 140.186 198.264C140.592 198.392 140.89 198.627 141.082 198.968C141.456 199.139 141.712 199.405 141.85 199.768C142 200.131 142.074 200.568 142.074 201.08V207H140.666ZM137.914 207.16C136.976 207.16 136.256 206.947 135.754 206.52C135.264 206.083 135.018 205.459 135.018 204.648C135.018 203.763 135.338 203.08 135.978 202.6C136.629 202.12 137.68 201.837 139.13 201.752L140.954 201.64V202.824L139.322 202.936C138.234 203.011 137.482 203.181 137.066 203.448C136.661 203.715 136.458 204.104 136.458 204.616C136.458 205.096 136.608 205.448 136.906 205.672C137.216 205.896 137.642 206.008 138.186 206.008C138.368 206.008 138.533 205.997 138.682 205.976C138.832 205.944 138.976 205.907 139.114 205.864L139.338 206.936C139.136 207.011 138.912 207.064 138.666 207.096C138.432 207.139 138.181 207.16 137.914 207.16ZM141.034 199.464L140.234 198.712C140.512 198.669 140.773 198.563 141.018 198.392C141.264 198.221 141.386 197.976 141.386 197.656H142.778C142.778 197.987 142.698 198.28 142.538 198.536C142.389 198.781 142.181 198.984 141.914 199.144C141.648 199.293 141.354 199.4 141.034 199.464ZM147.791 207.16C146.639 207.16 145.775 206.861 145.199 206.264C144.633 205.656 144.351 204.707 144.351 203.416C144.351 203.203 144.356 202.973 144.367 202.728C144.388 202.472 144.409 202.221 144.431 201.976H147.791V203.096H145.775V203.416C145.775 204.088 145.849 204.616 145.999 205C146.148 205.373 146.367 205.635 146.655 205.784C146.953 205.933 147.321 206.008 147.759 206.008C148.239 206.008 148.655 205.917 149.007 205.736C149.359 205.555 149.631 205.224 149.823 204.744C150.015 204.264 150.111 203.576 150.111 202.68C150.111 201.891 150.025 201.245 149.855 200.744C149.684 200.243 149.401 199.869 149.007 199.624C148.623 199.379 148.1 199.256 147.439 199.256C147.097 199.256 146.767 199.288 146.447 199.352C146.127 199.405 145.817 199.491 145.519 199.608C145.22 199.715 144.927 199.853 144.639 200.024V198.696C144.852 198.579 145.113 198.477 145.423 198.392C145.732 198.296 146.073 198.221 146.447 198.168C146.82 198.104 147.209 198.072 147.615 198.072C148.553 198.072 149.311 198.264 149.887 198.648C150.473 199.021 150.9 199.555 151.167 200.248C151.433 200.931 151.567 201.741 151.567 202.68C151.567 203.619 151.444 204.424 151.199 205.096C150.953 205.768 150.553 206.28 149.999 206.632C149.455 206.984 148.719 207.16 147.791 207.16ZM156.898 207.16C156.269 207.16 155.725 207.053 155.266 206.84C154.818 206.616 154.471 206.28 154.226 205.832C153.991 205.384 153.874 204.803 153.874 204.088V198.232H155.298V204.008C155.298 204.648 155.458 205.133 155.778 205.464C156.109 205.795 156.583 205.96 157.202 205.96C157.949 205.96 158.525 205.72 158.93 205.24C159.346 204.76 159.554 204.115 159.554 203.304V198.232H160.978V207H159.794L159.73 205.704H159.65C159.458 206.131 159.122 206.483 158.642 206.76C158.173 207.027 157.591 207.16 156.898 207.16ZM167.911 207.16C167.228 207.16 166.636 207.027 166.135 206.76C165.644 206.483 165.308 206.099 165.127 205.608H165.063L164.983 207H163.815V198.232H165.239V203.304C165.239 203.837 165.329 204.307 165.511 204.712C165.703 205.107 165.975 205.416 166.327 205.64C166.689 205.853 167.121 205.96 167.623 205.96C168.252 205.96 168.721 205.795 169.031 205.464C169.34 205.133 169.495 204.648 169.495 204.008V198.232H170.919V204.104C170.919 204.808 170.796 205.384 170.551 205.832C170.316 206.28 169.975 206.616 169.527 206.84C169.079 207.053 168.54 207.16 167.911 207.16ZM164.12 196.84V196.216L165.288 195.704H170.92V196.84H164.12ZM169.592 196.216V194.408H170.936V196.216H169.592ZM177.035 207.16C175.776 207.16 174.875 206.872 174.331 206.296C173.787 205.72 173.515 204.899 173.515 203.832V198.232H174.939V203.848C174.939 204.563 175.109 205.096 175.451 205.448C175.792 205.8 176.32 205.976 177.035 205.976C177.76 205.976 178.293 205.8 178.635 205.448C178.987 205.096 179.163 204.563 179.163 203.848V195.08H180.587V203.832C180.587 204.899 180.309 205.72 179.755 206.296C179.211 206.872 178.304 207.16 177.035 207.16ZM185.666 207.16C185.037 207.16 184.45 207.101 183.906 206.984C183.373 206.856 182.92 206.707 182.546 206.536L182.962 205.384C183.186 205.469 183.442 205.56 183.73 205.656C184.018 205.752 184.328 205.832 184.658 205.896C185 205.949 185.346 205.976 185.698 205.976C186.264 205.976 186.733 205.869 187.106 205.656C187.48 205.443 187.666 205.133 187.666 204.728C187.666 204.483 187.597 204.275 187.458 204.104C187.33 203.923 187.128 203.757 186.85 203.608C186.573 203.459 186.216 203.315 185.778 203.176C185.106 202.963 184.536 202.739 184.066 202.504C183.608 202.259 183.256 201.971 183.01 201.64C182.776 201.299 182.658 200.877 182.658 200.376C182.658 199.928 182.776 199.533 183.01 199.192C183.256 198.84 183.629 198.568 184.13 198.376C184.642 198.173 185.293 198.072 186.082 198.072C186.594 198.072 187.074 198.12 187.522 198.216C187.981 198.301 188.338 198.424 188.594 198.584V199.784C188.413 199.699 188.184 199.613 187.906 199.528C187.64 199.443 187.346 199.373 187.026 199.32C186.706 199.267 186.376 199.24 186.034 199.24C185.32 199.24 184.813 199.352 184.514 199.576C184.226 199.789 184.082 200.035 184.082 200.312C184.082 200.547 184.146 200.744 184.274 200.904C184.413 201.064 184.642 201.219 184.962 201.368C185.293 201.517 185.736 201.688 186.29 201.88C186.802 202.051 187.272 202.248 187.698 202.472C188.125 202.696 188.461 202.979 188.706 203.32C188.962 203.651 189.09 204.077 189.09 204.6C189.09 205.048 188.978 205.469 188.754 205.864C188.541 206.248 188.184 206.563 187.682 206.808C187.181 207.043 186.509 207.16 185.666 207.16ZM192.167 201.496C191.729 201.496 191.372 201.432 191.095 201.304C190.828 201.165 190.636 200.995 190.519 200.792C190.401 200.579 190.343 200.355 190.343 200.12C190.343 199.96 190.364 199.795 190.407 199.624C190.46 199.453 190.524 199.309 190.599 199.192L191.799 199.384C191.777 199.437 191.751 199.512 191.719 199.608C191.697 199.704 191.687 199.8 191.687 199.896C191.687 200.035 191.724 200.152 191.799 200.248C191.873 200.333 192.012 200.376 192.215 200.376H194.503V201.496H192.167ZM192.167 205.976C191.729 205.976 191.372 205.912 191.095 205.784C190.828 205.645 190.636 205.475 190.519 205.272C190.401 205.059 190.343 204.835 190.343 204.6C190.343 204.44 190.364 204.275 190.407 204.104C190.46 203.933 190.524 203.789 190.599 203.672L191.799 203.864C191.777 203.917 191.751 203.992 191.719 204.088C191.697 204.184 191.687 204.28 191.687 204.376C191.687 204.515 191.724 204.632 191.799 204.728C191.873 204.813 192.012 204.856 192.215 204.856H194.503V205.976H192.167ZM201.557 207V201.16C201.557 200.467 201.397 199.976 201.077 199.688C200.768 199.389 200.245 199.24 199.509 199.24C198.976 199.24 198.464 199.315 197.973 199.464C197.493 199.603 197.034 199.8 196.597 200.056V198.728C196.906 198.568 197.322 198.419 197.845 198.28C198.378 198.141 198.976 198.072 199.637 198.072C200.202 198.072 200.682 198.136 201.077 198.264C201.482 198.392 201.781 198.627 201.973 198.968C202.346 199.139 202.602 199.405 202.741 199.768C202.89 200.131 202.965 200.568 202.965 201.08V207H201.557ZM198.805 207.16C197.866 207.16 197.146 206.947 196.645 206.52C196.154 206.083 195.909 205.459 195.909 204.648C195.909 203.763 196.229 203.08 196.869 202.6C197.52 202.12 198.57 201.837 200.021 201.752L201.845 201.64V202.824L200.213 202.936C199.125 203.011 198.373 203.181 197.957 203.448C197.552 203.715 197.349 204.104 197.349 204.616C197.349 205.096 197.498 205.448 197.797 205.672C198.106 205.896 198.533 206.008 199.077 206.008C199.258 206.008 199.424 205.997 199.573 205.976C199.722 205.944 199.866 205.907 200.005 205.864L200.229 206.936C200.026 207.011 199.802 207.064 199.557 207.096C199.322 207.139 199.072 207.16 198.805 207.16ZM201.925 199.464L201.125 198.712C201.402 198.669 201.664 198.563 201.909 198.392C202.154 198.221 202.277 197.976 202.277 197.656H203.669C203.669 197.987 203.589 198.28 203.429 198.536C203.28 198.781 203.072 198.984 202.805 199.144C202.538 199.293 202.245 199.4 201.925 199.464ZM209.097 207.16C207.839 207.16 206.937 206.872 206.393 206.296C205.849 205.72 205.577 204.899 205.577 203.832V198.232H207.001V203.848C207.001 204.563 207.172 205.096 207.513 205.448C207.855 205.8 208.383 205.976 209.097 205.976C209.823 205.976 210.356 205.8 210.697 205.448C211.049 205.096 211.225 204.563 211.225 203.848V198.232H212.649V203.832C212.649 204.899 212.372 205.72 211.817 206.296C211.273 206.872 210.367 207.16 209.097 207.16ZM215.154 207V203.96C215.154 203.288 215.303 202.803 215.602 202.504C215.9 202.195 216.279 201.981 216.738 201.864L216.754 201.816L214.993 201.144V200.616C214.993 200.179 215.138 199.768 215.426 199.384C215.714 198.989 216.124 198.675 216.658 198.44C217.202 198.195 217.847 198.072 218.594 198.072C219.244 198.072 219.847 198.179 220.402 198.392C220.956 198.595 221.399 198.92 221.73 199.368C222.071 199.805 222.242 200.381 222.242 201.096V207H220.818V201.24C220.818 200.525 220.599 200.019 220.162 199.72C219.735 199.411 219.207 199.256 218.578 199.256C217.927 199.256 217.41 199.395 217.026 199.672C216.642 199.939 216.45 200.28 216.45 200.696L218.178 201.56L218.049 202.328C217.655 202.328 217.308 202.461 217.01 202.728C216.722 202.984 216.578 203.395 216.578 203.96V207H215.154ZM227.307 207V200.776C227.307 200.253 227.185 199.869 226.939 199.624C226.705 199.379 226.305 199.256 225.739 199.256C225.355 199.256 224.993 199.309 224.651 199.416C224.321 199.512 224.001 199.651 223.691 199.832V198.552C223.905 198.445 224.209 198.339 224.603 198.232C224.998 198.125 225.467 198.072 226.011 198.072C226.566 198.072 227.046 198.152 227.451 198.312C227.857 198.472 228.171 198.739 228.395 199.112C228.619 199.475 228.731 199.96 228.731 200.568V207H227.307ZM233.791 207.16C233.162 207.16 232.575 207.101 232.031 206.984C231.498 206.856 231.045 206.707 230.671 206.536L231.087 205.384C231.311 205.469 231.567 205.56 231.855 205.656C232.143 205.752 232.453 205.832 232.783 205.896C233.125 205.949 233.471 205.976 233.823 205.976C234.389 205.976 234.858 205.869 235.231 205.656C235.605 205.443 235.791 205.133 235.791 204.728C235.791 204.483 235.722 204.275 235.583 204.104C235.455 203.923 235.253 203.757 234.975 203.608C234.698 203.459 234.341 203.315 233.903 203.176C233.231 202.963 232.661 202.739 232.191 202.504C231.733 202.259 231.381 201.971 231.135 201.64C230.901 201.299 230.783 200.877 230.783 200.376C230.783 199.928 230.901 199.533 231.135 199.192C231.381 198.84 231.754 198.568 232.255 198.376C232.767 198.173 233.418 198.072 234.207 198.072C234.719 198.072 235.199 198.12 235.647 198.216C236.106 198.301 236.463 198.424 236.719 198.584V199.784C236.538 199.699 236.309 199.613 236.031 199.528C235.765 199.443 235.471 199.373 235.151 199.32C234.831 199.267 234.501 199.24 234.159 199.24C233.445 199.24 232.938 199.352 232.639 199.576C232.351 199.789 232.207 200.035 232.207 200.312C232.207 200.547 232.271 200.744 232.399 200.904C232.538 201.064 232.767 201.219 233.087 201.368C233.418 201.517 233.861 201.688 234.415 201.88C234.927 202.051 235.397 202.248 235.823 202.472C236.25 202.696 236.586 202.979 236.831 203.32C237.087 203.651 237.215 204.077 237.215 204.6C237.215 205.048 237.103 205.469 236.879 205.864C236.666 206.248 236.309 206.563 235.807 206.808C235.306 207.043 234.634 207.16 233.791 207.16ZM240.948 207.16C240.649 207.16 240.361 207.112 240.084 207.016C239.817 206.92 239.598 206.749 239.428 206.504C239.268 206.259 239.188 205.917 239.188 205.48V203.928C239.188 203.267 239.326 202.787 239.604 202.488C239.892 202.189 240.265 201.981 240.724 201.864L240.74 201.816L238.9 201.144V200.616C238.9 200.147 239.038 199.72 239.316 199.336C239.604 198.952 240.004 198.648 240.516 198.424C241.038 198.189 241.646 198.072 242.34 198.072C242.926 198.072 243.481 198.168 244.004 198.36C244.537 198.552 244.969 198.872 245.3 199.32C245.63 199.757 245.796 200.344 245.796 201.08V204.136C245.796 204.776 245.94 205.24 246.228 205.528C246.526 205.816 246.921 205.96 247.412 205.96C247.838 205.96 248.212 205.853 248.532 205.64C248.852 205.416 249.102 205.112 249.284 204.728C249.465 204.333 249.556 203.875 249.556 203.352V198.232H250.98V207H249.812L249.732 205.608H249.652C249.47 206.099 249.145 206.483 248.676 206.76C248.217 207.027 247.7 207.16 247.124 207.16C246.313 207.16 245.652 206.936 245.14 206.488C244.628 206.04 244.372 205.293 244.372 204.248V201.224C244.372 200.712 244.276 200.312 244.084 200.024C243.892 199.736 243.636 199.539 243.316 199.432C243.006 199.315 242.676 199.256 242.324 199.256C241.758 199.256 241.289 199.379 240.916 199.624C240.553 199.869 240.366 200.227 240.356 200.696L242.18 201.56L242.052 202.328C241.657 202.328 241.316 202.451 241.028 202.696C240.75 202.941 240.612 203.347 240.612 203.912V205.32C240.612 205.555 240.665 205.725 240.772 205.832C240.878 205.939 241.049 205.992 241.284 205.992C241.39 205.992 241.492 205.987 241.588 205.976C241.694 205.955 241.79 205.928 241.876 205.896L242.084 206.92C241.881 207.016 241.684 207.08 241.492 207.112C241.31 207.144 241.129 207.16 240.948 207.16ZM248.343 197.304C248.268 197.187 248.209 197.037 248.167 196.856C248.113 196.664 248.087 196.477 248.087 196.296C248.087 196.072 248.135 195.864 248.231 195.672C248.327 195.469 248.497 195.304 248.743 195.176C248.988 195.048 249.329 194.984 249.767 194.984H251.959V196.088H250.135C249.921 196.088 249.751 196.131 249.623 196.216C249.495 196.291 249.431 196.424 249.431 196.616C249.431 196.691 249.447 196.771 249.479 196.856C249.5 196.941 249.532 197.027 249.575 197.112L248.343 197.304ZM255.671 207.16C255.383 207.16 255.105 207.112 254.839 207.016C254.572 206.92 254.353 206.749 254.183 206.504C254.012 206.259 253.927 205.917 253.927 205.48V198.232H255.351V205.304C255.351 205.549 255.404 205.725 255.511 205.832C255.617 205.939 255.788 205.992 256.023 205.992C256.119 205.992 256.22 205.981 256.327 205.96C256.433 205.939 256.535 205.912 256.631 205.88L256.823 206.92C256.62 207.016 256.423 207.08 256.231 207.112C256.039 207.144 255.852 207.16 255.671 207.16ZM258.325 207V203.96C258.325 203.288 258.475 202.803 258.773 202.504C259.072 202.195 259.451 201.981 259.909 201.864L259.925 201.816L258.165 201.144V200.616C258.165 200.179 258.309 199.768 258.597 199.384C258.885 198.989 259.296 198.675 259.829 198.44C260.373 198.195 261.019 198.072 261.765 198.072C262.416 198.072 263.019 198.179 263.573 198.392C264.128 198.595 264.571 198.92 264.901 199.368C265.243 199.805 265.413 200.381 265.413 201.096V207H263.989V201.24C263.989 200.525 263.771 200.019 263.333 199.72C262.907 199.411 262.379 199.256 261.749 199.256C261.099 199.256 260.581 199.395 260.197 199.672C259.813 199.939 259.621 200.28 259.621 200.696L261.349 201.56L261.221 202.328C260.827 202.328 260.48 202.461 260.181 202.728C259.893 202.984 259.749 203.395 259.749 203.96V207H258.325ZM258.448 196.84V196.216L259.616 195.704H265.248V196.84H258.448ZM271.023 207.16C270.394 207.16 269.85 207.053 269.391 206.84C268.943 206.616 268.596 206.28 268.351 205.832C268.116 205.384 267.999 204.803 267.999 204.088V198.232H269.423V204.008C269.423 204.648 269.583 205.133 269.903 205.464C270.234 205.795 270.708 205.96 271.327 205.96C272.074 205.96 272.65 205.72 273.055 205.24C273.471 204.76 273.679 204.115 273.679 203.304V198.232H275.103V207H273.919L273.855 205.704H273.775C273.583 206.131 273.247 206.483 272.767 206.76C272.298 207.027 271.716 207.16 271.023 207.16ZM286.227 207H284.852V199.867C284.852 199.643 284.852 199.404 284.852 199.148C284.857 198.893 284.862 198.641 284.867 198.391C284.878 198.135 284.885 197.893 284.891 197.664C284.901 197.43 284.909 197.224 284.914 197.047C284.826 197.141 284.747 197.221 284.68 197.289C284.612 197.357 284.542 197.422 284.469 197.484C284.401 197.547 284.328 197.615 284.25 197.688C284.172 197.755 284.078 197.836 283.969 197.93L282.812 198.875L282.062 197.914L285.055 195.578H286.227V207ZM297.547 201.273C297.547 202.195 297.479 203.021 297.344 203.75C297.214 204.479 297 205.096 296.703 205.602C296.411 206.107 296.034 206.492 295.57 206.758C295.107 207.023 294.544 207.156 293.883 207.156C293.268 207.156 292.732 207.023 292.273 206.758C291.82 206.492 291.443 206.107 291.141 205.602C290.844 205.096 290.62 204.479 290.469 203.75C290.323 203.021 290.25 202.195 290.25 201.273C290.25 200.352 290.315 199.526 290.445 198.797C290.581 198.068 290.792 197.453 291.078 196.953C291.37 196.448 291.745 196.062 292.203 195.797C292.667 195.531 293.227 195.398 293.883 195.398C294.503 195.398 295.042 195.531 295.5 195.797C295.958 196.057 296.339 196.44 296.641 196.945C296.943 197.445 297.169 198.06 297.32 198.789C297.471 199.518 297.547 200.346 297.547 201.273ZM291.695 201.273C291.695 202.055 291.734 202.737 291.812 203.32C291.891 203.904 292.016 204.391 292.188 204.781C292.359 205.167 292.583 205.458 292.859 205.656C293.141 205.849 293.482 205.945 293.883 205.945C294.284 205.945 294.625 205.849 294.906 205.656C295.188 205.464 295.417 205.174 295.594 204.789C295.776 204.404 295.906 203.919 295.984 203.336C296.068 202.747 296.109 202.06 296.109 201.273C296.109 200.492 296.068 199.81 295.984 199.227C295.906 198.643 295.776 198.159 295.594 197.773C295.417 197.388 295.188 197.099 294.906 196.906C294.625 196.714 294.284 196.617 293.883 196.617C293.482 196.617 293.141 196.714 292.859 196.906C292.583 197.099 292.359 197.388 292.188 197.773C292.016 198.159 291.891 198.643 291.812 199.227C291.734 199.81 291.695 200.492 291.695 201.273ZM307.269 207.16C306.01 207.16 305.109 206.872 304.565 206.296C304.021 205.72 303.749 204.899 303.749 203.832V198.232H305.173V203.848C305.173 204.563 305.344 205.096 305.685 205.448C306.026 205.8 306.554 205.976 307.269 205.976C307.994 205.976 308.528 205.8 308.869 205.448C309.221 205.096 309.397 204.563 309.397 203.848V195.08H310.821V203.832C310.821 204.899 310.544 205.72 309.989 206.296C309.445 206.872 308.538 207.16 307.269 207.16ZM302.957 196.84V196.216L304.109 195.72H308.493V196.84H302.957ZM307.165 196.216V194.456H308.493V196.216H307.165Z" fill="white"/>
<g clip-path="url(#clip0_1235_48994)">
<path d="M236.289 107.064C235.723 106.006 235.223 105.143 234.743 104.278C234.354 103.562 233.869 102.902 233.303 102.316C233.026 102.029 232.709 101.784 232.362 101.589C232.303 101.473 232.199 101.311 232.071 101.09C231.817 100.669 231.437 100.047 230.923 99.2655C230.255 98.2878 229.452 97.4095 228.538 96.6567C227.936 96.1729 227.274 95.7704 226.567 95.4594C225.75 95.12 224.892 94.8915 224.015 94.78C221.994 94.5842 219.956 94.8599 218.06 95.5855C215.931 96.3901 213.942 97.5271 212.169 98.954C208.128 102.225 204.933 106.419 202.851 111.183C200.836 115.84 199.505 120.764 198.899 125.803C198.599 128.074 198.399 130.226 198.267 132.223C198.197 133.232 198.117 134.242 198.137 135.243C198.136 136.258 198.329 137.264 198.704 138.207C199.068 139.062 199.619 139.823 200.316 140.436C200.909 140.943 201.571 141.363 202.281 141.684C203.37 142.147 204.511 142.474 205.679 142.657C206.624 142.803 207.351 142.865 207.846 142.906C209.096 143.865 210.514 144.582 212.027 145.021C213.877 145.54 215.788 145.809 217.709 145.822C218.714 145.842 219.714 145.813 220.712 145.743C221.71 145.674 222.706 145.584 223.812 145.496C225.897 145.271 227.947 144.798 229.92 144.087C230.841 143.76 231.731 143.353 232.581 142.872C234.339 142.841 236.088 142.611 237.793 142.185C238.394 142.037 239.012 141.868 239.657 141.656C240.346 141.43 241.022 141.165 241.681 140.862C242.461 140.512 243.188 140.052 243.839 139.497C244.651 138.829 245.274 137.96 245.644 136.975C246.007 135.963 246.143 134.884 246.045 133.814C245.959 132.811 245.782 131.817 245.517 130.846C245.031 129.029 244.492 127.176 243.867 125.24C241.879 118.97 239.344 112.888 236.289 107.064ZM223.265 124.784C224.482 125.069 226.729 125.572 229.744 126.144C230.324 126.241 230.897 126.372 231.461 126.539C231.696 126.61 231.921 126.713 232.127 126.847C232.236 126.911 232.324 127.005 232.38 127.118C232.425 127.177 232.452 127.248 232.46 127.322C232.468 127.397 232.455 127.472 232.423 127.539C232.392 127.607 232.342 127.665 232.28 127.706C232.218 127.747 232.145 127.771 232.071 127.774L231.861 127.791L231.3 127.926C228.288 128.648 224.938 129.286 221.419 129.817L221.22 129.833C221.307 129.535 221.421 129.205 221.549 128.803C221.829 128.029 222.216 127.095 222.703 126.033L223.265 124.784ZM221.457 126.012C221.221 126.958 221.04 127.917 220.914 128.884C220.864 129.269 220.83 129.603 220.814 129.895L219.473 130.072L218.834 129.471C218.147 128.821 217.493 128.136 216.875 127.42C216.062 126.477 215.346 125.455 214.736 124.37C214.02 123.078 213.538 121.67 213.311 120.21C213.083 118.502 213.162 116.766 213.544 115.086C213.985 113.143 214.686 111.268 215.628 109.513C216.124 108.56 216.68 107.603 217.285 106.632C217.587 106.146 217.919 105.648 218.231 105.162L218.414 105.569L219.14 107.126C220.097 109.197 221.082 111.104 221.784 112.864C222.463 114.443 222.846 116.133 222.914 117.85C222.888 119.367 222.671 120.874 222.268 122.336C222.111 123.642 221.741 124.916 221.457 126.012ZM207.343 131.049C207.258 130.995 207.23 130.636 207.344 130.437C207.689 129.727 209.067 129.146 209.955 128.583L212.349 127.149C213.066 126.71 213.591 126.378 213.925 126.16C215.214 127.589 216.705 128.822 218.35 129.821L218.898 130.148C216.494 130.45 214.184 130.664 212.018 130.807C210.583 130.921 209.191 130.952 207.911 131.003C207.632 131.026 207.452 131.04 207.403 131.044L207.343 131.049ZM206.006 142.1C205.011 141.763 204.054 141.321 203.153 140.782C202.019 140.153 201.125 139.166 200.612 137.975C200.11 136.711 200.384 135.114 200.7 133.173C201.017 131.232 201.38 129.106 201.879 126.94C202.788 122.053 204.235 117.281 206.193 112.712C208.128 108.258 210.991 104.269 214.59 101.008C215.367 100.322 216.187 99.6871 217.046 99.1071C217.504 98.7998 218.004 98.5293 218.435 98.2742L218.084 98.7837L217.114 100.205C216.467 101.15 215.795 102.156 215.241 103.013L214.715 103.837L214.263 104.585C213.664 105.636 213.1 106.614 212.601 107.657C211.61 109.676 210.919 111.83 210.553 114.05C210.22 116.087 210.274 118.169 210.711 120.187C211.111 121.932 211.86 123.578 212.912 125.027C213.204 125.415 213.493 125.774 213.79 126.101L212.103 126.587C211.378 126.805 210.487 127.076 209.44 127.411L207.749 127.967C206.943 128.206 206.216 128.659 205.647 129.278C205.369 129.614 205.167 130.006 205.056 130.428C204.931 130.888 204.932 131.373 205.058 131.833C204.865 132.226 204.707 132.634 204.583 133.054C204.025 134.994 204.126 137.064 204.872 138.94C205.427 140.34 206.314 141.585 207.458 142.566L207.566 142.668C207.171 142.488 206.646 142.33 206.006 142.1ZM223.401 141.717C219.664 142.155 216.17 142.494 213.212 142.007C211.844 141.822 210.523 141.383 209.316 140.712C209.046 140.558 208.784 140.388 208.534 140.203C208.279 140.033 208.062 139.819 207.826 139.637C207.414 139.248 207.043 138.817 206.721 138.351C206.15 137.504 205.735 136.562 205.496 135.57C205.295 134.794 205.198 133.996 205.206 133.195C205.207 132.858 205.231 132.521 205.277 132.186C205.495 132.63 205.843 132.997 206.273 133.241C206.711 133.471 207.189 133.614 207.681 133.66L208.693 133.77C209.037 133.803 209.381 133.846 209.704 133.87C210.41 133.914 211.136 133.967 211.891 133.997C218.932 134.278 225.96 133.204 232.595 130.832L232.898 130.728L233.404 130.527C233.722 130.389 234.022 130.21 234.294 129.995C234.807 129.592 235.16 129.02 235.289 128.381C235.409 127.76 235.33 127.116 235.062 126.543L235.422 126.895C235.615 127.121 235.794 127.358 235.96 127.605C236.39 128.265 236.706 128.993 236.894 129.758C237.137 130.738 237.188 131.756 237.042 132.755C236.796 134.012 236.288 135.204 235.553 136.252C234.817 137.301 233.87 138.184 232.772 138.844C230.345 140.492 227.089 141.303 223.403 141.747L223.401 141.717ZM242.774 135.579C242.704 136.118 242.488 136.627 242.15 137.053C241.776 137.532 241.337 137.955 240.845 138.311C239.81 139.017 238.719 139.637 237.582 140.166C236.57 140.634 235.536 141.051 234.482 141.416L235.027 140.951C236.367 139.779 237.43 138.324 238.138 136.691C238.757 135.31 239.012 133.795 238.881 132.288C238.744 130.242 237.81 128.332 236.28 126.968C235.889 126.639 235.459 126.36 235 126.137L234.91 126.144C234.679 125.732 234.367 125.371 233.993 125.083C233.762 124.919 233.516 124.777 233.257 124.66C233.05 124.569 232.835 124.492 232.617 124.43C232.236 124.336 231.849 124.273 231.458 124.242C230.833 124.197 230.206 124.187 229.58 124.211C226.712 124.229 224.573 124.329 223.405 124.392C223.704 123.746 224.01 123.05 224.313 122.313C225.881 118.79 225.999 114.791 224.639 111.182C224.321 110.204 223.942 109.231 223.544 108.26C223.146 107.289 222.747 106.317 222.303 105.279C222.083 104.775 221.875 104.31 221.66 103.755C221.242 102.786 220.814 101.816 220.425 100.844C220.037 99.872 219.559 98.907 219.12 97.9387L219.555 97.7335C221.048 97.0241 222.685 96.6672 224.338 96.6904C225.663 96.7353 226.953 97.1272 228.08 97.8268C228.97 98.3885 229.793 99.0498 230.534 99.7981C231.165 100.41 231.625 100.905 231.942 101.231L232.217 101.53L232.039 101.434C231.925 101.38 231.808 101.336 231.687 101.301L231.567 101.311L231.684 101.392C231.793 101.467 231.897 101.549 231.995 101.638C232.359 101.982 232.663 102.385 232.892 102.83C233.254 103.535 233.541 104.275 233.75 105.039L234.682 108.165C236.054 112.801 238.038 119.193 240.332 126.334C240.906 128.114 241.475 129.844 242.019 131.516C242.563 132.81 242.822 134.206 242.777 135.609L242.774 135.579Z" fill="white"/>
<path d="M258.308 113.225C257.422 107.454 255.691 101.846 253.17 96.5801C250.654 91.2682 247.213 86.447 243.007 82.3423C241.303 80.9181 239.835 79.234 238.657 77.352C238.233 76.5837 238.003 75.7243 237.986 74.8474C237.975 74.0002 238.122 73.1584 238.42 72.3651C238.675 71.5912 238.984 70.8359 239.343 70.1046L240.341 68.0188C240.79 67.1005 241.15 66.1413 241.416 65.1543C241.76 64.1477 241.963 63.0985 242.021 62.0364C242.04 61.308 241.982 60.5796 241.848 59.8633C241.815 59.6763 241.766 59.4923 241.703 59.313C241.689 57.69 241.463 56.0757 241.03 54.5114C240.808 53.6162 240.579 52.7516 240.278 51.7523C239.955 50.5994 239.369 49.537 238.567 48.6485C237.623 47.7357 236.467 47.0727 235.203 46.7196C233.999 46.344 232.87 46.143 231.674 45.8671C226.428 44.832 221.062 44.5402 215.735 45.0003C210.404 45.4691 205.167 46.7005 200.186 48.6568C198.001 49.4695 195.902 50.497 193.92 51.7242C192.151 52.8094 190.581 54.1899 189.279 55.8056C188.225 57.1503 187.457 58.6966 187.023 60.3492C186.696 61.5686 186.599 62.8387 186.739 64.0935C186.82 64.8645 187.012 65.6196 187.309 66.3353L187.467 66.6739C187.636 67.162 187.84 67.7075 188.099 68.3189C188.774 69.9309 189.609 71.4709 190.592 72.9154C191.224 73.8474 191.912 74.7407 192.651 75.5903C193.048 76.0402 193.478 76.5276 193.934 76.9528L194.619 77.6205L194.695 77.6946L194.751 77.7704C194.787 77.824 194.816 77.8826 194.835 77.9443C194.857 78.0245 194.862 78.1084 194.849 78.1905C194.837 78.2727 194.807 78.3513 194.763 78.4216C194.589 78.7816 194.396 79.1319 194.184 79.4708C193.719 80.3004 193.226 81.1623 192.726 82.0648C191.715 83.8608 190.637 85.8126 189.552 87.9355C187.022 92.6439 185.125 97.6657 183.91 102.871C183.57 104.546 183.33 106.24 183.191 107.944C183.071 109.589 183.049 111.195 183.071 112.739C183.137 115.833 183.345 118.686 183.551 121.398C183.982 126.811 184.647 131.513 185.285 135.354C185.922 139.196 186.562 142.194 186.996 144.246C187.222 145.238 187.403 145.996 187.539 146.52L187.249 146.413L187.556 146.619C187.675 147.101 187.746 147.357 187.746 147.357C187.746 147.357 187.728 147.137 187.695 146.719L187.801 146.79C188.18 147.021 188.722 147.399 189.47 147.841C191.63 149.114 193.878 150.233 196.197 151.188C199.832 152.682 203.619 153.776 207.491 154.451C209.875 154.886 212.287 155.153 214.708 155.25C217.399 155.375 220.096 155.308 222.777 155.049C225.445 154.766 228.089 154.297 230.691 153.646C233.045 153.061 235.355 152.314 237.605 151.409C241.261 149.978 244.748 148.149 248.005 145.956C250.094 144.564 252.077 143.018 253.936 141.331C254.573 140.758 255.033 140.24 255.363 139.973L255.836 139.494L255.215 139.884C254.803 140.128 254.263 140.522 253.441 141.029C245.103 146.091 235.848 149.457 226.207 150.934C216.566 152.412 206.728 151.971 197.257 149.638C194.765 149.037 192.305 148.306 189.89 147.447C189.024 147.154 188.37 146.886 187.916 146.721L187.688 146.639C187.642 146.061 187.572 145.174 187.477 143.987C187.302 141.784 187.146 138.576 186.971 134.608C186.795 130.639 186.629 125.908 186.547 120.597C186.517 117.961 186.464 115.157 186.519 112.323C186.556 110.896 186.623 109.466 186.769 108.03C186.914 106.581 187.134 105.14 187.428 103.714C188.554 98.8708 190.175 94.1563 192.266 89.6453C193.214 87.5634 194.142 85.4832 195.012 83.568L196.275 80.7789L196.572 80.1032C196.693 79.845 196.796 79.5787 196.88 79.3062C197.142 78.6056 197.123 77.8307 196.828 77.1435C196.716 76.9194 196.575 76.7114 196.407 76.5249C196.326 76.433 196.238 76.3461 196.146 76.2649L195.898 76.0539L195.181 75.4891C194.731 75.1237 194.29 74.7575 193.88 74.3889C193.058 73.6419 192.326 72.8876 191.695 72.1554C190.634 70.8886 189.68 69.535 188.845 68.109C188.189 67.0478 187.689 66.1947 187.405 65.5152C187.36 65.1132 187.348 64.7082 187.368 64.3043C187.356 64.1448 187.343 63.9853 187.409 63.8094L188.952 64.5392C189.673 64.8947 190.415 65.2074 191.173 65.4757L192.609 65.9934C193.125 66.173 193.642 66.3725 194.256 66.5142C195.444 66.8208 196.75 67.2284 198.203 67.4637C198.926 67.5967 199.691 67.7564 200.473 67.8747L202.943 68.1494C206.756 68.4896 210.594 68.4326 214.395 67.9793C221.086 67.1317 227.605 65.2588 233.726 62.4265C235.882 61.412 237.538 60.5378 238.659 59.8767L239.136 59.949L239.275 59.9379C239.304 59.9269 239.335 59.9245 239.365 59.9307C239.503 59.9655 239.622 60.0533 239.696 60.1752C239.816 60.3906 239.899 60.6248 239.941 60.8679C240.022 61.1534 240.089 61.4427 240.141 61.7348C240.214 62.2132 240.252 62.6963 240.256 63.1802C240.064 63.8222 239.774 64.4307 239.397 64.9842C239.299 65.1382 239.19 65.2844 239.07 65.4215L238.952 65.5714L239.112 65.4382C239.545 65.0979 239.922 64.6921 240.23 64.2356C240.186 65.0266 240.057 65.8105 239.844 66.5736C239.605 66.9639 239.346 67.3657 239.058 67.7899C238.039 69.1904 237.15 70.6816 236.404 72.2448C235.971 73.2791 235.743 74.3874 235.731 75.5086C235.754 76.7513 236.06 77.9724 236.627 79.0786C237.85 81.2352 239.358 83.2172 241.109 84.9713C244.59 88.96 247.509 93.4053 249.786 98.1839C252.083 102.982 253.856 108.013 255.075 113.191C256.071 117.43 256.793 121.729 257.234 126.06C257.619 129.762 257.768 132.769 257.864 134.848L257.981 138.079L258.101 137.317C258.181 136.819 258.302 136.067 258.425 135.094C258.8 132.268 259.026 129.424 259.1 126.574C259.247 122.109 258.982 117.641 258.308 113.225ZM236.003 59.9077C235.018 60.1366 234.039 60.4453 232.797 60.7149C231.554 60.9844 230.308 61.3345 228.857 61.6307C228.157 61.7867 227.44 61.9743 226.679 62.1152L224.369 62.5901C221.187 63.1948 217.684 63.8049 213.959 64.2622C210.233 64.7195 206.709 64.9301 203.506 65.0148C201.9 65.0023 200.369 65.0541 198.947 64.9567C198.242 64.9226 197.54 64.9284 196.933 64.8664L195.035 64.7166C193.816 64.6532 192.737 64.4583 191.775 64.3444C191.289 64.2828 190.845 64.248 190.428 64.1808L189.269 63.9823L187.419 63.6783C187.514 62.7806 187.72 61.8982 188.032 61.0513C188.573 59.7035 189.359 58.4675 190.35 57.4057C191.597 56.1098 193.05 55.0281 194.649 54.2041C196.576 53.2139 198.59 52.402 200.665 51.7786C210.702 48.5423 221.337 47.6024 231.785 49.0283C232.872 49.1492 233.95 49.3415 235.011 49.6039C235.83 49.7883 236.577 50.2061 237.164 50.8067C237.715 51.4809 238.149 52.2434 238.447 53.062C238.807 53.9361 239.155 54.7811 239.459 55.5695C239.763 56.3579 239.951 56.9648 240.134 57.6223L239.71 57.4555L238.58 57.1242L237.439 56.7837L235.016 56.084C233.344 55.6253 231.588 55.1132 229.626 54.6676C227.508 54.1642 225.336 53.9262 223.16 53.9589C221.032 54.0573 218.916 54.34 216.837 54.8038C214.931 55.1863 213.108 55.5924 211.398 56.0397C209.791 56.4541 208.206 56.952 206.651 57.5313C205.323 58.0321 204.029 58.6211 202.779 59.2945C201.019 60.2268 199.403 61.4099 197.983 62.8065C197.608 63.1466 197.255 63.5098 196.926 63.8939L196.587 64.3021L197.063 63.9832L197.634 63.5966L198.439 63.1212C200.154 62.1431 201.972 61.3589 203.861 60.7833C206.685 59.9563 209.566 59.3411 212.482 58.9427L217.758 58.1813C219.582 57.8789 221.422 57.6854 223.269 57.6017C226.881 57.4845 230.486 58.4111 233.892 58.9724L237.268 59.5461L236.003 59.9077Z" fill="white"/>
<path d="M185.709 91.7126C186.111 90.5971 186.457 89.5263 186.851 88.5519C187.053 88.0643 187.21 87.5201 187.409 87.1231L187.968 85.8246C188.292 84.9862 188.676 84.2634 188.975 83.6076C189.13 83.2843 189.266 82.9725 189.404 82.6907L189.806 81.9464C190.275 81.0362 190.524 80.5148 190.524 80.5148C190.524 80.5148 190.12 80.848 189.4 81.5172C188.95 81.9117 188.524 82.3342 188.127 82.7824L187.361 83.6258C187.085 83.9387 186.8 84.2624 186.528 84.6252C185.883 85.4204 185.279 86.2487 184.72 87.1066C184.426 87.5715 184.103 88.0586 183.833 88.5717L182.961 90.2161C181.665 92.7774 180.658 95.4753 179.96 98.2599C178.768 103.162 178.405 108.23 178.888 113.252C179.032 115.057 179.295 116.47 179.49 117.418C179.686 118.365 179.807 118.877 179.807 118.877C179.807 118.877 179.913 118.317 180.063 117.302C180.143 116.794 180.234 116.175 180.358 115.463C180.482 114.751 180.577 113.93 180.745 113.024C180.914 112.118 181.047 111.144 181.244 110.095C181.442 109.046 181.643 107.927 181.86 106.746C182.336 104.401 182.873 101.83 183.542 99.1482C184.211 96.4666 184.975 93.968 185.709 91.7126Z" fill="white"/>
<path d="M251.456 111.203C250.999 110.507 250.729 110.137 250.729 110.137C250.729 110.137 250.763 110.566 250.884 111.328C251.005 112.091 251.135 113.214 251.296 114.606C251.61 117.41 251.89 121.31 252.086 126.029C252.183 128.389 252.287 130.568 252.393 132.526C252.479 133.31 252.475 134.101 252.38 134.884C252.259 135.537 252.023 136.164 251.685 136.735C251.136 137.651 250.503 138.515 249.793 139.313L249.034 140.237C249.034 140.237 249.463 140.072 250.217 139.721C251.336 139.221 252.366 138.543 253.267 137.712C253.953 137.064 254.495 136.279 254.859 135.409C255.216 134.423 255.435 133.393 255.508 132.347C255.768 130.191 255.857 128.017 255.773 125.846C255.624 121.869 254.73 117.956 253.138 114.309C252.651 113.235 252.089 112.197 251.456 111.203Z" fill="white"/>
</g>
<path d="M263.07 127.624C263.074 128.809 263.117 129.934 263.082 130.984C263.06 131.512 263.099 132.077 263.048 132.518L262.97 133.929C262.953 134.828 262.841 135.639 262.785 136.357C262.751 136.714 262.731 137.054 262.698 137.366L262.576 138.203C262.448 139.219 262.392 139.794 262.392 139.794C262.392 139.794 262.658 139.342 263.104 138.467C263.392 137.942 263.646 137.399 263.865 136.841L264.294 135.786C264.446 135.397 264.603 134.996 264.734 134.561C265.067 133.593 265.35 132.608 265.58 131.61C265.697 131.072 265.832 130.504 265.91 129.929L266.164 128.085C266.502 125.235 266.521 122.355 266.22 119.5C265.656 114.486 264.256 109.602 262.078 105.051C261.323 103.406 260.591 102.169 260.081 101.346C259.572 100.524 259.282 100.085 259.282 100.085C259.282 100.085 259.375 100.647 259.583 101.652C259.683 102.156 259.81 102.769 259.938 103.481C260.066 104.192 260.259 104.995 260.412 105.904C260.564 106.813 260.774 107.773 260.949 108.826C261.124 109.879 261.319 111 261.521 112.183C261.88 114.549 262.258 117.148 262.55 119.896C262.843 122.645 262.984 125.254 263.07 127.624Z" fill="white"/>
<defs>
<filter id="filter0_ddd_1235_48994" x="0" y="0" width="435" height="455" filterUnits="userSpaceOnUse" color-interpolation-filters="sRGB">
<feFlood flood-opacity="0" result="BackgroundImageFix"/>
<feColorMatrix in="SourceAlpha" type="matrix" values="0 0 0 0 0 0 0 0 0 0 0 0 0 0 0 0 0 0 127 0" result="hardAlpha"/>
<feOffset dy="8.14815"/>
<feGaussianBlur stdDeviation="3.25926"/>
<feColorMatrix type="matrix" values="0 0 0 0 0.392157 0 0 0 0 0.392157 0 0 0 0 0.392157 0 0 0 0.0274815 0"/>
<feBlend mode="normal" in2="BackgroundImageFix" result="effect1_dropShadow_1235_48994"/>
<feColorMatrix in="SourceAlpha" type="matrix" values="0 0 0 0 0 0 0 0 0 0 0 0 0 0 0 0 0 0 127 0" result="hardAlpha"/>
<feOffset dy="38.5185"/>
<feGaussianBlur stdDeviation="12.7407"/>
<feColorMatrix type="matrix" values="0 0 0 0 0.392157 0 0 0 0 0.392157 0 0 0 0 0.392157 0 0 0 0.0425185 0"/>
<feBlend mode="normal" in2="effect1_dropShadow_1235_48994" result="effect2_dropShadow_1235_48994"/>
<feColorMatrix in="SourceAlpha" type="matrix" values="0 0 0 0 0 0 0 0 0 0 0 0 0 0 0 0 0 0 127 0" result="hardAlpha"/>
<feOffset dy="100"/>
<feGaussianBlur stdDeviation="40"/>
<feColorMatrix type="matrix" values="0 0 0 0 0.392157 0 0 0 0 0.392157 0 0 0 0 0.392157 0 0 0 0.07 0"/>
<feBlend mode="normal" in2="effect2_dropShadow_1235_48994" result="effect3_dropShadow_1235_48994"/>
<feBlend mode="normal" in="SourceGraphic" in2="effect3_dropShadow_1235_48994" result="shape"/>
</filter>
<clipPath id="clip0_1235_48994">
<rect width="79.36" height="110.29" fill="white" transform="translate(173.746 48.3257) rotate(-4.55538)"/>
</clipPath>
</defs>
</svg>
