<svg width="426" height="446" viewBox="0 0 426 446" fill="none" xmlns="http://www.w3.org/2000/svg">
<g filter="url(#filter0_ddd_1235_49017)">
<circle cx="213" cy="133" r="133" fill="#FFF1DA"/>
</g>
<g clip-path="url(#clip0_1235_49017)">
<path d="M260.08 61.5997C259.592 58.5189 258.823 55.4896 257.78 52.5497C256.675 49.43 255.173 46.4656 253.31 43.7297C252.841 43.0382 252.337 42.3707 251.8 41.7297C251.3 41.0597 250.72 40.4497 250.17 39.8197C249.039 38.6206 247.826 37.5013 246.54 36.4697C245.266 35.4793 243.93 34.5708 242.54 33.7497C241.194 32.9601 239.802 32.2521 238.37 31.6297C233.061 29.3807 227.375 28.1559 221.61 28.0197C216.585 27.8852 211.565 28.4404 206.69 29.6697C205.8 29.8897 204.92 30.1396 204.07 30.3996C202.92 30.4496 201.67 30.5297 200.31 30.6697C195.924 31.0709 191.618 32.1084 187.53 33.7497C185.055 34.7599 182.706 36.0553 180.53 37.6097C178.142 39.3166 176.033 41.3846 174.28 43.7396C172.605 46.0875 171.205 48.621 170.11 51.2897C169.093 53.6815 168.202 56.1248 167.44 58.6097C166.123 62.7891 165.327 67.1151 165.07 71.4896C164.899 74.3975 165.08 77.3154 165.61 80.1796C165.71 80.6796 165.79 81.1297 165.88 81.5097C165.97 81.8897 166.06 82.1996 166.13 82.4596L166.34 83.2396V82.4997C166.34 81.9997 166.25 81.2797 166.24 80.3297C166.207 77.6233 166.415 74.9193 166.86 72.2497C167.16 70.5297 167.56 68.6497 168.1 66.6397C168.64 64.6297 169.36 62.4797 170.2 60.2197C171.04 57.9597 172.05 55.5797 173.2 53.1297C174.321 50.5998 175.691 48.1879 177.29 45.9296C178.912 43.7519 180.843 41.8217 183.02 40.1997C185.014 38.6969 187.155 37.4003 189.41 36.3297C191.162 35.5017 192.962 34.7804 194.8 34.1697C191.766 35.7234 188.932 37.6408 186.36 39.8797C184.463 41.5526 182.783 43.4576 181.36 45.5497C180.83 46.3397 180.36 47.0697 180.06 47.7197C178.505 49.0878 177.094 50.6125 175.85 52.2697C172.974 56.1781 170.783 60.547 169.37 65.1897C167.562 70.8999 166.553 76.8328 166.37 82.8197C166.203 88.7941 166.818 94.7648 168.2 100.58C169.308 105.25 170.928 109.785 173.03 114.1L173.67 115.44L174.35 116.67L175.61 118.95C176.47 120.3 177.19 121.47 177.82 122.39L179.82 125.18L178.39 122.3C177.92 121.37 177.39 120.17 176.81 118.81C176.49 118.13 176.23 117.36 175.91 116.56C175.59 115.76 175.23 114.92 174.91 114C173.349 109.664 172.151 105.205 171.33 100.67C170.273 94.832 169.827 88.8999 170 82.9697C170.227 77.0484 171.102 71.1699 172.61 65.4397C173.731 61.031 175.468 56.8026 177.77 52.8797C178.668 51.4344 179.67 50.0573 180.77 48.7597L181.45 47.9997L181.78 48.1997C182.09 48.3897 182.48 48.5997 182.95 48.8397L183.71 49.2396L184.6 49.6597C188.294 51.291 192.153 52.5182 196.11 53.3197C198.65 53.8797 201.47 54.3897 204.52 54.9397C207.57 55.4897 210.86 56.0697 214.26 56.9397C217.829 57.7672 221.28 59.0406 224.53 60.7297C228.043 62.6021 231.112 65.2076 233.53 68.3697C235.927 71.5963 237.878 75.1315 239.33 78.8797C240.06 80.6897 240.7 82.4897 241.27 84.2697C241.84 86.0497 242.37 87.7996 242.8 89.4896C243.15 90.8396 243.45 92.1696 243.69 93.4896C242.576 90.9713 240.769 88.8212 238.48 87.2897C236.221 85.8408 233.584 85.0927 230.9 85.1397C229.704 85.179 228.516 85.3569 227.36 85.6697C226.29 85.9922 225.265 86.4491 224.31 87.0297C223.437 87.579 222.649 88.2528 221.97 89.0297C221.358 89.7103 220.84 90.4705 220.43 91.2897C219.755 92.6182 219.283 94.0407 219.03 95.5097C218.843 96.5609 218.723 97.6231 218.67 98.6897C218.67 99.5397 218.67 100.2 218.61 100.64V101.32L218.78 100.61C218.89 100.15 219.04 99.4597 219.27 98.6097C219.546 97.5586 219.88 96.5237 220.27 95.5097C220.761 94.2076 221.434 92.9819 222.27 91.8697L222.63 91.4296L223.03 91.0197C223.31 90.753 223.6 90.493 223.9 90.2396C224.218 89.9971 224.552 89.7766 224.9 89.5797C225.08 89.4797 225.25 89.3697 225.44 89.2797L226.02 89.0297C226.833 88.6922 227.688 88.4635 228.56 88.3497C229.01 88.2697 229.48 88.2796 229.94 88.2396C230.412 88.2414 230.882 88.2681 231.35 88.3197C232.321 88.4131 233.273 88.642 234.18 88.9997C235.114 89.3424 235.991 89.8246 236.78 90.4296C238.457 91.765 239.753 93.5166 240.54 95.5097C241.352 97.531 241.717 99.704 241.61 101.88C241.557 102.893 241.399 103.898 241.14 104.88C240.94 105.717 240.55 106.497 240 107.16C239.378 107.79 238.646 108.302 237.84 108.67C237.033 109.102 236.185 109.457 235.31 109.73C233.712 110.241 232.048 110.52 230.37 110.56C227.895 110.624 225.435 110.15 223.16 109.17C222.549 108.907 222.045 108.446 221.73 107.86C221.632 107.644 221.587 107.407 221.6 107.17C221.548 107.393 221.548 107.626 221.6 107.85C221.762 108.528 222.159 109.127 222.72 109.54C223.103 109.856 223.519 110.131 223.96 110.36C224.469 110.66 224.997 110.928 225.54 111.16C226.9 111.739 228.328 112.142 229.79 112.36C231.632 112.649 233.508 112.649 235.35 112.36C236.408 112.179 237.449 111.908 238.46 111.55C239.586 111.149 240.647 110.587 241.61 109.88C242.185 109.444 242.688 108.921 243.1 108.33C243.501 107.759 243.837 107.145 244.1 106.5C244.1 106.81 244.03 107.11 243.99 107.4C243.69 109.93 243.25 112.17 242.85 114.12C242.45 116.07 242.05 117.73 241.74 119.12C241.63 119.56 241.54 119.96 241.45 120.33C240.042 123.708 238.254 126.915 236.12 129.89C233.171 133.99 229.629 137.63 225.61 140.69C223.923 141.985 222.148 143.165 220.3 144.22C218.743 145.14 217.122 145.948 215.45 146.64C213.9 147.268 212.272 147.685 210.61 147.88L209.38 147.44C208.6 147.15 207.77 146.74 206.84 146.34C206.38 146.13 205.92 145.85 205.44 145.59C204.96 145.33 204.44 145.09 203.95 144.76C201.676 143.356 199.546 141.731 197.59 139.91C192.558 135.101 188.749 129.159 186.48 122.58C186.305 122.122 186.155 121.654 186.03 121.18L185.61 119.77C185.35 118.77 185.15 117.77 184.92 116.77C184.69 115.77 184.54 114.77 184.42 113.7C184.3 112.63 184.14 111.61 184.1 110.53C184.1 110.26 184.1 109.98 184.1 109.71L184.65 110.27C186.277 111.805 188.239 112.942 190.38 113.59C192.049 114.108 193.794 114.341 195.54 114.28C196.808 114.233 198.064 114.028 199.28 113.67C199.713 113.546 200.137 113.396 200.55 113.22C200.856 113.107 201.153 112.973 201.44 112.82L202.14 112.46L201.32 112.7C200.544 112.912 199.751 113.063 198.95 113.15C197.696 113.277 196.43 113.257 195.18 113.09C193.553 112.869 191.973 112.386 190.5 111.66C189.667 111.238 188.876 110.735 188.14 110.16C187.361 109.543 186.659 108.835 186.05 108.05C185.417 107.209 184.887 106.296 184.47 105.33C184.32 104.95 184.18 104.56 184.06 104.16C184.157 101.841 184.391 99.5305 184.76 97.2396C184.94 96.0796 185.15 94.9197 185.39 93.7897C185.759 93.2662 186.167 92.7715 186.61 92.3097C187.518 91.4068 188.56 90.651 189.7 90.0697C190.867 89.4718 192.103 89.0217 193.38 88.7297C194.634 88.4506 195.916 88.3131 197.2 88.3197C198.442 88.3076 199.681 88.4453 200.89 88.7297C202.055 88.9733 203.187 89.3561 204.26 89.8697C206.235 90.7277 207.914 92.1463 209.09 93.9497C209.591 94.7666 209.95 95.6627 210.15 96.5997C210.249 97.0515 210.319 97.5091 210.36 97.9697V98.6497V98.9896V99.3197C210.255 100.95 209.859 102.549 209.19 104.04C208.673 105.192 208.044 106.291 207.31 107.32C206.833 107.971 206.315 108.592 205.76 109.18L205.16 109.79L205.81 109.34C206.08 109.161 206.338 108.964 206.58 108.75L207.07 108.35C207.23 108.2 207.41 108.04 207.59 107.86C208.515 106.995 209.331 106.021 210.02 104.96C210.994 103.503 211.702 101.884 212.11 100.18C212.221 99.6712 212.305 99.1571 212.36 98.6397C212.36 98.3797 212.42 98.1097 212.42 97.8297V96.9896C212.376 95.7775 212.119 94.5826 211.66 93.4596C210.594 90.9363 208.733 88.8297 206.36 87.4596C205.106 86.6936 203.762 86.0825 202.36 85.6397C200.876 85.1781 199.342 84.8961 197.79 84.7997C196.154 84.6856 194.509 84.7899 192.9 85.1097C191.194 85.4328 189.543 86.0021 188 86.7997C187.67 86.9697 187.35 87.1597 187 87.3497C187.31 86.3497 187.65 85.2997 188 84.2997C188.35 83.2997 188.72 82.2997 189.13 81.2997L189.71 79.8297L190.34 78.3897C191.111 76.544 192.013 74.756 193.04 73.0397C193.963 71.4795 195.128 70.0754 196.49 68.8797C197.822 67.7894 199.313 66.9093 200.91 66.2697C202.466 65.6313 204.059 65.087 205.68 64.6397C207.27 64.1697 208.77 63.7597 210.22 63.4097C212.812 62.7563 215.469 62.3973 218.14 62.3397C220.143 62.2952 222.136 62.6347 224.01 63.3397C224.38 63.5097 224.75 63.6497 225.07 63.8097L225.96 64.3297C226.21 64.4852 226.447 64.659 226.67 64.8497C226.88 65.0097 227.09 65.1497 227.25 65.2997L228.2 66.2497L227.43 65.2497C227.17 64.9297 226.78 64.5997 226.34 64.1697C225.804 63.6876 225.225 63.2558 224.61 62.8797C222.841 61.938 220.905 61.3504 218.91 61.1497C216.245 60.8858 213.558 60.9563 210.91 61.3597C209.42 61.5697 207.91 61.8597 206.25 62.1997C204.59 62.5397 202.95 62.9196 201.18 63.4596C199.284 64.0108 197.474 64.8219 195.8 65.8697C193.995 67.0691 192.42 68.5831 191.15 70.3397C189.86 72.143 188.732 74.0571 187.78 76.0597C186.78 78.0597 185.86 80.1497 185.03 82.3497C184.2 84.5497 183.43 86.8497 182.74 89.2297C182.44 90.3697 182.15 91.5197 181.89 92.6897C181.608 93.2038 181.358 93.7348 181.14 94.2797C180.157 96.9154 179.939 99.7752 180.51 102.53C180.51 102.8 180.51 103.07 180.51 103.33C180.51 103.59 180.51 103.96 180.51 104.27V106.13V107.97C180.51 109.19 180.67 110.39 180.77 111.58C181.241 116.08 182.359 120.489 184.09 124.67C185.616 128.324 187.634 131.753 190.09 134.86C192.177 137.467 194.568 139.817 197.21 141.86C199.339 143.497 201.639 144.898 204.07 146.04C205.689 146.779 207.36 147.397 209.07 147.89C208.74 147.89 208.41 147.89 208.07 147.83C207.68 147.786 207.293 147.719 206.91 147.63C206.59 147.54 206.3 147.48 206.08 147.4L205.41 147.16L206.07 147.57C206.29 147.7 206.58 147.83 206.92 148C207.321 148.168 207.732 148.311 208.15 148.43C209.326 148.753 210.542 148.901 211.76 148.87C212.296 148.858 212.83 148.818 213.36 148.75L214.36 148.89L213.7 148.71C214.662 148.582 215.614 148.392 216.55 148.14C217.41 147.91 218.31 147.61 219.22 147.27L220.61 146.72C221.08 146.53 221.55 146.31 222.03 146.09C224.08 145.149 226.053 144.049 227.93 142.8C232.295 139.871 236.101 136.186 239.17 131.92C241.583 128.55 243.487 124.844 244.82 120.92L245.64 120.15C246.33 119.4 247.11 118.58 247.93 117.63L249.14 116.08C249.35 115.8 249.57 115.53 249.78 115.24L250.39 114.34C252.304 111.516 253.916 108.5 255.2 105.34C258.2 98.2896 260.2 89.0997 260.81 78.4997C261.158 72.8563 260.913 67.1921 260.08 61.5997ZM256.68 91.4997C256.088 95.619 255.159 99.6827 253.9 103.65C252.842 106.907 251.479 110.058 249.83 113.06C249.45 113.72 249.1 114.36 248.74 114.96C248.38 115.56 247.97 116.1 247.62 116.64C247.44 116.91 247.27 117.18 247.09 117.43L246.53 118.15L245.53 119.48L245.21 119.85C245.42 119.17 245.62 118.48 245.79 117.85C246.362 115.666 246.75 113.438 246.95 111.19C247.07 110.19 247.1 109.13 247.15 108.19C247.2 107.25 247.15 106.29 247.15 105.41C247.09 103.96 246.97 102.65 246.81 101.46C246.89 100.38 246.94 99.2697 246.93 98.1197C246.851 94.6694 246.409 91.2372 245.61 87.8797C244.798 84.1807 243.712 80.5473 242.36 77.0097C240.903 73.0907 238.882 69.4052 236.36 66.0697C235.039 64.3605 233.544 62.7922 231.9 61.3897C230.3 60.0363 228.56 58.8563 226.71 57.8696C223.274 56.1056 219.609 54.8268 215.82 54.0697C212.27 53.3197 208.91 52.9097 205.82 52.5597C202.73 52.2097 199.82 51.9396 197.22 51.6196C194.62 51.2997 192.27 50.9397 190.22 50.5197C188.483 50.1698 186.764 49.7325 185.07 49.2096C183.68 48.7696 182.61 48.3697 181.9 48.0797L181.49 47.9097C181.71 47.6597 181.92 47.4297 182.14 47.2197C182.6 46.7897 183 46.3597 183.39 46.0297L184.39 45.1397L185.19 44.5397L185.85 44.0497L185.05 44.4397C184.79 44.5697 184.46 44.7197 184.05 44.9397L182.77 45.7096C182.158 46.1011 181.567 46.525 181 46.9797L181.13 46.7897L181.56 46.1997L182.06 45.5997C185.99 41.0455 190.975 37.5229 196.58 35.3397C197.45 34.9597 198.37 34.6297 199.29 34.2797C200.21 33.9297 201.19 33.6297 202.19 33.3497C208.826 31.374 215.772 30.6583 222.67 31.2396C225.219 31.4493 227.745 31.8775 230.22 32.5197C232.796 33.1625 235.299 34.0672 237.69 35.2197C242.72 37.5975 247.029 41.2653 250.18 45.8497C253.279 50.5334 255.376 55.807 256.34 61.3397C256.852 63.983 257.206 66.6544 257.4 69.3397C257.6 71.9897 257.65 74.5897 257.64 77.1397C257.642 81.9424 257.321 86.7398 256.68 91.4997Z" fill="#945834"/>
<path d="M226.229 104.06C227.43 104.51 228.71 104.708 229.989 104.64C230.593 104.62 231.194 104.56 231.789 104.46C232.359 104.36 232.889 104.25 233.389 104.12C234.259 103.902 235.111 103.622 235.939 103.28C236.701 102.987 237.431 102.618 238.119 102.18C237.32 101.882 236.502 101.638 235.669 101.45C234.802 101.255 233.924 101.112 233.039 101.02C231.985 100.931 230.926 100.907 229.869 100.95C228.204 101.156 226.518 101.102 224.869 100.79C224.339 100.647 223.833 100.425 223.369 100.13C223.229 100.043 223.096 99.9463 222.969 99.8405L222.829 99.7305V99.8805C222.812 100.047 222.812 100.214 222.829 100.38C222.948 101.04 223.23 101.659 223.649 102.18C224.32 103.033 225.212 103.684 226.229 104.06Z" fill="#945834"/>
<path d="M203.679 100.71H203.029H201.359C199.979 100.71 198.229 100.71 196.359 100.71C194.788 100.834 193.209 100.834 191.639 100.71C191.125 100.635 190.621 100.501 190.139 100.31C189.992 100.255 189.848 100.191 189.709 100.12L189.559 100.05V100.21C189.582 100.366 189.619 100.52 189.669 100.67C189.851 101.257 190.165 101.794 190.589 102.24C191.247 102.942 192.053 103.488 192.949 103.84C194.054 104.268 195.234 104.472 196.419 104.44C198.473 104.411 200.462 103.708 202.079 102.44C202.529 102.083 202.941 101.681 203.309 101.24C203.443 101.071 203.567 100.894 203.679 100.71Z" fill="#945834"/>
<path d="M201.261 130.21C200.711 130.78 200.441 131.11 200.441 131.11L204.441 129.68C205.061 129.46 205.761 129.22 206.501 128.98C206.798 128.877 207.108 128.816 207.421 128.8C207.666 128.818 207.906 128.875 208.131 128.97C208.431 129.08 208.801 129.25 209.261 129.46C209.721 129.67 210.171 129.88 210.691 130.09C211.889 130.612 213.176 130.9 214.481 130.94C215.253 130.941 216.019 130.802 216.741 130.53C217.325 130.303 217.884 130.018 218.411 129.68C218.861 129.41 219.251 129.17 219.561 129.02C219.78 128.897 220.016 128.806 220.261 128.75C220.354 128.74 220.448 128.74 220.541 128.75C220.671 128.771 220.798 128.805 220.921 128.85C221.211 128.96 221.571 129.17 221.921 129.37C222.666 129.752 223.46 130.028 224.281 130.19C225.389 130.421 226.533 130.421 227.641 130.19C227.923 130.133 228.2 130.056 228.471 129.96L228.741 129.86L228.431 129.81C228.231 129.81 227.941 129.71 227.571 129.61C226.572 129.349 225.618 128.938 224.741 128.39C224.165 128.036 223.628 127.621 223.141 127.15C222.792 126.806 222.407 126.501 221.991 126.24C221.39 125.866 220.699 125.662 219.991 125.65C219.308 125.648 218.629 125.774 217.991 126.02C217.484 126.211 216.986 126.428 216.501 126.67C216.132 126.849 215.751 127.002 215.361 127.13C215.036 127.223 214.699 127.266 214.361 127.26C213.521 127.231 212.69 127.083 211.891 126.82L210.521 126.42C210.061 126.29 209.591 126.14 209.011 126.02C208.384 125.899 207.739 125.899 207.111 126.02C206.558 126.136 206.03 126.349 205.551 126.65C204.882 127.069 204.238 127.527 203.621 128.02C202.785 128.695 201.996 129.427 201.261 130.21Z" fill="#945834"/>
</g>
<path d="M107.116 176.16C106.828 176.16 106.551 176.112 106.284 176.016C106.017 175.92 105.799 175.749 105.628 175.504C105.457 175.259 105.372 174.917 105.372 174.48V167.232H106.796V174.304C106.796 174.549 106.849 174.725 106.956 174.832C107.063 174.939 107.233 174.992 107.468 174.992C107.564 174.992 107.665 174.981 107.772 174.96C107.879 174.939 107.98 174.912 108.076 174.88L108.268 175.92C108.065 176.016 107.868 176.08 107.676 176.112C107.484 176.144 107.297 176.16 107.116 176.16ZM114.83 176V170.16C114.83 169.467 114.67 168.976 114.35 168.688C114.041 168.389 113.518 168.24 112.782 168.24C112.249 168.24 111.737 168.315 111.246 168.464C110.766 168.603 110.308 168.8 109.87 169.056V167.728C110.18 167.568 110.596 167.419 111.118 167.28C111.652 167.141 112.249 167.072 112.91 167.072C113.476 167.072 113.966 167.136 114.382 167.264C114.798 167.381 115.14 167.563 115.406 167.808C115.684 168.053 115.892 168.368 116.03 168.752C116.169 169.125 116.238 169.568 116.238 170.08V176H114.83ZM112.078 176.16C111.14 176.16 110.42 175.947 109.918 175.52C109.428 175.083 109.182 174.459 109.182 173.648C109.182 172.763 109.502 172.08 110.142 171.6C110.793 171.12 111.844 170.837 113.294 170.752L115.118 170.64V171.824L113.486 171.936C112.398 172.011 111.646 172.181 111.23 172.448C110.825 172.715 110.622 173.104 110.622 173.616C110.622 174.096 110.772 174.448 111.07 174.672C111.38 174.896 111.806 175.008 112.35 175.008C112.532 175.008 112.697 174.997 112.846 174.976C112.996 174.944 113.14 174.907 113.278 174.864L113.502 175.936C113.3 176.011 113.076 176.064 112.83 176.096C112.596 176.139 112.345 176.16 112.078 176.16ZM109.206 165.84V165.216L110.374 164.704H116.006V165.84H109.206ZM112.502 165.216V163.408H113.686V165.216H112.502ZM114.838 165.216V163.408H116.006V165.216H114.838ZM121.939 176.16C120.787 176.16 119.923 175.861 119.347 175.264C118.782 174.656 118.499 173.707 118.499 172.416C118.499 172.203 118.504 171.973 118.515 171.728C118.536 171.472 118.558 171.221 118.579 170.976H121.939V172.096H119.923V172.416C119.923 173.088 119.998 173.616 120.147 174C120.296 174.373 120.515 174.635 120.803 174.784C121.102 174.933 121.47 175.008 121.907 175.008C122.387 175.008 122.803 174.917 123.155 174.736C123.507 174.555 123.779 174.224 123.971 173.744C124.163 173.264 124.259 172.576 124.259 171.68C124.259 170.891 124.174 170.245 124.003 169.744C123.832 169.243 123.55 168.869 123.155 168.624C122.771 168.379 122.248 168.256 121.587 168.256C121.246 168.256 120.915 168.288 120.595 168.352C120.275 168.405 119.966 168.491 119.667 168.608C119.368 168.715 119.075 168.853 118.787 169.024V167.696C119 167.579 119.262 167.477 119.571 167.392C119.88 167.296 120.222 167.221 120.595 167.168C120.968 167.104 121.358 167.072 121.763 167.072C122.702 167.072 123.459 167.264 124.035 167.648C124.622 168.021 125.048 168.555 125.315 169.248C125.582 169.931 125.715 170.741 125.715 171.68C125.715 172.619 125.592 173.424 125.347 174.096C125.102 174.768 124.702 175.28 124.147 175.632C123.603 175.984 122.867 176.16 121.939 176.16ZM127.943 176V172.96C127.943 172.288 128.092 171.803 128.391 171.504C128.689 171.195 129.068 170.981 129.527 170.864L129.543 170.816L127.783 170.144V169.616C127.783 169.179 127.927 168.768 128.215 168.384C128.503 167.989 128.913 167.675 129.447 167.44C129.991 167.195 130.636 167.072 131.383 167.072C132.033 167.072 132.636 167.179 133.191 167.392C133.745 167.595 134.188 167.92 134.519 168.368C134.86 168.805 135.031 169.381 135.031 170.096V176H133.607V170.24C133.607 169.525 133.388 169.019 132.951 168.72C132.524 168.411 131.996 168.256 131.367 168.256C130.716 168.256 130.199 168.395 129.815 168.672C129.431 168.939 129.239 169.28 129.239 169.696L130.967 170.56L130.839 171.328C130.444 171.328 130.097 171.461 129.799 171.728C129.511 171.984 129.367 172.395 129.367 172.96V176H127.943ZM139.6 176.16C139.312 176.16 139.035 176.112 138.768 176.016C138.502 175.92 138.283 175.749 138.112 175.504C137.942 175.259 137.856 174.917 137.856 174.48V167.232H139.28V174.304C139.28 174.549 139.334 174.725 139.44 174.832C139.547 174.939 139.718 174.992 139.952 174.992C140.048 174.992 140.15 174.981 140.256 174.96C140.363 174.939 140.464 174.912 140.56 174.88L140.752 175.92C140.55 176.016 140.352 176.08 140.16 176.112C139.968 176.144 139.782 176.16 139.6 176.16ZM143.939 176.16C143.523 176.16 143.117 176.117 142.723 176.032C142.339 175.947 141.928 175.787 141.491 175.552L141.939 174.464C142.173 174.603 142.44 174.725 142.739 174.832C143.037 174.928 143.384 174.976 143.779 174.976C144.568 174.976 145.181 174.688 145.619 174.112C146.067 173.525 146.291 172.683 146.291 171.584C146.291 170.507 146.061 169.685 145.603 169.12C145.155 168.544 144.461 168.256 143.523 168.256C143.181 168.256 142.835 168.293 142.483 168.368C142.131 168.443 141.821 168.555 141.555 168.704V167.504C141.864 167.344 142.2 167.232 142.563 167.168C142.936 167.104 143.309 167.072 143.683 167.072C144.643 167.072 145.421 167.264 146.019 167.648C146.616 168.021 147.053 168.544 147.331 169.216C147.608 169.888 147.747 170.677 147.747 171.584C147.747 172.992 147.427 174.107 146.787 174.928C146.157 175.749 145.208 176.16 143.939 176.16ZM155.19 176V170.16C155.19 169.467 155.03 168.976 154.71 168.688C154.4 168.389 153.878 168.24 153.142 168.24C152.608 168.24 152.096 168.315 151.606 168.464C151.126 168.603 150.667 168.8 150.23 169.056V167.728C150.539 167.568 150.955 167.419 151.478 167.28C152.011 167.141 152.608 167.072 153.27 167.072C153.835 167.072 154.326 167.136 154.742 167.264C155.158 167.381 155.499 167.563 155.766 167.808C156.043 168.053 156.251 168.368 156.39 168.752C156.528 169.125 156.598 169.568 156.598 170.08V176H155.19ZM152.438 176.16C151.499 176.16 150.779 175.947 150.278 175.52C149.787 175.083 149.542 174.459 149.542 173.648C149.542 172.763 149.862 172.08 150.502 171.6C151.152 171.12 152.203 170.837 153.654 170.752L155.478 170.64V171.824L153.846 171.936C152.758 172.011 152.006 172.181 151.59 172.448C151.184 172.715 150.982 173.104 150.982 173.616C150.982 174.096 151.131 174.448 151.43 174.672C151.739 174.896 152.166 175.008 152.71 175.008C152.891 175.008 153.056 174.997 153.206 174.976C153.355 174.944 153.499 174.907 153.638 174.864L153.862 175.936C153.659 176.011 153.435 176.064 153.19 176.096C152.955 176.139 152.704 176.16 152.438 176.16ZM161.674 176V169.776C161.674 169.253 161.552 168.869 161.306 168.624C161.072 168.379 160.672 168.256 160.106 168.256C159.722 168.256 159.36 168.309 159.018 168.416C158.688 168.512 158.368 168.651 158.058 168.832V167.552C158.272 167.445 158.576 167.339 158.97 167.232C159.365 167.125 159.834 167.072 160.378 167.072C160.933 167.072 161.413 167.152 161.818 167.312C162.224 167.472 162.538 167.739 162.762 168.112C162.986 168.475 163.098 168.96 163.098 169.568V176H161.674ZM167.678 176.16C167.39 176.16 167.113 176.112 166.846 176.016C166.58 175.92 166.361 175.749 166.19 175.504C166.02 175.259 165.934 174.917 165.934 174.48V167.232H167.358V174.304C167.358 174.549 167.412 174.725 167.518 174.832C167.625 174.939 167.796 174.992 168.03 174.992C168.126 174.992 168.228 174.981 168.334 174.96C168.441 174.939 168.542 174.912 168.638 174.88L168.83 175.92C168.628 176.016 168.43 176.08 168.238 176.112C168.046 176.144 167.86 176.16 167.678 176.16ZM172.721 176.16C172.092 176.16 171.505 176.101 170.961 175.984C170.428 175.856 169.974 175.707 169.601 175.536L170.017 174.384C170.241 174.469 170.497 174.56 170.785 174.656C171.073 174.752 171.382 174.832 171.713 174.896C172.054 174.949 172.401 174.976 172.753 174.976C173.318 174.976 173.788 174.869 174.161 174.656C174.534 174.443 174.721 174.133 174.721 173.728C174.721 173.483 174.652 173.275 174.513 173.104C174.385 172.923 174.182 172.757 173.905 172.608C173.628 172.459 173.27 172.315 172.833 172.176C172.161 171.963 171.59 171.739 171.121 171.504C170.662 171.259 170.31 170.971 170.065 170.64C169.83 170.299 169.713 169.877 169.713 169.376C169.713 168.928 169.83 168.533 170.065 168.192C170.31 167.84 170.684 167.568 171.185 167.376C171.697 167.173 172.348 167.072 173.137 167.072C173.649 167.072 174.129 167.12 174.577 167.216C175.036 167.301 175.393 167.424 175.649 167.584V168.784C175.468 168.699 175.238 168.613 174.961 168.528C174.694 168.443 174.401 168.373 174.081 168.32C173.761 168.267 173.43 168.24 173.089 168.24C172.374 168.24 171.868 168.352 171.569 168.576C171.281 168.789 171.137 169.035 171.137 169.312C171.137 169.547 171.201 169.744 171.329 169.904C171.468 170.064 171.697 170.219 172.017 170.368C172.348 170.517 172.79 170.688 173.345 170.88C173.857 171.051 174.326 171.248 174.753 171.472C175.18 171.696 175.516 171.979 175.761 172.32C176.017 172.651 176.145 173.077 176.145 173.6C176.145 174.048 176.033 174.469 175.809 174.864C175.596 175.248 175.238 175.563 174.737 175.808C174.236 176.043 173.564 176.16 172.721 176.16ZM169.331 165.84V165.216L170.499 164.704H176.131V165.84H169.331ZM174.803 165.216V163.408H176.147V165.216H174.803ZM181.445 176.144C180.581 176.144 179.888 176.032 179.365 175.808C178.853 175.584 178.48 175.269 178.245 174.864C178.021 174.459 177.909 173.979 177.909 173.424C177.909 172.933 177.979 172.544 178.117 172.256C178.267 171.957 178.448 171.739 178.661 171.6C178.885 171.461 179.115 171.371 179.349 171.328V171.264C179.136 171.2 178.912 171.093 178.677 170.944C178.443 170.795 178.245 170.587 178.085 170.32C177.936 170.053 177.861 169.717 177.861 169.312C177.861 168.939 177.947 168.587 178.117 168.256C178.288 167.925 178.565 167.653 178.949 167.44C179.333 167.227 179.84 167.12 180.469 167.12C180.725 167.12 180.992 167.141 181.269 167.184C181.547 167.216 181.76 167.275 181.909 167.36L181.653 168.464C181.536 168.421 181.381 168.384 181.189 168.352C181.008 168.309 180.816 168.288 180.613 168.288C180.165 168.288 179.835 168.395 179.621 168.608C179.408 168.811 179.301 169.083 179.301 169.424C179.301 169.797 179.392 170.08 179.573 170.272C179.765 170.464 180.005 170.597 180.293 170.672C180.592 170.736 180.901 170.768 181.221 170.768H181.525V171.808H181.221C180.581 171.808 180.107 171.925 179.797 172.16C179.499 172.384 179.349 172.763 179.349 173.296C179.349 173.605 179.408 173.888 179.525 174.144C179.653 174.4 179.867 174.603 180.165 174.752C180.475 174.901 180.901 174.976 181.445 174.976C181.989 174.976 182.411 174.901 182.709 174.752C183.019 174.603 183.237 174.389 183.365 174.112C183.493 173.824 183.557 173.483 183.557 173.088V167.232H184.981V172.992C184.981 174.112 184.693 174.917 184.117 175.408C183.552 175.899 182.661 176.144 181.445 176.144ZM190.593 176.16C189.964 176.16 189.42 176.053 188.961 175.84C188.513 175.616 188.167 175.28 187.921 174.832C187.687 174.384 187.569 173.803 187.569 173.088V167.232H188.993V173.008C188.993 173.648 189.153 174.133 189.473 174.464C189.804 174.795 190.279 174.96 190.897 174.96C191.644 174.96 192.22 174.72 192.625 174.24C193.041 173.76 193.249 173.115 193.249 172.304V167.232H194.673V176H193.489L193.425 174.704H193.345C193.153 175.131 192.817 175.483 192.337 175.76C191.868 176.027 191.287 176.16 190.593 176.16ZM197.846 168.832V165.968C197.846 165.563 197.883 165.237 197.958 164.992C198.033 164.736 198.134 164.528 198.262 164.368C198.39 164.208 198.529 164.075 198.678 163.968L198.662 163.904H195.878L196.246 162.784H200.758V163.904C200.363 163.904 200.017 164.032 199.718 164.288C199.419 164.544 199.27 165.013 199.27 165.696V168.832H197.846ZM199.59 176.16C199.302 176.16 199.025 176.112 198.758 176.016C198.491 175.92 198.273 175.749 198.102 175.504C197.931 175.259 197.846 174.917 197.846 174.48V167.232H199.27V174.304C199.27 174.549 199.323 174.725 199.43 174.832C199.537 174.939 199.707 174.992 199.942 174.992C200.038 174.992 200.139 174.981 200.246 174.96C200.353 174.939 200.454 174.912 200.55 174.88L200.742 175.92C200.539 176.016 200.342 176.08 200.15 176.112C199.958 176.144 199.771 176.16 199.59 176.16ZM205.077 176.16C204.224 176.16 203.552 175.963 203.061 175.568C202.581 175.163 202.24 174.619 202.037 173.936C201.845 173.253 201.749 172.501 201.749 171.68C201.749 170.773 201.84 170.027 202.021 169.44C202.213 168.843 202.48 168.373 202.821 168.032C203.173 167.68 203.589 167.435 204.069 167.296C204.56 167.147 205.098 167.072 205.685 167.072C206.538 167.072 207.232 167.2 207.765 167.456C208.309 167.701 208.709 168.053 208.965 168.512C209.221 168.971 209.349 169.52 209.349 170.16V176H207.941V170.288C207.941 169.627 207.776 169.125 207.445 168.784C207.114 168.432 206.544 168.256 205.733 168.256C205.242 168.256 204.8 168.347 204.405 168.528C204.021 168.709 203.717 169.045 203.493 169.536C203.28 170.027 203.173 170.747 203.173 171.696C203.173 172.315 203.232 172.875 203.349 173.376C203.477 173.867 203.696 174.256 204.005 174.544C204.314 174.832 204.746 174.976 205.301 174.976C205.461 174.976 205.61 174.965 205.749 174.944C205.888 174.923 206.021 174.891 206.149 174.848L206.293 175.952C206.122 176.027 205.925 176.08 205.701 176.112C205.488 176.144 205.28 176.16 205.077 176.16ZM204.76 165.84V165.136C204.974 165.093 205.192 165.035 205.416 164.96C205.64 164.875 205.827 164.768 205.976 164.64C206.126 164.501 206.2 164.336 206.2 164.144C206.2 164.016 206.163 163.909 206.088 163.824C206.003 163.728 205.875 163.68 205.704 163.68C205.598 163.68 205.491 163.701 205.384 163.744C205.267 163.787 205.166 163.824 205.08 163.856L204.76 162.976C204.974 162.805 205.214 162.693 205.48 162.64C205.736 162.587 205.944 162.56 206.104 162.56C206.531 162.56 206.867 162.677 207.112 162.912C207.347 163.147 207.464 163.445 207.464 163.808C207.464 164.107 207.39 164.368 207.24 164.592C207.08 164.805 206.899 164.976 206.696 165.104L206.536 164.72H209.72V165.84H204.76ZM217.157 176V172.096H215.941V170.976H218.517V174.848H218.725C219.205 174.848 219.605 174.741 219.925 174.528C220.245 174.315 220.485 173.968 220.645 173.488C220.805 173.008 220.885 172.373 220.885 171.584C220.885 170.795 220.794 170.155 220.613 169.664C220.442 169.173 220.159 168.816 219.765 168.592C219.381 168.368 218.858 168.256 218.197 168.256C217.695 168.256 217.21 168.325 216.741 168.464C216.282 168.592 215.839 168.795 215.413 169.072V167.744C215.733 167.552 216.154 167.392 216.677 167.264C217.199 167.136 217.765 167.072 218.373 167.072C219.343 167.072 220.117 167.253 220.693 167.616C221.279 167.968 221.701 168.48 221.957 169.152C222.213 169.824 222.341 170.64 222.341 171.6C222.341 172.528 222.213 173.323 221.957 173.984C221.711 174.635 221.306 175.136 220.741 175.488C220.186 175.829 219.439 176 218.501 176H217.157ZM220.005 165.84C219.557 165.84 219.2 165.776 218.933 165.648C218.666 165.52 218.474 165.355 218.357 165.152C218.229 164.949 218.165 164.736 218.165 164.512C218.165 164.352 218.192 164.181 218.245 164C218.288 163.808 218.346 163.653 218.421 163.536L219.621 163.744C219.6 163.787 219.578 163.861 219.557 163.968C219.536 164.064 219.525 164.155 219.525 164.24C219.525 164.379 219.568 164.501 219.653 164.608C219.738 164.704 219.882 164.752 220.085 164.752H224.133V165.84H220.005ZM227.64 176.16C227.011 176.16 226.467 176.053 226.008 175.84C225.56 175.616 225.214 175.28 224.968 174.832C224.734 174.384 224.616 173.803 224.616 173.088V167.232H226.04V173.008C226.04 173.648 226.2 174.133 226.52 174.464C226.851 174.795 227.326 174.96 227.944 174.96C228.691 174.96 229.267 174.72 229.672 174.24C230.088 173.76 230.296 173.115 230.296 172.304V167.232H231.72V176H230.536L230.472 174.704H230.392C230.2 175.131 229.864 175.483 229.384 175.76C228.915 176.027 228.334 176.16 227.64 176.16ZM234.477 176V167.232H235.469L235.725 168.624H235.789C235.97 168.144 236.301 167.765 236.781 167.488C237.261 167.211 237.842 167.072 238.525 167.072C239.165 167.072 239.709 167.184 240.157 167.408C240.615 167.621 240.967 167.952 241.213 168.4C241.458 168.848 241.581 169.429 241.581 170.144V176H240.157V170.224C240.157 169.584 239.997 169.099 239.677 168.768C239.357 168.437 238.882 168.272 238.253 168.272C237.751 168.272 237.325 168.389 236.973 168.624C236.621 168.859 236.354 169.179 236.173 169.584C235.991 169.979 235.901 170.427 235.901 170.928V176H234.477ZM246.643 176.16C246.013 176.16 245.427 176.101 244.883 175.984C244.349 175.856 243.896 175.707 243.523 175.536L243.939 174.384C244.163 174.469 244.419 174.56 244.707 174.656C244.995 174.752 245.304 174.832 245.635 174.896C245.976 174.949 246.323 174.976 246.675 174.976C247.24 174.976 247.709 174.869 248.083 174.656C248.456 174.443 248.643 174.133 248.643 173.728C248.643 173.483 248.573 173.275 248.435 173.104C248.307 172.923 248.104 172.757 247.827 172.608C247.549 172.459 247.192 172.315 246.755 172.176C246.083 171.963 245.512 171.739 245.043 171.504C244.584 171.259 244.232 170.971 243.987 170.64C243.752 170.299 243.635 169.877 243.635 169.376C243.635 168.928 243.752 168.533 243.987 168.192C244.232 167.84 244.605 167.568 245.107 167.376C245.619 167.173 246.269 167.072 247.059 167.072C247.571 167.072 248.051 167.12 248.499 167.216C248.957 167.301 249.315 167.424 249.571 167.584V168.784C249.389 168.699 249.16 168.613 248.883 168.528C248.616 168.443 248.323 168.373 248.003 168.32C247.683 168.267 247.352 168.24 247.011 168.24C246.296 168.24 245.789 168.352 245.491 168.576C245.203 168.789 245.059 169.035 245.059 169.312C245.059 169.547 245.123 169.744 245.251 169.904C245.389 170.064 245.619 170.219 245.939 170.368C246.269 170.517 246.712 170.688 247.267 170.88C247.779 171.051 248.248 171.248 248.675 171.472C249.101 171.696 249.437 171.979 249.683 172.32C249.939 172.651 250.067 173.077 250.067 173.6C250.067 174.048 249.955 174.469 249.731 174.864C249.517 175.248 249.16 175.563 248.659 175.808C248.157 176.043 247.485 176.16 246.643 176.16ZM247.429 166.304C247.354 166.187 247.295 166.037 247.253 165.856C247.199 165.664 247.173 165.477 247.173 165.296C247.173 165.072 247.221 164.864 247.317 164.672C247.413 164.469 247.583 164.304 247.829 164.176C248.074 164.048 248.415 163.984 248.853 163.984H251.045V165.088H249.221C249.007 165.088 248.837 165.131 248.709 165.216C248.581 165.291 248.517 165.424 248.517 165.616C248.517 165.691 248.533 165.771 248.565 165.856C248.586 165.941 248.618 166.027 248.661 166.112L247.429 166.304ZM255.492 172.336V171.088H259.364V172.336H255.492ZM265.46 176V170.4C265.46 169.323 265.748 168.501 266.324 167.936C266.9 167.36 267.817 167.072 269.076 167.072C269.673 167.072 270.185 167.147 270.612 167.296C271.039 167.435 271.375 167.675 271.62 168.016C272.004 168.208 272.276 168.512 272.436 168.928C272.607 169.344 272.692 169.835 272.692 170.4V176H271.268V170.4C271.268 169.685 271.081 169.152 270.708 168.8C270.345 168.437 269.801 168.256 269.076 168.256C268.351 168.256 267.801 168.437 267.428 168.8C267.065 169.152 266.884 169.685 266.884 170.4V172.176L266.932 172.192C267.177 171.776 267.465 171.504 267.796 171.376C268.137 171.237 268.617 171.168 269.236 171.168H269.764V172.336H269.236C268.596 172.336 268.105 172.427 267.764 172.608C267.423 172.789 267.188 173.029 267.06 173.328C266.943 173.616 266.884 173.941 266.884 174.304V176H265.46ZM271.62 168.464L270.82 167.712C271.097 167.669 271.359 167.563 271.604 167.392C271.849 167.221 271.972 166.976 271.972 166.656H273.364C273.364 166.987 273.284 167.28 273.124 167.536C272.964 167.781 272.751 167.984 272.484 168.144C272.228 168.293 271.94 168.4 271.62 168.464ZM271.257 180.176V178.48C271.257 178.213 271.14 178.08 270.905 178.08C270.852 178.08 270.798 178.085 270.745 178.096C270.681 178.107 270.622 178.123 270.569 178.144L270.457 177.184C270.617 177.131 270.793 177.088 270.985 177.056C271.166 177.035 271.316 177.024 271.433 177.024C271.806 177.024 272.084 177.109 272.265 177.28C272.436 177.461 272.521 177.707 272.521 178.016V180.176H271.257ZM275.427 176V172.96C275.427 172.288 275.576 171.803 275.875 171.504C276.174 171.195 276.552 170.981 277.011 170.864L277.027 170.816L275.267 170.144V169.616C275.267 169.179 275.411 168.768 275.699 168.384C275.987 167.989 276.398 167.675 276.931 167.44C277.475 167.195 278.12 167.072 278.867 167.072C279.518 167.072 280.12 167.179 280.675 167.392C281.23 167.595 281.672 167.92 282.003 168.368C282.344 168.805 282.515 169.381 282.515 170.096V176H281.091V170.24C281.091 169.525 280.872 169.019 280.435 168.72C280.008 168.411 279.48 168.256 278.851 168.256C278.2 168.256 277.683 168.395 277.299 168.672C276.915 168.939 276.723 169.28 276.723 169.696L278.451 170.56L278.323 171.328C277.928 171.328 277.582 171.461 277.283 171.728C276.995 171.984 276.851 172.395 276.851 172.96V176H275.427ZM287.565 176.16C286.935 176.16 286.349 176.101 285.805 175.984C285.271 175.856 284.818 175.707 284.445 175.536L284.861 174.384C285.085 174.469 285.341 174.56 285.629 174.656C285.917 174.752 286.226 174.832 286.557 174.896C286.898 174.949 287.245 174.976 287.597 174.976C288.162 174.976 288.631 174.869 289.005 174.656C289.378 174.443 289.565 174.133 289.565 173.728C289.565 173.483 289.495 173.275 289.357 173.104C289.229 172.923 289.026 172.757 288.749 172.608C288.471 172.459 288.114 172.315 287.677 172.176C287.005 171.963 286.434 171.739 285.965 171.504C285.506 171.259 285.154 170.971 284.909 170.64C284.674 170.299 284.557 169.877 284.557 169.376C284.557 168.928 284.674 168.533 284.909 168.192C285.154 167.84 285.527 167.568 286.029 167.376C286.541 167.173 287.191 167.072 287.981 167.072C288.493 167.072 288.973 167.12 289.421 167.216C289.879 167.301 290.237 167.424 290.493 167.584V168.784C290.311 168.699 290.082 168.613 289.805 168.528C289.538 168.443 289.245 168.373 288.925 168.32C288.605 168.267 288.274 168.24 287.933 168.24C287.218 168.24 286.711 168.352 286.413 168.576C286.125 168.789 285.981 169.035 285.981 169.312C285.981 169.547 286.045 169.744 286.173 169.904C286.311 170.064 286.541 170.219 286.861 170.368C287.191 170.517 287.634 170.688 288.189 170.88C288.701 171.051 289.17 171.248 289.597 171.472C290.023 171.696 290.359 171.979 290.605 172.32C290.861 172.651 290.989 173.077 290.989 173.6C290.989 174.048 290.877 174.469 290.653 174.864C290.439 175.248 290.082 175.563 289.581 175.808C289.079 176.043 288.407 176.16 287.565 176.16ZM288.35 166.304C288.276 166.187 288.217 166.037 288.174 165.856C288.121 165.664 288.094 165.477 288.094 165.296C288.094 165.072 288.142 164.864 288.238 164.672C288.334 164.469 288.505 164.304 288.75 164.176C288.996 164.048 289.337 163.984 289.774 163.984H291.966V165.088H290.142C289.929 165.088 289.758 165.131 289.63 165.216C289.502 165.291 289.438 165.424 289.438 165.616C289.438 165.691 289.454 165.771 289.486 165.856C289.508 165.941 289.54 166.027 289.582 166.112L288.35 166.304ZM297.197 176V167.232H298.621V171.024H298.669L302.317 167.232H303.981V167.28L298.621 172.704V176H297.197ZM302.637 176V172.912C302.637 172.283 302.445 171.792 302.061 171.44C301.677 171.088 301.043 170.912 300.157 170.912L300.989 169.872C301.661 169.872 302.221 169.995 302.669 170.24C303.128 170.475 303.475 170.816 303.709 171.264C303.944 171.712 304.061 172.251 304.061 172.88V176H302.637ZM308.924 176.16C308.295 176.16 307.708 176.101 307.164 175.984C306.631 175.856 306.177 175.707 305.804 175.536L306.22 174.384C306.444 174.469 306.7 174.56 306.988 174.656C307.276 174.752 307.585 174.832 307.916 174.896C308.257 174.949 308.604 174.976 308.956 174.976C309.521 174.976 309.991 174.869 310.364 174.656C310.737 174.443 310.924 174.133 310.924 173.728C310.924 173.483 310.855 173.275 310.716 173.104C310.588 172.923 310.385 172.757 310.108 172.608C309.831 172.459 309.473 172.315 309.036 172.176C308.364 171.963 307.793 171.739 307.324 171.504C306.865 171.259 306.513 170.971 306.268 170.64C306.033 170.299 305.916 169.877 305.916 169.376C305.916 168.928 306.033 168.533 306.268 168.192C306.513 167.84 306.887 167.568 307.388 167.376C307.9 167.173 308.551 167.072 309.34 167.072C309.852 167.072 310.332 167.12 310.78 167.216C311.239 167.301 311.596 167.424 311.852 167.584V168.784C311.671 168.699 311.441 168.613 311.164 168.528C310.897 168.443 310.604 168.373 310.284 168.32C309.964 168.267 309.633 168.24 309.292 168.24C308.577 168.24 308.071 168.352 307.772 168.576C307.484 168.789 307.34 169.035 307.34 169.312C307.34 169.547 307.404 169.744 307.532 169.904C307.671 170.064 307.9 170.219 308.22 170.368C308.551 170.517 308.993 170.688 309.548 170.88C310.06 171.051 310.529 171.248 310.956 171.472C311.383 171.696 311.719 171.979 311.964 172.32C312.22 172.651 312.348 173.077 312.348 173.6C312.348 174.048 312.236 174.469 312.012 174.864C311.799 175.248 311.441 175.563 310.94 175.808C310.439 176.043 309.767 176.16 308.924 176.16ZM305.534 165.84V165.216L306.702 164.704H312.334V165.84H305.534ZM308.83 165.216V163.408H310.014V165.216H308.83ZM311.166 165.216V163.408H312.334V165.216H311.166ZM317.377 176.16C316.225 176.16 315.361 175.861 314.785 175.264C314.219 174.656 313.937 173.707 313.937 172.416C313.937 172.203 313.942 171.973 313.953 171.728C313.974 171.472 313.995 171.221 314.017 170.976H317.377V172.096H315.361V172.416C315.361 173.088 315.435 173.616 315.585 174C315.734 174.373 315.953 174.635 316.241 174.784C316.539 174.933 316.907 175.008 317.345 175.008C317.825 175.008 318.241 174.917 318.593 174.736C318.945 174.555 319.217 174.224 319.409 173.744C319.601 173.264 319.697 172.576 319.697 171.68C319.697 170.891 319.611 170.245 319.441 169.744C319.27 169.243 318.987 168.869 318.593 168.624C318.209 168.379 317.686 168.256 317.025 168.256C316.683 168.256 316.353 168.288 316.033 168.352C315.713 168.405 315.403 168.491 315.105 168.608C314.806 168.715 314.513 168.853 314.225 169.024V167.696C314.438 167.579 314.699 167.477 315.009 167.392C315.318 167.296 315.659 167.221 316.033 167.168C316.406 167.104 316.795 167.072 317.201 167.072C318.139 167.072 318.897 167.264 319.473 167.648C320.059 168.021 320.486 168.555 320.753 169.248C321.019 169.931 321.153 170.741 321.153 171.68C321.153 172.619 321.03 173.424 320.785 174.096C320.539 174.768 320.139 175.28 319.585 175.632C319.041 175.984 318.305 176.16 317.377 176.16ZM172.975 200.16C172.687 200.16 172.41 200.112 172.143 200.016C171.877 199.92 171.658 199.749 171.487 199.504C171.317 199.259 171.231 198.917 171.231 198.48V191.232H172.655V198.304C172.655 198.549 172.709 198.725 172.815 198.832C172.922 198.939 173.093 198.992 173.327 198.992C173.423 198.992 173.525 198.981 173.631 198.96C173.738 198.939 173.839 198.912 173.935 198.88L174.127 199.92C173.925 200.016 173.727 200.08 173.535 200.112C173.343 200.144 173.157 200.16 172.975 200.16ZM180.69 200V194.16C180.69 193.467 180.53 192.976 180.21 192.688C179.9 192.389 179.378 192.24 178.642 192.24C178.108 192.24 177.596 192.315 177.106 192.464C176.626 192.603 176.167 192.8 175.73 193.056V191.728C176.039 191.568 176.455 191.419 176.978 191.28C177.511 191.141 178.108 191.072 178.77 191.072C179.335 191.072 179.815 191.136 180.21 191.264C180.615 191.392 180.914 191.627 181.106 191.968C181.479 192.139 181.735 192.405 181.874 192.768C182.023 193.131 182.098 193.568 182.098 194.08V200H180.69ZM177.938 200.16C176.999 200.16 176.279 199.947 175.778 199.52C175.287 199.083 175.042 198.459 175.042 197.648C175.042 196.763 175.362 196.08 176.002 195.6C176.652 195.12 177.703 194.837 179.154 194.752L180.978 194.64V195.824L179.346 195.936C178.258 196.011 177.506 196.181 177.09 196.448C176.684 196.715 176.482 197.104 176.482 197.616C176.482 198.096 176.631 198.448 176.93 198.672C177.239 198.896 177.666 199.008 178.21 199.008C178.391 199.008 178.556 198.997 178.706 198.976C178.855 198.944 178.999 198.907 179.138 198.864L179.362 199.936C179.159 200.011 178.935 200.064 178.69 200.096C178.455 200.139 178.204 200.16 177.938 200.16ZM181.058 192.464L180.258 191.712C180.535 191.669 180.796 191.563 181.042 191.392C181.287 191.221 181.41 190.976 181.41 190.656H182.802C182.802 190.987 182.722 191.28 182.562 191.536C182.412 191.781 182.204 191.984 181.938 192.144C181.671 192.293 181.378 192.4 181.058 192.464ZM187.19 200V193.776C187.19 193.253 187.067 192.869 186.822 192.624C186.587 192.379 186.187 192.256 185.622 192.256C185.238 192.256 184.875 192.309 184.534 192.416C184.203 192.512 183.883 192.651 183.574 192.832V191.552C183.787 191.445 184.091 191.339 184.486 191.232C184.881 191.125 185.35 191.072 185.894 191.072C186.449 191.072 186.929 191.152 187.334 191.312C187.739 191.472 188.054 191.739 188.278 192.112C188.502 192.475 188.614 192.96 188.614 193.568V200H187.19ZM193.674 200.16C193.045 200.16 192.458 200.101 191.914 199.984C191.381 199.856 190.927 199.707 190.554 199.536L190.97 198.384C191.194 198.469 191.45 198.56 191.738 198.656C192.026 198.752 192.335 198.832 192.666 198.896C193.007 198.949 193.354 198.976 193.706 198.976C194.271 198.976 194.741 198.869 195.114 198.656C195.487 198.443 195.674 198.133 195.674 197.728C195.674 197.483 195.605 197.275 195.466 197.104C195.338 196.923 195.135 196.757 194.858 196.608C194.581 196.459 194.223 196.315 193.786 196.176C193.114 195.963 192.543 195.739 192.074 195.504C191.615 195.259 191.263 194.971 191.018 194.64C190.783 194.299 190.666 193.877 190.666 193.376C190.666 192.928 190.783 192.533 191.018 192.192C191.263 191.84 191.637 191.568 192.138 191.376C192.65 191.173 193.301 191.072 194.09 191.072C194.602 191.072 195.082 191.12 195.53 191.216C195.989 191.301 196.346 191.424 196.602 191.584V192.784C196.421 192.699 196.191 192.613 195.914 192.528C195.647 192.443 195.354 192.373 195.034 192.32C194.714 192.267 194.383 192.24 194.042 192.24C193.327 192.24 192.821 192.352 192.522 192.576C192.234 192.789 192.09 193.035 192.09 193.312C192.09 193.547 192.154 193.744 192.282 193.904C192.421 194.064 192.65 194.219 192.97 194.368C193.301 194.517 193.743 194.688 194.298 194.88C194.81 195.051 195.279 195.248 195.706 195.472C196.133 195.696 196.469 195.979 196.714 196.32C196.97 196.651 197.098 197.077 197.098 197.6C197.098 198.048 196.986 198.469 196.762 198.864C196.549 199.248 196.191 199.563 195.69 199.808C195.189 200.043 194.517 200.16 193.674 200.16ZM194.46 190.304C194.385 190.187 194.326 190.037 194.284 189.856C194.23 189.664 194.204 189.477 194.204 189.296C194.204 189.072 194.252 188.864 194.348 188.672C194.444 188.469 194.614 188.304 194.86 188.176C195.105 188.048 195.446 187.984 195.884 187.984H198.076V189.088H196.252C196.038 189.088 195.868 189.131 195.74 189.216C195.612 189.291 195.548 189.424 195.548 189.616C195.548 189.691 195.564 189.771 195.596 189.856C195.617 189.941 195.649 190.027 195.692 190.112L194.46 190.304ZM202.523 196.336V195.088H206.395V196.336H202.523ZM215.595 200.16C214.443 200.16 213.579 199.861 213.003 199.264C212.438 198.656 212.155 197.707 212.155 196.416C212.155 196.203 212.161 195.973 212.171 195.728C212.193 195.472 212.214 195.221 212.235 194.976H215.595V196.096H213.579V196.416C213.579 197.088 213.654 197.616 213.803 198C213.953 198.373 214.171 198.635 214.459 198.784C214.758 198.933 215.126 199.008 215.563 199.008C216.043 199.008 216.459 198.917 216.811 198.736C217.163 198.555 217.435 198.224 217.627 197.744C217.819 197.264 217.915 196.576 217.915 195.68C217.915 194.891 217.83 194.245 217.659 193.744C217.489 193.243 217.206 192.869 216.811 192.624C216.427 192.379 215.905 192.256 215.243 192.256C214.902 192.256 214.571 192.288 214.251 192.352C213.931 192.405 213.622 192.491 213.323 192.608C213.025 192.715 212.731 192.853 212.443 193.024V191.696C212.657 191.579 212.918 191.477 213.227 191.392C213.537 191.296 213.878 191.221 214.251 191.168C214.625 191.104 215.014 191.072 215.419 191.072C216.358 191.072 217.115 191.264 217.691 191.648C218.278 192.021 218.705 192.555 218.971 193.248C219.238 193.931 219.371 194.741 219.371 195.68C219.371 196.619 219.249 197.424 219.003 198.096C218.758 198.768 218.358 199.28 217.803 199.632C217.259 199.984 216.523 200.16 215.595 200.16ZM224.159 200V193.776C224.159 193.253 224.036 192.869 223.791 192.624C223.556 192.379 223.156 192.256 222.591 192.256C222.207 192.256 221.844 192.309 221.503 192.416C221.172 192.512 220.852 192.651 220.543 192.832V191.552C220.756 191.445 221.06 191.339 221.455 191.232C221.849 191.125 222.319 191.072 222.863 191.072C223.417 191.072 223.897 191.152 224.303 191.312C224.708 191.472 225.023 191.739 225.247 192.112C225.471 192.475 225.583 192.96 225.583 193.568V200H224.159ZM228.227 200V191.232H229.219L229.475 192.624H229.539C229.72 192.144 230.051 191.765 230.531 191.488C231.011 191.211 231.592 191.072 232.275 191.072C232.915 191.072 233.459 191.184 233.907 191.408C234.365 191.621 234.717 191.952 234.963 192.4C235.208 192.848 235.331 193.429 235.331 194.144V200H233.907V194.224C233.907 193.584 233.747 193.099 233.427 192.768C233.107 192.437 232.632 192.272 232.003 192.272C231.501 192.272 231.075 192.389 230.723 192.624C230.371 192.859 230.104 193.179 229.923 193.584C229.741 193.979 229.651 194.427 229.651 194.928V200H228.227ZM228.362 189.84V189.216L229.53 188.704H235.162V189.84H228.362ZM241.033 200.16C240.137 200.16 239.443 199.957 238.953 199.552C238.462 199.136 238.121 198.576 237.929 197.872C237.737 197.157 237.641 196.347 237.641 195.44C237.641 194.395 237.737 193.552 237.929 192.912C238.131 192.272 238.425 191.808 238.809 191.52C239.193 191.221 239.662 191.072 240.217 191.072C240.59 191.072 240.905 191.136 241.161 191.264C241.427 191.392 241.614 191.605 241.721 191.904H241.785C241.891 191.595 242.083 191.381 242.361 191.264C242.638 191.136 242.963 191.072 243.337 191.072C244.03 191.072 244.563 191.259 244.937 191.632C245.321 191.995 245.513 192.555 245.513 193.312V200H244.089V193.328C244.089 192.912 243.998 192.629 243.817 192.48C243.635 192.331 243.406 192.256 243.129 192.256C242.819 192.256 242.59 192.331 242.441 192.48C242.302 192.629 242.217 192.875 242.185 193.216H241.289C241.246 192.843 241.134 192.592 240.953 192.464C240.771 192.325 240.569 192.256 240.345 192.256C239.918 192.256 239.598 192.507 239.385 193.008C239.171 193.499 239.065 194.315 239.065 195.456C239.065 196.192 239.118 196.821 239.225 197.344C239.342 197.867 239.555 198.272 239.865 198.56C240.174 198.837 240.622 198.976 241.209 198.976C241.422 198.976 241.598 198.965 241.737 198.944C241.875 198.923 242.009 198.896 242.137 198.864L242.281 199.952C242.121 200.027 241.929 200.08 241.705 200.112C241.481 200.144 241.257 200.16 241.033 200.16ZM251.477 200.144C250.613 200.144 249.919 200.032 249.397 199.808C248.885 199.584 248.511 199.269 248.277 198.864C248.053 198.459 247.941 197.979 247.941 197.424C247.941 196.933 248.01 196.544 248.149 196.256C248.298 195.957 248.479 195.739 248.693 195.6C248.917 195.461 249.146 195.371 249.381 195.328V195.264C249.167 195.2 248.943 195.093 248.709 194.944C248.474 194.795 248.277 194.587 248.117 194.32C247.967 194.053 247.893 193.717 247.893 193.312C247.893 192.939 247.978 192.587 248.149 192.256C248.319 191.925 248.597 191.653 248.981 191.44C249.365 191.227 249.871 191.12 250.501 191.12C250.757 191.12 251.023 191.141 251.301 191.184C251.578 191.216 251.791 191.275 251.941 191.36L251.685 192.464C251.567 192.421 251.413 192.384 251.221 192.352C251.039 192.309 250.847 192.288 250.645 192.288C250.197 192.288 249.866 192.395 249.653 192.608C249.439 192.811 249.333 193.083 249.333 193.424C249.333 193.797 249.423 194.08 249.605 194.272C249.797 194.464 250.037 194.597 250.325 194.672C250.623 194.736 250.933 194.768 251.253 194.768H251.557V195.808H251.253C250.613 195.808 250.138 195.925 249.829 196.16C249.53 196.384 249.381 196.763 249.381 197.296C249.381 197.605 249.439 197.888 249.557 198.144C249.685 198.4 249.898 198.603 250.197 198.752C250.506 198.901 250.933 198.976 251.477 198.976C252.021 198.976 252.442 198.901 252.741 198.752C253.05 198.603 253.269 198.389 253.397 198.112C253.525 197.824 253.589 197.483 253.589 197.088V191.232H255.013V196.992C255.013 198.112 254.725 198.917 254.149 199.408C253.583 199.899 252.693 200.144 251.477 200.144ZM252.382 190.304C252.307 190.187 252.248 190.037 252.206 189.856C252.152 189.664 252.126 189.477 252.126 189.296C252.126 189.072 252.174 188.864 252.27 188.672C252.366 188.469 252.536 188.304 252.782 188.176C253.027 188.048 253.368 187.984 253.806 187.984H255.998V189.088H254.174C253.96 189.088 253.79 189.131 253.662 189.216C253.534 189.291 253.47 189.424 253.47 189.616C253.47 189.691 253.486 189.771 253.518 189.856C253.539 189.941 253.571 190.027 253.614 190.112L252.382 190.304Z" fill="#673826"/>
<defs>
<filter id="filter0_ddd_1235_49017" x="0" y="0" width="426" height="446" filterUnits="userSpaceOnUse" color-interpolation-filters="sRGB">
<feFlood flood-opacity="0" result="BackgroundImageFix"/>
<feColorMatrix in="SourceAlpha" type="matrix" values="0 0 0 0 0 0 0 0 0 0 0 0 0 0 0 0 0 0 127 0" result="hardAlpha"/>
<feOffset dy="8.14815"/>
<feGaussianBlur stdDeviation="3.25926"/>
<feColorMatrix type="matrix" values="0 0 0 0 0.72549 0 0 0 0 0.72549 0 0 0 0 0.72549 0 0 0 0.0274815 0"/>
<feBlend mode="normal" in2="BackgroundImageFix" result="effect1_dropShadow_1235_49017"/>
<feColorMatrix in="SourceAlpha" type="matrix" values="0 0 0 0 0 0 0 0 0 0 0 0 0 0 0 0 0 0 127 0" result="hardAlpha"/>
<feOffset dy="38.5185"/>
<feGaussianBlur stdDeviation="12.7407"/>
<feColorMatrix type="matrix" values="0 0 0 0 0.72549 0 0 0 0 0.72549 0 0 0 0 0.72549 0 0 0 0.0425185 0"/>
<feBlend mode="normal" in2="effect1_dropShadow_1235_49017" result="effect2_dropShadow_1235_49017"/>
<feColorMatrix in="SourceAlpha" type="matrix" values="0 0 0 0 0 0 0 0 0 0 0 0 0 0 0 0 0 0 127 0" result="hardAlpha"/>
<feOffset dy="100"/>
<feGaussianBlur stdDeviation="40"/>
<feColorMatrix type="matrix" values="0 0 0 0 0.72549 0 0 0 0 0.72549 0 0 0 0 0.72549 0 0 0 0.07 0"/>
<feBlend mode="normal" in2="effect2_dropShadow_1235_49017" result="effect3_dropShadow_1235_49017"/>
<feBlend mode="normal" in="SourceGraphic" in2="effect3_dropShadow_1235_49017" result="shape"/>
</filter>
<clipPath id="clip0_1235_49017">
<rect width="95.95" height="120.97" fill="white" transform="translate(165 28)"/>
</clipPath>
</defs>
</svg>
