<svg width="255" height="255" viewBox="0 0 255 255" fill="none" xmlns="http://www.w3.org/2000/svg">
<circle cx="127.5" cy="127.5" r="127.5" fill="#E6F0CB"/>
<path d="M93.3738 170.16C93.0858 170.16 92.8084 170.112 92.5418 170.016C92.2751 169.92 92.0564 169.749 91.8858 169.504C91.7151 169.259 91.6298 168.917 91.6298 168.48V161.232H93.0538V168.304C93.0538 168.549 93.1071 168.725 93.2138 168.832C93.3204 168.939 93.4911 168.992 93.7258 168.992C93.8218 168.992 93.9231 168.981 94.0298 168.96C94.1364 168.939 94.2378 168.912 94.3338 168.88L94.5258 169.92C94.3231 170.016 94.1258 170.08 93.9338 170.112C93.7418 170.144 93.5551 170.16 93.3738 170.16ZM98.4163 170.16C97.7869 170.16 97.2003 170.101 96.6562 169.984C96.1229 169.856 95.6696 169.707 95.2963 169.536L95.7122 168.384C95.9363 168.469 96.1923 168.56 96.4803 168.656C96.7683 168.752 97.0776 168.832 97.4083 168.896C97.7496 168.949 98.0963 168.976 98.4483 168.976C99.0136 168.976 99.4829 168.869 99.8563 168.656C100.23 168.443 100.416 168.133 100.416 167.728C100.416 167.483 100.347 167.275 100.208 167.104C100.08 166.923 99.8776 166.757 99.6003 166.608C99.3229 166.459 98.9656 166.315 98.5283 166.176C97.8563 165.963 97.2856 165.739 96.8163 165.504C96.3576 165.259 96.0056 164.971 95.7603 164.64C95.5256 164.299 95.4083 163.877 95.4083 163.376C95.4083 162.928 95.5256 162.533 95.7603 162.192C96.0056 161.84 96.3789 161.568 96.8803 161.376C97.3923 161.173 98.0429 161.072 98.8323 161.072C99.3443 161.072 99.8243 161.12 100.272 161.216C100.731 161.301 101.088 161.424 101.344 161.584V162.784C101.163 162.699 100.934 162.613 100.656 162.528C100.39 162.443 100.096 162.373 99.7763 162.32C99.4563 162.267 99.1256 162.24 98.7843 162.24C98.0696 162.24 97.5629 162.352 97.2643 162.576C96.9763 162.789 96.8323 163.035 96.8323 163.312C96.8323 163.547 96.8963 163.744 97.0243 163.904C97.1629 164.064 97.3923 164.219 97.7123 164.368C98.0429 164.517 98.4856 164.688 99.0403 164.88C99.5523 165.051 100.022 165.248 100.448 165.472C100.875 165.696 101.211 165.979 101.456 166.32C101.712 166.651 101.84 167.077 101.84 167.6C101.84 168.048 101.728 168.469 101.504 168.864C101.291 169.248 100.934 169.563 100.432 169.808C99.9309 170.043 99.2589 170.16 98.4163 170.16ZM95.026 159.84V159.216L96.194 158.704H101.826V159.84H95.026ZM100.498 159.216V157.408H101.842V159.216H100.498ZM107.141 170.144C106.277 170.144 105.583 170.032 105.061 169.808C104.549 169.584 104.175 169.269 103.941 168.864C103.717 168.459 103.605 167.979 103.605 167.424C103.605 166.933 103.674 166.544 103.813 166.256C103.962 165.957 104.143 165.739 104.357 165.6C104.581 165.461 104.81 165.371 105.045 165.328V165.264C104.831 165.2 104.607 165.093 104.373 164.944C104.138 164.795 103.941 164.587 103.781 164.32C103.631 164.053 103.557 163.717 103.557 163.312C103.557 162.939 103.642 162.587 103.813 162.256C103.983 161.925 104.261 161.653 104.645 161.44C105.029 161.227 105.535 161.12 106.165 161.12C106.421 161.12 106.687 161.141 106.965 161.184C107.242 161.216 107.455 161.275 107.605 161.36L107.349 162.464C107.231 162.421 107.077 162.384 106.885 162.352C106.703 162.309 106.511 162.288 106.309 162.288C105.861 162.288 105.53 162.395 105.317 162.608C105.103 162.811 104.997 163.083 104.997 163.424C104.997 163.797 105.087 164.08 105.269 164.272C105.461 164.464 105.701 164.597 105.989 164.672C106.287 164.736 106.597 164.768 106.917 164.768H107.221V165.808H106.917C106.277 165.808 105.802 165.925 105.493 166.16C105.194 166.384 105.045 166.763 105.045 167.296C105.045 167.605 105.103 167.888 105.221 168.144C105.349 168.4 105.562 168.603 105.861 168.752C106.17 168.901 106.597 168.976 107.141 168.976C107.685 168.976 108.106 168.901 108.405 168.752C108.714 168.603 108.933 168.389 109.061 168.112C109.189 167.824 109.253 167.483 109.253 167.088V161.232H110.677V166.992C110.677 168.112 110.389 168.917 109.813 169.408C109.247 169.899 108.357 170.144 107.141 170.144ZM116.289 170.16C115.659 170.16 115.115 170.053 114.657 169.84C114.209 169.616 113.862 169.28 113.617 168.832C113.382 168.384 113.265 167.803 113.265 167.088V161.232H114.689V167.008C114.689 167.648 114.849 168.133 115.169 168.464C115.499 168.795 115.974 168.96 116.593 168.96C117.339 168.96 117.915 168.72 118.321 168.24C118.737 167.76 118.945 167.115 118.945 166.304V161.232H120.369V170H119.185L119.121 168.704H119.041C118.849 169.131 118.513 169.483 118.033 169.76C117.563 170.027 116.982 170.16 116.289 170.16ZM124.133 170V166.096H122.917V164.976H125.493V168.848H125.701C126.181 168.848 126.581 168.741 126.901 168.528C127.221 168.315 127.461 167.968 127.621 167.488C127.781 167.008 127.861 166.373 127.861 165.584C127.861 164.795 127.771 164.155 127.589 163.664C127.419 163.173 127.136 162.816 126.741 162.592C126.357 162.368 125.835 162.256 125.173 162.256C124.672 162.256 124.187 162.325 123.717 162.464C123.259 162.592 122.816 162.795 122.389 163.072V161.744C122.709 161.552 123.131 161.392 123.653 161.264C124.176 161.136 124.741 161.072 125.349 161.072C126.32 161.072 127.093 161.253 127.669 161.616C128.256 161.968 128.677 162.48 128.933 163.152C129.189 163.824 129.317 164.64 129.317 165.6C129.317 166.528 129.189 167.323 128.933 167.984C128.688 168.635 128.283 169.136 127.717 169.488C127.163 169.829 126.416 170 125.477 170H124.133ZM135.113 170.16C133.854 170.16 132.953 169.872 132.409 169.296C131.865 168.72 131.593 167.899 131.593 166.832V161.232H133.017V166.848C133.017 167.563 133.188 168.096 133.529 168.448C133.87 168.8 134.398 168.976 135.113 168.976C135.838 168.976 136.372 168.8 136.713 168.448C137.065 168.096 137.241 167.563 137.241 166.848V161.232H138.665V166.832C138.665 167.899 138.388 168.72 137.833 169.296C137.289 169.872 136.382 170.16 135.113 170.16ZM143.233 170.16C142.945 170.16 142.668 170.112 142.401 170.016C142.134 169.92 141.916 169.749 141.745 169.504C141.574 169.259 141.489 168.917 141.489 168.48V161.232H142.913V168.304C142.913 168.549 142.966 168.725 143.073 168.832C143.18 168.939 143.35 168.992 143.585 168.992C143.681 168.992 143.782 168.981 143.889 168.96C143.996 168.939 144.097 168.912 144.193 168.88L144.385 169.92C144.182 170.016 143.985 170.08 143.793 170.112C143.601 170.144 143.414 170.16 143.233 170.16ZM147.601 170.16C147.313 170.16 147.036 170.112 146.769 170.016C146.502 169.92 146.284 169.749 146.113 169.504C145.942 169.259 145.857 168.917 145.857 168.48V161.232H147.281V168.304C147.281 168.549 147.334 168.725 147.441 168.832C147.548 168.939 147.718 168.992 147.953 168.992C148.049 168.992 148.15 168.981 148.257 168.96C148.364 168.939 148.465 168.912 148.561 168.88L148.753 169.92C148.55 170.016 148.353 170.08 148.161 170.112C147.969 170.144 147.782 170.16 147.601 170.16ZM155.323 170V164.16C155.323 163.467 155.163 162.976 154.843 162.688C154.533 162.389 154.011 162.24 153.275 162.24C152.741 162.24 152.229 162.315 151.739 162.464C151.259 162.603 150.8 162.8 150.363 163.056V161.728C150.672 161.568 151.088 161.419 151.611 161.28C152.144 161.141 152.741 161.072 153.403 161.072C153.968 161.072 154.459 161.136 154.875 161.264C155.291 161.381 155.632 161.563 155.899 161.808C156.176 162.053 156.384 162.368 156.523 162.752C156.661 163.125 156.731 163.568 156.731 164.08V170H155.323ZM152.571 170.16C151.632 170.16 150.912 169.947 150.411 169.52C149.92 169.083 149.675 168.459 149.675 167.648C149.675 166.763 149.995 166.08 150.635 165.6C151.285 165.12 152.336 164.837 153.787 164.752L155.611 164.64V165.824L153.979 165.936C152.891 166.011 152.139 166.181 151.723 166.448C151.317 166.715 151.115 167.104 151.115 167.616C151.115 168.096 151.264 168.448 151.563 168.672C151.872 168.896 152.299 169.008 152.843 169.008C153.024 169.008 153.189 168.997 153.339 168.976C153.488 168.944 153.632 168.907 153.771 168.864L153.995 169.936C153.792 170.011 153.568 170.064 153.323 170.096C153.088 170.139 152.837 170.16 152.571 170.16ZM152.034 159.84V159.136C152.247 159.093 152.466 159.035 152.69 158.96C152.914 158.875 153.101 158.768 153.25 158.64C153.399 158.501 153.474 158.336 153.474 158.144C153.474 158.016 153.437 157.909 153.362 157.824C153.277 157.728 153.149 157.68 152.978 157.68C152.871 157.68 152.765 157.701 152.658 157.744C152.541 157.787 152.439 157.824 152.354 157.856L152.034 156.976C152.247 156.805 152.487 156.693 152.754 156.64C153.01 156.587 153.218 156.56 153.378 156.56C153.805 156.56 154.141 156.677 154.386 156.912C154.621 157.147 154.738 157.445 154.738 157.808C154.738 158.107 154.663 158.368 154.514 158.592C154.354 158.805 154.173 158.976 153.97 159.104L153.81 158.72H156.994V159.84H152.034ZM161.087 170.16C160.671 170.16 160.266 170.117 159.871 170.032C159.487 169.947 159.077 169.787 158.639 169.552L159.087 168.464C159.322 168.603 159.589 168.725 159.887 168.832C160.186 168.928 160.533 168.976 160.927 168.976C161.717 168.976 162.33 168.688 162.767 168.112C163.215 167.525 163.439 166.683 163.439 165.584C163.439 164.507 163.21 163.685 162.751 163.12C162.303 162.544 161.61 162.256 160.671 162.256C160.33 162.256 159.983 162.293 159.631 162.368C159.279 162.443 158.97 162.555 158.703 162.704V161.504C159.013 161.344 159.349 161.232 159.711 161.168C160.085 161.104 160.458 161.072 160.831 161.072C161.791 161.072 162.57 161.264 163.167 161.648C163.765 162.021 164.202 162.544 164.479 163.216C164.757 163.888 164.895 164.677 164.895 165.584C164.895 166.992 164.575 168.107 163.935 168.928C163.306 169.749 162.357 170.16 161.087 170.16ZM39.6039 194V188.16C39.6039 187.467 39.4439 186.976 39.1239 186.688C38.8145 186.389 38.2919 186.24 37.5559 186.24C37.0225 186.24 36.5105 186.315 36.0199 186.464C35.5399 186.603 35.0812 186.8 34.6439 187.056V185.728C34.9532 185.568 35.3692 185.419 35.8919 185.28C36.4252 185.141 37.0225 185.072 37.6839 185.072C38.2492 185.072 38.7292 185.136 39.1239 185.264C39.5292 185.392 39.8279 185.627 40.0199 185.968C40.3932 186.139 40.6492 186.405 40.7879 186.768C40.9372 187.131 41.0119 187.568 41.0119 188.08V194H39.6039ZM36.8519 194.16C35.9132 194.16 35.1932 193.947 34.6919 193.52C34.2012 193.083 33.9559 192.459 33.9559 191.648C33.9559 190.763 34.2759 190.08 34.9159 189.6C35.5665 189.12 36.6172 188.837 38.0679 188.752L39.8919 188.64V189.824L38.2599 189.936C37.1719 190.011 36.4199 190.181 36.0039 190.448C35.5985 190.715 35.3959 191.104 35.3959 191.616C35.3959 192.096 35.5452 192.448 35.8439 192.672C36.1532 192.896 36.5799 193.008 37.1239 193.008C37.3052 193.008 37.4705 192.997 37.6199 192.976C37.7692 192.944 37.9132 192.907 38.0519 192.864L38.2759 193.936C38.0732 194.011 37.8492 194.064 37.6039 194.096C37.3692 194.139 37.1185 194.16 36.8519 194.16ZM39.9719 186.464L39.1719 185.712C39.4492 185.669 39.7105 185.563 39.9559 185.392C40.2012 185.221 40.3239 184.976 40.3239 184.656H41.7159C41.7159 184.987 41.6359 185.28 41.4759 185.536C41.3265 185.781 41.1185 185.984 40.8519 186.144C40.5852 186.293 40.2919 186.4 39.9719 186.464ZM46.1041 194V187.776C46.1041 187.253 45.9815 186.869 45.7361 186.624C45.5015 186.379 45.1015 186.256 44.5361 186.256C44.1521 186.256 43.7895 186.309 43.4481 186.416C43.1175 186.512 42.7975 186.651 42.4881 186.832V185.552C42.7015 185.445 43.0055 185.339 43.4001 185.232C43.7948 185.125 44.2641 185.072 44.8081 185.072C45.3628 185.072 45.8428 185.152 46.2481 185.312C46.6535 185.472 46.9681 185.739 47.1921 186.112C47.4161 186.475 47.5281 186.96 47.5281 187.568V194H46.1041ZM54.3481 194.16C53.6655 194.16 53.0735 194.027 52.5721 193.76C52.0815 193.483 51.7455 193.099 51.5641 192.608H51.5001L51.4201 194H50.2521V185.232H51.6761V190.304C51.6761 190.837 51.7668 191.307 51.9481 191.712C52.1401 192.107 52.4121 192.416 52.7641 192.64C53.1268 192.853 53.5588 192.96 54.0601 192.96C54.6895 192.96 55.1588 192.795 55.4681 192.464C55.7775 192.133 55.9321 191.648 55.9321 191.008V185.232H57.3561V191.104C57.3561 191.808 57.2335 192.384 56.9881 192.832C56.7535 193.28 56.4121 193.616 55.9641 193.84C55.5161 194.053 54.9775 194.16 54.3481 194.16ZM62.4323 194V187.776C62.4323 187.253 62.3096 186.869 62.0643 186.624C61.8296 186.379 61.4296 186.256 60.8643 186.256C60.4803 186.256 60.1176 186.309 59.7763 186.416C59.4456 186.512 59.1256 186.651 58.8163 186.832V185.552C59.0296 185.445 59.3336 185.339 59.7283 185.232C60.1229 185.125 60.5923 185.072 61.1363 185.072C61.6909 185.072 62.1709 185.152 62.5763 185.312C62.9816 185.472 63.2963 185.739 63.5203 186.112C63.7443 186.475 63.8563 186.96 63.8563 187.568V194H62.4323ZM68.9163 194.16C68.2869 194.16 67.7003 194.101 67.1562 193.984C66.6229 193.856 66.1696 193.707 65.7963 193.536L66.2122 192.384C66.4363 192.469 66.6923 192.56 66.9803 192.656C67.2683 192.752 67.5776 192.832 67.9083 192.896C68.2496 192.949 68.5963 192.976 68.9483 192.976C69.5136 192.976 69.9829 192.869 70.3563 192.656C70.7296 192.443 70.9163 192.133 70.9163 191.728C70.9163 191.483 70.8469 191.275 70.7083 191.104C70.5803 190.923 70.3776 190.757 70.1003 190.608C69.8229 190.459 69.4656 190.315 69.0283 190.176C68.3563 189.963 67.7856 189.739 67.3163 189.504C66.8576 189.259 66.5056 188.971 66.2603 188.64C66.0256 188.299 65.9083 187.877 65.9083 187.376C65.9083 186.928 66.0256 186.533 66.2603 186.192C66.5056 185.84 66.8789 185.568 67.3803 185.376C67.8923 185.173 68.5429 185.072 69.3323 185.072C69.8443 185.072 70.3243 185.12 70.7723 185.216C71.2309 185.301 71.5883 185.424 71.8443 185.584V186.784C71.6629 186.699 71.4336 186.613 71.1563 186.528C70.8896 186.443 70.5963 186.373 70.2763 186.32C69.9563 186.267 69.6256 186.24 69.2843 186.24C68.5696 186.24 68.0629 186.352 67.7643 186.576C67.4763 186.789 67.3323 187.035 67.3323 187.312C67.3323 187.547 67.3963 187.744 67.5243 187.904C67.6629 188.064 67.8923 188.219 68.2123 188.368C68.5429 188.517 68.9856 188.688 69.5403 188.88C70.0523 189.051 70.5216 189.248 70.9483 189.472C71.3749 189.696 71.7109 189.979 71.9563 190.32C72.2123 190.651 72.3403 191.077 72.3403 191.6C72.3403 192.048 72.2283 192.469 72.0043 192.864C71.7909 193.248 71.4336 193.563 70.9323 193.808C70.4309 194.043 69.7589 194.16 68.9163 194.16ZM76.0728 194.16C75.7741 194.16 75.4861 194.112 75.2088 194.016C74.9421 193.92 74.7234 193.749 74.5528 193.504C74.3928 193.259 74.3128 192.917 74.3128 192.48V190.928C74.3128 190.267 74.4514 189.787 74.7288 189.488C75.0168 189.189 75.3901 188.981 75.8488 188.864L75.8648 188.816L74.0247 188.144V187.616C74.0247 187.179 74.1688 186.768 74.4568 186.384C74.7448 185.989 75.1554 185.675 75.6888 185.44C76.2328 185.195 76.8834 185.072 77.6408 185.072C78.3021 185.072 78.9101 185.179 79.4648 185.392C80.0194 185.595 80.4621 185.92 80.7928 186.368C81.1341 186.805 81.3048 187.381 81.3048 188.096V194H79.8808V188.24C79.8808 187.525 79.6621 187.019 79.2248 186.72C78.7874 186.411 78.2541 186.256 77.6248 186.256C76.9634 186.256 76.4408 186.395 76.0568 186.672C75.6728 186.939 75.4808 187.28 75.4808 187.696L77.3048 188.56L77.1768 189.328C76.7821 189.339 76.4408 189.44 76.1528 189.632C75.8754 189.813 75.7368 190.187 75.7368 190.752V192.32C75.7368 192.555 75.7901 192.725 75.8968 192.832C76.0034 192.939 76.1741 192.992 76.4088 192.992C76.5154 192.992 76.6168 192.987 76.7128 192.976C76.8194 192.955 76.9154 192.928 77.0008 192.896L77.2088 193.92C77.0061 194.016 76.8088 194.08 76.6168 194.112C76.4354 194.144 76.2541 194.16 76.0728 194.16ZM83.8098 194V190.96C83.8098 190.288 83.9591 189.803 84.2578 189.504C84.5564 189.195 84.9351 188.981 85.3938 188.864L85.4098 188.816L83.6497 188.144V187.616C83.6497 187.179 83.7938 186.768 84.0818 186.384C84.3698 185.989 84.7804 185.675 85.3138 185.44C85.8578 185.195 86.5031 185.072 87.2498 185.072C87.9004 185.072 88.5031 185.179 89.0578 185.392C89.6124 185.595 90.0551 185.92 90.3858 186.368C90.7271 186.805 90.8978 187.381 90.8978 188.096V194H89.4738V188.24C89.4738 187.525 89.2551 187.019 88.8178 186.72C88.3911 186.411 87.8631 186.256 87.2338 186.256C86.5831 186.256 86.0658 186.395 85.6818 186.672C85.2978 186.939 85.1058 187.28 85.1058 187.696L86.8338 188.56L86.7057 189.328C86.3111 189.328 85.9644 189.461 85.6658 189.728C85.3778 189.984 85.2338 190.395 85.2338 190.96V194H83.8098ZM98.6195 194V188.16C98.6195 187.467 98.4595 186.976 98.1395 186.688C97.8302 186.389 97.3075 186.24 96.5715 186.24C96.0382 186.24 95.5262 186.315 95.0355 186.464C94.5555 186.603 94.0968 186.8 93.6595 187.056V185.728C93.9688 185.568 94.3848 185.419 94.9075 185.28C95.4408 185.141 96.0382 185.072 96.6995 185.072C97.2648 185.072 97.7555 185.136 98.1715 185.264C98.5875 185.381 98.9288 185.563 99.1955 185.808C99.4728 186.053 99.6808 186.368 99.8195 186.752C99.9582 187.125 100.028 187.568 100.028 188.08V194H98.6195ZM95.8675 194.16C94.9288 194.16 94.2088 193.947 93.7075 193.52C93.2168 193.083 92.9715 192.459 92.9715 191.648C92.9715 190.763 93.2915 190.08 93.9315 189.6C94.5822 189.12 95.6328 188.837 97.0835 188.752L98.9075 188.64V189.824L97.2755 189.936C96.1875 190.011 95.4355 190.181 95.0195 190.448C94.6142 190.715 94.4115 191.104 94.4115 191.616C94.4115 192.096 94.5608 192.448 94.8595 192.672C95.1688 192.896 95.5955 193.008 96.1395 193.008C96.3208 193.008 96.4862 192.997 96.6355 192.976C96.7848 192.944 96.9288 192.907 97.0675 192.864L97.2915 193.936C97.0888 194.011 96.8648 194.064 96.6195 194.096C96.3848 194.139 96.1342 194.16 95.8675 194.16ZM97.7627 183.84C97.3147 183.84 96.9574 183.776 96.6907 183.648C96.4241 183.52 96.2321 183.355 96.1147 183.152C95.9867 182.949 95.9227 182.736 95.9227 182.512C95.9227 182.352 95.9494 182.181 96.0027 182C96.0454 181.808 96.1041 181.653 96.1787 181.536L97.3787 181.744C97.3574 181.787 97.3361 181.861 97.3147 181.968C97.2934 182.064 97.2827 182.155 97.2827 182.24C97.2827 182.379 97.3254 182.501 97.4107 182.608C97.4961 182.704 97.6401 182.752 97.8427 182.752H101.891V183.84H97.7627ZM106.144 194.16C104.885 194.16 103.984 193.872 103.44 193.296C102.896 192.72 102.624 191.899 102.624 190.832V185.232H104.048V190.848C104.048 191.563 104.219 192.096 104.56 192.448C104.901 192.8 105.429 192.976 106.144 192.976C106.869 192.976 107.403 192.8 107.744 192.448C108.096 192.096 108.272 191.563 108.272 190.848V185.232H109.696V190.832C109.696 191.899 109.419 192.72 108.864 193.296C108.32 193.872 107.413 194.16 106.144 194.16ZM116.504 194.16C115.822 194.16 115.23 194.027 114.728 193.76C114.238 193.483 113.902 193.099 113.72 192.608H113.656L113.576 194H112.408V185.232H113.832V190.304C113.832 190.837 113.923 191.307 114.104 191.712C114.296 192.107 114.568 192.416 114.92 192.64C115.283 192.853 115.715 192.96 116.216 192.96C116.846 192.96 117.315 192.795 117.624 192.464C117.934 192.133 118.088 191.648 118.088 191.008V185.232H119.512V191.104C119.512 191.808 119.39 192.384 119.144 192.832C118.91 193.28 118.568 193.616 118.12 193.84C117.672 194.053 117.134 194.16 116.504 194.16ZM124.589 194V187.776C124.589 187.253 124.466 186.869 124.221 186.624C123.986 186.379 123.586 186.256 123.021 186.256C122.637 186.256 122.274 186.309 121.933 186.416C121.602 186.512 121.282 186.651 120.973 186.832V185.552C121.186 185.445 121.49 185.339 121.885 185.232C122.279 185.125 122.749 185.072 123.293 185.072C123.847 185.072 124.327 185.152 124.733 185.312C125.138 185.472 125.453 185.739 125.677 186.112C125.901 186.475 126.013 186.96 126.013 187.568V194H124.589ZM128.657 194V185.232H129.649L129.905 186.624H129.969C130.15 186.144 130.481 185.765 130.961 185.488C131.441 185.211 132.022 185.072 132.705 185.072C133.345 185.072 133.889 185.184 134.337 185.408C134.795 185.621 135.147 185.952 135.392 186.4C135.638 186.848 135.76 187.429 135.76 188.144V194H134.337V188.224C134.337 187.584 134.177 187.099 133.857 186.768C133.537 186.437 133.062 186.272 132.433 186.272C131.931 186.272 131.505 186.389 131.153 186.624C130.801 186.859 130.534 187.179 130.353 187.584C130.171 187.979 130.081 188.427 130.081 188.928V194H128.657ZM141.879 194.16C140.62 194.16 139.719 193.872 139.174 193.296C138.63 192.72 138.359 191.899 138.359 190.832V185.232H139.783V190.848C139.783 191.563 139.953 192.096 140.295 192.448C140.636 192.8 141.164 192.976 141.879 192.976C142.604 192.976 143.137 192.8 143.479 192.448C143.831 192.096 144.007 191.563 144.007 190.848V185.232H145.431V190.832C145.431 191.899 145.153 192.72 144.599 193.296C144.055 193.872 143.148 194.16 141.879 194.16ZM148.063 194V185.232H149.055L149.311 186.624H149.375C149.556 186.144 149.887 185.765 150.367 185.488C150.847 185.211 151.428 185.072 152.111 185.072C152.751 185.072 153.295 185.184 153.743 185.408C154.201 185.621 154.553 185.952 154.799 186.4C155.044 186.848 155.167 187.429 155.167 188.144V194H153.743V188.224C153.743 187.584 153.583 187.099 153.263 186.768C152.943 186.437 152.468 186.272 151.839 186.272C151.337 186.272 150.911 186.389 150.559 186.624C150.207 186.859 149.94 187.179 149.759 187.584C149.577 187.979 149.487 188.427 149.487 188.928V194H148.063ZM159.525 194.16C159.109 194.16 158.703 194.117 158.309 194.032C157.925 193.947 157.514 193.787 157.077 193.552L157.525 192.464C157.759 192.603 158.026 192.725 158.325 192.832C158.623 192.928 158.97 192.976 159.365 192.976C160.154 192.976 160.767 192.688 161.205 192.112C161.653 191.525 161.877 190.683 161.877 189.584C161.877 188.507 161.647 187.685 161.189 187.12C160.741 186.544 160.047 186.256 159.109 186.256C158.767 186.256 158.421 186.293 158.069 186.368C157.717 186.443 157.407 186.555 157.141 186.704V185.504C157.45 185.344 157.786 185.232 158.149 185.168C158.522 185.104 158.895 185.072 159.269 185.072C160.229 185.072 161.007 185.264 161.605 185.648C162.202 186.021 162.639 186.544 162.917 187.216C163.194 187.888 163.333 188.677 163.333 189.584C163.333 190.992 163.013 192.107 162.373 192.928C161.743 193.749 160.794 194.16 159.525 194.16ZM168.664 194.16C168.034 194.16 167.49 194.053 167.032 193.84C166.584 193.616 166.237 193.28 165.992 192.832C165.757 192.384 165.64 191.803 165.64 191.088V185.232H167.064V191.008C167.064 191.648 167.224 192.133 167.544 192.464C167.874 192.795 168.349 192.96 168.968 192.96C169.714 192.96 170.29 192.72 170.696 192.24C171.112 191.76 171.32 191.115 171.32 190.304V185.232H172.744V194H171.56L171.496 192.704H171.416C171.224 193.131 170.888 193.483 170.408 193.76C169.938 194.027 169.357 194.16 168.664 194.16ZM178.572 194.16C177.57 194.16 176.802 193.915 176.268 193.424C175.735 192.933 175.468 192.203 175.468 191.232V190.224C175.468 189.595 175.575 189.109 175.788 188.768C176.002 188.416 176.242 188.085 176.508 187.776C176.668 187.595 176.812 187.429 176.94 187.28C177.068 187.12 177.138 186.96 177.148 186.8L177.1 186.768C176.983 186.853 176.844 186.928 176.684 186.992C176.535 187.045 176.364 187.072 176.172 187.072C175.788 187.072 175.474 186.944 175.228 186.688C174.983 186.421 174.86 186.048 174.86 185.568V185.232H176.108C176.108 185.552 176.146 185.787 176.22 185.936C176.306 186.075 176.439 186.144 176.62 186.144C176.738 186.144 176.86 186.123 176.988 186.08C177.116 186.037 177.234 185.973 177.34 185.888L177.644 185.232H178.428V185.952C178.428 186.261 178.418 186.533 178.396 186.768C178.375 187.003 178.316 187.232 178.22 187.456C178.124 187.669 177.964 187.92 177.74 188.208C177.58 188.411 177.436 188.597 177.308 188.768C177.18 188.928 177.079 189.109 177.004 189.312C176.93 189.515 176.892 189.781 176.892 190.112V191.152C176.892 191.653 176.972 192.037 177.132 192.304C177.292 192.571 177.5 192.752 177.756 192.848C178.012 192.944 178.284 192.992 178.572 192.992C179.127 192.992 179.554 192.869 179.852 192.624C180.151 192.368 180.3 191.979 180.3 191.456V189.216C180.3 188.821 180.204 188.523 180.012 188.32C179.831 188.107 179.538 188 179.132 188H179.068V187.088H179.148C179.586 187.088 179.895 186.987 180.076 186.784C180.258 186.581 180.364 186.336 180.396 186.048C180.439 185.749 180.46 185.477 180.46 185.232H181.884C181.884 185.797 181.81 186.272 181.66 186.656C181.511 187.04 181.202 187.323 180.732 187.504V187.568C181.138 187.685 181.404 187.899 181.532 188.208C181.66 188.517 181.724 188.901 181.724 189.36V191.536C181.724 192.357 181.452 193.003 180.908 193.472C180.364 193.931 179.586 194.16 178.572 194.16ZM180.909 184.224C180.375 184.224 179.954 184.101 179.645 183.856C179.335 183.6 179.181 183.243 179.181 182.784C179.181 182.315 179.335 181.957 179.645 181.712C179.954 181.467 180.375 181.344 180.909 181.344C181.442 181.344 181.869 181.467 182.189 181.712C182.509 181.957 182.669 182.315 182.669 182.784C182.669 183.243 182.509 183.6 182.189 183.856C181.869 184.101 181.442 184.224 180.909 184.224ZM180.909 183.472C181.165 183.472 181.362 183.408 181.501 183.28C181.629 183.152 181.693 182.987 181.693 182.784C181.693 182.571 181.629 182.405 181.501 182.288C181.362 182.16 181.165 182.096 180.909 182.096C180.663 182.096 180.477 182.16 180.349 182.288C180.21 182.405 180.141 182.571 180.141 182.784C180.141 182.987 180.21 183.152 180.349 183.28C180.477 183.408 180.663 183.472 180.909 183.472ZM178.872 180.464V179.904C179.011 179.872 179.16 179.824 179.32 179.76C179.48 179.696 179.619 179.616 179.736 179.52C179.853 179.413 179.912 179.28 179.912 179.12C179.912 179.003 179.88 178.912 179.816 178.848C179.752 178.784 179.661 178.752 179.544 178.752C179.459 178.752 179.373 178.768 179.288 178.8C179.192 178.821 179.101 178.859 179.016 178.912L178.728 178.176C178.92 178.048 179.139 177.963 179.384 177.92C179.619 177.877 179.805 177.856 179.944 177.856C180.221 177.856 180.472 177.931 180.696 178.08C180.92 178.219 181.032 178.459 181.032 178.8C181.032 178.939 181.005 179.099 180.952 179.28C180.888 179.451 180.76 179.589 180.568 179.696L180.472 179.392H182.904V180.464H178.872ZM186.823 194V187.776C186.823 187.253 186.7 186.869 186.455 186.624C186.22 186.379 185.82 186.256 185.255 186.256C184.871 186.256 184.508 186.309 184.167 186.416C183.836 186.512 183.516 186.651 183.207 186.832V185.552C183.42 185.445 183.724 185.339 184.119 185.232C184.514 185.125 184.983 185.072 185.527 185.072C186.082 185.072 186.562 185.152 186.967 185.312C187.372 185.472 187.687 185.739 187.911 186.112C188.135 186.475 188.247 186.96 188.247 187.568V194H186.823ZM191.307 186.832V183.968C191.307 183.563 191.344 183.237 191.419 182.992C191.494 182.736 191.595 182.528 191.723 182.368C191.851 182.208 191.99 182.075 192.139 181.968L192.123 181.904H189.339L189.707 180.784H194.219V181.904C193.824 181.904 193.478 182.032 193.179 182.288C192.88 182.544 192.731 183.013 192.731 183.696V186.832H191.307ZM193.051 194.16C192.763 194.16 192.486 194.112 192.219 194.016C191.952 193.92 191.734 193.749 191.563 193.504C191.392 193.259 191.307 192.917 191.307 192.48V185.232H192.731V192.304C192.731 192.549 192.784 192.725 192.891 192.832C192.998 192.939 193.168 192.992 193.403 192.992C193.499 192.992 193.6 192.981 193.707 192.96C193.814 192.939 193.915 192.912 194.011 192.88L194.203 193.92C194 194.016 193.803 194.08 193.611 194.112C193.419 194.144 193.232 194.16 193.051 194.16ZM198.538 194.16C197.685 194.16 197.013 193.963 196.522 193.568C196.042 193.163 195.701 192.619 195.498 191.936C195.306 191.253 195.21 190.501 195.21 189.68C195.21 188.773 195.301 188.027 195.482 187.44C195.674 186.843 195.941 186.373 196.282 186.032C196.634 185.68 197.05 185.435 197.53 185.296C198.021 185.147 198.559 185.072 199.146 185.072C199.999 185.072 200.693 185.2 201.226 185.456C201.77 185.701 202.17 186.053 202.426 186.512C202.682 186.971 202.81 187.52 202.81 188.16V194H201.402V188.288C201.402 187.627 201.237 187.125 200.906 186.784C200.575 186.432 200.005 186.256 199.194 186.256C198.703 186.256 198.261 186.347 197.866 186.528C197.482 186.709 197.178 187.045 196.954 187.536C196.741 188.027 196.634 188.747 196.634 189.696C196.634 190.315 196.693 190.875 196.81 191.376C196.938 191.867 197.157 192.256 197.466 192.544C197.775 192.832 198.207 192.976 198.762 192.976C198.922 192.976 199.071 192.965 199.21 192.944C199.349 192.923 199.482 192.891 199.61 192.848L199.754 193.952C199.583 194.027 199.386 194.08 199.162 194.112C198.949 194.144 198.741 194.16 198.538 194.16ZM198.221 183.84V183.136C198.435 183.093 198.653 183.035 198.877 182.96C199.101 182.875 199.288 182.768 199.437 182.64C199.587 182.501 199.661 182.336 199.661 182.144C199.661 182.016 199.624 181.909 199.549 181.824C199.464 181.728 199.336 181.68 199.165 181.68C199.059 181.68 198.952 181.701 198.845 181.744C198.728 181.787 198.627 181.824 198.541 181.856L198.221 180.976C198.435 180.805 198.675 180.693 198.941 180.64C199.197 180.587 199.405 180.56 199.565 180.56C199.992 180.56 200.328 180.677 200.573 180.912C200.808 181.147 200.925 181.445 200.925 181.808C200.925 182.107 200.851 182.368 200.701 182.592C200.541 182.805 200.36 182.976 200.157 183.104L199.997 182.72H203.181V183.84H198.221ZM206.285 194L204.765 185.232H206.221L206.781 189.04C206.803 189.136 206.829 189.344 206.861 189.664C206.893 189.984 206.931 190.352 206.973 190.768C207.027 191.184 207.075 191.589 207.117 191.984H207.197C207.251 191.685 207.315 191.381 207.389 191.072C207.464 190.752 207.544 190.421 207.629 190.08C207.725 189.728 207.827 189.365 207.933 188.992L209.021 185.232H210.173L211.261 188.992C211.368 189.365 211.464 189.728 211.549 190.08C211.645 190.421 211.731 190.752 211.805 191.072C211.88 191.381 211.944 191.685 211.997 191.984H212.061C212.104 191.547 212.141 191.147 212.173 190.784C212.216 190.421 212.253 190.091 212.285 189.792C212.317 189.493 212.344 189.243 212.365 189.04L213.277 182.08H214.685L212.925 194H211.517L210.061 189.232C209.987 189.008 209.917 188.741 209.853 188.432C209.789 188.123 209.72 187.733 209.645 187.264H209.581C209.528 187.573 209.475 187.845 209.421 188.08C209.379 188.315 209.331 188.523 209.277 188.704C209.235 188.885 209.187 189.061 209.133 189.232L207.677 194H206.285ZM218.776 194.16C218.146 194.16 217.56 194.101 217.016 193.984C216.482 193.856 216.029 193.707 215.656 193.536L216.072 192.384C216.296 192.469 216.552 192.56 216.84 192.656C217.128 192.752 217.437 192.832 217.768 192.896C218.109 192.949 218.456 192.976 218.808 192.976C219.373 192.976 219.842 192.869 220.216 192.656C220.589 192.443 220.776 192.133 220.776 191.728C220.776 191.483 220.706 191.275 220.568 191.104C220.44 190.923 220.237 190.757 219.96 190.608C219.682 190.459 219.325 190.315 218.888 190.176C218.216 189.963 217.645 189.739 217.176 189.504C216.717 189.259 216.365 188.971 216.12 188.64C215.885 188.299 215.768 187.877 215.768 187.376C215.768 186.928 215.885 186.533 216.12 186.192C216.365 185.84 216.738 185.568 217.24 185.376C217.752 185.173 218.402 185.072 219.192 185.072C219.704 185.072 220.184 185.12 220.632 185.216C221.09 185.301 221.448 185.424 221.704 185.584V186.784C221.522 186.699 221.293 186.613 221.016 186.528C220.749 186.443 220.456 186.373 220.136 186.32C219.816 186.267 219.485 186.24 219.144 186.24C218.429 186.24 217.922 186.352 217.624 186.576C217.336 186.789 217.192 187.035 217.192 187.312C217.192 187.547 217.256 187.744 217.384 187.904C217.522 188.064 217.752 188.219 218.072 188.368C218.402 188.517 218.845 188.688 219.4 188.88C219.912 189.051 220.381 189.248 220.808 189.472C221.234 189.696 221.57 189.979 221.816 190.32C222.072 190.651 222.2 191.077 222.2 191.6C222.2 192.048 222.088 192.469 221.864 192.864C221.65 193.248 221.293 193.563 220.792 193.808C220.29 194.043 219.618 194.16 218.776 194.16ZM215.385 183.84V183.216L216.553 182.704H222.185V183.84H215.385ZM220.857 183.216V181.408H222.201V183.216H220.857Z" fill="#673826"/>
<g clip-path="url(#clip0_1235_49009)">
<path d="M185.45 97.2099C185.397 95.0523 185.226 92.8991 184.94 90.7599C184.697 88.9588 184.088 87.2265 183.15 85.6699C182.934 85.322 182.697 84.988 182.44 84.6699C182.451 84.1291 182.352 83.5916 182.15 83.0899C181.735 82.1782 181.111 81.3768 180.33 80.7499C179.726 80.2155 179.088 79.7211 178.42 79.2699C177.169 78.4311 175.827 77.7366 174.42 77.1999C171.979 76.2742 169.399 75.7671 166.79 75.6999C164.731 75.6525 162.673 75.8201 160.65 76.1999C159.207 76.4679 157.781 76.8219 156.38 77.2599C156.559 76.172 156.659 75.0724 156.68 73.9699C157.297 73.914 157.907 73.7934 158.5 73.6099C159.574 73.2895 160.588 72.7927 161.5 72.1399C162.61 71.3428 163.541 70.3206 164.23 69.1399C164.998 67.7641 165.445 66.2328 165.54 64.6599C165.636 62.971 165.433 61.2783 164.94 59.6599C164.46 58.141 163.817 56.679 163.02 55.2999C162.28 54.0199 161.52 52.8899 160.8 51.8599C159.36 49.7999 158.04 48.0399 156.92 46.6199L155.4 44.7399C155.039 44.3117 154.736 43.8376 154.5 43.3299C154.462 43.245 154.429 43.1582 154.4 43.0699L154.5 42.7199L154.61 42.2999L154.34 42.6899V42.7399C154.323 42.5971 154.323 42.4528 154.34 42.3099C154.328 42.217 154.328 42.1229 154.34 42.0299V41.9299C154.263 42.0495 154.199 42.1769 154.15 42.3099C154.056 42.6075 154.008 42.9178 154.01 43.2299C153.88 43.3999 153.75 43.5699 153.59 43.7599C152.56 45.0351 151.43 46.2256 150.21 47.3199C148.7 48.7499 146.76 50.3199 144.73 52.4299C143.616 53.5446 142.611 54.7635 141.73 56.0699C140.727 57.5636 139.996 59.2223 139.57 60.9699C139.15 62.786 139.15 64.6739 139.57 66.4899C139.903 68.1352 140.691 69.6537 141.846 70.872C143.001 72.0903 144.475 72.9594 146.1 73.3799C147.285 73.7157 148.501 73.9301 149.73 74.0199C150.955 74.1069 152.185 74.06 153.4 73.8799C153.18 75.0799 152.92 76.3499 152.62 77.6599C152.4 78.5899 152.19 79.4799 151.99 80.3499C151.909 80.7174 151.878 81.0942 151.9 81.4699C151.9 81.6699 151.9 81.5899 151.9 81.6199C151.99 81.6765 152.088 81.7202 152.19 81.7499C152.596 81.8404 152.992 81.9745 153.37 82.1499L153.46 82.2099V82.2899C153.452 82.3537 153.424 82.4133 153.38 82.4599C153.028 82.7529 152.614 82.9616 152.17 83.0699C151.93 83.1499 151.7 83.2199 151.53 83.2599L151.27 83.3399C151.62 83.4577 151.978 83.5546 152.34 83.6299C153.62 83.9703 154.924 84.2176 156.24 84.3699C157.18 84.4499 158.24 84.5199 159.52 84.5699C159.475 84.4815 159.421 84.3977 159.36 84.3199L159.24 84.1499L159.17 84.0499L159.59 84.4599C159.7 84.5599 159.8 84.6399 159.81 84.6199C159.798 84.5903 159.781 84.5632 159.76 84.5399V84.4899L159.68 84.3799L159.49 84.1299L159.18 83.7499L158.36 82.7499C158.056 82.3074 157.66 81.9356 157.2 81.6599L157.09 81.5999H156.82L156.09 81.5499L155.36 81.4999V81.3899C155.42 81.1999 155.62 80.6299 155.77 80.1499C155.92 79.6699 156.05 79.1499 156.17 78.6199C156.17 78.3999 156.26 78.1799 156.31 77.9599L156.71 77.8899C158.209 77.6363 159.722 77.4627 161.24 77.3699C163.262 77.2632 165.289 77.3671 167.29 77.6799C169.67 78.0427 171.975 78.7962 174.11 79.9099C175.271 80.5205 176.361 81.2584 177.36 82.1099C177.61 82.3399 177.87 82.5499 178.11 82.7999C178.343 83.0171 178.563 83.2475 178.77 83.4899C179.063 83.7744 179.248 84.1533 179.29 84.5599C179.277 84.6749 179.236 84.7848 179.17 84.8799C179.062 85.0512 178.923 85.2005 178.76 85.3199C178.255 85.6989 177.695 85.999 177.1 86.2099L174.88 87.0399C174.13 87.2999 173.35 87.5199 172.58 87.7699C169.341 88.717 166.019 89.3532 162.66 89.6699C156.165 90.2863 149.612 89.7377 143.31 88.0499C140.591 87.2861 137.934 86.3201 135.36 85.1599C134.851 84.9286 134.373 84.6329 133.94 84.2799C133.615 84.0248 133.378 83.6755 133.26 83.2799C133.201 82.857 133.252 82.4261 133.408 82.0285C133.564 81.631 133.819 81.2803 134.15 81.0099C134.905 80.3939 135.785 79.9502 136.73 79.7099C137.73 79.4299 138.65 79.1999 139.52 79.0099C141.032 78.6777 142.561 78.4273 144.1 78.2599C145.37 78.1299 146.36 78.0699 147.03 78.0399H148.03L147.09 77.9199C146.46 77.8499 145.54 77.7599 144.32 77.7199C142.819 77.6586 141.316 77.692 139.82 77.8199C138.94 77.8899 137.99 77.9899 136.98 78.1499C135.826 78.2995 134.704 78.6373 133.66 79.1499L133.58 79.1999L132.47 78.6899L130.67 77.8699C129.32 77.2699 127.67 76.5499 125.77 75.8099C123.603 74.9573 121.377 74.2621 119.11 73.7299C117.031 73.2433 114.905 72.9884 112.77 72.9699H112.05C111.84 72.9699 111.5 72.9699 111.57 72.9699H111.5C112.28 71.5702 112.817 70.0488 113.09 68.4699C113.396 66.7349 113.416 64.9615 113.15 63.2199C112.892 61.4887 112.384 59.8043 111.64 58.2199C110.974 56.8484 110.17 55.5484 109.24 54.3399C107.56 52.1399 106.04 50.4499 104.95 48.9299C104.078 47.7713 103.369 46.4997 102.84 45.1499C102.71 44.8199 102.63 44.5399 102.56 44.3099C102.91 43.5499 103.07 43.1399 103.07 43.1399L102.44 43.8499L102.38 43.6299V43.9499L101.83 44.5699C101 45.4899 99.8298 46.7999 98.2198 48.3199C97.4298 49.0899 96.5598 49.8999 95.5998 50.7599C94.6398 51.6199 93.5998 52.5499 92.4798 53.6099C91.2874 54.7534 90.2121 56.013 89.2698 57.3699C88.2347 58.9035 87.4483 60.591 86.9398 62.3699C85.9457 65.8009 86.0014 69.4509 87.0998 72.8499C87.2198 73.2099 87.3498 73.5699 87.4998 73.9299L86.6898 73.9799C86.0898 74.0299 85.2098 74.1099 84.0498 74.2599C80.7069 74.7306 77.4202 75.538 74.2398 76.6699C73.2398 77.0299 72.1298 77.4499 71.0198 77.9299C70.4598 78.1699 69.8998 78.4299 69.3198 78.7099C68.697 79.0005 68.0955 79.3347 67.5198 79.7099C66.8666 80.1226 66.2685 80.6166 65.7398 81.1799C65.1133 81.8467 64.66 82.6571 64.4198 83.5399C64.2348 84.3022 64.2348 85.0976 64.4198 85.8599C64.1498 84.9299 64.0098 84.4199 64.0098 84.4199C64.0098 84.4199 64.3098 88.6199 65.2898 95.8799C65.7798 99.5099 66.4398 103.88 67.2898 108.88C67.7298 111.39 68.2298 114.05 68.7998 116.88C69.0898 118.28 69.3898 119.71 69.6998 121.18C69.8598 121.907 70.0198 122.647 70.1798 123.4C70.2698 123.77 70.3498 124.15 70.4398 124.52C70.5298 124.89 70.5998 125.27 70.7098 125.7C70.9295 126.726 71.3772 127.69 72.0198 128.52C72.7236 129.322 73.6227 129.928 74.6298 130.28C75.4898 130.61 76.1898 130.78 76.8998 130.99C77.6098 131.2 78.3198 131.39 79.0198 131.57C81.8298 132.29 84.5198 132.85 87.0198 133.27C91.4086 133.985 95.8437 134.379 100.29 134.45C103.143 134.494 105.997 134.387 108.84 134.13C109.84 134.06 110.57 133.95 111.08 133.9L111.85 133.8L108.62 133.55C106.55 133.38 103.54 133.1 99.8598 132.55C96.1798 132 91.7998 131.23 86.9898 130.07C84.5898 129.5 82.0798 128.82 79.4998 128.07C78.8498 127.88 78.2098 127.66 77.5498 127.46C76.8898 127.26 76.2398 127.05 75.7598 126.84C75.3746 126.696 75.031 126.459 74.7598 126.15C74.4999 125.741 74.3201 125.286 74.2298 124.81C73.5598 121.98 72.9098 119.23 72.2898 116.58C71.6698 113.93 71.0098 111.36 70.4098 108.93C69.1998 104.08 68.0698 99.7399 67.1098 96.1099C65.9198 91.6199 64.9698 88.2199 64.4198 86.2799L64.5098 86.5399C64.8817 87.4394 65.4527 88.2429 66.1798 88.8899C67.5282 90.0502 69.1107 90.9063 70.8198 91.3999C72.4361 91.9218 74.0825 92.3459 75.7498 92.6699C79.2753 93.3151 82.8342 93.7625 86.4098 94.0099C93.7498 94.6099 100.47 95.0799 106.47 95.3799C111.688 95.6891 116.921 95.6256 122.13 95.1899C124.3 94.9799 126.23 94.6799 127.89 94.3699L129.08 94.1199C129.47 94.0399 129.81 93.9699 130.25 93.8599L130.59 93.7799V94.0099C130.2 97.3899 129.77 101.49 129.39 106.22C128.925 111.54 128.782 116.883 128.96 122.22C129.03 123.75 129.14 125.22 129.28 126.71L129.13 128.18C129.13 128.46 129.13 128.74 129.05 128.91C129.053 128.98 129.053 129.05 129.05 129.12H129L128.73 129.23C125.157 130.57 121.477 131.607 117.73 132.33C116.27 132.6 115.06 132.79 114.21 132.9L112.9 133.08C112.9 133.08 113.31 133.24 114.09 133.47C115.223 133.796 116.38 134.033 117.55 134.18C121.79 134.697 126.093 134.179 130.09 132.67L130.22 132.62C130.557 134.495 130.994 136.351 131.53 138.18C131.69 138.77 131.85 139.33 132.07 139.95C132.3 140.605 132.616 141.227 133.01 141.8C133.431 142.381 133.957 142.88 134.56 143.27C135.094 143.605 135.669 143.87 136.27 144.06C137.283 144.367 138.325 144.572 139.38 144.67C140.326 144.783 141.236 144.863 142.11 144.91C144.779 145.063 147.457 144.973 150.11 144.64C151.02 144.52 151.71 144.4 152.18 144.31L152.89 144.18H152.11C151.6 144.18 150.85 144.18 149.88 144.09C147.165 143.927 144.465 143.573 141.8 143.03C140.96 142.86 140.09 142.66 139.18 142.43C138.31 142.233 137.47 141.923 136.68 141.51C136.33 141.326 136.012 141.086 135.74 140.8C135.488 140.525 135.288 140.206 135.15 139.86C134.977 139.423 134.843 138.971 134.75 138.51C134.63 137.99 134.52 137.42 134.41 136.87C133.475 131.98 132.924 127.025 132.76 122.05C132.53 116.7 132.58 111.59 132.59 106.94C132.6 102.29 132.59 98.1099 132.52 94.6199C132.45 90.8099 132.33 87.8199 132.25 85.8699C132.597 86.2461 132.987 86.5816 133.41 86.8699C134.029 87.2863 134.677 87.6572 135.35 87.9799C135.99 88.3099 136.65 88.6599 137.35 88.9799L139.46 89.8999C140.18 90.1999 140.93 90.4499 141.69 90.7399C148.554 93.1303 155.854 94.0104 163.09 93.3199C166.885 92.9511 170.626 92.1492 174.24 90.9299C175.1 90.6199 175.95 90.3499 176.76 89.9899L177.98 89.4799L178.59 89.2299C178.8 89.1299 179.02 89.0299 179.23 88.9099C180.201 88.441 181.052 87.7571 181.72 86.9099C181.898 86.6689 182.045 86.4069 182.16 86.1299C182.23 86.2799 182.3 86.4299 182.36 86.5899C182.939 88.1752 183.227 89.8522 183.21 91.5399C183.21 93.4299 183.07 95.6099 182.98 97.9399C182.89 100.27 182.78 102.77 182.7 105.41C182.54 110.68 182.44 116.51 182.46 122.67C182.46 125.73 182.46 128.67 182.53 131.57C182.6 134.47 182.11 136.77 180.83 138.57C179.432 140.328 177.612 141.704 175.54 142.57C173.64 143.457 171.674 144.196 169.66 144.78C166.725 145.629 163.708 146.166 160.66 146.38C159.57 146.45 158.72 146.48 158.15 146.48H157.24L158.04 146.63C158.57 146.72 159.35 146.84 160.39 146.95C163.412 147.245 166.459 147.161 169.46 146.7C171.619 146.371 173.747 145.859 175.82 145.17C177.034 144.768 178.212 144.263 179.34 143.66C180.625 142.98 181.793 142.099 182.8 141.05C183.901 139.865 184.727 138.451 185.22 136.91C185.694 135.375 185.969 133.785 186.04 132.18C186.14 130.59 186.12 129.06 186.14 127.49C186.16 125.92 186.14 124.3 186.14 122.66C186.14 116.09 185.99 110.06 185.81 104.66C185.67 102.03 185.57 99.5299 185.45 97.2099ZM150.24 72.3699C149.213 72.0812 148.21 71.7134 147.24 71.2699C146.19 70.8039 145.25 70.1226 144.48 69.2699C143.696 68.352 143.174 67.2395 142.97 66.0499C142.722 64.6632 142.762 63.2401 143.09 61.8699C143.45 60.4329 144.023 59.0577 144.79 57.7899C145.525 56.5605 146.337 55.3782 147.22 54.2499C148.91 52.0599 150.55 50.0999 151.72 48.3399C152.627 47.0305 153.389 45.6255 153.99 44.1499C154.094 44.6335 154.244 45.1057 154.44 45.5599C154.73 46.2699 155.05 47.0299 155.44 47.8799C156.19 49.5899 157.13 51.6099 158.25 53.8099C159.488 56.0483 160.529 58.3905 161.36 60.8099C162.113 62.9887 162.169 65.3479 161.52 67.5599C160.842 69.3358 159.607 70.8444 158 71.8599C157.565 72.1356 157.11 72.3795 156.64 72.5899C156.554 71.1306 156.323 69.6834 155.95 68.2699C155.688 67.3354 155.353 66.4227 154.95 65.5399C154.66 64.9299 154.49 64.6199 154.49 64.6199C154.49 64.6199 154.49 65.0099 154.39 65.7099C154.29 66.4099 154.24 67.3899 154.1 68.5999C153.96 69.8099 153.75 71.3499 153.46 72.9799C152.372 72.8596 151.296 72.6557 150.24 72.3699ZM90.5098 63.3699C90.9451 61.8461 91.5806 60.3867 92.3998 59.0299C93.2026 57.7607 94.0913 56.5478 95.0598 55.3999C95.9898 54.2699 96.9098 53.1999 97.7398 52.1599C98.5698 51.1199 99.2798 50.1599 99.8798 49.1599C100.798 47.7695 101.623 46.3197 102.35 44.8199C102.35 44.9699 102.35 45.1299 102.35 45.2999C102.451 46.9366 102.854 48.5403 103.54 50.0299C104.537 52.1633 105.645 54.2429 106.86 56.2599C107.502 57.3802 108.061 58.5467 108.53 59.7499C109.001 61.0141 109.336 62.3248 109.53 63.6599C109.945 66.1929 109.715 68.7897 108.86 71.2099C108.593 71.943 108.258 72.6495 107.86 73.3199C107.23 73.9799 106.47 74.7399 105.65 75.5899L105.72 75.6499H106.07C105.82 75.8999 105.57 76.1499 105.33 76.3699C104.387 77.2108 103.326 77.9083 102.18 78.4399C102.38 77.0299 102.54 75.4399 102.62 73.7599C102.763 70.8481 102.682 67.9295 102.38 65.0299C102.27 63.9699 102.14 63.1099 102.05 62.5299C101.96 61.9499 101.88 61.6299 101.88 61.6299C101.34 62.7164 100.885 63.8431 100.52 64.9999C99.6155 67.7743 99.0809 70.6558 98.9298 73.5699C98.8564 75.1941 98.8965 76.8214 99.0498 78.4399H98.7398C98.0445 78.3707 97.3535 78.2639 96.6698 78.1199C95.7802 77.9378 94.9121 77.663 94.0798 77.2999C93.1367 76.8896 92.2991 76.2708 91.6298 75.4899C90.9289 74.5729 90.4528 73.5043 90.2398 72.3699C89.5728 69.3948 89.6657 66.2997 90.5098 63.3699ZM131.09 82.4799C130.951 83.3789 131.139 84.2979 131.62 85.0699C131.67 85.1499 131.73 85.2199 131.78 85.2899C131.54 86.9199 131.18 89.5199 130.78 92.9399H130.67L129.77 93.0299C129.04 93.0799 128.23 93.1599 127.36 93.1999C125.63 93.3099 123.65 93.3299 121.47 93.2999C117.09 93.2299 111.88 92.7799 106.04 92.1399C100.2 91.4999 93.6898 90.8299 86.8098 90.2599C83.3798 89.9699 80.0898 89.7099 76.9998 89.2599C75.4498 89.0099 73.9498 88.7099 72.5198 88.3499L71.4598 88.0599C71.1398 87.9699 70.8198 87.8599 70.4598 87.7399C69.8665 87.5133 69.297 87.2286 68.7598 86.8899C68.2992 86.6077 67.8928 86.2453 67.5598 85.8199C67.292 85.4814 67.1317 85.0704 67.0998 84.6399C67.1094 84.1629 67.229 83.6946 67.4493 83.2714C67.6696 82.8481 67.9846 82.4815 68.3698 82.1999C69.2574 81.4253 70.2303 80.7543 71.2698 80.1999C72.2698 79.6199 73.2698 79.0899 74.2698 78.5999C77.3587 77.0771 80.5741 75.8257 83.8798 74.8599C85.0598 74.5099 85.9798 74.2799 86.5998 74.1199L87.4698 73.9099C87.9172 75.0546 88.5984 76.0933 89.4698 76.9599C90.4831 77.9339 91.7351 78.6237 93.0998 78.9599C94.135 79.2228 95.2023 79.3372 96.2698 79.2999C97.0415 79.2728 97.8102 79.1893 98.5698 79.0499L99.0298 78.9599C99.1598 80.2099 99.3398 81.3399 99.5198 82.2899C99.6998 83.2399 99.8798 83.9899 100.03 84.5799C97.6998 84.5799 95.5098 84.6699 93.5698 84.6699C92.5698 84.6699 91.5698 84.6699 90.6998 84.6099H90.0398H89.5998H89.4498C89.4971 84.5101 89.5505 84.4132 89.6098 84.3199C89.7609 84.0956 89.9465 83.8964 90.1598 83.7299C90.5357 83.4358 90.9733 83.2307 91.4398 83.1299C91.7684 83.0611 92.1053 83.0409 92.4398 83.0699C92.5575 83.0783 92.6744 83.095 92.7898 83.1199C92.7042 83.0505 92.614 82.987 92.5198 82.9299C92.2296 82.7544 91.9118 82.6292 91.5798 82.5599C91.0148 82.4214 90.4247 82.4214 89.8598 82.5599C89.4842 82.6607 89.1266 82.8193 88.7998 83.0299C88.6079 83.1457 88.43 83.2833 88.2698 83.4399C88.0687 83.6228 87.8967 83.8352 87.7598 84.0699C87.5444 84.4645 87.4941 84.9283 87.6198 85.3599C87.7644 85.769 88.0382 86.12 88.3998 86.3599C88.8958 86.6728 89.4396 86.9025 90.0098 87.0399C91.0139 87.338 92.0359 87.5718 93.0698 87.7399C95.4847 88.113 97.9263 88.2869 100.37 88.2599C102.987 88.3703 105.596 87.899 108.01 86.8799C108.288 86.7492 108.559 86.6023 108.82 86.4399C109.09 86.2799 109.28 86.1399 109.69 85.8599C110.1 85.5799 110.34 85.3099 110.62 85.0399C110.9 84.7699 111.13 84.4799 111.32 84.1999C111.51 83.9199 111.62 83.6499 111.73 83.3999C111.81 83.1515 111.847 82.891 111.84 82.6299C111.825 82.3543 111.735 82.088 111.58 81.8599C111.432 81.6549 111.245 81.4815 111.03 81.3499C110.181 80.956 109.24 80.8005 108.31 80.8999C107.87 80.8999 107.66 80.8999 107.39 80.9499L106.69 80.9999C105.85 81.0799 105.4 81.1399 105.4 81.1399C105.4 81.1399 105.86 81.3099 106.71 81.5899L107.42 81.8099L107.82 81.9399L108.12 82.0499C108.5 82.2199 108.85 82.3199 109.02 82.6199C109.065 82.716 109.074 82.8248 109.047 82.9273C109.02 83.0298 108.957 83.1192 108.87 83.1799C108.706 83.3201 108.52 83.4317 108.32 83.5099L108.08 83.5999L107.85 83.6599C107.66 83.7496 107.462 83.8232 107.26 83.8799C107.057 83.9552 106.85 84.0186 106.64 84.0699C104.734 84.4704 102.786 84.6383 100.84 84.5699C101 84.0299 101.2 83.3399 101.4 82.4899C101.6 81.6399 101.84 80.4899 102.03 79.3099C102.524 79.2633 103.015 79.1865 103.5 79.0799C104.396 78.8607 105.265 78.542 106.09 78.1299C107.263 77.5164 108.338 76.7311 109.28 75.7999L111.28 75.8499L111.72 75.9099L112.04 75.9599L112.68 76.0499C114.43 76.3399 116.32 76.7399 118.35 77.1999C120.57 77.7099 122.72 78.1999 124.69 78.5999C126.66 78.9999 128.48 79.2899 130.01 79.4599C131.07 79.5899 132.01 79.6499 132.73 79.6899C131.867 80.4021 131.285 81.3982 131.09 82.4999V82.4799Z" fill="#945834"/>
<path d="M180.501 117.47C180.651 115.2 180.941 112.47 181.241 109.47C181.621 106.107 181.805 102.725 181.791 99.3401C181.791 98.7001 181.791 98.0601 181.721 97.4301C181.651 96.8001 181.641 96.19 181.571 95.58L181.451 94.4401C181.381 93.8901 181.291 93.3501 181.221 92.8201C181.061 91.8201 180.901 90.7701 180.751 89.8201C179.561 90.5001 178.401 91.1501 177.291 91.7501C177.011 91.9001 176.751 92.0601 176.471 92.1801L176.061 92.39C175.791 92.54 175.521 92.6701 175.251 92.7901C174.222 93.2841 173.167 93.7214 172.091 94.1001C170.304 94.7449 168.468 95.2432 166.601 95.5901C165.021 95.8801 163.731 96.0201 162.841 96.1001L161.471 96.2C161.471 96.2 161.901 96.3201 162.741 96.5001C163.975 96.7627 165.23 96.9232 166.491 96.98C169.784 97.1273 173.078 96.6767 176.211 95.6501C176.531 95.5401 176.861 95.4401 177.211 95.3101L177.701 95.1201L177.821 95.0701C177.873 95.0565 177.928 95.0565 177.981 95.0701C177.984 95.12 177.984 95.1701 177.981 95.2201V95.3201V95.7401C177.981 96.3101 178.051 96.8901 178.071 97.4901C178.091 98.0901 178.121 98.7001 178.121 99.3201C178.181 103.04 178.121 106.53 178.121 109.66C178.132 112.389 178.319 115.115 178.681 117.82C178.821 118.95 179.041 119.95 179.211 120.82C179.381 121.69 179.601 122.41 179.771 123C180.151 124.16 180.371 124.77 180.371 124.77C180.371 124.77 180.371 124.06 180.371 122.77C180.371 122.13 180.371 121.35 180.371 120.45C180.371 119.55 180.411 118.6 180.501 117.47Z" fill="#945834"/>
<path d="M151.77 139C150.64 138.94 149.59 138.91 148.66 138.85C147.803 138.801 146.95 138.687 146.11 138.51C145.38 138.36 144.662 138.159 143.96 137.91C142.921 137.543 141.917 137.085 140.96 136.54C140.62 136.34 140.36 136.19 140.19 136.07L139.92 135.91L140.09 136.2C140.255 136.483 140.435 136.756 140.63 137.02C141.361 138.021 142.241 138.905 143.24 139.64C143.948 140.162 144.705 140.614 145.5 140.99C146.43 141.421 147.402 141.757 148.4 141.99C149.4 142.23 150.48 142.39 151.55 142.56C152.62 142.73 153.74 142.86 154.89 142.98C157.074 143.23 159.272 143.33 161.47 143.28C163.32 143.242 165.156 142.939 166.92 142.38C168.102 142.007 169.216 141.446 170.22 140.72C170.485 140.525 170.739 140.315 170.98 140.09L171.23 139.86L170.92 139.94C170.72 139.99 170.44 140.09 170.05 140.16C168.989 140.395 167.907 140.519 166.82 140.53C165.147 140.536 163.476 140.419 161.82 140.18C159.91 139.94 157.7 139.56 155.23 139.31C154.08 139.16 152.9 139.07 151.77 139Z" fill="#945834"/>
<path d="M190.7 86.82C190.592 85.544 190.334 84.2853 189.93 83.07C189.684 82.3888 189.326 81.7534 188.87 81.19C188.45 80.6889 187.966 80.2452 187.43 79.87C186.96 79.54 186.55 79.29 186.14 79.03L184.94 78.29L182.76 77.03C180.07 75.52 178.32 74.75 178.32 74.75C178.32 74.75 179.38 76.15 181.44 78.34C182.44 79.43 183.77 80.73 185.25 82.11C185.559 82.3975 185.837 82.7158 186.08 83.06C186.282 83.369 186.437 83.706 186.54 84.06C186.793 85.1042 186.957 86.168 187.03 87.24C187.61 92.19 188.2 96.33 188.68 99.24C188.92 100.71 189.12 101.87 189.28 102.67C189.44 103.47 189.53 103.9 189.53 103.9C189.53 103.9 189.66 103.44 189.86 102.6C190.06 101.76 190.3 100.53 190.52 98.99C191.099 94.9576 191.16 90.8677 190.7 86.82Z" fill="#945834"/>
<path d="M87.7195 127.02C85.8808 126.315 84.1238 125.413 82.4795 124.33C82.0195 124.02 81.5595 123.7 81.1095 123.33C80.6595 122.96 80.1895 122.62 79.7895 122.25C79.4144 121.912 79.0789 121.533 78.7895 121.12C78.5273 120.687 78.3191 120.223 78.1695 119.74L75.9495 112.53L74.0895 106.62L72.8095 102.62C72.4995 101.68 72.3195 101.16 72.3195 101.16C72.3195 101.16 72.2695 101.66 72.2295 102.6C72.1895 103.54 72.1595 104.91 72.2295 106.65C72.3147 108.746 72.5183 110.836 72.8395 112.91C73.0295 114.11 73.2695 115.38 73.5595 116.71C73.7095 117.37 73.8695 118.05 74.0495 118.71C74.2295 119.37 74.4095 120.07 74.6695 120.87C74.9423 121.732 75.3508 122.546 75.8795 123.28C76.3941 123.951 76.9999 124.547 77.6795 125.05C78.7903 125.868 79.9834 126.569 81.2395 127.14C83.2369 128.049 85.3737 128.614 87.5595 128.81C88.9391 128.933 90.3284 128.897 91.6995 128.7C92.1695 128.63 92.5195 128.55 92.7595 128.5L93.1195 128.42L92.7295 128.34C92.4695 128.34 92.0995 128.23 91.6195 128.12C90.2953 127.845 88.9921 127.478 87.7195 127.02Z" fill="#945834"/>
<g clip-path="url(#clip1_1235_49009)">
<path d="M165.537 132.854C165.506 132.818 165.477 132.78 165.452 132.739C165.541 132.742 165.628 132.717 165.702 132.667C165.737 132.638 165.761 132.598 165.77 132.554C165.748 132.592 165.713 132.62 165.671 132.634C165.57 132.658 165.463 132.646 165.37 132.599C165.332 132.521 165.303 132.44 165.283 132.355C165.22 132.061 165.213 131.757 165.26 131.46C165.286 131.284 165.324 131.093 165.362 130.893C165.4 130.693 165.456 130.485 165.52 130.264C165.64 129.826 165.794 129.349 165.968 128.828C166.142 128.306 166.328 127.746 166.486 127.126C166.665 126.46 166.751 125.772 166.742 125.082C166.725 124.305 166.528 123.542 166.164 122.854C165.984 122.508 165.765 122.183 165.512 121.885L165.477 121.842C165.905 121.918 166.343 121.928 166.774 121.872C167.694 121.742 168.559 121.359 169.272 120.766C169.644 120.463 169.977 120.115 170.264 119.731C170.511 119.396 170.735 119.044 170.934 118.679C171.303 118.002 171.573 117.414 171.812 116.927C172.051 116.441 172.231 116.052 172.358 115.789C172.408 115.663 172.459 115.57 172.492 115.502C172.672 115.555 172.768 115.579 172.768 115.579L172.527 115.449L172.553 115.383C172.537 115.402 172.519 115.419 172.501 115.435L172.118 115.223C171.699 114.985 171.099 114.629 170.394 114.141C170.039 113.896 169.661 113.619 169.266 113.306C168.871 112.993 168.438 112.642 167.936 112.304C167.677 112.125 167.407 111.964 167.125 111.824C166.976 111.747 166.823 111.679 166.667 111.619L166.43 111.526C166.349 111.494 166.268 111.462 166.183 111.449C165.495 111.255 164.779 111.184 164.067 111.24C163.368 111.297 162.681 111.45 162.024 111.695C161.789 111.782 161.566 111.88 161.347 111.985C162.008 111.086 162.501 110.075 162.803 109C162.894 108.66 162.964 108.315 163.01 107.966C163.052 107.626 163.068 107.284 163.059 106.942C163.043 106.303 162.946 105.668 162.771 105.052C162.618 104.508 162.412 103.979 162.155 103.475C161.937 103.043 161.691 102.626 161.417 102.227C161.03 101.659 160.596 101.123 160.12 100.625C159.955 100.446 159.822 100.318 159.731 100.23L159.654 100.153L159.78 100.026L159.619 100.122L159.592 100.094L159.612 100.125C159.306 100.309 158.597 100.747 157.621 101.387C156.959 101.823 156.175 102.353 155.315 102.964C154.886 103.268 154.428 103.593 153.968 103.975C153.731 104.172 153.503 104.381 153.287 104.601C153.23 104.657 153.174 104.717 153.121 104.777C153.068 104.837 153.016 104.901 152.963 104.962C152.91 105.022 152.86 105.09 152.806 105.153C152.752 105.215 152.702 105.28 152.656 105.349L152.381 105.758C152.297 105.896 152.223 106.038 152.145 106.179C152.067 106.317 151.998 106.459 151.938 106.606C151.88 106.751 151.809 106.889 151.767 107.038C151.726 107.187 151.67 107.328 151.623 107.469C151.576 107.611 151.549 107.76 151.513 107.902L151.464 108.116L151.429 108.329C151.406 108.468 151.388 108.603 151.364 108.745C151.274 109.596 151.328 110.456 151.525 111.29C151.313 111.002 151.085 110.725 150.844 110.46C150.4 109.979 149.897 109.556 149.347 109.2C148.728 108.796 148.044 108.5 147.325 108.326C146.59 108.15 145.826 108.134 145.086 108.281C144.447 108.422 143.828 108.64 143.243 108.931C142.703 109.191 142.227 109.459 141.787 109.701C141.348 109.943 140.95 110.161 140.578 110.328C140.25 110.484 139.912 110.615 139.565 110.721C139.307 110.798 139.043 110.853 138.775 110.883C138.607 110.908 138.437 110.919 138.267 110.915L138.09 110.92L138.278 110.96L138.508 111.007C138.614 111.024 138.722 111.035 138.83 111.038C138.966 111.052 139.102 111.056 139.238 111.048C139.4 111.045 139.562 111.033 139.722 111.01L139.991 110.971C140.087 110.957 140.179 110.932 140.275 110.909C140.372 110.886 140.472 110.868 140.574 110.838L140.885 110.746C141.727 110.497 142.672 110.037 143.715 109.649C144.24 109.443 144.788 109.295 145.346 109.21C145.928 109.128 146.521 109.158 147.093 109.298C148.228 109.594 149.275 110.162 150.142 110.953C150.867 111.622 151.518 112.366 152.084 113.173C152.582 113.861 152.961 114.444 153.226 114.843L153.639 115.459C153.639 115.459 153.557 115.232 153.387 114.813C153.217 114.394 152.968 113.776 152.579 113.026C152.493 112.861 152.401 112.688 152.3 112.509C152.223 112.227 152.164 111.94 152.123 111.651C151.999 110.774 152.017 109.884 152.176 109.013C152.271 108.487 152.421 107.973 152.623 107.478L152.7 107.282C152.726 107.216 152.752 107.151 152.791 107.088L152.885 106.895L152.924 106.795L152.979 106.7L153.202 106.314C153.285 106.193 153.37 106.067 153.456 105.944C153.497 105.88 153.544 105.82 153.594 105.763C153.64 105.706 153.687 105.646 153.736 105.59C153.826 105.472 153.923 105.36 154.026 105.254C154.229 105.043 154.442 104.837 154.659 104.632C155.04 104.288 155.428 103.971 155.796 103.66C155.674 103.783 155.55 103.912 155.427 104.046C154.67 104.871 154.054 105.814 153.604 106.839C153.143 107.879 152.922 109.009 152.956 110.147C152.992 111.06 153.218 111.955 153.619 112.777C153.882 113.317 154.234 113.808 154.66 114.232L154.859 114.421L155.017 114.547L155.145 114.65L155.056 114.528C154.998 114.447 154.907 114.33 154.809 114.166C154.518 113.707 154.288 113.214 154.123 112.697C154.013 112.336 153.929 111.966 153.872 111.592C153.813 111.156 153.792 110.715 153.809 110.274C153.854 109.223 154.097 108.19 154.525 107.23C154.957 106.252 155.506 105.33 156.161 104.484C156.663 103.813 157.222 103.186 157.832 102.61C158.231 102.237 158.665 101.903 159.129 101.614C159.29 101.515 159.42 101.438 159.507 101.394L159.641 101.322L159.481 101.358C159.375 101.383 159.221 101.426 159.023 101.491C158.461 101.685 157.926 101.953 157.434 102.287C157.34 102.349 157.246 102.416 157.149 102.485C157.467 102.204 157.758 101.941 158.019 101.701C158.842 100.945 159.391 100.404 159.633 100.162L159.958 100.674C160.304 101.219 160.622 101.781 160.911 102.359C161.357 103.229 161.692 104.151 161.908 105.104C162.18 106.303 162.153 107.55 161.829 108.735C161.488 109.932 160.943 111.061 160.218 112.074C159.866 112.574 159.509 113.02 159.163 113.424C158.736 113.791 158.329 114.182 157.946 114.594C157.465 115.11 157.09 115.564 156.804 115.919L156.487 116.241L156.607 116.167C156.31 116.543 156.152 116.757 156.152 116.757L156.688 116.309C156.981 116.061 157.387 115.713 157.903 115.286C158.163 115.099 158.454 114.879 158.765 114.63C158.889 114.531 159.014 114.438 159.147 114.313C159.622 113.965 160.116 113.645 160.628 113.355C161.145 113.063 161.688 112.821 162.25 112.63C162.865 112.42 163.505 112.289 164.153 112.239C164.478 112.216 164.804 112.216 165.129 112.241C165.284 112.262 165.442 112.269 165.592 112.302L165.818 112.342L166.038 112.4C166.598 112.555 167.134 112.788 167.63 113.093C168.12 113.379 168.579 113.686 169.022 113.953C169.464 114.221 169.887 114.449 170.274 114.637C170.87 114.927 171.486 115.176 172.116 115.382L172.462 115.49C172.406 115.549 172.329 115.626 172.232 115.73C172.02 115.958 171.717 116.297 171.367 116.734C171.016 117.171 170.62 117.724 170.192 118.305C169.758 118.929 169.247 119.497 168.671 119.994C168.102 120.466 167.444 120.818 166.734 121.028C166.15 121.196 165.536 121.241 164.933 121.159L164.815 121.141L164.756 121.089C164.227 120.642 163.637 120.271 163.005 119.987C162.446 119.738 161.864 119.545 161.266 119.414C160.758 119.3 160.244 119.218 159.726 119.166C158.991 119.096 158.252 119.063 157.514 119.068C156.994 119.069 156.709 119.075 156.709 119.075L157.446 119.218C157.925 119.311 158.629 119.433 159.502 119.635C160.537 119.859 161.541 120.207 162.492 120.674C162.764 120.814 163.027 120.972 163.279 121.145C163.548 121.324 163.803 121.522 164.043 121.737C164.556 122.184 164.985 122.719 165.308 123.318C165.469 123.615 165.593 123.932 165.676 124.26L165.71 124.381L165.732 124.503L165.776 124.744C165.794 124.905 165.812 125.066 165.822 125.227C165.839 125.858 165.785 126.489 165.662 127.108C165.55 127.709 165.414 128.281 165.299 128.816C165.183 129.352 165.088 129.852 165.037 130.311C164.971 130.723 164.937 131.139 164.936 131.556C164.95 131.872 165.025 132.182 165.159 132.469L165.184 132.517C164.971 132.407 164.699 132.267 164.386 132.115L164.361 132.032C164.34 131.96 164.313 131.873 164.29 131.775C164.162 131.221 164.085 130.656 164.061 130.089C164.038 129.728 164.022 129.326 163.984 128.896C163.966 128.676 163.946 128.447 163.909 128.209C163.872 127.971 163.827 127.729 163.777 127.48C163.532 126.391 163.105 125.351 162.514 124.403C161.926 123.463 161.206 122.611 160.377 121.873C159.714 121.285 158.993 120.766 158.224 120.325C158.063 120.232 157.904 120.155 157.754 120.075C157.605 119.996 157.468 119.922 157.33 119.864C157.058 119.757 156.837 119.637 156.64 119.568C156.256 119.417 156.041 119.349 156.041 119.349C156.041 119.349 156.211 119.472 156.53 119.684C156.848 119.897 157.298 120.235 157.85 120.674C158.5 121.207 159.118 121.779 159.698 122.387C160.436 123.165 161.094 124.016 161.66 124.926L161.778 125.109L161.883 125.299L162.089 125.671C162.219 125.917 162.334 126.166 162.456 126.397C162.577 126.628 162.664 126.88 162.754 127.116C162.845 127.353 162.926 127.582 162.995 127.813C163.064 128.044 163.124 128.262 163.187 128.47C163.251 128.679 163.288 128.902 163.332 129.109C163.421 129.525 163.5 129.916 163.588 130.268C163.665 130.584 163.758 130.896 163.866 131.203C163.95 131.429 164.049 131.65 164.162 131.863C164.199 131.933 164.233 131.993 164.265 132.046L164.02 131.927C163.465 131.658 162.787 131.358 162.048 131.014C161.266 130.669 160.525 130.236 159.841 129.723C159.175 129.184 158.568 128.577 158.029 127.912C157.512 127.295 157.064 126.708 156.678 126.23C156.542 126.065 156.416 125.893 156.299 125.714L156.31 125.687C156.342 125.539 156.362 125.393 156.381 125.249C156.4 125.106 156.414 124.972 156.434 124.826C156.455 124.544 156.477 124.282 156.482 124.025C156.488 123.769 156.486 123.521 156.481 123.29C156.477 123.058 156.455 122.832 156.431 122.621C156.357 121.973 156.228 121.332 156.045 120.705C155.905 120.277 155.821 120.053 155.821 120.053C155.821 120.053 155.85 120.311 155.897 120.783C155.953 121.444 155.965 122.107 155.935 122.769C155.889 123.742 155.73 124.706 155.462 125.642C155.308 126.189 155.108 126.721 154.865 127.234C154.603 127.782 154.289 128.303 153.926 128.79L153.635 129.152C153.588 129.212 153.539 129.269 153.486 129.323L153.329 129.49C153.23 129.602 153.124 129.708 153.012 129.807C152.902 129.908 152.799 130.013 152.682 130.103C152.245 130.474 151.781 130.811 151.294 131.113C150.356 131.702 149.452 132.167 148.705 132.584C147.957 133 147.364 133.356 146.972 133.626C146.772 133.756 146.625 133.869 146.523 133.942L146.438 134.004C146.442 133.871 146.438 133.738 146.426 133.605C146.399 133.307 146.349 133.013 146.276 132.723C146.191 132.384 146.078 132.008 145.958 131.595C145.665 130.638 145.432 129.664 145.262 128.678C145.054 127.504 145.099 126.3 145.394 125.147C145.717 123.994 146.244 122.909 146.952 121.943C147.543 121.147 148.213 120.413 148.952 119.751L149.155 119.57C149.35 119.468 149.54 119.357 149.724 119.236C150.259 118.882 150.743 118.456 151.162 117.971L151.347 117.753L151.475 117.586L151.576 117.448L151.433 117.566L151.26 117.71C151.191 117.765 151.109 117.825 151.014 117.904C150.832 118.041 150.605 118.201 150.328 118.371L150.145 118.479C149.989 118.557 149.819 118.641 149.628 118.754C149.545 118.797 149.456 118.837 149.364 118.877C148.531 119.259 147.612 119.419 146.697 119.34C145.7 119.237 144.692 118.687 143.77 117.893C143.303 117.488 142.872 117.053 142.456 116.621L141.253 115.37C140.491 114.577 139.827 113.859 139.312 113.222C138.903 112.722 138.527 112.196 138.184 111.649L138.023 111.391L137.914 111.197L137.82 111.035L137.869 111.199C137.899 111.307 137.946 111.468 138.022 111.675C138.24 112.272 138.511 112.849 138.831 113.399C139.334 114.246 139.902 115.053 140.53 115.814C140.892 116.247 141.272 116.711 141.689 117.19C142.134 117.706 142.613 118.192 143.124 118.643C143.654 119.115 144.253 119.502 144.9 119.793C145.502 120.061 146.155 120.198 146.813 120.197C147.09 120.195 147.367 120.17 147.639 120.122C147.193 120.488 146.777 120.888 146.394 121.318C145.472 122.347 144.799 123.572 144.425 124.9C144.33 125.264 144.261 125.634 144.218 126.007C144.18 126.363 144.166 126.722 144.176 127.08C144.204 127.73 144.3 128.376 144.461 129.007C144.731 130.003 145.09 130.974 145.534 131.907C145.711 132.293 145.878 132.624 146.006 132.927C146.116 133.178 146.209 133.435 146.285 133.697C146.327 133.861 146.359 134.026 146.38 134.194L146.401 134.371C146.401 134.371 146.409 134.304 146.422 134.176C146.436 134.141 146.428 134.088 146.431 134.037L146.995 133.797C147.404 133.625 148.011 133.394 148.791 133.103C149.744 132.766 150.677 132.376 151.585 131.934C152.155 131.647 152.698 131.31 153.207 130.927L153.409 130.772L153.607 130.603L153.807 130.429C153.874 130.368 153.935 130.302 153.999 130.237C154.123 130.109 154.257 129.982 154.376 129.843C154.495 129.704 154.61 129.555 154.731 129.402C155.158 128.825 155.513 128.2 155.791 127.539C155.854 127.381 155.915 127.225 155.963 127.067C155.994 126.989 156.024 126.913 156.054 126.838L156.119 126.605C156.151 126.525 156.165 126.437 156.193 126.344C156.203 126.368 156.214 126.392 156.226 126.415C156.552 127.07 156.912 127.708 157.305 128.326C157.83 129.155 158.485 129.894 159.246 130.514C159.658 130.835 160.106 131.109 160.579 131.331C160.994 131.526 161.421 131.695 161.858 131.837C162.666 132.107 163.373 132.281 163.956 132.43C164.538 132.579 165.001 132.677 165.331 132.741L165.359 132.752C165.412 132.814 165.473 132.868 165.54 132.914C165.579 132.943 165.621 132.967 165.666 132.987L165.709 133.003L165.669 132.97C165.622 132.936 165.578 132.897 165.537 132.854Z" fill="#673826"/>
<path d="M157.717 116.709L158.056 116.553C158.175 116.495 158.302 116.432 158.442 116.38L158.876 116.203C158.952 116.174 159.027 116.137 159.108 116.111L159.357 116.026L159.88 115.846L160.451 115.685C162.206 115.208 164.033 115.044 165.846 115.201L166.437 115.257L166.987 115.341L167.246 115.379C167.332 115.39 167.413 115.413 167.492 115.427L167.952 115.525C168.091 115.551 168.229 115.584 168.365 115.624L168.729 115.721C168.959 115.774 169.145 115.848 169.301 115.897C169.611 115.997 169.781 116.047 169.781 116.047C169.781 116.047 169.626 115.936 169.336 115.74L169.092 115.577C169.002 115.518 168.896 115.467 168.787 115.404C168.539 115.262 168.282 115.135 168.019 115.022L167.55 114.837C167.386 114.772 167.21 114.723 167.036 114.663L166.758 114.576C166.663 114.544 166.566 114.519 166.468 114.499L165.854 114.364C163.987 114.01 162.059 114.185 160.289 114.869L159.712 115.112C159.619 115.149 159.528 115.192 159.44 115.24L159.186 115.375C159.018 115.468 158.857 115.535 158.707 115.642L158.286 115.917C158.048 116.074 157.819 116.246 157.602 116.432C157.503 116.512 157.412 116.58 157.333 116.654L157.123 116.861C156.871 117.108 156.741 117.245 156.741 117.245C156.741 117.245 156.901 117.166 157.187 117.009C157.333 116.907 157.502 116.802 157.717 116.709Z" fill="#673826"/>
<path d="M140.507 113.015C141.04 113.437 141.655 113.968 142.37 114.55C143.153 115.207 143.997 115.791 144.889 116.292C145.814 116.811 146.837 117.134 147.893 117.241C148.753 117.313 149.618 117.183 150.417 116.86C150.715 116.733 150.999 116.576 151.264 116.39C151.376 116.306 151.481 116.225 151.57 116.147C151.659 116.069 151.739 115.993 151.806 115.921C151.872 115.848 151.925 115.782 151.976 115.726C152.027 115.671 152.057 115.616 152.088 115.576L152.175 115.45L152.065 115.538C152.028 115.564 151.981 115.601 151.929 115.644L151.733 115.773C151.311 116.043 150.846 116.239 150.358 116.352C149.621 116.52 148.857 116.543 148.11 116.419C147.655 116.341 147.209 116.22 146.777 116.059C146.291 115.877 145.818 115.661 145.362 115.412C144.401 114.893 143.544 114.308 142.766 113.806C141.988 113.303 141.288 112.861 140.686 112.545C140.222 112.295 139.739 112.081 139.242 111.905C139.073 111.838 138.939 111.802 138.847 111.778L138.711 111.738L138.841 111.822C138.926 111.873 139.051 111.954 139.21 112.061C139.531 112.266 139.975 112.59 140.507 113.015Z" fill="#673826"/>
<path d="M149.112 130.777C149.392 130.56 149.698 130.315 150.032 130.042C150.365 129.773 150.716 129.475 151.086 129.136C151.486 128.774 151.861 128.385 152.208 127.972C152.4 127.745 152.578 127.505 152.739 127.255C152.82 127.124 152.907 126.993 152.986 126.858L153.208 126.437C153.475 125.889 153.685 125.314 153.833 124.723C153.961 124.194 154.045 123.656 154.084 123.113C154.146 122.242 154.107 121.366 153.966 120.503C153.879 119.954 153.757 119.41 153.6 118.876C153.485 118.511 153.418 118.319 153.418 118.319L153.462 118.946C153.477 119.351 153.501 119.933 153.483 120.649C153.465 121.483 153.383 122.315 153.238 123.136C153.066 124.128 152.757 125.09 152.318 125.996L152.135 126.348C152.075 126.464 152.001 126.571 151.936 126.682C151.809 126.902 151.668 127.114 151.516 127.318C151.215 127.725 150.895 128.101 150.579 128.456C149.948 129.169 149.338 129.797 148.859 130.34C147.89 131.411 147.325 132.117 147.325 132.117C147.325 132.117 147.992 131.654 149.112 130.777Z" fill="#673826"/>
<path d="M155.965 117.549C155.744 117.559 155.523 117.551 155.304 117.523C155.088 117.495 154.876 117.445 154.67 117.372C154.471 117.293 154.259 117.209 154.101 117.129C153.97 117.07 153.851 116.989 153.746 116.891C153.715 116.862 153.686 116.829 153.662 116.793L153.634 116.753L153.618 116.796C153.604 116.84 153.596 116.886 153.593 116.932C153.587 117.11 153.628 117.286 153.712 117.444C153.83 117.68 153.993 117.891 154.192 118.066C154.32 118.179 154.463 118.273 154.617 118.348C154.794 118.43 154.982 118.486 155.176 118.513C155.537 118.561 155.905 118.505 156.234 118.35C156.481 118.236 156.698 118.066 156.868 117.853C156.973 117.721 157.054 117.571 157.107 117.41C157.137 117.297 157.146 117.237 157.146 117.237L156.982 117.314C156.844 117.375 156.701 117.425 156.556 117.463C156.362 117.509 156.164 117.538 155.965 117.549Z" fill="#673826"/>
</g>
</g>
<defs>
<clipPath id="clip0_1235_49009">
<rect width="127.01" height="105.12" fill="white" transform="translate(64 42)"/>
</clipPath>
<clipPath id="clip1_1235_49009">
<rect width="34.1726" height="36.8423" fill="white" transform="translate(144.535 94) rotate(21.5572)"/>
</clipPath>
</defs>
</svg>
