<svg width="26" height="26" viewBox="0 0 26 26" fill="none" xmlns="http://www.w3.org/2000/svg">
<path d="M23.0577 9.1211L16.611 8.22022L13.7291 2.60255C13.6504 2.44874 13.5209 2.32423 13.361 2.24854C12.9598 2.05811 12.4723 2.21681 12.2717 2.60255L9.38988 8.22022L2.9432 9.1211C2.76547 9.14552 2.60297 9.22608 2.47855 9.34815C2.32814 9.4968 2.24526 9.69679 2.24812 9.90416C2.25097 10.1115 2.33934 10.3093 2.49379 10.4541L7.15805 14.8267L6.05609 21.001C6.03025 21.1446 6.04678 21.2923 6.10381 21.4274C6.16083 21.5624 6.25607 21.6794 6.37873 21.7651C6.50138 21.8507 6.64654 21.9016 6.79775 21.912C6.94896 21.9224 7.10016 21.8918 7.23422 21.8237L13.0004 18.9087L18.7666 21.8237C18.9241 21.9043 19.1069 21.9312 19.2821 21.9019C19.7239 21.8286 20.0209 21.4258 19.9448 21.001L18.8428 14.8267L23.5071 10.4541C23.634 10.3345 23.7178 10.1782 23.7432 10.0073C23.8118 9.58009 23.502 9.18458 23.0577 9.1211Z" fill="#FFD41A"/>
</svg>
